<svg width="653" height="78" viewBox="0 0 653 78" fill="none" xmlns="http://www.w3.org/2000/svg">
<path opacity="0.2" d="M20.1152 18.8789C19.7988 21.5859 18.7969 23.6777 17.1094 25.1543C15.4336 26.6191 13.2012 27.3516 10.4121 27.3516C7.38867 27.3516 4.96289 26.2676 3.13477 24.0996C1.31836 21.9316 0.410156 19.0312 0.410156 15.3984V12.9375C0.410156 10.5586 0.832031 8.4668 1.67578 6.66211C2.53125 4.85742 3.73828 3.47461 5.29688 2.51367C6.85547 1.54102 8.66016 1.05469 10.7109 1.05469C13.4297 1.05469 15.6094 1.81641 17.25 3.33984C18.8906 4.85156 19.8457 6.94922 20.1152 9.63281H16.7227C16.4297 7.59375 15.791 6.11719 14.8066 5.20312C13.834 4.28906 12.4688 3.83203 10.7109 3.83203C8.55469 3.83203 6.86133 4.62891 5.63086 6.22266C4.41211 7.81641 3.80273 10.084 3.80273 13.0254V15.5039C3.80273 18.2812 4.38281 20.4902 5.54297 22.1309C6.70312 23.7715 8.32617 24.5918 10.4121 24.5918C12.2871 24.5918 13.7227 24.1699 14.7188 23.3262C15.7266 22.4707 16.3945 20.9883 16.7227 18.8789H20.1152ZM27.7617 27H24.5098V0H27.7617V27ZM36.5156 27H33.2637V7.98047H36.5156V27ZM33 2.93555C33 2.4082 33.1582 1.96289 33.4746 1.59961C33.8027 1.23633 34.2832 1.05469 34.916 1.05469C35.5488 1.05469 36.0293 1.23633 36.3574 1.59961C36.6855 1.96289 36.8496 2.4082 36.8496 2.93555C36.8496 3.46289 36.6855 3.90234 36.3574 4.25391C36.0293 4.60547 35.5488 4.78125 34.916 4.78125C34.2832 4.78125 33.8027 4.60547 33.4746 4.25391C33.1582 3.90234 33 3.46289 33 2.93555ZM49.3652 24.6973C50.5254 24.6973 51.5391 24.3457 52.4062 23.6426C53.2734 22.9395 53.7539 22.0605 53.8477 21.0059H56.9238C56.8652 22.0957 56.4902 23.1328 55.7988 24.1172C55.1074 25.1016 54.1816 25.8867 53.0215 26.4727C51.873 27.0586 50.6543 27.3516 49.3652 27.3516C46.7754 27.3516 44.7129 26.4902 43.1777 24.7676C41.6543 23.0332 40.8926 20.666 40.8926 17.666V17.1211C40.8926 15.2695 41.2324 13.623 41.9121 12.1816C42.5918 10.7402 43.5645 9.62109 44.8301 8.82422C46.1074 8.02734 47.6133 7.62891 49.3477 7.62891C51.4805 7.62891 53.25 8.26758 54.6562 9.54492C56.0742 10.8223 56.8301 12.4805 56.9238 14.5195H53.8477C53.7539 13.2891 53.2852 12.2812 52.4414 11.4961C51.6094 10.6992 50.5781 10.3008 49.3477 10.3008C47.6953 10.3008 46.4121 10.8984 45.498 12.0938C44.5957 13.2773 44.1445 14.9941 44.1445 17.2441V17.8594C44.1445 20.0508 44.5957 21.7383 45.498 22.9219C46.4004 24.1055 47.6895 24.6973 49.3652 24.6973ZM65.8887 18.1934L63.8496 20.3203V27H60.5977V0H63.8496V16.3301L65.5898 14.2383L71.5137 7.98047H75.4688L68.0684 15.9258L76.3301 27H72.5156L65.8887 18.1934ZM92.168 3.375V7.98047H95.7188V10.4941H92.168V22.2891C92.168 23.0508 92.3262 23.625 92.6426 24.0117C92.959 24.3867 93.498 24.5742 94.2598 24.5742C94.6348 24.5742 95.1504 24.5039 95.8066 24.3633V27C94.9512 27.2344 94.1191 27.3516 93.3105 27.3516C91.8574 27.3516 90.7617 26.9121 90.0234 26.0332C89.2852 25.1543 88.916 23.9062 88.916 22.2891V10.4941H85.4531V7.98047H88.916V3.375H92.168ZM102.785 10.2832C104.227 8.51367 106.102 7.62891 108.41 7.62891C112.43 7.62891 114.457 9.89648 114.492 14.4316V27H111.24V14.4141C111.229 13.043 110.912 12.0293 110.291 11.373C109.682 10.7168 108.727 10.3887 107.426 10.3887C106.371 10.3887 105.445 10.6699 104.648 11.2324C103.852 11.7949 103.23 12.5332 102.785 13.4473V27H99.5332V0H102.785V10.2832ZM127.254 27.3516C124.676 27.3516 122.578 26.5078 120.961 24.8203C119.344 23.1211 118.535 20.8535 118.535 18.0176V17.4199C118.535 15.5332 118.893 13.8516 119.607 12.375C120.334 10.8867 121.342 9.72656 122.631 8.89453C123.932 8.05078 125.338 7.62891 126.85 7.62891C129.322 7.62891 131.244 8.44336 132.615 10.0723C133.986 11.7012 134.672 14.0332 134.672 17.0684V18.4219H121.787C121.834 20.2969 122.379 21.8145 123.422 22.9746C124.477 24.123 125.812 24.6973 127.43 24.6973C128.578 24.6973 129.551 24.4629 130.348 23.9941C131.145 23.5254 131.842 22.9043 132.439 22.1309L134.426 23.6777C132.832 26.127 130.441 27.3516 127.254 27.3516ZM126.85 10.3008C125.537 10.3008 124.436 10.7812 123.545 11.7422C122.654 12.6914 122.104 14.0273 121.893 15.75H131.42V15.5039C131.326 13.8516 130.881 12.5742 130.084 11.6719C129.287 10.7578 128.209 10.3008 126.85 10.3008ZM155.432 15.5918C152.537 14.7598 150.428 13.7402 149.104 12.5332C147.791 11.3145 147.135 9.81445 147.135 8.0332C147.135 6.01758 147.938 4.35352 149.543 3.04102C151.16 1.7168 153.258 1.05469 155.836 1.05469C157.594 1.05469 159.158 1.39453 160.529 2.07422C161.912 2.75391 162.979 3.69141 163.729 4.88672C164.49 6.08203 164.871 7.38867 164.871 8.80664H161.479C161.479 7.25977 160.986 6.04688 160.002 5.16797C159.018 4.27734 157.629 3.83203 155.836 3.83203C154.172 3.83203 152.871 4.20117 151.934 4.93945C151.008 5.66602 150.545 6.67969 150.545 7.98047C150.545 9.02344 150.984 9.9082 151.863 10.6348C152.754 11.3496 154.26 12.0059 156.381 12.6035C158.514 13.2012 160.178 13.8633 161.373 14.5898C162.58 15.3047 163.471 16.1426 164.045 17.1035C164.631 18.0645 164.924 19.1953 164.924 20.4961C164.924 22.5703 164.115 24.2344 162.498 25.4883C160.881 26.7305 158.719 27.3516 156.012 27.3516C154.254 27.3516 152.613 27.0176 151.09 26.3496C149.566 25.6699 148.389 24.7441 147.557 23.5723C146.736 22.4004 146.326 21.0703 146.326 19.582H149.719C149.719 21.1289 150.287 22.3535 151.424 23.2559C152.572 24.1465 154.102 24.5918 156.012 24.5918C157.793 24.5918 159.158 24.2285 160.107 23.502C161.057 22.7754 161.531 21.7852 161.531 20.5312C161.531 19.2773 161.092 18.3105 160.213 17.6309C159.334 16.9395 157.74 16.2598 155.432 15.5918ZM180.498 27C180.311 26.625 180.158 25.957 180.041 24.9961C178.529 26.5664 176.725 27.3516 174.627 27.3516C172.752 27.3516 171.211 26.8242 170.004 25.7695C168.809 24.7031 168.211 23.3555 168.211 21.7266C168.211 19.7461 168.961 18.2109 170.461 17.1211C171.973 16.0195 174.094 15.4688 176.824 15.4688H179.988V13.9746C179.988 12.8379 179.648 11.9355 178.969 11.2676C178.289 10.5879 177.287 10.248 175.963 10.248C174.803 10.248 173.83 10.541 173.045 11.127C172.26 11.7129 171.867 12.4219 171.867 13.2539H168.598C168.598 12.3047 168.932 11.3906 169.6 10.5117C170.279 9.62109 171.193 8.91797 172.342 8.40234C173.502 7.88672 174.773 7.62891 176.156 7.62891C178.348 7.62891 180.064 8.17969 181.307 9.28125C182.549 10.3711 183.193 11.877 183.24 13.7988V22.5527C183.24 24.2988 183.463 25.6875 183.908 26.7188V27H180.498ZM175.102 24.5215C176.121 24.5215 177.088 24.2578 178.002 23.7305C178.916 23.2031 179.578 22.5176 179.988 21.6738V17.7715H177.439C173.455 17.7715 171.463 18.9375 171.463 21.2695C171.463 22.2891 171.803 23.0859 172.482 23.6602C173.162 24.2344 174.035 24.5215 175.102 24.5215ZM194.332 22.5879L199.043 7.98047H202.365L195.545 27H193.066L186.176 7.98047H189.498L194.332 22.5879ZM213.141 27.3516C210.562 27.3516 208.465 26.5078 206.848 24.8203C205.23 23.1211 204.422 20.8535 204.422 18.0176V17.4199C204.422 15.5332 204.779 13.8516 205.494 12.375C206.221 10.8867 207.229 9.72656 208.518 8.89453C209.818 8.05078 211.225 7.62891 212.736 7.62891C215.209 7.62891 217.131 8.44336 218.502 10.0723C219.873 11.7012 220.559 14.0332 220.559 17.0684V18.4219H207.674C207.721 20.2969 208.266 21.8145 209.309 22.9746C210.363 24.123 211.699 24.6973 213.316 24.6973C214.465 24.6973 215.438 24.4629 216.234 23.9941C217.031 23.5254 217.729 22.9043 218.326 22.1309L220.312 23.6777C218.719 26.127 216.328 27.3516 213.141 27.3516ZM212.736 10.3008C211.424 10.3008 210.322 10.7812 209.432 11.7422C208.541 12.6914 207.99 14.0273 207.779 15.75H217.307V15.5039C217.213 13.8516 216.768 12.5742 215.971 11.6719C215.174 10.7578 214.096 10.3008 212.736 10.3008ZM249.369 17.7012C249.369 20.6074 248.701 22.9453 247.365 24.7148C246.029 26.4727 244.236 27.3516 241.986 27.3516C239.584 27.3516 237.727 26.502 236.414 24.8027L236.256 27H233.268V0H236.52V10.0723C237.832 8.44336 239.643 7.62891 241.951 7.62891C244.26 7.62891 246.07 8.50195 247.383 10.248C248.707 11.9941 249.369 14.3848 249.369 17.4199V17.7012ZM246.117 17.332C246.117 15.1172 245.689 13.4062 244.834 12.1992C243.979 10.9922 242.748 10.3887 241.143 10.3887C238.998 10.3887 237.457 11.3848 236.52 13.377V21.6035C237.516 23.5957 239.068 24.5918 241.178 24.5918C242.736 24.5918 243.949 23.9883 244.816 22.7812C245.684 21.5742 246.117 19.7578 246.117 17.332ZM265.225 25.1191C263.959 26.6074 262.102 27.3516 259.652 27.3516C257.625 27.3516 256.078 26.7656 255.012 25.5938C253.957 24.4102 253.424 22.6641 253.412 20.3555V7.98047H256.664V20.2676C256.664 23.1504 257.836 24.5918 260.18 24.5918C262.664 24.5918 264.316 23.666 265.137 21.8145V7.98047H268.389V27H265.295L265.225 25.1191ZM277.758 3.375V7.98047H281.309V10.4941H277.758V22.2891C277.758 23.0508 277.916 23.625 278.232 24.0117C278.549 24.3867 279.088 24.5742 279.85 24.5742C280.225 24.5742 280.74 24.5039 281.396 24.3633V27C280.541 27.2344 279.709 27.3516 278.9 27.3516C277.447 27.3516 276.352 26.9121 275.613 26.0332C274.875 25.1543 274.506 23.9062 274.506 22.2891V10.4941H271.043V7.98047H274.506V3.375H277.758ZM289.535 3.375V7.98047H293.086V10.4941H289.535V22.2891C289.535 23.0508 289.693 23.625 290.01 24.0117C290.326 24.3867 290.865 24.5742 291.627 24.5742C292.002 24.5742 292.518 24.5039 293.174 24.3633V27C292.318 27.2344 291.486 27.3516 290.678 27.3516C289.225 27.3516 288.129 26.9121 287.391 26.0332C286.652 25.1543 286.283 23.9062 286.283 22.2891V10.4941H282.82V7.98047H286.283V3.375H289.535ZM295.688 17.3145C295.688 15.4512 296.051 13.7754 296.777 12.2871C297.516 10.7988 298.535 9.65039 299.836 8.8418C301.148 8.0332 302.643 7.62891 304.318 7.62891C306.908 7.62891 309 8.52539 310.594 10.3184C312.199 12.1113 313.002 14.4961 313.002 17.4727V17.7012C313.002 19.5527 312.645 21.2168 311.93 22.6934C311.227 24.1582 310.213 25.3008 308.889 26.1211C307.576 26.9414 306.064 27.3516 304.354 27.3516C301.775 27.3516 299.684 26.4551 298.078 24.6621C296.484 22.8691 295.688 20.4961 295.688 17.543V17.3145ZM298.957 17.7012C298.957 19.8105 299.443 21.5039 300.416 22.7812C301.4 24.0586 302.713 24.6973 304.354 24.6973C306.006 24.6973 307.318 24.0527 308.291 22.7637C309.264 21.4629 309.75 19.6465 309.75 17.3145C309.75 15.2285 309.252 13.541 308.256 12.252C307.271 10.9512 305.959 10.3008 304.318 10.3008C302.713 10.3008 301.418 10.9395 300.434 12.2168C299.449 13.4941 298.957 15.3223 298.957 17.7012ZM320.156 7.98047L320.262 10.3711C321.715 8.54297 323.613 7.62891 325.957 7.62891C329.977 7.62891 332.004 9.89648 332.039 14.4316V27H328.787V14.4141C328.775 13.043 328.459 12.0293 327.838 11.373C327.229 10.7168 326.273 10.3887 324.973 10.3887C323.918 10.3887 322.992 10.6699 322.195 11.2324C321.398 11.7949 320.777 12.5332 320.332 13.4473V27H317.08V7.98047H320.156ZM350.285 3.375V7.98047H353.836V10.4941H350.285V22.2891C350.285 23.0508 350.443 23.625 350.76 24.0117C351.076 24.3867 351.615 24.5742 352.377 24.5742C352.752 24.5742 353.268 24.5039 353.924 24.3633V27C353.068 27.2344 352.236 27.3516 351.428 27.3516C349.975 27.3516 348.879 26.9121 348.141 26.0332C347.402 25.1543 347.033 23.9062 347.033 22.2891V10.4941H343.57V7.98047H347.033V3.375H350.285ZM356.438 17.3145C356.438 15.4512 356.801 13.7754 357.527 12.2871C358.266 10.7988 359.285 9.65039 360.586 8.8418C361.898 8.0332 363.393 7.62891 365.068 7.62891C367.658 7.62891 369.75 8.52539 371.344 10.3184C372.949 12.1113 373.752 14.4961 373.752 17.4727V17.7012C373.752 19.5527 373.395 21.2168 372.68 22.6934C371.977 24.1582 370.963 25.3008 369.639 26.1211C368.326 26.9414 366.814 27.3516 365.104 27.3516C362.525 27.3516 360.434 26.4551 358.828 24.6621C357.234 22.8691 356.438 20.4961 356.438 17.543V17.3145ZM359.707 17.7012C359.707 19.8105 360.193 21.5039 361.166 22.7812C362.15 24.0586 363.463 24.6973 365.104 24.6973C366.756 24.6973 368.068 24.0527 369.041 22.7637C370.014 21.4629 370.5 19.6465 370.5 17.3145C370.5 15.2285 370.002 13.541 369.006 12.252C368.021 10.9512 366.709 10.3008 365.068 10.3008C363.463 10.3008 362.168 10.9395 361.184 12.2168C360.199 13.4941 359.707 15.3223 359.707 17.7012ZM398.502 27C398.314 26.625 398.162 25.957 398.045 24.9961C396.533 26.5664 394.729 27.3516 392.631 27.3516C390.756 27.3516 389.215 26.8242 388.008 25.7695C386.812 24.7031 386.215 23.3555 386.215 21.7266C386.215 19.7461 386.965 18.2109 388.465 17.1211C389.977 16.0195 392.098 15.4688 394.828 15.4688H397.992V13.9746C397.992 12.8379 397.652 11.9355 396.973 11.2676C396.293 10.5879 395.291 10.248 393.967 10.248C392.807 10.248 391.834 10.541 391.049 11.127C390.264 11.7129 389.871 12.4219 389.871 13.2539H386.602C386.602 12.3047 386.936 11.3906 387.604 10.5117C388.283 9.62109 389.197 8.91797 390.346 8.40234C391.506 7.88672 392.777 7.62891 394.16 7.62891C396.352 7.62891 398.068 8.17969 399.311 9.28125C400.553 10.3711 401.197 11.877 401.244 13.7988V22.5527C401.244 24.2988 401.467 25.6875 401.912 26.7188V27H398.502ZM393.105 24.5215C394.125 24.5215 395.092 24.2578 396.006 23.7305C396.92 23.2031 397.582 22.5176 397.992 21.6738V17.7715H395.443C391.459 17.7715 389.467 18.9375 389.467 21.2695C389.467 22.2891 389.807 23.0859 390.486 23.6602C391.166 24.2344 392.039 24.5215 393.105 24.5215ZM405.551 17.332C405.551 14.4141 406.242 12.0703 407.625 10.3008C409.008 8.51953 410.818 7.62891 413.057 7.62891C415.283 7.62891 417.047 8.39062 418.348 9.91406V0H421.6V27H418.611L418.453 24.9609C417.152 26.5547 415.342 27.3516 413.021 27.3516C410.818 27.3516 409.02 26.4492 407.625 24.6445C406.242 22.8398 405.551 20.4844 405.551 17.5781V17.332ZM408.803 17.7012C408.803 19.8574 409.248 21.5449 410.139 22.7637C411.029 23.9824 412.26 24.5918 413.83 24.5918C415.893 24.5918 417.398 23.666 418.348 21.8145V13.0781C417.375 11.2852 415.881 10.3887 413.865 10.3887C412.271 10.3887 411.029 11.0039 410.139 12.2344C409.248 13.4648 408.803 15.2871 408.803 17.7012ZM425.871 17.332C425.871 14.4141 426.562 12.0703 427.945 10.3008C429.328 8.51953 431.139 7.62891 433.377 7.62891C435.604 7.62891 437.367 8.39062 438.668 9.91406V0H441.92V27H438.932L438.773 24.9609C437.473 26.5547 435.662 27.3516 433.342 27.3516C431.139 27.3516 429.34 26.4492 427.945 24.6445C426.562 22.8398 425.871 20.4844 425.871 17.5781V17.332ZM429.123 17.7012C429.123 19.8574 429.568 21.5449 430.459 22.7637C431.35 23.9824 432.58 24.5918 434.15 24.5918C436.213 24.5918 437.719 23.666 438.668 21.8145V13.0781C437.695 11.2852 436.201 10.3887 434.186 10.3887C432.592 10.3887 431.35 11.0039 430.459 12.2344C429.568 13.4648 429.123 15.2871 429.123 17.7012ZM460.324 3.375V7.98047H463.875V10.4941H460.324V22.2891C460.324 23.0508 460.482 23.625 460.799 24.0117C461.115 24.3867 461.654 24.5742 462.416 24.5742C462.791 24.5742 463.307 24.5039 463.963 24.3633V27C463.107 27.2344 462.275 27.3516 461.467 27.3516C460.014 27.3516 458.918 26.9121 458.18 26.0332C457.441 25.1543 457.072 23.9062 457.072 22.2891V10.4941H453.609V7.98047H457.072V3.375H460.324ZM470.941 10.2832C472.383 8.51367 474.258 7.62891 476.566 7.62891C480.586 7.62891 482.613 9.89648 482.648 14.4316V27H479.396V14.4141C479.385 13.043 479.068 12.0293 478.447 11.373C477.838 10.7168 476.883 10.3887 475.582 10.3887C474.527 10.3887 473.602 10.6699 472.805 11.2324C472.008 11.7949 471.387 12.5332 470.941 13.4473V27H467.689V0H470.941V10.2832ZM495.41 27.3516C492.832 27.3516 490.734 26.5078 489.117 24.8203C487.5 23.1211 486.691 20.8535 486.691 18.0176V17.4199C486.691 15.5332 487.049 13.8516 487.764 12.375C488.49 10.8867 489.498 9.72656 490.787 8.89453C492.088 8.05078 493.494 7.62891 495.006 7.62891C497.479 7.62891 499.4 8.44336 500.771 10.0723C502.143 11.7012 502.828 14.0332 502.828 17.0684V18.4219H489.943C489.99 20.2969 490.535 21.8145 491.578 22.9746C492.633 24.123 493.969 24.6973 495.586 24.6973C496.734 24.6973 497.707 24.4629 498.504 23.9941C499.301 23.5254 499.998 22.9043 500.596 22.1309L502.582 23.6777C500.988 26.127 498.598 27.3516 495.41 27.3516ZM495.006 10.3008C493.693 10.3008 492.592 10.7812 491.701 11.7422C490.811 12.6914 490.26 14.0273 490.049 15.75H499.576V15.5039C499.482 13.8516 499.037 12.5742 498.24 11.6719C497.443 10.7578 496.365 10.3008 495.006 10.3008ZM523.166 24.6973C524.326 24.6973 525.34 24.3457 526.207 23.6426C527.074 22.9395 527.555 22.0605 527.648 21.0059H530.725C530.666 22.0957 530.291 23.1328 529.6 24.1172C528.908 25.1016 527.982 25.8867 526.822 26.4727C525.674 27.0586 524.455 27.3516 523.166 27.3516C520.576 27.3516 518.514 26.4902 516.979 24.7676C515.455 23.0332 514.693 20.666 514.693 17.666V17.1211C514.693 15.2695 515.033 13.623 515.713 12.1816C516.393 10.7402 517.365 9.62109 518.631 8.82422C519.908 8.02734 521.414 7.62891 523.148 7.62891C525.281 7.62891 527.051 8.26758 528.457 9.54492C529.875 10.8223 530.631 12.4805 530.725 14.5195H527.648C527.555 13.2891 527.086 12.2812 526.242 11.4961C525.41 10.6992 524.379 10.3008 523.148 10.3008C521.496 10.3008 520.213 10.8984 519.299 12.0938C518.396 13.2773 517.945 14.9941 517.945 17.2441V17.8594C517.945 20.0508 518.396 21.7383 519.299 22.9219C520.201 24.1055 521.49 24.6973 523.166 24.6973ZM546.123 27C545.936 26.625 545.783 25.957 545.666 24.9961C544.154 26.5664 542.35 27.3516 540.252 27.3516C538.377 27.3516 536.836 26.8242 535.629 25.7695C534.434 24.7031 533.836 23.3555 533.836 21.7266C533.836 19.7461 534.586 18.2109 536.086 17.1211C537.598 16.0195 539.719 15.4688 542.449 15.4688H545.613V13.9746C545.613 12.8379 545.273 11.9355 544.594 11.2676C543.914 10.5879 542.912 10.248 541.588 10.248C540.428 10.248 539.455 10.541 538.67 11.127C537.885 11.7129 537.492 12.4219 537.492 13.2539H534.223C534.223 12.3047 534.557 11.3906 535.225 10.5117C535.904 9.62109 536.818 8.91797 537.967 8.40234C539.127 7.88672 540.398 7.62891 541.781 7.62891C543.973 7.62891 545.689 8.17969 546.932 9.28125C548.174 10.3711 548.818 11.877 548.865 13.7988V22.5527C548.865 24.2988 549.088 25.6875 549.533 26.7188V27H546.123ZM540.727 24.5215C541.746 24.5215 542.713 24.2578 543.627 23.7305C544.541 23.2031 545.203 22.5176 545.613 21.6738V17.7715H543.064C539.08 17.7715 537.088 18.9375 537.088 21.2695C537.088 22.2891 537.428 23.0859 538.107 23.6602C538.787 24.2344 539.66 24.5215 540.727 24.5215ZM558.375 3.375V7.98047H561.926V10.4941H558.375V22.2891C558.375 23.0508 558.533 23.625 558.85 24.0117C559.166 24.3867 559.705 24.5742 560.467 24.5742C560.842 24.5742 561.357 24.5039 562.014 24.3633V27C561.158 27.2344 560.326 27.3516 559.518 27.3516C558.064 27.3516 556.969 26.9121 556.23 26.0332C555.492 25.1543 555.123 23.9062 555.123 22.2891V10.4941H551.66V7.98047H555.123V3.375H558.375ZM573.633 27.3516C571.055 27.3516 568.957 26.5078 567.34 24.8203C565.723 23.1211 564.914 20.8535 564.914 18.0176V17.4199C564.914 15.5332 565.271 13.8516 565.986 12.375C566.713 10.8867 567.721 9.72656 569.01 8.89453C570.311 8.05078 571.717 7.62891 573.229 7.62891C575.701 7.62891 577.623 8.44336 578.994 10.0723C580.365 11.7012 581.051 14.0332 581.051 17.0684V18.4219H568.166C568.213 20.2969 568.758 21.8145 569.801 22.9746C570.855 24.123 572.191 24.6973 573.809 24.6973C574.957 24.6973 575.93 24.4629 576.727 23.9941C577.523 23.5254 578.221 22.9043 578.818 22.1309L580.805 23.6777C579.211 26.127 576.82 27.3516 573.633 27.3516ZM573.229 10.3008C571.916 10.3008 570.814 10.7812 569.924 11.7422C569.033 12.6914 568.482 14.0273 568.271 15.75H577.799V15.5039C577.705 13.8516 577.26 12.5742 576.463 11.6719C575.666 10.7578 574.588 10.3008 573.229 10.3008ZM584.057 17.332C584.057 14.3672 584.742 12.0117 586.113 10.2656C587.484 8.50781 589.301 7.62891 591.562 7.62891C593.883 7.62891 595.693 8.44922 596.994 10.0898L597.152 7.98047H600.123V26.543C600.123 29.0039 599.391 30.9434 597.926 32.3613C596.473 33.7793 594.516 34.4883 592.055 34.4883C590.684 34.4883 589.342 34.1953 588.029 33.6094C586.717 33.0234 585.715 32.2207 585.023 31.2012L586.711 29.25C588.105 30.9727 589.811 31.834 591.826 31.834C593.408 31.834 594.639 31.3887 595.518 30.498C596.408 29.6074 596.854 28.3535 596.854 26.7363V25.1016C595.553 26.6016 593.777 27.3516 591.527 27.3516C589.301 27.3516 587.496 26.4551 586.113 24.6621C584.742 22.8691 584.057 20.4258 584.057 17.332ZM587.326 17.7012C587.326 19.8457 587.766 21.5332 588.645 22.7637C589.523 23.9824 590.754 24.5918 592.336 24.5918C594.387 24.5918 595.893 23.6602 596.854 21.7969V13.1133C595.857 11.2969 594.363 10.3887 592.371 10.3887C590.789 10.3887 589.553 11.0039 588.662 12.2344C587.771 13.4648 587.326 15.2871 587.326 17.7012ZM604.184 17.3145C604.184 15.4512 604.547 13.7754 605.273 12.2871C606.012 10.7988 607.031 9.65039 608.332 8.8418C609.645 8.0332 611.139 7.62891 612.814 7.62891C615.404 7.62891 617.496 8.52539 619.09 10.3184C620.695 12.1113 621.498 14.4961 621.498 17.4727V17.7012C621.498 19.5527 621.141 21.2168 620.426 22.6934C619.723 24.1582 618.709 25.3008 617.385 26.1211C616.072 26.9414 614.561 27.3516 612.85 27.3516C610.271 27.3516 608.18 26.4551 606.574 24.6621C604.98 22.8691 604.184 20.4961 604.184 17.543V17.3145ZM607.453 17.7012C607.453 19.8105 607.939 21.5039 608.912 22.7812C609.896 24.0586 611.209 24.6973 612.85 24.6973C614.502 24.6973 615.814 24.0527 616.787 22.7637C617.76 21.4629 618.246 19.6465 618.246 17.3145C618.246 15.2285 617.748 13.541 616.752 12.252C615.768 10.9512 614.455 10.3008 612.814 10.3008C611.209 10.3008 609.914 10.9395 608.93 12.2168C607.945 13.4941 607.453 15.3223 607.453 17.7012ZM634.77 10.8984C634.277 10.8164 633.744 10.7754 633.17 10.7754C631.037 10.7754 629.59 11.6836 628.828 13.5V27H625.576V7.98047H628.74L628.793 10.1777C629.859 8.47852 631.371 7.62891 633.328 7.62891C633.961 7.62891 634.441 7.71094 634.77 7.875V10.8984ZM644.314 22.2363L648.744 7.98047H652.225L644.578 29.9355C643.395 33.0996 641.514 34.6816 638.936 34.6816L638.32 34.6289L637.107 34.4004V31.7637L637.986 31.834C639.088 31.834 639.943 31.6113 640.553 31.166C641.174 30.7207 641.684 29.9062 642.082 28.7227L642.803 26.7891L636.018 7.98047H639.568L644.314 22.2363ZM86.2266 70C86.0391 69.625 85.8867 68.957 85.7695 67.9961C84.2578 69.5664 82.4531 70.3516 80.3555 70.3516C78.4805 70.3516 76.9395 69.8242 75.7324 68.7695C74.5371 67.7031 73.9395 66.3555 73.9395 64.7266C73.9395 62.7461 74.6895 61.2109 76.1895 60.1211C77.7012 59.0195 79.8223 58.4688 82.5527 58.4688H85.7168V56.9746C85.7168 55.8379 85.377 54.9355 84.6973 54.2676C84.0176 53.5879 83.0156 53.248 81.6914 53.248C80.5312 53.248 79.5586 53.541 78.7734 54.127C77.9883 54.7129 77.5957 55.4219 77.5957 56.2539H74.3262C74.3262 55.3047 74.6602 54.3906 75.3281 53.5117C76.0078 52.6211 76.9219 51.918 78.0703 51.4023C79.2305 50.8867 80.502 50.6289 81.8848 50.6289C84.0762 50.6289 85.793 51.1797 87.0352 52.2812C88.2773 53.3711 88.9219 54.877 88.9688 56.7988V65.5527C88.9688 67.2988 89.1914 68.6875 89.6367 69.7188V70H86.2266ZM80.8301 67.5215C81.8496 67.5215 82.8164 67.2578 83.7305 66.7305C84.6445 66.2031 85.3066 65.5176 85.7168 64.6738V60.7715H83.168C79.1836 60.7715 77.1914 61.9375 77.1914 64.2695C77.1914 65.2891 77.5312 66.0859 78.2109 66.6602C78.8906 67.2344 79.7637 67.5215 80.8301 67.5215ZM97.1426 50.9805L97.248 53.3711C98.7012 51.543 100.6 50.6289 102.943 50.6289C106.963 50.6289 108.99 52.8965 109.025 57.4316V70H105.773V57.4141C105.762 56.043 105.445 55.0293 104.824 54.373C104.215 53.7168 103.26 53.3887 101.959 53.3887C100.904 53.3887 99.9785 53.6699 99.1816 54.2324C98.3848 54.7949 97.7637 55.5332 97.3184 56.4473V70H94.0664V50.9805H97.1426ZM113.139 60.332C113.139 57.4141 113.83 55.0703 115.213 53.3008C116.596 51.5195 118.406 50.6289 120.645 50.6289C122.871 50.6289 124.635 51.3906 125.936 52.9141V43H129.188V70H126.199L126.041 67.9609C124.74 69.5547 122.93 70.3516 120.609 70.3516C118.406 70.3516 116.607 69.4492 115.213 67.6445C113.83 65.8398 113.139 63.4844 113.139 60.5781V60.332ZM116.391 60.7012C116.391 62.8574 116.836 64.5449 117.727 65.7637C118.617 66.9824 119.848 67.5918 121.418 67.5918C123.48 67.5918 124.986 66.666 125.936 64.8145V56.0781C124.963 54.2852 123.469 53.3887 121.453 53.3887C119.859 53.3887 118.617 54.0039 117.727 55.2344C116.836 56.4648 116.391 58.2871 116.391 60.7012ZM152.373 53.8984C151.881 53.8164 151.348 53.7754 150.773 53.7754C148.641 53.7754 147.193 54.6836 146.432 56.5V70H143.18V50.9805H146.344L146.396 53.1777C147.463 51.4785 148.975 50.6289 150.932 50.6289C151.564 50.6289 152.045 50.7109 152.373 50.875V53.8984ZM162.92 70.3516C160.342 70.3516 158.244 69.5078 156.627 67.8203C155.01 66.1211 154.201 63.8535 154.201 61.0176V60.4199C154.201 58.5332 154.559 56.8516 155.273 55.375C156 53.8867 157.008 52.7266 158.297 51.8945C159.598 51.0508 161.004 50.6289 162.516 50.6289C164.988 50.6289 166.91 51.4434 168.281 53.0723C169.652 54.7012 170.338 57.0332 170.338 60.0684V61.4219H157.453C157.5 63.2969 158.045 64.8145 159.088 65.9746C160.143 67.123 161.479 67.6973 163.096 67.6973C164.244 67.6973 165.217 67.4629 166.014 66.9941C166.811 66.5254 167.508 65.9043 168.105 65.1309L170.092 66.6777C168.498 69.127 166.107 70.3516 162.92 70.3516ZM162.516 53.3008C161.203 53.3008 160.102 53.7812 159.211 54.7422C158.32 55.6914 157.77 57.0273 157.559 58.75H167.086V58.5039C166.992 56.8516 166.547 55.5742 165.75 54.6719C164.953 53.7578 163.875 53.3008 162.516 53.3008ZM178.529 46.375V50.9805H182.08V53.4941H178.529V65.2891C178.529 66.0508 178.688 66.625 179.004 67.0117C179.32 67.3867 179.859 67.5742 180.621 67.5742C180.996 67.5742 181.512 67.5039 182.168 67.3633V70C181.312 70.2344 180.48 70.3516 179.672 70.3516C178.219 70.3516 177.123 69.9121 176.385 69.0332C175.646 68.1543 175.277 66.9062 175.277 65.2891V53.4941H171.814V50.9805H175.277V46.375H178.529ZM197.637 68.1191C196.371 69.6074 194.514 70.3516 192.064 70.3516C190.037 70.3516 188.49 69.7656 187.424 68.5938C186.369 67.4102 185.836 65.6641 185.824 63.3555V50.9805H189.076V63.2676C189.076 66.1504 190.248 67.5918 192.592 67.5918C195.076 67.5918 196.729 66.666 197.549 64.8145V50.9805H200.801V70H197.707L197.637 68.1191ZM214.951 53.8984C214.459 53.8164 213.926 53.7754 213.352 53.7754C211.219 53.7754 209.771 54.6836 209.01 56.5V70H205.758V50.9805H208.922L208.975 53.1777C210.041 51.4785 211.553 50.6289 213.51 50.6289C214.143 50.6289 214.623 50.7109 214.951 50.875V53.8984ZM221.033 50.9805L221.139 53.3711C222.592 51.543 224.49 50.6289 226.834 50.6289C230.854 50.6289 232.881 52.8965 232.916 57.4316V70H229.664V57.4141C229.652 56.043 229.336 55.0293 228.715 54.373C228.105 53.7168 227.15 53.3887 225.85 53.3887C224.795 53.3887 223.869 53.6699 223.072 54.2324C222.275 54.7949 221.654 55.5332 221.209 56.4473V70H217.957V50.9805H221.033ZM251.162 46.375V50.9805H254.713V53.4941H251.162V65.2891C251.162 66.0508 251.32 66.625 251.637 67.0117C251.953 67.3867 252.492 67.5742 253.254 67.5742C253.629 67.5742 254.145 67.5039 254.801 67.3633V70C253.945 70.2344 253.113 70.3516 252.305 70.3516C250.852 70.3516 249.756 69.9121 249.018 69.0332C248.279 68.1543 247.91 66.9062 247.91 65.2891V53.4941H244.447V50.9805H247.91V46.375H251.162ZM257.314 60.3145C257.314 58.4512 257.678 56.7754 258.404 55.2871C259.143 53.7988 260.162 52.6504 261.463 51.8418C262.775 51.0332 264.27 50.6289 265.945 50.6289C268.535 50.6289 270.627 51.5254 272.221 53.3184C273.826 55.1113 274.629 57.4961 274.629 60.4727V60.7012C274.629 62.5527 274.271 64.2168 273.557 65.6934C272.854 67.1582 271.84 68.3008 270.516 69.1211C269.203 69.9414 267.691 70.3516 265.98 70.3516C263.402 70.3516 261.311 69.4551 259.705 67.6621C258.111 65.8691 257.314 63.4961 257.314 60.543V60.3145ZM260.584 60.7012C260.584 62.8105 261.07 64.5039 262.043 65.7812C263.027 67.0586 264.34 67.6973 265.98 67.6973C267.633 67.6973 268.945 67.0527 269.918 65.7637C270.891 64.4629 271.377 62.6465 271.377 60.3145C271.377 58.2285 270.879 56.541 269.883 55.252C268.898 53.9512 267.586 53.3008 265.945 53.3008C264.34 53.3008 263.045 53.9395 262.061 55.2168C261.076 56.4941 260.584 58.3223 260.584 60.7012ZM295.266 67.6973C296.426 67.6973 297.439 67.3457 298.307 66.6426C299.174 65.9395 299.654 65.0605 299.748 64.0059H302.824C302.766 65.0957 302.391 66.1328 301.699 67.1172C301.008 68.1016 300.082 68.8867 298.922 69.4727C297.773 70.0586 296.555 70.3516 295.266 70.3516C292.676 70.3516 290.613 69.4902 289.078 67.7676C287.555 66.0332 286.793 63.666 286.793 60.666V60.1211C286.793 58.2695 287.133 56.623 287.812 55.1816C288.492 53.7402 289.465 52.6211 290.73 51.8242C292.008 51.0273 293.514 50.6289 295.248 50.6289C297.381 50.6289 299.15 51.2676 300.557 52.5449C301.975 53.8223 302.73 55.4805 302.824 57.5195H299.748C299.654 56.2891 299.186 55.2812 298.342 54.4961C297.51 53.6992 296.479 53.3008 295.248 53.3008C293.596 53.3008 292.312 53.8984 291.398 55.0938C290.496 56.2773 290.045 57.9941 290.045 60.2441V60.8594C290.045 63.0508 290.496 64.7383 291.398 65.9219C292.301 67.1055 293.59 67.6973 295.266 67.6973ZM318.223 70C318.035 69.625 317.883 68.957 317.766 67.9961C316.254 69.5664 314.449 70.3516 312.352 70.3516C310.477 70.3516 308.936 69.8242 307.729 68.7695C306.533 67.7031 305.936 66.3555 305.936 64.7266C305.936 62.7461 306.686 61.2109 308.186 60.1211C309.697 59.0195 311.818 58.4688 314.549 58.4688H317.713V56.9746C317.713 55.8379 317.373 54.9355 316.693 54.2676C316.014 53.5879 315.012 53.248 313.688 53.248C312.527 53.248 311.555 53.541 310.77 54.127C309.984 54.7129 309.592 55.4219 309.592 56.2539H306.322C306.322 55.3047 306.656 54.3906 307.324 53.5117C308.004 52.6211 308.918 51.918 310.066 51.4023C311.227 50.8867 312.498 50.6289 313.881 50.6289C316.072 50.6289 317.789 51.1797 319.031 52.2812C320.273 53.3711 320.918 54.877 320.965 56.7988V65.5527C320.965 67.2988 321.188 68.6875 321.633 69.7188V70H318.223ZM312.826 67.5215C313.846 67.5215 314.812 67.2578 315.727 66.7305C316.641 66.2031 317.303 65.5176 317.713 64.6738V60.7715H315.164C311.18 60.7715 309.188 61.9375 309.188 64.2695C309.188 65.2891 309.527 66.0859 310.207 66.6602C310.887 67.2344 311.76 67.5215 312.826 67.5215ZM330.475 46.375V50.9805H334.025V53.4941H330.475V65.2891C330.475 66.0508 330.633 66.625 330.949 67.0117C331.266 67.3867 331.805 67.5742 332.566 67.5742C332.941 67.5742 333.457 67.5039 334.113 67.3633V70C333.258 70.2344 332.426 70.3516 331.617 70.3516C330.164 70.3516 329.068 69.9121 328.33 69.0332C327.592 68.1543 327.223 66.9062 327.223 65.2891V53.4941H323.76V50.9805H327.223V46.375H330.475ZM345.732 70.3516C343.154 70.3516 341.057 69.5078 339.439 67.8203C337.822 66.1211 337.014 63.8535 337.014 61.0176V60.4199C337.014 58.5332 337.371 56.8516 338.086 55.375C338.812 53.8867 339.82 52.7266 341.109 51.8945C342.41 51.0508 343.816 50.6289 345.328 50.6289C347.801 50.6289 349.723 51.4434 351.094 53.0723C352.465 54.7012 353.15 57.0332 353.15 60.0684V61.4219H340.266C340.312 63.2969 340.857 64.8145 341.9 65.9746C342.955 67.123 344.291 67.6973 345.908 67.6973C347.057 67.6973 348.029 67.4629 348.826 66.9941C349.623 66.5254 350.32 65.9043 350.918 65.1309L352.904 66.6777C351.311 69.127 348.92 70.3516 345.732 70.3516ZM345.328 53.3008C344.016 53.3008 342.914 53.7812 342.023 54.7422C341.133 55.6914 340.582 57.0273 340.371 58.75H349.898V58.5039C349.805 56.8516 349.359 55.5742 348.562 54.6719C347.766 53.7578 346.688 53.3008 345.328 53.3008ZM356.156 60.332C356.156 57.3672 356.842 55.0117 358.213 53.2656C359.584 51.5078 361.4 50.6289 363.662 50.6289C365.982 50.6289 367.793 51.4492 369.094 53.0898L369.252 50.9805H372.223V69.543C372.223 72.0039 371.49 73.9434 370.025 75.3613C368.572 76.7793 366.615 77.4883 364.154 77.4883C362.783 77.4883 361.441 77.1953 360.129 76.6094C358.816 76.0234 357.814 75.2207 357.123 74.2012L358.811 72.25C360.205 73.9727 361.91 74.834 363.926 74.834C365.508 74.834 366.738 74.3887 367.617 73.498C368.508 72.6074 368.953 71.3535 368.953 69.7363V68.1016C367.652 69.6016 365.877 70.3516 363.627 70.3516C361.4 70.3516 359.596 69.4551 358.213 67.6621C356.842 65.8691 356.156 63.4258 356.156 60.332ZM359.426 60.7012C359.426 62.8457 359.865 64.5332 360.744 65.7637C361.623 66.9824 362.854 67.5918 364.436 67.5918C366.486 67.5918 367.992 66.6602 368.953 64.7969V56.1133C367.957 54.2969 366.463 53.3887 364.471 53.3887C362.889 53.3887 361.652 54.0039 360.762 55.2344C359.871 56.4648 359.426 58.2871 359.426 60.7012ZM376.283 60.3145C376.283 58.4512 376.646 56.7754 377.373 55.2871C378.111 53.7988 379.131 52.6504 380.432 51.8418C381.744 51.0332 383.238 50.6289 384.914 50.6289C387.504 50.6289 389.596 51.5254 391.189 53.3184C392.795 55.1113 393.598 57.4961 393.598 60.4727V60.7012C393.598 62.5527 393.24 64.2168 392.525 65.6934C391.822 67.1582 390.809 68.3008 389.484 69.1211C388.172 69.9414 386.66 70.3516 384.949 70.3516C382.371 70.3516 380.279 69.4551 378.674 67.6621C377.08 65.8691 376.283 63.4961 376.283 60.543V60.3145ZM379.553 60.7012C379.553 62.8105 380.039 64.5039 381.012 65.7812C381.996 67.0586 383.309 67.6973 384.949 67.6973C386.602 67.6973 387.914 67.0527 388.887 65.7637C389.859 64.4629 390.346 62.6465 390.346 60.3145C390.346 58.2285 389.848 56.541 388.852 55.252C387.867 53.9512 386.555 53.3008 384.914 53.3008C383.309 53.3008 382.014 53.9395 381.029 55.2168C380.045 56.4941 379.553 58.3223 379.553 60.7012ZM406.869 53.8984C406.377 53.8164 405.844 53.7754 405.27 53.7754C403.137 53.7754 401.689 54.6836 400.928 56.5V70H397.676V50.9805H400.84L400.893 53.1777C401.959 51.4785 403.471 50.6289 405.428 50.6289C406.061 50.6289 406.541 50.7109 406.869 50.875V53.8984ZM416.414 65.2363L420.844 50.9805H424.324L416.678 72.9355C415.494 76.0996 413.613 77.6816 411.035 77.6816L410.42 77.6289L409.207 77.4004V74.7637L410.086 74.834C411.188 74.834 412.043 74.6113 412.652 74.166C413.273 73.7207 413.783 72.9062 414.182 71.7227L414.902 69.7891L408.117 50.9805H411.668L416.414 65.2363ZM447.246 64.9551C447.246 64.0762 446.912 63.3965 446.244 62.916C445.588 62.4238 444.434 62.002 442.781 61.6504C441.141 61.2988 439.834 60.877 438.861 60.3848C437.9 59.8926 437.186 59.3066 436.717 58.627C436.26 57.9473 436.031 57.1387 436.031 56.2012C436.031 54.6426 436.688 53.3242 438 52.2461C439.324 51.168 441.012 50.6289 443.062 50.6289C445.219 50.6289 446.965 51.1855 448.301 52.2988C449.648 53.4121 450.322 54.8359 450.322 56.5703H447.053C447.053 55.6797 446.672 54.9121 445.91 54.2676C445.16 53.623 444.211 53.3008 443.062 53.3008C441.879 53.3008 440.953 53.5586 440.285 54.0742C439.617 54.5898 439.283 55.2637 439.283 56.0957C439.283 56.8809 439.594 57.4727 440.215 57.8711C440.836 58.2695 441.955 58.6504 443.572 59.0137C445.201 59.377 446.52 59.8105 447.527 60.3145C448.535 60.8184 449.279 61.4277 449.76 62.1426C450.252 62.8457 450.498 63.707 450.498 64.7266C450.498 66.4258 449.818 67.791 448.459 68.8223C447.1 69.8418 445.336 70.3516 443.168 70.3516C441.645 70.3516 440.297 70.082 439.125 69.543C437.953 69.0039 437.033 68.2539 436.365 67.293C435.709 66.3203 435.381 65.2715 435.381 64.1465H438.633C438.691 65.2363 439.125 66.1035 439.934 66.748C440.754 67.3809 441.832 67.6973 443.168 67.6973C444.398 67.6973 445.383 67.4512 446.121 66.959C446.871 66.4551 447.246 65.7871 447.246 64.9551ZM462.627 70.3516C460.049 70.3516 457.951 69.5078 456.334 67.8203C454.717 66.1211 453.908 63.8535 453.908 61.0176V60.4199C453.908 58.5332 454.266 56.8516 454.98 55.375C455.707 53.8867 456.715 52.7266 458.004 51.8945C459.305 51.0508 460.711 50.6289 462.223 50.6289C464.695 50.6289 466.617 51.4434 467.988 53.0723C469.359 54.7012 470.045 57.0332 470.045 60.0684V61.4219H457.16C457.207 63.2969 457.752 64.8145 458.795 65.9746C459.85 67.123 461.186 67.6973 462.803 67.6973C463.951 67.6973 464.924 67.4629 465.721 66.9941C466.518 66.5254 467.215 65.9043 467.812 65.1309L469.799 66.6777C468.205 69.127 465.814 70.3516 462.627 70.3516ZM462.223 53.3008C460.91 53.3008 459.809 53.7812 458.918 54.7422C458.027 55.6914 457.477 57.0273 457.266 58.75H466.793V58.5039C466.699 56.8516 466.254 55.5742 465.457 54.6719C464.66 53.7578 463.582 53.3008 462.223 53.3008ZM477.357 70H474.105V43H477.357V70ZM490.471 70.3516C487.893 70.3516 485.795 69.5078 484.178 67.8203C482.561 66.1211 481.752 63.8535 481.752 61.0176V60.4199C481.752 58.5332 482.109 56.8516 482.824 55.375C483.551 53.8867 484.559 52.7266 485.848 51.8945C487.148 51.0508 488.555 50.6289 490.066 50.6289C492.539 50.6289 494.461 51.4434 495.832 53.0723C497.203 54.7012 497.889 57.0332 497.889 60.0684V61.4219H485.004C485.051 63.2969 485.596 64.8145 486.639 65.9746C487.693 67.123 489.029 67.6973 490.646 67.6973C491.795 67.6973 492.768 67.4629 493.564 66.9941C494.361 66.5254 495.059 65.9043 495.656 65.1309L497.643 66.6777C496.049 69.127 493.658 70.3516 490.471 70.3516ZM490.066 53.3008C488.754 53.3008 487.652 53.7812 486.762 54.7422C485.871 55.6914 485.32 57.0273 485.109 58.75H494.637V58.5039C494.543 56.8516 494.098 55.5742 493.301 54.6719C492.504 53.7578 491.426 53.3008 490.066 53.3008ZM509.297 67.6973C510.457 67.6973 511.471 67.3457 512.338 66.6426C513.205 65.9395 513.686 65.0605 513.779 64.0059H516.855C516.797 65.0957 516.422 66.1328 515.73 67.1172C515.039 68.1016 514.113 68.8867 512.953 69.4727C511.805 70.0586 510.586 70.3516 509.297 70.3516C506.707 70.3516 504.645 69.4902 503.109 67.7676C501.586 66.0332 500.824 63.666 500.824 60.666V60.1211C500.824 58.2695 501.164 56.623 501.844 55.1816C502.523 53.7402 503.496 52.6211 504.762 51.8242C506.039 51.0273 507.545 50.6289 509.279 50.6289C511.412 50.6289 513.182 51.2676 514.588 52.5449C516.006 53.8223 516.762 55.4805 516.855 57.5195H513.779C513.686 56.2891 513.217 55.2812 512.373 54.4961C511.541 53.6992 510.51 53.3008 509.279 53.3008C507.627 53.3008 506.344 53.8984 505.43 55.0938C504.527 56.2773 504.076 57.9941 504.076 60.2441V60.8594C504.076 63.0508 504.527 64.7383 505.43 65.9219C506.332 67.1055 507.621 67.6973 509.297 67.6973ZM524.924 46.375V50.9805H528.475V53.4941H524.924V65.2891C524.924 66.0508 525.082 66.625 525.398 67.0117C525.715 67.3867 526.254 67.5742 527.016 67.5742C527.391 67.5742 527.906 67.5039 528.562 67.3633V70C527.707 70.2344 526.875 70.3516 526.066 70.3516C524.613 70.3516 523.518 69.9121 522.779 69.0332C522.041 68.1543 521.672 66.9062 521.672 65.2891V53.4941H518.209V50.9805H521.672V46.375H524.924ZM535.822 70H532.57V50.9805H535.822V70ZM532.307 45.9355C532.307 45.4082 532.465 44.9629 532.781 44.5996C533.109 44.2363 533.59 44.0547 534.223 44.0547C534.855 44.0547 535.336 44.2363 535.664 44.5996C535.992 44.9629 536.156 45.4082 536.156 45.9355C536.156 46.4629 535.992 46.9023 535.664 47.2539C535.336 47.6055 534.855 47.7812 534.223 47.7812C533.59 47.7812 533.109 47.6055 532.781 47.2539C532.465 46.9023 532.307 46.4629 532.307 45.9355ZM540.182 60.3145C540.182 58.4512 540.545 56.7754 541.271 55.2871C542.01 53.7988 543.029 52.6504 544.33 51.8418C545.643 51.0332 547.137 50.6289 548.812 50.6289C551.402 50.6289 553.494 51.5254 555.088 53.3184C556.693 55.1113 557.496 57.4961 557.496 60.4727V60.7012C557.496 62.5527 557.139 64.2168 556.424 65.6934C555.721 67.1582 554.707 68.3008 553.383 69.1211C552.07 69.9414 550.559 70.3516 548.848 70.3516C546.27 70.3516 544.178 69.4551 542.572 67.6621C540.979 65.8691 540.182 63.4961 540.182 60.543V60.3145ZM543.451 60.7012C543.451 62.8105 543.938 64.5039 544.91 65.7812C545.895 67.0586 547.207 67.6973 548.848 67.6973C550.5 67.6973 551.812 67.0527 552.785 65.7637C553.758 64.4629 554.244 62.6465 554.244 60.3145C554.244 58.2285 553.746 56.541 552.75 55.252C551.766 53.9512 550.453 53.3008 548.812 53.3008C547.207 53.3008 545.912 53.9395 544.928 55.2168C543.943 56.4941 543.451 58.3223 543.451 60.7012ZM564.65 50.9805L564.756 53.3711C566.209 51.543 568.107 50.6289 570.451 50.6289C574.471 50.6289 576.498 52.8965 576.533 57.4316V70H573.281V57.4141C573.27 56.043 572.953 55.0293 572.332 54.373C571.723 53.7168 570.768 53.3887 569.467 53.3887C568.412 53.3887 567.486 53.6699 566.689 54.2324C565.893 54.7949 565.271 55.5332 564.826 56.4473V70H561.574V50.9805H564.65Z" fill="black"/>
</svg>
