<svg width="605" height="78" viewBox="0 0 605 78" fill="none" xmlns="http://www.w3.org/2000/svg">
<path opacity="0.2" d="M20.082 18.8789C19.7656 21.5859 18.7637 23.6777 17.0762 25.1543C15.4004 26.6191 13.168 27.3516 10.3789 27.3516C7.35547 27.3516 4.92969 26.2676 3.10156 24.0996C1.28516 21.9316 0.376953 19.0312 0.376953 15.3984V12.9375C0.376953 10.5586 0.798828 8.4668 1.64258 6.66211C2.49805 4.85742 3.70508 3.47461 5.26367 2.51367C6.82227 1.54102 8.62695 1.05469 10.6777 1.05469C13.3965 1.05469 15.5762 1.81641 17.2168 3.33984C18.8574 4.85156 19.8125 6.94922 20.082 9.63281H16.6895C16.3965 7.59375 15.7578 6.11719 14.7734 5.20312C13.8008 4.28906 12.4355 3.83203 10.6777 3.83203C8.52148 3.83203 6.82812 4.62891 5.59766 6.22266C4.37891 7.81641 3.76953 10.084 3.76953 13.0254V15.5039C3.76953 18.2812 4.34961 20.4902 5.50977 22.1309C6.66992 23.7715 8.29297 24.5918 10.3789 24.5918C12.2539 24.5918 13.6895 24.1699 14.6855 23.3262C15.6934 22.4707 16.3613 20.9883 16.6895 18.8789H20.082ZM27.7285 27H24.4766V0H27.7285V27ZM36.4824 27H33.2305V7.98047H36.4824V27ZM32.9668 2.93555C32.9668 2.4082 33.125 1.96289 33.4414 1.59961C33.7695 1.23633 34.25 1.05469 34.8828 1.05469C35.5156 1.05469 35.9961 1.23633 36.3242 1.59961C36.6523 1.96289 36.8164 2.4082 36.8164 2.93555C36.8164 3.46289 36.6523 3.90234 36.3242 4.25391C35.9961 4.60547 35.5156 4.78125 34.8828 4.78125C34.25 4.78125 33.7695 4.60547 33.4414 4.25391C33.125 3.90234 32.9668 3.46289 32.9668 2.93555ZM49.332 24.6973C50.4922 24.6973 51.5059 24.3457 52.373 23.6426C53.2402 22.9395 53.7207 22.0605 53.8145 21.0059H56.8906C56.832 22.0957 56.457 23.1328 55.7656 24.1172C55.0742 25.1016 54.1484 25.8867 52.9883 26.4727C51.8398 27.0586 50.6211 27.3516 49.332 27.3516C46.7422 27.3516 44.6797 26.4902 43.1445 24.7676C41.6211 23.0332 40.8594 20.666 40.8594 17.666V17.1211C40.8594 15.2695 41.1992 13.623 41.8789 12.1816C42.5586 10.7402 43.5312 9.62109 44.7969 8.82422C46.0742 8.02734 47.5801 7.62891 49.3145 7.62891C51.4473 7.62891 53.2168 8.26758 54.623 9.54492C56.041 10.8223 56.7969 12.4805 56.8906 14.5195H53.8145C53.7207 13.2891 53.252 12.2812 52.4082 11.4961C51.5762 10.6992 50.5449 10.3008 49.3145 10.3008C47.6621 10.3008 46.3789 10.8984 45.4648 12.0938C44.5625 13.2773 44.1113 14.9941 44.1113 17.2441V17.8594C44.1113 20.0508 44.5625 21.7383 45.4648 22.9219C46.3672 24.1055 47.6562 24.6973 49.332 24.6973ZM65.8555 18.1934L63.8164 20.3203V27H60.5645V0H63.8164V16.3301L65.5566 14.2383L71.4805 7.98047H75.4355L68.0352 15.9258L76.2969 27H72.4824L65.8555 18.1934ZM92.1348 3.375V7.98047H95.6855V10.4941H92.1348V22.2891C92.1348 23.0508 92.293 23.625 92.6094 24.0117C92.9258 24.3867 93.4648 24.5742 94.2266 24.5742C94.6016 24.5742 95.1172 24.5039 95.7734 24.3633V27C94.918 27.2344 94.0859 27.3516 93.2773 27.3516C91.8242 27.3516 90.7285 26.9121 89.9902 26.0332C89.252 25.1543 88.8828 23.9062 88.8828 22.2891V10.4941H85.4199V7.98047H88.8828V3.375H92.1348ZM102.752 10.2832C104.193 8.51367 106.068 7.62891 108.377 7.62891C112.396 7.62891 114.424 9.89648 114.459 14.4316V27H111.207V14.4141C111.195 13.043 110.879 12.0293 110.258 11.373C109.648 10.7168 108.693 10.3887 107.393 10.3887C106.338 10.3887 105.412 10.6699 104.615 11.2324C103.818 11.7949 103.197 12.5332 102.752 13.4473V27H99.5V0H102.752V10.2832ZM127.221 27.3516C124.643 27.3516 122.545 26.5078 120.928 24.8203C119.311 23.1211 118.502 20.8535 118.502 18.0176V17.4199C118.502 15.5332 118.859 13.8516 119.574 12.375C120.301 10.8867 121.309 9.72656 122.598 8.89453C123.898 8.05078 125.305 7.62891 126.816 7.62891C129.289 7.62891 131.211 8.44336 132.582 10.0723C133.953 11.7012 134.639 14.0332 134.639 17.0684V18.4219H121.754C121.801 20.2969 122.346 21.8145 123.389 22.9746C124.443 24.123 125.779 24.6973 127.396 24.6973C128.545 24.6973 129.518 24.4629 130.314 23.9941C131.111 23.5254 131.809 22.9043 132.406 22.1309L134.393 23.6777C132.799 26.127 130.408 27.3516 127.221 27.3516ZM126.816 10.3008C125.504 10.3008 124.402 10.7812 123.512 11.7422C122.621 12.6914 122.07 14.0273 121.859 15.75H131.387V15.5039C131.293 13.8516 130.848 12.5742 130.051 11.6719C129.254 10.7578 128.176 10.3008 126.816 10.3008ZM155.398 15.5918C152.504 14.7598 150.395 13.7402 149.07 12.5332C147.758 11.3145 147.102 9.81445 147.102 8.0332C147.102 6.01758 147.904 4.35352 149.51 3.04102C151.127 1.7168 153.225 1.05469 155.803 1.05469C157.561 1.05469 159.125 1.39453 160.496 2.07422C161.879 2.75391 162.945 3.69141 163.695 4.88672C164.457 6.08203 164.838 7.38867 164.838 8.80664H161.445C161.445 7.25977 160.953 6.04688 159.969 5.16797C158.984 4.27734 157.596 3.83203 155.803 3.83203C154.139 3.83203 152.838 4.20117 151.9 4.93945C150.975 5.66602 150.512 6.67969 150.512 7.98047C150.512 9.02344 150.951 9.9082 151.83 10.6348C152.721 11.3496 154.227 12.0059 156.348 12.6035C158.48 13.2012 160.145 13.8633 161.34 14.5898C162.547 15.3047 163.438 16.1426 164.012 17.1035C164.598 18.0645 164.891 19.1953 164.891 20.4961C164.891 22.5703 164.082 24.2344 162.465 25.4883C160.848 26.7305 158.686 27.3516 155.979 27.3516C154.221 27.3516 152.58 27.0176 151.057 26.3496C149.533 25.6699 148.355 24.7441 147.523 23.5723C146.703 22.4004 146.293 21.0703 146.293 19.582H149.686C149.686 21.1289 150.254 22.3535 151.391 23.2559C152.539 24.1465 154.068 24.5918 155.979 24.5918C157.76 24.5918 159.125 24.2285 160.074 23.502C161.023 22.7754 161.498 21.7852 161.498 20.5312C161.498 19.2773 161.059 18.3105 160.18 17.6309C159.301 16.9395 157.707 16.2598 155.398 15.5918ZM180.465 27C180.277 26.625 180.125 25.957 180.008 24.9961C178.496 26.5664 176.691 27.3516 174.594 27.3516C172.719 27.3516 171.178 26.8242 169.971 25.7695C168.775 24.7031 168.178 23.3555 168.178 21.7266C168.178 19.7461 168.928 18.2109 170.428 17.1211C171.939 16.0195 174.061 15.4688 176.791 15.4688H179.955V13.9746C179.955 12.8379 179.615 11.9355 178.936 11.2676C178.256 10.5879 177.254 10.248 175.93 10.248C174.77 10.248 173.797 10.541 173.012 11.127C172.227 11.7129 171.834 12.4219 171.834 13.2539H168.564C168.564 12.3047 168.898 11.3906 169.566 10.5117C170.246 9.62109 171.16 8.91797 172.309 8.40234C173.469 7.88672 174.74 7.62891 176.123 7.62891C178.314 7.62891 180.031 8.17969 181.273 9.28125C182.516 10.3711 183.16 11.877 183.207 13.7988V22.5527C183.207 24.2988 183.43 25.6875 183.875 26.7188V27H180.465ZM175.068 24.5215C176.088 24.5215 177.055 24.2578 177.969 23.7305C178.883 23.2031 179.545 22.5176 179.955 21.6738V17.7715H177.406C173.422 17.7715 171.43 18.9375 171.43 21.2695C171.43 22.2891 171.77 23.0859 172.449 23.6602C173.129 24.2344 174.002 24.5215 175.068 24.5215ZM194.299 22.5879L199.01 7.98047H202.332L195.512 27H193.033L186.143 7.98047H189.465L194.299 22.5879ZM213.107 27.3516C210.529 27.3516 208.432 26.5078 206.814 24.8203C205.197 23.1211 204.389 20.8535 204.389 18.0176V17.4199C204.389 15.5332 204.746 13.8516 205.461 12.375C206.188 10.8867 207.195 9.72656 208.484 8.89453C209.785 8.05078 211.191 7.62891 212.703 7.62891C215.176 7.62891 217.098 8.44336 218.469 10.0723C219.84 11.7012 220.525 14.0332 220.525 17.0684V18.4219H207.641C207.688 20.2969 208.232 21.8145 209.275 22.9746C210.33 24.123 211.666 24.6973 213.283 24.6973C214.432 24.6973 215.404 24.4629 216.201 23.9941C216.998 23.5254 217.695 22.9043 218.293 22.1309L220.279 23.6777C218.686 26.127 216.295 27.3516 213.107 27.3516ZM212.703 10.3008C211.391 10.3008 210.289 10.7812 209.398 11.7422C208.508 12.6914 207.957 14.0273 207.746 15.75H217.273V15.5039C217.18 13.8516 216.734 12.5742 215.938 11.6719C215.141 10.7578 214.062 10.3008 212.703 10.3008ZM249.336 17.7012C249.336 20.6074 248.668 22.9453 247.332 24.7148C245.996 26.4727 244.203 27.3516 241.953 27.3516C239.551 27.3516 237.693 26.502 236.381 24.8027L236.223 27H233.234V0H236.486V10.0723C237.799 8.44336 239.609 7.62891 241.918 7.62891C244.227 7.62891 246.037 8.50195 247.35 10.248C248.674 11.9941 249.336 14.3848 249.336 17.4199V17.7012ZM246.084 17.332C246.084 15.1172 245.656 13.4062 244.801 12.1992C243.945 10.9922 242.715 10.3887 241.109 10.3887C238.965 10.3887 237.424 11.3848 236.486 13.377V21.6035C237.482 23.5957 239.035 24.5918 241.145 24.5918C242.703 24.5918 243.916 23.9883 244.783 22.7812C245.65 21.5742 246.084 19.7578 246.084 17.332ZM265.191 25.1191C263.926 26.6074 262.068 27.3516 259.619 27.3516C257.592 27.3516 256.045 26.7656 254.979 25.5938C253.924 24.4102 253.391 22.6641 253.379 20.3555V7.98047H256.631V20.2676C256.631 23.1504 257.803 24.5918 260.146 24.5918C262.631 24.5918 264.283 23.666 265.104 21.8145V7.98047H268.355V27H265.262L265.191 25.1191ZM277.725 3.375V7.98047H281.275V10.4941H277.725V22.2891C277.725 23.0508 277.883 23.625 278.199 24.0117C278.516 24.3867 279.055 24.5742 279.816 24.5742C280.191 24.5742 280.707 24.5039 281.363 24.3633V27C280.508 27.2344 279.676 27.3516 278.867 27.3516C277.414 27.3516 276.318 26.9121 275.58 26.0332C274.842 25.1543 274.473 23.9062 274.473 22.2891V10.4941H271.01V7.98047H274.473V3.375H277.725ZM289.502 3.375V7.98047H293.053V10.4941H289.502V22.2891C289.502 23.0508 289.66 23.625 289.977 24.0117C290.293 24.3867 290.832 24.5742 291.594 24.5742C291.969 24.5742 292.484 24.5039 293.141 24.3633V27C292.285 27.2344 291.453 27.3516 290.645 27.3516C289.191 27.3516 288.096 26.9121 287.357 26.0332C286.619 25.1543 286.25 23.9062 286.25 22.2891V10.4941H282.787V7.98047H286.25V3.375H289.502ZM295.654 17.3145C295.654 15.4512 296.018 13.7754 296.744 12.2871C297.482 10.7988 298.502 9.65039 299.803 8.8418C301.115 8.0332 302.609 7.62891 304.285 7.62891C306.875 7.62891 308.967 8.52539 310.561 10.3184C312.166 12.1113 312.969 14.4961 312.969 17.4727V17.7012C312.969 19.5527 312.611 21.2168 311.896 22.6934C311.193 24.1582 310.18 25.3008 308.855 26.1211C307.543 26.9414 306.031 27.3516 304.32 27.3516C301.742 27.3516 299.65 26.4551 298.045 24.6621C296.451 22.8691 295.654 20.4961 295.654 17.543V17.3145ZM298.924 17.7012C298.924 19.8105 299.41 21.5039 300.383 22.7812C301.367 24.0586 302.68 24.6973 304.32 24.6973C305.973 24.6973 307.285 24.0527 308.258 22.7637C309.23 21.4629 309.717 19.6465 309.717 17.3145C309.717 15.2285 309.219 13.541 308.223 12.252C307.238 10.9512 305.926 10.3008 304.285 10.3008C302.68 10.3008 301.385 10.9395 300.4 12.2168C299.416 13.4941 298.924 15.3223 298.924 17.7012ZM320.123 7.98047L320.229 10.3711C321.682 8.54297 323.58 7.62891 325.924 7.62891C329.943 7.62891 331.971 9.89648 332.006 14.4316V27H328.754V14.4141C328.742 13.043 328.426 12.0293 327.805 11.373C327.195 10.7168 326.24 10.3887 324.939 10.3887C323.885 10.3887 322.959 10.6699 322.162 11.2324C321.365 11.7949 320.744 12.5332 320.299 13.4473V27H317.047V7.98047H320.123ZM350.252 3.375V7.98047H353.803V10.4941H350.252V22.2891C350.252 23.0508 350.41 23.625 350.727 24.0117C351.043 24.3867 351.582 24.5742 352.344 24.5742C352.719 24.5742 353.234 24.5039 353.891 24.3633V27C353.035 27.2344 352.203 27.3516 351.395 27.3516C349.941 27.3516 348.846 26.9121 348.107 26.0332C347.369 25.1543 347 23.9062 347 22.2891V10.4941H343.537V7.98047H347V3.375H350.252ZM356.404 17.3145C356.404 15.4512 356.768 13.7754 357.494 12.2871C358.232 10.7988 359.252 9.65039 360.553 8.8418C361.865 8.0332 363.359 7.62891 365.035 7.62891C367.625 7.62891 369.717 8.52539 371.311 10.3184C372.916 12.1113 373.719 14.4961 373.719 17.4727V17.7012C373.719 19.5527 373.361 21.2168 372.646 22.6934C371.943 24.1582 370.93 25.3008 369.605 26.1211C368.293 26.9414 366.781 27.3516 365.07 27.3516C362.492 27.3516 360.4 26.4551 358.795 24.6621C357.201 22.8691 356.404 20.4961 356.404 17.543V17.3145ZM359.674 17.7012C359.674 19.8105 360.16 21.5039 361.133 22.7812C362.117 24.0586 363.43 24.6973 365.07 24.6973C366.723 24.6973 368.035 24.0527 369.008 22.7637C369.98 21.4629 370.467 19.6465 370.467 17.3145C370.467 15.2285 369.969 13.541 368.973 12.252C367.988 10.9512 366.676 10.3008 365.035 10.3008C363.43 10.3008 362.135 10.9395 361.15 12.2168C360.166 13.4941 359.674 15.3223 359.674 17.7012ZM398.469 27C398.281 26.625 398.129 25.957 398.012 24.9961C396.5 26.5664 394.695 27.3516 392.598 27.3516C390.723 27.3516 389.182 26.8242 387.975 25.7695C386.779 24.7031 386.182 23.3555 386.182 21.7266C386.182 19.7461 386.932 18.2109 388.432 17.1211C389.943 16.0195 392.064 15.4688 394.795 15.4688H397.959V13.9746C397.959 12.8379 397.619 11.9355 396.939 11.2676C396.26 10.5879 395.258 10.248 393.934 10.248C392.773 10.248 391.801 10.541 391.016 11.127C390.23 11.7129 389.838 12.4219 389.838 13.2539H386.568C386.568 12.3047 386.902 11.3906 387.57 10.5117C388.25 9.62109 389.164 8.91797 390.312 8.40234C391.473 7.88672 392.744 7.62891 394.127 7.62891C396.318 7.62891 398.035 8.17969 399.277 9.28125C400.52 10.3711 401.164 11.877 401.211 13.7988V22.5527C401.211 24.2988 401.434 25.6875 401.879 26.7188V27H398.469ZM393.072 24.5215C394.092 24.5215 395.059 24.2578 395.973 23.7305C396.887 23.2031 397.549 22.5176 397.959 21.6738V17.7715H395.41C391.426 17.7715 389.434 18.9375 389.434 21.2695C389.434 22.2891 389.773 23.0859 390.453 23.6602C391.133 24.2344 392.006 24.5215 393.072 24.5215ZM405.518 17.332C405.518 14.4141 406.209 12.0703 407.592 10.3008C408.975 8.51953 410.785 7.62891 413.023 7.62891C415.25 7.62891 417.014 8.39062 418.314 9.91406V0H421.566V27H418.578L418.42 24.9609C417.119 26.5547 415.309 27.3516 412.988 27.3516C410.785 27.3516 408.986 26.4492 407.592 24.6445C406.209 22.8398 405.518 20.4844 405.518 17.5781V17.332ZM408.77 17.7012C408.77 19.8574 409.215 21.5449 410.105 22.7637C410.996 23.9824 412.227 24.5918 413.797 24.5918C415.859 24.5918 417.365 23.666 418.314 21.8145V13.0781C417.342 11.2852 415.848 10.3887 413.832 10.3887C412.238 10.3887 410.996 11.0039 410.105 12.2344C409.215 13.4648 408.77 15.2871 408.77 17.7012ZM425.838 17.332C425.838 14.4141 426.529 12.0703 427.912 10.3008C429.295 8.51953 431.105 7.62891 433.344 7.62891C435.57 7.62891 437.334 8.39062 438.635 9.91406V0H441.887V27H438.898L438.74 24.9609C437.439 26.5547 435.629 27.3516 433.309 27.3516C431.105 27.3516 429.307 26.4492 427.912 24.6445C426.529 22.8398 425.838 20.4844 425.838 17.5781V17.332ZM429.09 17.7012C429.09 19.8574 429.535 21.5449 430.426 22.7637C431.316 23.9824 432.547 24.5918 434.117 24.5918C436.18 24.5918 437.686 23.666 438.635 21.8145V13.0781C437.662 11.2852 436.168 10.3887 434.152 10.3887C432.559 10.3887 431.316 11.0039 430.426 12.2344C429.535 13.4648 429.09 15.2871 429.09 17.7012ZM460.291 3.375V7.98047H463.842V10.4941H460.291V22.2891C460.291 23.0508 460.449 23.625 460.766 24.0117C461.082 24.3867 461.621 24.5742 462.383 24.5742C462.758 24.5742 463.273 24.5039 463.93 24.3633V27C463.074 27.2344 462.242 27.3516 461.434 27.3516C459.98 27.3516 458.885 26.9121 458.146 26.0332C457.408 25.1543 457.039 23.9062 457.039 22.2891V10.4941H453.576V7.98047H457.039V3.375H460.291ZM470.908 10.2832C472.35 8.51367 474.225 7.62891 476.533 7.62891C480.553 7.62891 482.58 9.89648 482.615 14.4316V27H479.363V14.4141C479.352 13.043 479.035 12.0293 478.414 11.373C477.805 10.7168 476.85 10.3887 475.549 10.3887C474.494 10.3887 473.568 10.6699 472.771 11.2324C471.975 11.7949 471.354 12.5332 470.908 13.4473V27H467.656V0H470.908V10.2832ZM495.377 27.3516C492.799 27.3516 490.701 26.5078 489.084 24.8203C487.467 23.1211 486.658 20.8535 486.658 18.0176V17.4199C486.658 15.5332 487.016 13.8516 487.73 12.375C488.457 10.8867 489.465 9.72656 490.754 8.89453C492.055 8.05078 493.461 7.62891 494.973 7.62891C497.445 7.62891 499.367 8.44336 500.738 10.0723C502.109 11.7012 502.795 14.0332 502.795 17.0684V18.4219H489.91C489.957 20.2969 490.502 21.8145 491.545 22.9746C492.6 24.123 493.936 24.6973 495.553 24.6973C496.701 24.6973 497.674 24.4629 498.471 23.9941C499.268 23.5254 499.965 22.9043 500.562 22.1309L502.549 23.6777C500.955 26.127 498.564 27.3516 495.377 27.3516ZM494.973 10.3008C493.66 10.3008 492.559 10.7812 491.668 11.7422C490.777 12.6914 490.227 14.0273 490.016 15.75H499.543V15.5039C499.449 13.8516 499.004 12.5742 498.207 11.6719C497.41 10.7578 496.332 10.3008 494.973 10.3008ZM514.73 17.332C514.73 14.3672 515.416 12.0117 516.787 10.2656C518.158 8.50781 519.975 7.62891 522.236 7.62891C524.557 7.62891 526.367 8.44922 527.668 10.0898L527.826 7.98047H530.797V26.543C530.797 29.0039 530.064 30.9434 528.6 32.3613C527.146 33.7793 525.189 34.4883 522.729 34.4883C521.357 34.4883 520.016 34.1953 518.703 33.6094C517.391 33.0234 516.389 32.2207 515.697 31.2012L517.385 29.25C518.779 30.9727 520.484 31.834 522.5 31.834C524.082 31.834 525.312 31.3887 526.191 30.498C527.082 29.6074 527.527 28.3535 527.527 26.7363V25.1016C526.227 26.6016 524.451 27.3516 522.201 27.3516C519.975 27.3516 518.17 26.4551 516.787 24.6621C515.416 22.8691 514.73 20.4258 514.73 17.332ZM518 17.7012C518 19.8457 518.439 21.5332 519.318 22.7637C520.197 23.9824 521.428 24.5918 523.01 24.5918C525.061 24.5918 526.566 23.6602 527.527 21.7969V13.1133C526.531 11.2969 525.037 10.3887 523.045 10.3887C521.463 10.3887 520.227 11.0039 519.336 12.2344C518.445 13.4648 518 15.2871 518 17.7012ZM544.912 10.8984C544.42 10.8164 543.887 10.7754 543.312 10.7754C541.18 10.7754 539.732 11.6836 538.971 13.5V27H535.719V7.98047H538.883L538.936 10.1777C540.002 8.47852 541.514 7.62891 543.471 7.62891C544.104 7.62891 544.584 7.71094 544.912 7.875V10.8984ZM546.705 17.3145C546.705 15.4512 547.068 13.7754 547.795 12.2871C548.533 10.7988 549.553 9.65039 550.854 8.8418C552.166 8.0332 553.66 7.62891 555.336 7.62891C557.926 7.62891 560.018 8.52539 561.611 10.3184C563.217 12.1113 564.02 14.4961 564.02 17.4727V17.7012C564.02 19.5527 563.662 21.2168 562.947 22.6934C562.244 24.1582 561.23 25.3008 559.906 26.1211C558.594 26.9414 557.082 27.3516 555.371 27.3516C552.793 27.3516 550.701 26.4551 549.096 24.6621C547.502 22.8691 546.705 20.4961 546.705 17.543V17.3145ZM549.975 17.7012C549.975 19.8105 550.461 21.5039 551.434 22.7812C552.418 24.0586 553.73 24.6973 555.371 24.6973C557.023 24.6973 558.336 24.0527 559.309 22.7637C560.281 21.4629 560.768 19.6465 560.768 17.3145C560.768 15.2285 560.27 13.541 559.273 12.252C558.289 10.9512 556.977 10.3008 555.336 10.3008C553.73 10.3008 552.436 10.9395 551.451 12.2168C550.467 13.4941 549.975 15.3223 549.975 17.7012ZM579.84 25.1191C578.574 26.6074 576.717 27.3516 574.268 27.3516C572.24 27.3516 570.693 26.7656 569.627 25.5938C568.572 24.4102 568.039 22.6641 568.027 20.3555V7.98047H571.279V20.2676C571.279 23.1504 572.451 24.5918 574.795 24.5918C577.279 24.5918 578.932 23.666 579.752 21.8145V7.98047H583.004V27H579.91L579.84 25.1191ZM604.027 17.7012C604.027 20.5957 603.365 22.9277 602.041 24.6973C600.717 26.4668 598.924 27.3516 596.662 27.3516C594.354 27.3516 592.537 26.6191 591.213 25.1543V34.3125H587.961V7.98047H590.932L591.09 10.0898C592.414 8.44922 594.254 7.62891 596.609 7.62891C598.895 7.62891 600.699 8.49023 602.023 10.2129C603.359 11.9355 604.027 14.332 604.027 17.4023V17.7012ZM600.775 17.332C600.775 15.1875 600.318 13.4941 599.404 12.252C598.49 11.0098 597.236 10.3887 595.643 10.3887C593.674 10.3887 592.197 11.2617 591.213 13.0078V22.0957C592.186 23.8301 593.674 24.6973 595.678 24.6973C597.236 24.6973 598.473 24.082 599.387 22.8516C600.312 21.6094 600.775 19.7695 600.775 17.332ZM86.1934 70C86.0059 69.625 85.8535 68.957 85.7363 67.9961C84.2246 69.5664 82.4199 70.3516 80.3223 70.3516C78.4473 70.3516 76.9062 69.8242 75.6992 68.7695C74.5039 67.7031 73.9062 66.3555 73.9062 64.7266C73.9062 62.7461 74.6562 61.2109 76.1562 60.1211C77.668 59.0195 79.7891 58.4688 82.5195 58.4688H85.6836V56.9746C85.6836 55.8379 85.3438 54.9355 84.6641 54.2676C83.9844 53.5879 82.9824 53.248 81.6582 53.248C80.498 53.248 79.5254 53.541 78.7402 54.127C77.9551 54.7129 77.5625 55.4219 77.5625 56.2539H74.293C74.293 55.3047 74.627 54.3906 75.2949 53.5117C75.9746 52.6211 76.8887 51.918 78.0371 51.4023C79.1973 50.8867 80.4688 50.6289 81.8516 50.6289C84.043 50.6289 85.7598 51.1797 87.002 52.2812C88.2441 53.3711 88.8887 54.877 88.9355 56.7988V65.5527C88.9355 67.2988 89.1582 68.6875 89.6035 69.7188V70H86.1934ZM80.7969 67.5215C81.8164 67.5215 82.7832 67.2578 83.6973 66.7305C84.6113 66.2031 85.2734 65.5176 85.6836 64.6738V60.7715H83.1348C79.1504 60.7715 77.1582 61.9375 77.1582 64.2695C77.1582 65.2891 77.498 66.0859 78.1777 66.6602C78.8574 67.2344 79.7305 67.5215 80.7969 67.5215ZM97.1094 50.9805L97.2148 53.3711C98.668 51.543 100.566 50.6289 102.91 50.6289C106.93 50.6289 108.957 52.8965 108.992 57.4316V70H105.74V57.4141C105.729 56.043 105.412 55.0293 104.791 54.373C104.182 53.7168 103.227 53.3887 101.926 53.3887C100.871 53.3887 99.9453 53.6699 99.1484 54.2324C98.3516 54.7949 97.7305 55.5332 97.2852 56.4473V70H94.0332V50.9805H97.1094ZM113.105 60.332C113.105 57.4141 113.797 55.0703 115.18 53.3008C116.562 51.5195 118.373 50.6289 120.611 50.6289C122.838 50.6289 124.602 51.3906 125.902 52.9141V43H129.154V70H126.166L126.008 67.9609C124.707 69.5547 122.896 70.3516 120.576 70.3516C118.373 70.3516 116.574 69.4492 115.18 67.6445C113.797 65.8398 113.105 63.4844 113.105 60.5781V60.332ZM116.357 60.7012C116.357 62.8574 116.803 64.5449 117.693 65.7637C118.584 66.9824 119.814 67.5918 121.385 67.5918C123.447 67.5918 124.953 66.666 125.902 64.8145V56.0781C124.93 54.2852 123.436 53.3887 121.42 53.3887C119.826 53.3887 118.584 54.0039 117.693 55.2344C116.803 56.4648 116.357 58.2871 116.357 60.7012ZM152.34 53.8984C151.848 53.8164 151.314 53.7754 150.74 53.7754C148.607 53.7754 147.16 54.6836 146.398 56.5V70H143.146V50.9805H146.311L146.363 53.1777C147.43 51.4785 148.941 50.6289 150.898 50.6289C151.531 50.6289 152.012 50.7109 152.34 50.875V53.8984ZM162.887 70.3516C160.309 70.3516 158.211 69.5078 156.594 67.8203C154.977 66.1211 154.168 63.8535 154.168 61.0176V60.4199C154.168 58.5332 154.525 56.8516 155.24 55.375C155.967 53.8867 156.975 52.7266 158.264 51.8945C159.564 51.0508 160.971 50.6289 162.482 50.6289C164.955 50.6289 166.877 51.4434 168.248 53.0723C169.619 54.7012 170.305 57.0332 170.305 60.0684V61.4219H157.42C157.467 63.2969 158.012 64.8145 159.055 65.9746C160.109 67.123 161.445 67.6973 163.062 67.6973C164.211 67.6973 165.184 67.4629 165.98 66.9941C166.777 66.5254 167.475 65.9043 168.072 65.1309L170.059 66.6777C168.465 69.127 166.074 70.3516 162.887 70.3516ZM162.482 53.3008C161.17 53.3008 160.068 53.7812 159.178 54.7422C158.287 55.6914 157.736 57.0273 157.525 58.75H167.053V58.5039C166.959 56.8516 166.514 55.5742 165.717 54.6719C164.92 53.7578 163.842 53.3008 162.482 53.3008ZM178.496 46.375V50.9805H182.047V53.4941H178.496V65.2891C178.496 66.0508 178.654 66.625 178.971 67.0117C179.287 67.3867 179.826 67.5742 180.588 67.5742C180.963 67.5742 181.479 67.5039 182.135 67.3633V70C181.279 70.2344 180.447 70.3516 179.639 70.3516C178.186 70.3516 177.09 69.9121 176.352 69.0332C175.613 68.1543 175.244 66.9062 175.244 65.2891V53.4941H171.781V50.9805H175.244V46.375H178.496ZM197.604 68.1191C196.338 69.6074 194.48 70.3516 192.031 70.3516C190.004 70.3516 188.457 69.7656 187.391 68.5938C186.336 67.4102 185.803 65.6641 185.791 63.3555V50.9805H189.043V63.2676C189.043 66.1504 190.215 67.5918 192.559 67.5918C195.043 67.5918 196.695 66.666 197.516 64.8145V50.9805H200.768V70H197.674L197.604 68.1191ZM214.918 53.8984C214.426 53.8164 213.893 53.7754 213.318 53.7754C211.186 53.7754 209.738 54.6836 208.977 56.5V70H205.725V50.9805H208.889L208.941 53.1777C210.008 51.4785 211.52 50.6289 213.477 50.6289C214.109 50.6289 214.59 50.7109 214.918 50.875V53.8984ZM221 50.9805L221.105 53.3711C222.559 51.543 224.457 50.6289 226.801 50.6289C230.82 50.6289 232.848 52.8965 232.883 57.4316V70H229.631V57.4141C229.619 56.043 229.303 55.0293 228.682 54.373C228.072 53.7168 227.117 53.3887 225.816 53.3887C224.762 53.3887 223.836 53.6699 223.039 54.2324C222.242 54.7949 221.621 55.5332 221.176 56.4473V70H217.924V50.9805H221ZM251.129 46.375V50.9805H254.68V53.4941H251.129V65.2891C251.129 66.0508 251.287 66.625 251.604 67.0117C251.92 67.3867 252.459 67.5742 253.221 67.5742C253.596 67.5742 254.111 67.5039 254.768 67.3633V70C253.912 70.2344 253.08 70.3516 252.271 70.3516C250.818 70.3516 249.723 69.9121 248.984 69.0332C248.246 68.1543 247.877 66.9062 247.877 65.2891V53.4941H244.414V50.9805H247.877V46.375H251.129ZM257.281 60.3145C257.281 58.4512 257.645 56.7754 258.371 55.2871C259.109 53.7988 260.129 52.6504 261.43 51.8418C262.742 51.0332 264.236 50.6289 265.912 50.6289C268.502 50.6289 270.594 51.5254 272.188 53.3184C273.793 55.1113 274.596 57.4961 274.596 60.4727V60.7012C274.596 62.5527 274.238 64.2168 273.523 65.6934C272.82 67.1582 271.807 68.3008 270.482 69.1211C269.17 69.9414 267.658 70.3516 265.947 70.3516C263.369 70.3516 261.277 69.4551 259.672 67.6621C258.078 65.8691 257.281 63.4961 257.281 60.543V60.3145ZM260.551 60.7012C260.551 62.8105 261.037 64.5039 262.01 65.7812C262.994 67.0586 264.307 67.6973 265.947 67.6973C267.6 67.6973 268.912 67.0527 269.885 65.7637C270.857 64.4629 271.344 62.6465 271.344 60.3145C271.344 58.2285 270.846 56.541 269.85 55.252C268.865 53.9512 267.553 53.3008 265.912 53.3008C264.307 53.3008 263.012 53.9395 262.027 55.2168C261.043 56.4941 260.551 58.3223 260.551 60.7012ZM286.83 60.332C286.83 57.3672 287.516 55.0117 288.887 53.2656C290.258 51.5078 292.074 50.6289 294.336 50.6289C296.656 50.6289 298.467 51.4492 299.768 53.0898L299.926 50.9805H302.896V69.543C302.896 72.0039 302.164 73.9434 300.699 75.3613C299.246 76.7793 297.289 77.4883 294.828 77.4883C293.457 77.4883 292.115 77.1953 290.803 76.6094C289.49 76.0234 288.488 75.2207 287.797 74.2012L289.484 72.25C290.879 73.9727 292.584 74.834 294.6 74.834C296.182 74.834 297.412 74.3887 298.291 73.498C299.182 72.6074 299.627 71.3535 299.627 69.7363V68.1016C298.326 69.6016 296.551 70.3516 294.301 70.3516C292.074 70.3516 290.27 69.4551 288.887 67.6621C287.516 65.8691 286.83 63.4258 286.83 60.332ZM290.1 60.7012C290.1 62.8457 290.539 64.5332 291.418 65.7637C292.297 66.9824 293.527 67.5918 295.109 67.5918C297.16 67.5918 298.666 66.6602 299.627 64.7969V56.1133C298.631 54.2969 297.137 53.3887 295.145 53.3887C293.562 53.3887 292.326 54.0039 291.436 55.2344C290.545 56.4648 290.1 58.2871 290.1 60.7012ZM317.012 53.8984C316.52 53.8164 315.986 53.7754 315.412 53.7754C313.279 53.7754 311.832 54.6836 311.07 56.5V70H307.818V50.9805H310.982L311.035 53.1777C312.102 51.4785 313.613 50.6289 315.57 50.6289C316.203 50.6289 316.684 50.7109 317.012 50.875V53.8984ZM318.805 60.3145C318.805 58.4512 319.168 56.7754 319.895 55.2871C320.633 53.7988 321.652 52.6504 322.953 51.8418C324.266 51.0332 325.76 50.6289 327.436 50.6289C330.025 50.6289 332.117 51.5254 333.711 53.3184C335.316 55.1113 336.119 57.4961 336.119 60.4727V60.7012C336.119 62.5527 335.762 64.2168 335.047 65.6934C334.344 67.1582 333.33 68.3008 332.006 69.1211C330.693 69.9414 329.182 70.3516 327.471 70.3516C324.893 70.3516 322.801 69.4551 321.195 67.6621C319.602 65.8691 318.805 63.4961 318.805 60.543V60.3145ZM322.074 60.7012C322.074 62.8105 322.561 64.5039 323.533 65.7812C324.518 67.0586 325.83 67.6973 327.471 67.6973C329.123 67.6973 330.436 67.0527 331.408 65.7637C332.381 64.4629 332.867 62.6465 332.867 60.3145C332.867 58.2285 332.369 56.541 331.373 55.252C330.389 53.9512 329.076 53.3008 327.436 53.3008C325.83 53.3008 324.535 53.9395 323.551 55.2168C322.566 56.4941 322.074 58.3223 322.074 60.7012ZM351.939 68.1191C350.674 69.6074 348.816 70.3516 346.367 70.3516C344.34 70.3516 342.793 69.7656 341.727 68.5938C340.672 67.4102 340.139 65.6641 340.127 63.3555V50.9805H343.379V63.2676C343.379 66.1504 344.551 67.5918 346.895 67.5918C349.379 67.5918 351.031 66.666 351.852 64.8145V50.9805H355.104V70H352.01L351.939 68.1191ZM376.127 60.7012C376.127 63.5957 375.465 65.9277 374.141 67.6973C372.816 69.4668 371.023 70.3516 368.762 70.3516C366.453 70.3516 364.637 69.6191 363.312 68.1543V77.3125H360.061V50.9805H363.031L363.189 53.0898C364.514 51.4492 366.354 50.6289 368.709 50.6289C370.994 50.6289 372.799 51.4902 374.123 53.2129C375.459 54.9355 376.127 57.332 376.127 60.4023V60.7012ZM372.875 60.332C372.875 58.1875 372.418 56.4941 371.504 55.252C370.59 54.0098 369.336 53.3887 367.742 53.3887C365.773 53.3887 364.297 54.2617 363.312 56.0078V65.0957C364.285 66.8301 365.773 67.6973 367.777 67.6973C369.336 67.6973 370.572 67.082 371.486 65.8516C372.412 64.6094 372.875 62.7695 372.875 60.332ZM400.279 64.9551C400.279 64.0762 399.945 63.3965 399.277 62.916C398.621 62.4238 397.467 62.002 395.814 61.6504C394.174 61.2988 392.867 60.877 391.895 60.3848C390.934 59.8926 390.219 59.3066 389.75 58.627C389.293 57.9473 389.064 57.1387 389.064 56.2012C389.064 54.6426 389.721 53.3242 391.033 52.2461C392.357 51.168 394.045 50.6289 396.096 50.6289C398.252 50.6289 399.998 51.1855 401.334 52.2988C402.682 53.4121 403.355 54.8359 403.355 56.5703H400.086C400.086 55.6797 399.705 54.9121 398.943 54.2676C398.193 53.623 397.244 53.3008 396.096 53.3008C394.912 53.3008 393.986 53.5586 393.318 54.0742C392.65 54.5898 392.316 55.2637 392.316 56.0957C392.316 56.8809 392.627 57.4727 393.248 57.8711C393.869 58.2695 394.988 58.6504 396.605 59.0137C398.234 59.377 399.553 59.8105 400.561 60.3145C401.568 60.8184 402.312 61.4277 402.793 62.1426C403.285 62.8457 403.531 63.707 403.531 64.7266C403.531 66.4258 402.852 67.791 401.492 68.8223C400.133 69.8418 398.369 70.3516 396.201 70.3516C394.678 70.3516 393.33 70.082 392.158 69.543C390.986 69.0039 390.066 68.2539 389.398 67.293C388.742 66.3203 388.414 65.2715 388.414 64.1465H391.666C391.725 65.2363 392.158 66.1035 392.967 66.748C393.787 67.3809 394.865 67.6973 396.201 67.6973C397.432 67.6973 398.416 67.4512 399.154 66.959C399.904 66.4551 400.279 65.7871 400.279 64.9551ZM415.66 70.3516C413.082 70.3516 410.984 69.5078 409.367 67.8203C407.75 66.1211 406.941 63.8535 406.941 61.0176V60.4199C406.941 58.5332 407.299 56.8516 408.014 55.375C408.74 53.8867 409.748 52.7266 411.037 51.8945C412.338 51.0508 413.744 50.6289 415.256 50.6289C417.729 50.6289 419.65 51.4434 421.021 53.0723C422.393 54.7012 423.078 57.0332 423.078 60.0684V61.4219H410.193C410.24 63.2969 410.785 64.8145 411.828 65.9746C412.883 67.123 414.219 67.6973 415.836 67.6973C416.984 67.6973 417.957 67.4629 418.754 66.9941C419.551 66.5254 420.248 65.9043 420.846 65.1309L422.832 66.6777C421.238 69.127 418.848 70.3516 415.66 70.3516ZM415.256 53.3008C413.943 53.3008 412.842 53.7812 411.951 54.7422C411.061 55.6914 410.51 57.0273 410.299 58.75H419.826V58.5039C419.732 56.8516 419.287 55.5742 418.49 54.6719C417.693 53.7578 416.615 53.3008 415.256 53.3008ZM430.391 70H427.139V43H430.391V70ZM443.504 70.3516C440.926 70.3516 438.828 69.5078 437.211 67.8203C435.594 66.1211 434.785 63.8535 434.785 61.0176V60.4199C434.785 58.5332 435.143 56.8516 435.857 55.375C436.584 53.8867 437.592 52.7266 438.881 51.8945C440.182 51.0508 441.588 50.6289 443.1 50.6289C445.572 50.6289 447.494 51.4434 448.865 53.0723C450.236 54.7012 450.922 57.0332 450.922 60.0684V61.4219H438.037C438.084 63.2969 438.629 64.8145 439.672 65.9746C440.727 67.123 442.062 67.6973 443.68 67.6973C444.828 67.6973 445.801 67.4629 446.598 66.9941C447.395 66.5254 448.092 65.9043 448.689 65.1309L450.676 66.6777C449.082 69.127 446.691 70.3516 443.504 70.3516ZM443.1 53.3008C441.787 53.3008 440.686 53.7812 439.795 54.7422C438.904 55.6914 438.354 57.0273 438.143 58.75H447.67V58.5039C447.576 56.8516 447.131 55.5742 446.334 54.6719C445.537 53.7578 444.459 53.3008 443.1 53.3008ZM462.33 67.6973C463.49 67.6973 464.504 67.3457 465.371 66.6426C466.238 65.9395 466.719 65.0605 466.812 64.0059H469.889C469.83 65.0957 469.455 66.1328 468.764 67.1172C468.072 68.1016 467.146 68.8867 465.986 69.4727C464.838 70.0586 463.619 70.3516 462.33 70.3516C459.74 70.3516 457.678 69.4902 456.143 67.7676C454.619 66.0332 453.857 63.666 453.857 60.666V60.1211C453.857 58.2695 454.197 56.623 454.877 55.1816C455.557 53.7402 456.529 52.6211 457.795 51.8242C459.072 51.0273 460.578 50.6289 462.312 50.6289C464.445 50.6289 466.215 51.2676 467.621 52.5449C469.039 53.8223 469.795 55.4805 469.889 57.5195H466.812C466.719 56.2891 466.25 55.2812 465.406 54.4961C464.574 53.6992 463.543 53.3008 462.312 53.3008C460.66 53.3008 459.377 53.8984 458.463 55.0938C457.561 56.2773 457.109 57.9941 457.109 60.2441V60.8594C457.109 63.0508 457.561 64.7383 458.463 65.9219C459.365 67.1055 460.654 67.6973 462.33 67.6973ZM477.957 46.375V50.9805H481.508V53.4941H477.957V65.2891C477.957 66.0508 478.115 66.625 478.432 67.0117C478.748 67.3867 479.287 67.5742 480.049 67.5742C480.424 67.5742 480.939 67.5039 481.596 67.3633V70C480.74 70.2344 479.908 70.3516 479.1 70.3516C477.646 70.3516 476.551 69.9121 475.812 69.0332C475.074 68.1543 474.705 66.9062 474.705 65.2891V53.4941H471.242V50.9805H474.705V46.375H477.957ZM488.855 70H485.604V50.9805H488.855V70ZM485.34 45.9355C485.34 45.4082 485.498 44.9629 485.814 44.5996C486.143 44.2363 486.623 44.0547 487.256 44.0547C487.889 44.0547 488.369 44.2363 488.697 44.5996C489.025 44.9629 489.189 45.4082 489.189 45.9355C489.189 46.4629 489.025 46.9023 488.697 47.2539C488.369 47.6055 487.889 47.7812 487.256 47.7812C486.623 47.7812 486.143 47.6055 485.814 47.2539C485.498 46.9023 485.34 46.4629 485.34 45.9355ZM493.215 60.3145C493.215 58.4512 493.578 56.7754 494.305 55.2871C495.043 53.7988 496.062 52.6504 497.363 51.8418C498.676 51.0332 500.17 50.6289 501.846 50.6289C504.436 50.6289 506.527 51.5254 508.121 53.3184C509.727 55.1113 510.529 57.4961 510.529 60.4727V60.7012C510.529 62.5527 510.172 64.2168 509.457 65.6934C508.754 67.1582 507.74 68.3008 506.416 69.1211C505.104 69.9414 503.592 70.3516 501.881 70.3516C499.303 70.3516 497.211 69.4551 495.605 67.6621C494.012 65.8691 493.215 63.4961 493.215 60.543V60.3145ZM496.484 60.7012C496.484 62.8105 496.971 64.5039 497.943 65.7812C498.928 67.0586 500.24 67.6973 501.881 67.6973C503.533 67.6973 504.846 67.0527 505.818 65.7637C506.791 64.4629 507.277 62.6465 507.277 60.3145C507.277 58.2285 506.779 56.541 505.783 55.252C504.799 53.9512 503.486 53.3008 501.846 53.3008C500.24 53.3008 498.945 53.9395 497.961 55.2168C496.977 56.4941 496.484 58.3223 496.484 60.7012ZM517.684 50.9805L517.789 53.3711C519.242 51.543 521.141 50.6289 523.484 50.6289C527.504 50.6289 529.531 52.8965 529.566 57.4316V70H526.314V57.4141C526.303 56.043 525.986 55.0293 525.365 54.373C524.756 53.7168 523.801 53.3887 522.5 53.3887C521.445 53.3887 520.52 53.6699 519.723 54.2324C518.926 54.7949 518.305 55.5332 517.859 56.4473V70H514.607V50.9805H517.684Z" fill="black"/>
</svg>
