<svg width="365" height="219" viewBox="0 0 365 219" fill="none" xmlns="http://www.w3.org/2000/svg">
<rect width="220" height="34" rx="4" fill="#C4C4C4" fill-opacity="0.5"/>
<path d="M273.695 66H272.242V56.3672L269.328 57.4375V56.125L273.469 54.5703H273.695V66ZM284.031 62.1797H285.609V63.3594H284.031V66H282.578V63.3594H277.398V62.5078L282.492 54.625H284.031V62.1797ZM279.039 62.1797H282.578V56.6016L282.406 56.9141L279.039 62.1797Z" fill="black"/>
<path d="M34.7734 62.4141L34.9922 63.9141L35.3125 62.5625L37.5625 54.625H38.8281L41.0234 62.5625L41.3359 63.9375L41.5781 62.4062L43.3438 54.625H44.8516L42.0938 66H40.7266L38.3828 57.7109L38.2031 56.8438L38.0234 57.7109L35.5938 66H34.2266L31.4766 54.625H32.9766L34.7734 62.4141ZM47.8672 66H46.4219V57.5469H47.8672V66ZM46.3047 55.3047C46.3047 55.0703 46.375 54.8724 46.5156 54.7109C46.6615 54.5495 46.875 54.4688 47.1562 54.4688C47.4375 54.4688 47.651 54.5495 47.7969 54.7109C47.9427 54.8724 48.0156 55.0703 48.0156 55.3047C48.0156 55.5391 47.9427 55.7344 47.7969 55.8906C47.651 56.0469 47.4375 56.125 47.1562 56.125C46.875 56.125 46.6615 56.0469 46.5156 55.8906C46.375 55.7344 46.3047 55.5391 46.3047 55.3047ZM51.5547 57.5469L51.6016 58.6094C52.2474 57.7969 53.0911 57.3906 54.1328 57.3906C55.9193 57.3906 56.8203 58.3984 56.8359 60.4141V66H55.3906V60.4062C55.3854 59.7969 55.2448 59.3464 54.9688 59.0547C54.6979 58.763 54.2734 58.6172 53.6953 58.6172C53.2266 58.6172 52.8151 58.7422 52.4609 58.9922C52.1068 59.2422 51.8307 59.5703 51.6328 59.9766V66H50.1875V57.5469H51.5547ZM61.375 62.0859L60.4688 63.0312V66H59.0234V54H60.4688V61.2578L61.2422 60.3281L63.875 57.5469H65.6328L62.3438 61.0781L66.0156 66H64.3203L61.375 62.0859ZM70.4766 66.1562C69.3307 66.1562 68.3984 65.7812 67.6797 65.0312C66.9609 64.276 66.6016 63.2682 66.6016 62.0078V61.7422C66.6016 60.9036 66.7604 60.1562 67.0781 59.5C67.401 58.8385 67.849 58.3229 68.4219 57.9531C69 57.5781 69.625 57.3906 70.2969 57.3906C71.3958 57.3906 72.25 57.7526 72.8594 58.4766C73.4688 59.2005 73.7734 60.237 73.7734 61.5859V62.1875H68.0469C68.0677 63.0208 68.3099 63.6953 68.7734 64.2109C69.2422 64.7214 69.8359 64.9766 70.5547 64.9766C71.0651 64.9766 71.4974 64.8724 71.8516 64.6641C72.2057 64.4557 72.5156 64.1797 72.7812 63.8359L73.6641 64.5234C72.9557 65.612 71.8932 66.1562 70.4766 66.1562ZM70.2969 58.5781C69.7135 58.5781 69.224 58.7917 68.8281 59.2188C68.4323 59.6406 68.1875 60.2344 68.0938 61H72.3281V60.8906C72.2865 60.1562 72.0885 59.5885 71.7344 59.1875C71.3802 58.7812 70.901 58.5781 70.2969 58.5781ZM77.0234 66H75.5781V54H77.0234V66ZM84.2656 63.7578C84.2656 63.3672 84.1172 63.0651 83.8203 62.8516C83.5286 62.6328 83.0156 62.4453 82.2812 62.2891C81.5521 62.1328 80.9714 61.9453 80.5391 61.7266C80.112 61.5078 79.7943 61.2474 79.5859 60.9453C79.3828 60.6432 79.2812 60.2839 79.2812 59.8672C79.2812 59.1745 79.5729 58.5885 80.1562 58.1094C80.7448 57.6302 81.4948 57.3906 82.4062 57.3906C83.3646 57.3906 84.1406 57.638 84.7344 58.1328C85.3333 58.6276 85.6328 59.2604 85.6328 60.0312H84.1797C84.1797 59.6354 84.0104 59.2943 83.6719 59.0078C83.3385 58.7214 82.9167 58.5781 82.4062 58.5781C81.8802 58.5781 81.4688 58.6927 81.1719 58.9219C80.875 59.151 80.7266 59.4505 80.7266 59.8203C80.7266 60.1693 80.8646 60.4323 81.1406 60.6094C81.4167 60.7865 81.9141 60.9557 82.6328 61.1172C83.3568 61.2786 83.9427 61.4714 84.3906 61.6953C84.8385 61.9193 85.1693 62.1901 85.3828 62.5078C85.6016 62.8203 85.7109 63.2031 85.7109 63.6562C85.7109 64.4115 85.4089 65.0182 84.8047 65.4766C84.2005 65.9297 83.4167 66.1562 82.4531 66.1562C81.776 66.1562 81.1771 66.0365 80.6562 65.7969C80.1354 65.5573 79.7266 65.224 79.4297 64.7969C79.138 64.3646 78.9922 63.8984 78.9922 63.3984H80.4375C80.4635 63.8828 80.6562 64.2682 81.0156 64.5547C81.3802 64.8359 81.8594 64.9766 82.4531 64.9766C83 64.9766 83.4375 64.8672 83.7656 64.6484C84.099 64.4245 84.2656 64.1276 84.2656 63.7578ZM90.9844 64.9766C91.5 64.9766 91.9505 64.8203 92.3359 64.5078C92.7214 64.1953 92.9349 63.8047 92.9766 63.3359H94.3438C94.3177 63.8203 94.151 64.2812 93.8438 64.7188C93.5365 65.1562 93.125 65.5052 92.6094 65.7656C92.099 66.026 91.5573 66.1562 90.9844 66.1562C89.8333 66.1562 88.9167 65.7734 88.2344 65.0078C87.5573 64.237 87.2188 63.1849 87.2188 61.8516V61.6094C87.2188 60.7865 87.3698 60.0547 87.6719 59.4141C87.974 58.7734 88.4062 58.276 88.9688 57.9219C89.5365 57.5677 90.2057 57.3906 90.9766 57.3906C91.9245 57.3906 92.7109 57.6745 93.3359 58.2422C93.9661 58.8099 94.3021 59.5469 94.3438 60.4531H92.9766C92.9349 59.9062 92.7266 59.4583 92.3516 59.1094C91.9818 58.7552 91.5234 58.5781 90.9766 58.5781C90.2422 58.5781 89.6719 58.8438 89.2656 59.375C88.8646 59.901 88.6641 60.6641 88.6641 61.6641V61.9375C88.6641 62.9115 88.8646 63.6615 89.2656 64.1875C89.6667 64.7135 90.2396 64.9766 90.9844 64.9766ZM97.4141 58.5703C98.0547 57.7839 98.888 57.3906 99.9141 57.3906C101.701 57.3906 102.602 58.3984 102.617 60.4141V66H101.172V60.4062C101.167 59.7969 101.026 59.3464 100.75 59.0547C100.479 58.763 100.055 58.6172 99.4766 58.6172C99.0078 58.6172 98.5964 58.7422 98.2422 58.9922C97.888 59.2422 97.612 59.5703 97.4141 59.9766V66H95.9688V54H97.4141V58.5703ZM106.352 66H104.906V54H106.352V66ZM112.18 66.1562C111.034 66.1562 110.102 65.7812 109.383 65.0312C108.664 64.276 108.305 63.2682 108.305 62.0078V61.7422C108.305 60.9036 108.464 60.1562 108.781 59.5C109.104 58.8385 109.552 58.3229 110.125 57.9531C110.703 57.5781 111.328 57.3906 112 57.3906C113.099 57.3906 113.953 57.7526 114.562 58.4766C115.172 59.2005 115.477 60.237 115.477 61.5859V62.1875H109.75C109.771 63.0208 110.013 63.6953 110.477 64.2109C110.945 64.7214 111.539 64.9766 112.258 64.9766C112.768 64.9766 113.201 64.8724 113.555 64.6641C113.909 64.4557 114.219 64.1797 114.484 63.8359L115.367 64.5234C114.659 65.612 113.596 66.1562 112.18 66.1562ZM112 58.5781C111.417 58.5781 110.927 58.7917 110.531 59.2188C110.135 59.6406 109.891 60.2344 109.797 61H114.031V60.8906C113.99 60.1562 113.792 59.5885 113.438 59.1875C113.083 58.7812 112.604 58.5781 112 58.5781ZM118.727 66H117.281V57.5469H118.727V66ZM117.164 55.3047C117.164 55.0703 117.234 54.8724 117.375 54.7109C117.521 54.5495 117.734 54.4688 118.016 54.4688C118.297 54.4688 118.51 54.5495 118.656 54.7109C118.802 54.8724 118.875 55.0703 118.875 55.3047C118.875 55.5391 118.802 55.7344 118.656 55.8906C118.51 56.0469 118.297 56.125 118.016 56.125C117.734 56.125 117.521 56.0469 117.375 55.8906C117.234 55.7344 117.164 55.5391 117.164 55.3047ZM121.758 66V58.6641H120.422V57.5469H121.758V56.6797C121.758 55.7734 122 55.0729 122.484 54.5781C122.969 54.0833 123.654 53.8359 124.539 53.8359C124.872 53.8359 125.203 53.8802 125.531 53.9688L125.453 55.1406C125.208 55.0938 124.948 55.0703 124.672 55.0703C124.203 55.0703 123.841 55.2083 123.586 55.4844C123.331 55.7552 123.203 56.1458 123.203 56.6562V57.5469H125.008V58.6641H123.203V66H121.758ZM129.93 66.1562C128.784 66.1562 127.852 65.7812 127.133 65.0312C126.414 64.276 126.055 63.2682 126.055 62.0078V61.7422C126.055 60.9036 126.214 60.1562 126.531 59.5C126.854 58.8385 127.302 58.3229 127.875 57.9531C128.453 57.5781 129.078 57.3906 129.75 57.3906C130.849 57.3906 131.703 57.7526 132.312 58.4766C132.922 59.2005 133.227 60.237 133.227 61.5859V62.1875H127.5C127.521 63.0208 127.763 63.6953 128.227 64.2109C128.695 64.7214 129.289 64.9766 130.008 64.9766C130.518 64.9766 130.951 64.8724 131.305 64.6641C131.659 64.4557 131.969 64.1797 132.234 63.8359L133.117 64.5234C132.409 65.612 131.346 66.1562 129.93 66.1562ZM129.75 58.5781C129.167 58.5781 128.677 58.7917 128.281 59.2188C127.885 59.6406 127.641 60.2344 127.547 61H131.781V60.8906C131.74 60.1562 131.542 59.5885 131.188 59.1875C130.833 58.7812 130.354 58.5781 129.75 58.5781ZM138.992 58.8438C138.773 58.8073 138.536 58.7891 138.281 58.7891C137.333 58.7891 136.69 59.1927 136.352 60V66H134.906V57.5469H136.312L136.336 58.5234C136.81 57.7682 137.482 57.3906 138.352 57.3906C138.633 57.3906 138.846 57.4271 138.992 57.5V58.8438Z" fill="black"/>
<path d="M271.047 94.6094H272.133C272.815 94.599 273.352 94.4193 273.742 94.0703C274.133 93.7214 274.328 93.25 274.328 92.6562C274.328 91.3229 273.664 90.6562 272.336 90.6562C271.711 90.6562 271.211 90.8359 270.836 91.1953C270.466 91.5495 270.281 92.0208 270.281 92.6094H268.836C268.836 91.7083 269.164 90.9609 269.82 90.3672C270.482 89.7682 271.32 89.4688 272.336 89.4688C273.409 89.4688 274.25 89.7526 274.859 90.3203C275.469 90.888 275.773 91.6771 275.773 92.6875C275.773 93.1823 275.612 93.6615 275.289 94.125C274.971 94.5885 274.536 94.9349 273.984 95.1641C274.609 95.362 275.091 95.6901 275.43 96.1484C275.773 96.6068 275.945 97.1667 275.945 97.8281C275.945 98.849 275.612 99.6589 274.945 100.258C274.279 100.857 273.411 101.156 272.344 101.156C271.276 101.156 270.406 100.867 269.734 100.289C269.068 99.7109 268.734 98.9479 268.734 98H270.188C270.188 98.599 270.383 99.0781 270.773 99.4375C271.164 99.7969 271.688 99.9766 272.344 99.9766C273.042 99.9766 273.576 99.7943 273.945 99.4297C274.315 99.0651 274.5 98.5417 274.5 97.8594C274.5 97.1979 274.297 96.6901 273.891 96.3359C273.484 95.9818 272.898 95.7995 272.133 95.7891H271.047V94.6094ZM285.062 96.1484C285.062 97.8411 284.773 99.099 284.195 99.9219C283.617 100.745 282.714 101.156 281.484 101.156C280.271 101.156 279.372 100.755 278.789 99.9531C278.206 99.1458 277.904 97.9427 277.883 96.3438V94.4141C277.883 92.7422 278.172 91.5 278.75 90.6875C279.328 89.875 280.234 89.4688 281.469 89.4688C282.693 89.4688 283.594 89.862 284.172 90.6484C284.75 91.4297 285.047 92.638 285.062 94.2734V96.1484ZM283.617 94.1719C283.617 92.9479 283.445 92.0573 283.102 91.5C282.758 90.9375 282.214 90.6562 281.469 90.6562C280.729 90.6562 280.19 90.9349 279.852 91.4922C279.513 92.0495 279.339 92.9062 279.328 94.0625V96.375C279.328 97.6042 279.505 98.513 279.859 99.1016C280.219 99.6849 280.76 99.9766 281.484 99.9766C282.198 99.9766 282.727 99.7005 283.07 99.1484C283.419 98.5964 283.602 97.7266 283.617 96.5391V94.1719Z" fill="black"/>
<path d="M34.7734 97.4141L34.9922 98.9141L35.3125 97.5625L37.5625 89.625H38.8281L41.0234 97.5625L41.3359 98.9375L41.5781 97.4062L43.3438 89.625H44.8516L42.0938 101H40.7266L38.3828 92.7109L38.2031 91.8438L38.0234 92.7109L35.5938 101H34.2266L31.4766 89.625H32.9766L34.7734 97.4141ZM51.25 101C51.1667 100.833 51.099 100.536 51.0469 100.109C50.375 100.807 49.5729 101.156 48.6406 101.156C47.8073 101.156 47.1224 100.922 46.5859 100.453C46.0547 99.9792 45.7891 99.3802 45.7891 98.6562C45.7891 97.776 46.1224 97.0938 46.7891 96.6094C47.4609 96.1198 48.4036 95.875 49.6172 95.875H51.0234V95.2109C51.0234 94.7057 50.8724 94.3047 50.5703 94.0078C50.2682 93.7057 49.8229 93.5547 49.2344 93.5547C48.7188 93.5547 48.2865 93.6849 47.9375 93.9453C47.5885 94.2057 47.4141 94.5208 47.4141 94.8906H45.9609C45.9609 94.4688 46.1094 94.0625 46.4062 93.6719C46.7083 93.276 47.1146 92.9635 47.625 92.7344C48.1406 92.5052 48.7057 92.3906 49.3203 92.3906C50.2943 92.3906 51.0573 92.6354 51.6094 93.125C52.1615 93.6094 52.4479 94.2786 52.4688 95.1328V99.0234C52.4688 99.7995 52.5677 100.417 52.7656 100.875V101H51.25ZM48.8516 99.8984C49.3047 99.8984 49.7344 99.7812 50.1406 99.5469C50.5469 99.3125 50.8411 99.0078 51.0234 98.6328V96.8984H49.8906C48.1198 96.8984 47.2344 97.4167 47.2344 98.4531C47.2344 98.9062 47.3854 99.2604 47.6875 99.5156C47.9896 99.7708 48.3776 99.8984 48.8516 99.8984ZM56.1016 92.5469L56.1484 93.6094C56.7943 92.7969 57.638 92.3906 58.6797 92.3906C60.4661 92.3906 61.3672 93.3984 61.3828 95.4141V101H59.9375V95.4062C59.9323 94.7969 59.7917 94.3464 59.5156 94.0547C59.2448 93.763 58.8203 93.6172 58.2422 93.6172C57.7734 93.6172 57.362 93.7422 57.0078 93.9922C56.6536 94.2422 56.3776 94.5703 56.1797 94.9766V101H54.7344V92.5469H56.1016ZM63.2109 96.7031C63.2109 95.4062 63.5182 94.3646 64.1328 93.5781C64.7474 92.7865 65.5521 92.3906 66.5469 92.3906C67.5365 92.3906 68.3203 92.7292 68.8984 93.4062V89H70.3438V101H69.0156L68.9453 100.094C68.3672 100.802 67.5625 101.156 66.5312 101.156C65.5521 101.156 64.7526 100.755 64.1328 99.9531C63.5182 99.151 63.2109 98.1042 63.2109 96.8125V96.7031ZM64.6562 96.8672C64.6562 97.8255 64.8542 98.5755 65.25 99.1172C65.6458 99.6589 66.1927 99.9297 66.8906 99.9297C67.8073 99.9297 68.4766 99.5182 68.8984 98.6953V94.8125C68.4661 94.0156 67.8021 93.6172 66.9062 93.6172C66.1979 93.6172 65.6458 93.8906 65.25 94.4375C64.8542 94.9844 64.6562 95.7943 64.6562 96.8672ZM77.5156 98.7578C77.5156 98.3672 77.3672 98.0651 77.0703 97.8516C76.7786 97.6328 76.2656 97.4453 75.5312 97.2891C74.8021 97.1328 74.2214 96.9453 73.7891 96.7266C73.362 96.5078 73.0443 96.2474 72.8359 95.9453C72.6328 95.6432 72.5312 95.2839 72.5312 94.8672C72.5312 94.1745 72.8229 93.5885 73.4062 93.1094C73.9948 92.6302 74.7448 92.3906 75.6562 92.3906C76.6146 92.3906 77.3906 92.638 77.9844 93.1328C78.5833 93.6276 78.8828 94.2604 78.8828 95.0312H77.4297C77.4297 94.6354 77.2604 94.2943 76.9219 94.0078C76.5885 93.7214 76.1667 93.5781 75.6562 93.5781C75.1302 93.5781 74.7188 93.6927 74.4219 93.9219C74.125 94.151 73.9766 94.4505 73.9766 94.8203C73.9766 95.1693 74.1146 95.4323 74.3906 95.6094C74.6667 95.7865 75.1641 95.9557 75.8828 96.1172C76.6068 96.2786 77.1927 96.4714 77.6406 96.6953C78.0885 96.9193 78.4193 97.1901 78.6328 97.5078C78.8516 97.8203 78.9609 98.2031 78.9609 98.6562C78.9609 99.4115 78.6589 100.018 78.0547 100.477C77.4505 100.93 76.6667 101.156 75.7031 101.156C75.026 101.156 74.4271 101.036 73.9062 100.797C73.3854 100.557 72.9766 100.224 72.6797 99.7969C72.388 99.3646 72.2422 98.8984 72.2422 98.3984H73.6875C73.7135 98.8828 73.9062 99.2682 74.2656 99.5547C74.6302 99.8359 75.1094 99.9766 75.7031 99.9766C76.25 99.9766 76.6875 99.8672 77.0156 99.6484C77.349 99.4245 77.5156 99.1276 77.5156 98.7578ZM86.0625 101C85.9792 100.833 85.9115 100.536 85.8594 100.109C85.1875 100.807 84.3854 101.156 83.4531 101.156C82.6198 101.156 81.9349 100.922 81.3984 100.453C80.8672 99.9792 80.6016 99.3802 80.6016 98.6562C80.6016 97.776 80.9349 97.0938 81.6016 96.6094C82.2734 96.1198 83.2161 95.875 84.4297 95.875H85.8359V95.2109C85.8359 94.7057 85.6849 94.3047 85.3828 94.0078C85.0807 93.7057 84.6354 93.5547 84.0469 93.5547C83.5312 93.5547 83.099 93.6849 82.75 93.9453C82.401 94.2057 82.2266 94.5208 82.2266 94.8906H80.7734C80.7734 94.4688 80.9219 94.0625 81.2188 93.6719C81.5208 93.276 81.9271 92.9635 82.4375 92.7344C82.9531 92.5052 83.5182 92.3906 84.1328 92.3906C85.1068 92.3906 85.8698 92.6354 86.4219 93.125C86.974 93.6094 87.2604 94.2786 87.2812 95.1328V99.0234C87.2812 99.7995 87.3802 100.417 87.5781 100.875V101H86.0625ZM83.6641 99.8984C84.1172 99.8984 84.5469 99.7812 84.9531 99.5469C85.3594 99.3125 85.6536 99.0078 85.8359 98.6328V96.8984H84.7031C82.9323 96.8984 82.0469 97.4167 82.0469 98.4531C82.0469 98.9062 82.1979 99.2604 82.5 99.5156C82.8021 99.7708 83.1901 99.8984 83.6641 99.8984ZM81.7734 90.2891C81.7734 90.0547 81.8438 89.8594 81.9844 89.7031C82.1302 89.5417 82.3438 89.4609 82.625 89.4609C82.9062 89.4609 83.1198 89.5417 83.2656 89.7031C83.4115 89.8594 83.4844 90.0547 83.4844 90.2891C83.4844 90.5234 83.4115 90.7188 83.2656 90.875C83.1198 91.0312 82.9062 91.1094 82.625 91.1094C82.3438 91.1094 82.1302 91.0312 81.9844 90.875C81.8438 90.7188 81.7734 90.5234 81.7734 90.2891ZM85.1328 90.3047C85.1328 90.0703 85.2031 89.8724 85.3438 89.7109C85.4896 89.5495 85.7031 89.4688 85.9844 89.4688C86.2656 89.4688 86.4792 89.5495 86.625 89.7109C86.7708 89.8724 86.8438 90.0703 86.8438 90.3047C86.8438 90.5391 86.7708 90.7344 86.625 90.8906C86.4792 91.0469 86.2656 91.125 85.9844 91.125C85.7031 91.125 85.4896 91.0469 85.3438 90.8906C85.2031 90.7344 85.1328 90.5391 85.1328 90.3047ZM89.2031 96.7031C89.2031 95.3854 89.5078 94.3385 90.1172 93.5625C90.7266 92.7812 91.5339 92.3906 92.5391 92.3906C93.5703 92.3906 94.375 92.7552 94.9531 93.4844L95.0234 92.5469H96.3438V100.797C96.3438 101.891 96.0182 102.753 95.3672 103.383C94.7214 104.013 93.8516 104.328 92.7578 104.328C92.1484 104.328 91.5521 104.198 90.9688 103.938C90.3854 103.677 89.9401 103.32 89.6328 102.867L90.3828 102C91.0026 102.766 91.7604 103.148 92.6562 103.148C93.3594 103.148 93.9062 102.951 94.2969 102.555C94.6927 102.159 94.8906 101.602 94.8906 100.883V100.156C94.3125 100.823 93.5234 101.156 92.5234 101.156C91.5339 101.156 90.7318 100.758 90.1172 99.9609C89.5078 99.1641 89.2031 98.0781 89.2031 96.7031ZM90.6562 96.8672C90.6562 97.8203 90.8516 98.5703 91.2422 99.1172C91.6328 99.6589 92.1797 99.9297 92.8828 99.9297C93.7943 99.9297 94.4635 99.5156 94.8906 98.6875V94.8281C94.4479 94.0208 93.7839 93.6172 92.8984 93.6172C92.1953 93.6172 91.6458 93.8906 91.25 94.4375C90.8542 94.9844 90.6562 95.7943 90.6562 96.8672ZM102.039 101.156C100.893 101.156 99.9609 100.781 99.2422 100.031C98.5234 99.276 98.1641 98.2682 98.1641 97.0078V96.7422C98.1641 95.9036 98.3229 95.1562 98.6406 94.5C98.9635 93.8385 99.4115 93.3229 99.9844 92.9531C100.562 92.5781 101.188 92.3906 101.859 92.3906C102.958 92.3906 103.812 92.7526 104.422 93.4766C105.031 94.2005 105.336 95.237 105.336 96.5859V97.1875H99.6094C99.6302 98.0208 99.8724 98.6953 100.336 99.2109C100.805 99.7214 101.398 99.9766 102.117 99.9766C102.628 99.9766 103.06 99.8724 103.414 99.6641C103.768 99.4557 104.078 99.1797 104.344 98.8359L105.227 99.5234C104.518 100.612 103.456 101.156 102.039 101.156ZM101.859 93.5781C101.276 93.5781 100.786 93.7917 100.391 94.2188C99.9948 94.6406 99.75 95.2344 99.6562 96H103.891V95.8906C103.849 95.1562 103.651 94.5885 103.297 94.1875C102.943 93.7812 102.464 93.5781 101.859 93.5781Z" fill="black"/>
<path d="M275.047 136.18H276.625V137.359H275.047V140H273.594V137.359H268.414V136.508L273.508 128.625H275.047V136.18ZM270.055 136.18H273.594V130.602L273.422 130.914L270.055 136.18Z" fill="black"/>
<path d="M40.1797 129.859H36.5234V140H35.0312V129.859H31.3828V128.625H40.1797V129.859ZM45.1328 132.844C44.9141 132.807 44.6771 132.789 44.4219 132.789C43.474 132.789 42.8307 133.193 42.4922 134V140H41.0469V131.547H42.4531L42.4766 132.523C42.9505 131.768 43.6224 131.391 44.4922 131.391C44.7734 131.391 44.987 131.427 45.1328 131.5V132.844ZM49.8203 140.156C48.6745 140.156 47.7422 139.781 47.0234 139.031C46.3047 138.276 45.9453 137.268 45.9453 136.008V135.742C45.9453 134.904 46.1042 134.156 46.4219 133.5C46.7448 132.839 47.1927 132.323 47.7656 131.953C48.3438 131.578 48.9688 131.391 49.6406 131.391C50.7396 131.391 51.5938 131.753 52.2031 132.477C52.8125 133.201 53.1172 134.237 53.1172 135.586V136.188H47.3906C47.4115 137.021 47.6536 137.695 48.1172 138.211C48.5859 138.721 49.1797 138.977 49.8984 138.977C50.4089 138.977 50.8411 138.872 51.1953 138.664C51.5495 138.456 51.8594 138.18 52.125 137.836L53.0078 138.523C52.2995 139.612 51.237 140.156 49.8203 140.156ZM49.6406 132.578C49.0573 132.578 48.5677 132.792 48.1719 133.219C47.776 133.641 47.5312 134.234 47.4375 135H51.6719V134.891C51.6302 134.156 51.4323 133.589 51.0781 133.188C50.724 132.781 50.2448 132.578 49.6406 132.578ZM56.1641 131.547L56.2109 132.609C56.8568 131.797 57.7005 131.391 58.7422 131.391C60.5286 131.391 61.4297 132.398 61.4453 134.414V140H60V134.406C59.9948 133.797 59.8542 133.346 59.5781 133.055C59.3073 132.763 58.8828 132.617 58.3047 132.617C57.8359 132.617 57.4245 132.742 57.0703 132.992C56.7161 133.242 56.4401 133.57 56.2422 133.977V140H54.7969V131.547H56.1641ZM64.9922 131.547L65.0391 132.609C65.6849 131.797 66.5286 131.391 67.5703 131.391C69.3568 131.391 70.2578 132.398 70.2734 134.414V140H68.8281V134.406C68.8229 133.797 68.6823 133.346 68.4062 133.055C68.1354 132.763 67.7109 132.617 67.1328 132.617C66.6641 132.617 66.2526 132.742 65.8984 132.992C65.5443 133.242 65.2682 133.57 65.0703 133.977V140H63.625V131.547H64.9922ZM73.8125 131.547L73.8516 132.484C74.4714 131.755 75.3073 131.391 76.3594 131.391C77.5417 131.391 78.3464 131.844 78.7734 132.75C79.0547 132.344 79.4193 132.016 79.8672 131.766C80.3203 131.516 80.8542 131.391 81.4688 131.391C83.3229 131.391 84.2656 132.372 84.2969 134.336V140H82.8516V134.422C82.8516 133.818 82.7135 133.367 82.4375 133.07C82.1615 132.768 81.6979 132.617 81.0469 132.617C80.5104 132.617 80.0651 132.779 79.7109 133.102C79.3568 133.419 79.151 133.849 79.0938 134.391V140H77.6406V134.461C77.6406 133.232 77.0391 132.617 75.8359 132.617C74.888 132.617 74.2396 133.021 73.8906 133.828V140H72.4453V131.547H73.8125ZM91.7031 140C91.6198 139.833 91.5521 139.536 91.5 139.109C90.8281 139.807 90.026 140.156 89.0938 140.156C88.2604 140.156 87.5755 139.922 87.0391 139.453C86.5078 138.979 86.2422 138.38 86.2422 137.656C86.2422 136.776 86.5755 136.094 87.2422 135.609C87.9141 135.12 88.8568 134.875 90.0703 134.875H91.4766V134.211C91.4766 133.706 91.3255 133.305 91.0234 133.008C90.7214 132.706 90.276 132.555 89.6875 132.555C89.1719 132.555 88.7396 132.685 88.3906 132.945C88.0417 133.206 87.8672 133.521 87.8672 133.891H86.4141C86.4141 133.469 86.5625 133.062 86.8594 132.672C87.1615 132.276 87.5677 131.964 88.0781 131.734C88.5938 131.505 89.1589 131.391 89.7734 131.391C90.7474 131.391 91.5104 131.635 92.0625 132.125C92.6146 132.609 92.901 133.279 92.9219 134.133V138.023C92.9219 138.799 93.0208 139.417 93.2188 139.875V140H91.7031ZM89.3047 138.898C89.7578 138.898 90.1875 138.781 90.5938 138.547C91 138.312 91.2943 138.008 91.4766 137.633V135.898H90.3438C88.5729 135.898 87.6875 136.417 87.6875 137.453C87.6875 137.906 87.8385 138.26 88.1406 138.516C88.4427 138.771 88.8307 138.898 89.3047 138.898ZM100.109 137.758C100.109 137.367 99.9609 137.065 99.6641 136.852C99.3724 136.633 98.8594 136.445 98.125 136.289C97.3958 136.133 96.8151 135.945 96.3828 135.727C95.9557 135.508 95.638 135.247 95.4297 134.945C95.2266 134.643 95.125 134.284 95.125 133.867C95.125 133.174 95.4167 132.589 96 132.109C96.5885 131.63 97.3385 131.391 98.25 131.391C99.2083 131.391 99.9844 131.638 100.578 132.133C101.177 132.628 101.477 133.26 101.477 134.031H100.023C100.023 133.635 99.8542 133.294 99.5156 133.008C99.1823 132.721 98.7604 132.578 98.25 132.578C97.724 132.578 97.3125 132.693 97.0156 132.922C96.7188 133.151 96.5703 133.451 96.5703 133.82C96.5703 134.169 96.7083 134.432 96.9844 134.609C97.2604 134.786 97.7578 134.956 98.4766 135.117C99.2005 135.279 99.7865 135.471 100.234 135.695C100.682 135.919 101.013 136.19 101.227 136.508C101.445 136.82 101.555 137.203 101.555 137.656C101.555 138.411 101.253 139.018 100.648 139.477C100.044 139.93 99.2604 140.156 98.2969 140.156C97.6198 140.156 97.0208 140.036 96.5 139.797C95.9792 139.557 95.5703 139.224 95.2734 138.797C94.9818 138.365 94.8359 137.898 94.8359 137.398H96.2812C96.3073 137.883 96.5 138.268 96.8594 138.555C97.224 138.836 97.7031 138.977 98.2969 138.977C98.8438 138.977 99.2812 138.867 99.6094 138.648C99.9427 138.424 100.109 138.128 100.109 137.758ZM106.828 138.977C107.344 138.977 107.794 138.82 108.18 138.508C108.565 138.195 108.779 137.805 108.82 137.336H110.188C110.161 137.82 109.995 138.281 109.688 138.719C109.38 139.156 108.969 139.505 108.453 139.766C107.943 140.026 107.401 140.156 106.828 140.156C105.677 140.156 104.76 139.773 104.078 139.008C103.401 138.237 103.062 137.185 103.062 135.852V135.609C103.062 134.786 103.214 134.055 103.516 133.414C103.818 132.773 104.25 132.276 104.812 131.922C105.38 131.568 106.049 131.391 106.82 131.391C107.768 131.391 108.555 131.674 109.18 132.242C109.81 132.81 110.146 133.547 110.188 134.453H108.82C108.779 133.906 108.57 133.458 108.195 133.109C107.826 132.755 107.367 132.578 106.82 132.578C106.086 132.578 105.516 132.844 105.109 133.375C104.708 133.901 104.508 134.664 104.508 135.664V135.938C104.508 136.911 104.708 137.661 105.109 138.188C105.51 138.714 106.083 138.977 106.828 138.977ZM113.258 132.57C113.898 131.784 114.732 131.391 115.758 131.391C117.544 131.391 118.445 132.398 118.461 134.414V140H117.016V134.406C117.01 133.797 116.87 133.346 116.594 133.055C116.323 132.763 115.898 132.617 115.32 132.617C114.852 132.617 114.44 132.742 114.086 132.992C113.732 133.242 113.456 133.57 113.258 133.977V140H111.812V128H113.258V132.57ZM122.195 140H120.75V131.547H122.195V140ZM120.633 129.305C120.633 129.07 120.703 128.872 120.844 128.711C120.99 128.549 121.203 128.469 121.484 128.469C121.766 128.469 121.979 128.549 122.125 128.711C122.271 128.872 122.344 129.07 122.344 129.305C122.344 129.539 122.271 129.734 122.125 129.891C121.979 130.047 121.766 130.125 121.484 130.125C121.203 130.125 120.99 130.047 120.844 129.891C120.703 129.734 120.633 129.539 120.633 129.305ZM125.883 131.547L125.93 132.609C126.576 131.797 127.419 131.391 128.461 131.391C130.247 131.391 131.148 132.398 131.164 134.414V140H129.719V134.406C129.714 133.797 129.573 133.346 129.297 133.055C129.026 132.763 128.602 132.617 128.023 132.617C127.555 132.617 127.143 132.742 126.789 132.992C126.435 133.242 126.159 133.57 125.961 133.977V140H124.516V131.547H125.883ZM136.852 140.156C135.706 140.156 134.773 139.781 134.055 139.031C133.336 138.276 132.977 137.268 132.977 136.008V135.742C132.977 134.904 133.135 134.156 133.453 133.5C133.776 132.839 134.224 132.323 134.797 131.953C135.375 131.578 136 131.391 136.672 131.391C137.771 131.391 138.625 131.753 139.234 132.477C139.844 133.201 140.148 134.237 140.148 135.586V136.188H134.422C134.443 137.021 134.685 137.695 135.148 138.211C135.617 138.721 136.211 138.977 136.93 138.977C137.44 138.977 137.872 138.872 138.227 138.664C138.581 138.456 138.891 138.18 139.156 137.836L140.039 138.523C139.331 139.612 138.268 140.156 136.852 140.156ZM136.672 132.578C136.089 132.578 135.599 132.792 135.203 133.219C134.807 133.641 134.562 134.234 134.469 135H138.703V134.891C138.661 134.156 138.464 133.589 138.109 133.188C137.755 132.781 137.276 132.578 136.672 132.578ZM143.195 131.547L143.242 132.609C143.888 131.797 144.732 131.391 145.773 131.391C147.56 131.391 148.461 132.398 148.477 134.414V140H147.031V134.406C147.026 133.797 146.885 133.346 146.609 133.055C146.339 132.763 145.914 132.617 145.336 132.617C144.867 132.617 144.456 132.742 144.102 132.992C143.747 133.242 143.471 133.57 143.273 133.977V140H141.828V131.547H143.195Z" fill="black"/>
<path d="M276.367 20.3633H271.744L270.865 23H268.062L272.825 10.2031H275.269L280.059 23H277.255L276.367 20.3633ZM272.456 18.2275H275.655L274.047 13.4375L272.456 18.2275ZM286.237 20.3721C286.237 20.0615 286.082 19.8184 285.771 19.6426C285.467 19.4609 284.975 19.2998 284.295 19.1592C282.033 18.6846 280.902 17.7236 280.902 16.2764C280.902 15.4326 281.251 14.7295 281.948 14.167C282.651 13.5986 283.568 13.3145 284.699 13.3145C285.906 13.3145 286.87 13.5986 287.591 14.167C288.317 14.7354 288.681 15.4736 288.681 16.3818H286.141C286.141 16.0186 286.023 15.7197 285.789 15.4854C285.555 15.2451 285.188 15.125 284.69 15.125C284.263 15.125 283.932 15.2217 283.697 15.415C283.463 15.6084 283.346 15.8545 283.346 16.1533C283.346 16.4346 283.478 16.6631 283.741 16.8389C284.011 17.0088 284.462 17.1582 285.095 17.2871C285.728 17.4102 286.261 17.5508 286.694 17.709C288.036 18.2012 288.707 19.0537 288.707 20.2666C288.707 21.1338 288.335 21.8369 287.591 22.376C286.847 22.9092 285.886 23.1758 284.708 23.1758C283.911 23.1758 283.202 23.0352 282.581 22.7539C281.966 22.4668 281.482 22.0771 281.131 21.585C280.779 21.0869 280.604 20.5508 280.604 19.9766H283.012C283.035 20.4277 283.202 20.7734 283.513 21.0137C283.823 21.2539 284.239 21.374 284.761 21.374C285.247 21.374 285.613 21.2832 285.859 21.1016C286.111 20.9141 286.237 20.6709 286.237 20.3721ZM295.501 20.3721C295.501 20.0615 295.346 19.8184 295.035 19.6426C294.73 19.4609 294.238 19.2998 293.559 19.1592C291.297 18.6846 290.166 17.7236 290.166 16.2764C290.166 15.4326 290.515 14.7295 291.212 14.167C291.915 13.5986 292.832 13.3145 293.963 13.3145C295.17 13.3145 296.134 13.5986 296.854 14.167C297.581 14.7354 297.944 15.4736 297.944 16.3818H295.404C295.404 16.0186 295.287 15.7197 295.053 15.4854C294.818 15.2451 294.452 15.125 293.954 15.125C293.526 15.125 293.195 15.2217 292.961 15.415C292.727 15.6084 292.609 15.8545 292.609 16.1533C292.609 16.4346 292.741 16.6631 293.005 16.8389C293.274 17.0088 293.726 17.1582 294.358 17.2871C294.991 17.4102 295.524 17.5508 295.958 17.709C297.3 18.2012 297.971 19.0537 297.971 20.2666C297.971 21.1338 297.599 21.8369 296.854 22.376C296.11 22.9092 295.149 23.1758 293.972 23.1758C293.175 23.1758 292.466 23.0352 291.845 22.7539C291.229 22.4668 290.746 22.0771 290.395 21.585C290.043 21.0869 289.867 20.5508 289.867 19.9766H292.275C292.299 20.4277 292.466 20.7734 292.776 21.0137C293.087 21.2539 293.503 21.374 294.024 21.374C294.511 21.374 294.877 21.2832 295.123 21.1016C295.375 20.9141 295.501 20.6709 295.501 20.3721ZM303.991 23.1758C302.597 23.1758 301.46 22.748 300.581 21.8926C299.708 21.0371 299.271 19.8975 299.271 18.4736V18.2275C299.271 17.2725 299.456 16.4199 299.825 15.6699C300.194 14.9141 300.716 14.334 301.39 13.9297C302.069 13.5195 302.843 13.3145 303.71 13.3145C305.011 13.3145 306.033 13.7246 306.777 14.5449C307.527 15.3652 307.902 16.5283 307.902 18.0342V19.0713H301.847C301.929 19.6924 302.175 20.1904 302.585 20.5654C303.001 20.9404 303.525 21.1279 304.158 21.1279C305.137 21.1279 305.901 20.7734 306.452 20.0645L307.7 21.4619C307.319 22.001 306.804 22.4229 306.153 22.7275C305.503 23.0264 304.782 23.1758 303.991 23.1758ZM303.701 15.3711C303.197 15.3711 302.787 15.541 302.471 15.8809C302.16 16.2207 301.961 16.707 301.873 17.3398H305.406V17.1377C305.395 16.5752 305.242 16.1416 304.949 15.8369C304.656 15.5264 304.24 15.3711 303.701 15.3711ZM312.394 11.1523V13.4902H314.02V15.3535H312.394V20.0996C312.394 20.4512 312.461 20.7031 312.596 20.8555C312.73 21.0078 312.988 21.084 313.369 21.084C313.65 21.084 313.899 21.0635 314.116 21.0225V22.9473C313.618 23.0996 313.105 23.1758 312.578 23.1758C310.797 23.1758 309.889 22.2764 309.854 20.4775V15.3535H308.465V13.4902H309.854V11.1523H312.394ZM323.872 21.1279C324.341 21.1279 324.722 20.999 325.015 20.7412C325.308 20.4834 325.46 20.1406 325.472 19.7129H327.854C327.848 20.3574 327.672 20.9492 327.326 21.4883C326.98 22.0215 326.506 22.4375 325.902 22.7363C325.305 23.0293 324.643 23.1758 323.916 23.1758C322.557 23.1758 321.484 22.7451 320.699 21.8838C319.914 21.0166 319.521 19.8213 319.521 18.2979V18.1309C319.521 16.666 319.911 15.4971 320.69 14.624C321.47 13.751 322.539 13.3145 323.898 13.3145C325.088 13.3145 326.04 13.6543 326.755 14.334C327.476 15.0078 327.842 15.9072 327.854 17.0322H325.472C325.46 16.54 325.308 16.1416 325.015 15.8369C324.722 15.5264 324.335 15.3711 323.854 15.3711C323.263 15.3711 322.814 15.5879 322.51 16.0215C322.211 16.4492 322.062 17.1465 322.062 18.1133V18.377C322.062 19.3555 322.211 20.0586 322.51 20.4863C322.809 20.9141 323.263 21.1279 323.872 21.1279ZM328.908 18.1572C328.908 17.2139 329.09 16.373 329.453 15.6348C329.816 14.8965 330.338 14.3252 331.018 13.9209C331.703 13.5166 332.497 13.3145 333.399 13.3145C334.683 13.3145 335.729 13.707 336.537 14.4922C337.352 15.2773 337.806 16.3438 337.899 17.6914L337.917 18.3418C337.917 19.8008 337.51 20.9727 336.695 21.8574C335.881 22.7363 334.788 23.1758 333.417 23.1758C332.046 23.1758 330.95 22.7363 330.13 21.8574C329.315 20.9785 328.908 19.7832 328.908 18.2715V18.1572ZM331.448 18.3418C331.448 19.2441 331.618 19.9355 331.958 20.416C332.298 20.8906 332.784 21.1279 333.417 21.1279C334.032 21.1279 334.513 20.8936 334.858 20.4248C335.204 19.9502 335.377 19.1943 335.377 18.1572C335.377 17.2725 335.204 16.5869 334.858 16.1006C334.513 15.6143 334.026 15.3711 333.399 15.3711C332.778 15.3711 332.298 15.6143 331.958 16.1006C331.618 16.5811 331.448 17.3281 331.448 18.3418ZM345.177 22.0332C344.55 22.7949 343.683 23.1758 342.575 23.1758C341.556 23.1758 340.776 22.8828 340.237 22.2969C339.704 21.7109 339.432 20.8525 339.42 19.7217V13.4902H341.96V19.6338C341.96 20.624 342.411 21.1191 343.313 21.1191C344.175 21.1191 344.767 20.8203 345.089 20.2227V13.4902H347.638V23H345.247L345.177 22.0332ZM351.892 13.4902L351.971 14.5889C352.65 13.7393 353.562 13.3145 354.704 13.3145C355.712 13.3145 356.462 13.6104 356.954 14.2021C357.446 14.7939 357.698 15.6787 357.71 16.8564V23H355.17V16.918C355.17 16.3789 355.053 15.9893 354.818 15.749C354.584 15.5029 354.194 15.3799 353.649 15.3799C352.935 15.3799 352.398 15.6846 352.041 16.2939V23H349.501V13.4902H351.892ZM362.685 11.1523V13.4902H364.311V15.3535H362.685V20.0996C362.685 20.4512 362.752 20.7031 362.887 20.8555C363.021 21.0078 363.279 21.084 363.66 21.084C363.941 21.084 364.19 21.0635 364.407 21.0225V22.9473C363.909 23.0996 363.396 23.1758 362.869 23.1758C361.088 23.1758 360.18 22.2764 360.145 20.4775V15.3535H358.756V13.4902H360.145V11.1523H362.685Z" fill="black"/>
<path d="M42.5488 23H39.9121L34.7793 14.5801V23H32.1426V10.2031H34.7793L39.9209 18.6406V10.2031H42.5488V23ZM50.1953 23C50.0781 22.7715 49.9932 22.4873 49.9404 22.1475C49.3252 22.833 48.5254 23.1758 47.541 23.1758C46.6094 23.1758 45.8359 22.9062 45.2207 22.3672C44.6113 21.8281 44.3066 21.1484 44.3066 20.3281C44.3066 19.3203 44.6787 18.5469 45.4229 18.0078C46.1729 17.4688 47.2539 17.1963 48.666 17.1904H49.835V16.6455C49.835 16.2061 49.7207 15.8545 49.4922 15.5908C49.2695 15.3271 48.915 15.1953 48.4287 15.1953C48.001 15.1953 47.6641 15.2979 47.418 15.5029C47.1777 15.708 47.0576 15.9893 47.0576 16.3467H44.5176C44.5176 15.7959 44.6875 15.2861 45.0273 14.8174C45.3672 14.3486 45.8477 13.9824 46.4688 13.7188C47.0898 13.4492 47.7871 13.3145 48.5605 13.3145C49.7324 13.3145 50.6611 13.6104 51.3467 14.2021C52.0381 14.7881 52.3838 15.6143 52.3838 16.6807V20.8027C52.3896 21.7051 52.5156 22.3877 52.7617 22.8506V23H50.1953ZM48.0947 21.2334C48.4697 21.2334 48.8154 21.1514 49.1318 20.9873C49.4482 20.8174 49.6826 20.5918 49.835 20.3105V18.6758H48.8857C47.6143 18.6758 46.9375 19.1152 46.8555 19.9941L46.8467 20.1436C46.8467 20.46 46.958 20.7207 47.1807 20.9258C47.4033 21.1309 47.708 21.2334 48.0947 21.2334ZM56.7168 13.4902L56.7959 14.5537C57.4697 13.7275 58.3809 13.3145 59.5293 13.3145C60.7539 13.3145 61.5947 13.7979 62.0518 14.7646C62.7197 13.7979 63.6719 13.3145 64.9082 13.3145C65.9395 13.3145 66.707 13.6162 67.2109 14.2197C67.7148 14.8174 67.9668 15.7197 67.9668 16.9268V23H65.418V16.9355C65.418 16.3965 65.3125 16.0039 65.1016 15.7578C64.8906 15.5059 64.5186 15.3799 63.9854 15.3799C63.2236 15.3799 62.6963 15.7432 62.4033 16.4697L62.4121 23H59.8721V16.9443C59.8721 16.3936 59.7637 15.9951 59.5469 15.749C59.3301 15.5029 58.9609 15.3799 58.4395 15.3799C57.7188 15.3799 57.1973 15.6787 56.875 16.2764V23H54.335V13.4902H56.7168ZM74.3037 23.1758C72.9092 23.1758 71.7725 22.748 70.8936 21.8926C70.0205 21.0371 69.584 19.8975 69.584 18.4736V18.2275C69.584 17.2725 69.7686 16.4199 70.1377 15.6699C70.5068 14.9141 71.0283 14.334 71.7021 13.9297C72.3818 13.5195 73.1553 13.3145 74.0225 13.3145C75.3232 13.3145 76.3457 13.7246 77.0898 14.5449C77.8398 15.3652 78.2148 16.5283 78.2148 18.0342V19.0713H72.1592C72.2412 19.6924 72.4873 20.1904 72.8975 20.5654C73.3135 20.9404 73.8379 21.1279 74.4707 21.1279C75.4492 21.1279 76.2139 20.7734 76.7646 20.0645L78.0127 21.4619C77.6318 22.001 77.1162 22.4229 76.4658 22.7275C75.8154 23.0264 75.0947 23.1758 74.3037 23.1758ZM74.0137 15.3711C73.5098 15.3711 73.0996 15.541 72.7832 15.8809C72.4727 16.2207 72.2734 16.707 72.1855 17.3398H75.7188V17.1377C75.707 16.5752 75.5547 16.1416 75.2617 15.8369C74.9688 15.5264 74.5527 15.3711 74.0137 15.3711Z" fill="black"/>
<path d="M200.5 11L208.727 20H192.273L200.5 11Z" fill="#151515"/>
<path d="M275.047 174.18H276.625V175.359H275.047V178H273.594V175.359H268.414V174.508L273.508 166.625H275.047V174.18ZM270.055 174.18H273.594V168.602L273.422 168.914L270.055 174.18ZM285.383 178H277.93V176.961L281.867 172.586C282.451 171.924 282.852 171.388 283.07 170.977C283.294 170.56 283.406 170.13 283.406 169.688C283.406 169.094 283.227 168.607 282.867 168.227C282.508 167.846 282.029 167.656 281.43 167.656C280.711 167.656 280.151 167.862 279.75 168.273C279.354 168.68 279.156 169.247 279.156 169.977H277.711C277.711 168.93 278.047 168.083 278.719 167.438C279.396 166.792 280.299 166.469 281.43 166.469C282.487 166.469 283.323 166.747 283.938 167.305C284.552 167.857 284.859 168.594 284.859 169.516C284.859 170.635 284.146 171.969 282.719 173.516L279.672 176.82H285.383V178Z" fill="black"/>
<path d="M32.3203 178V166.625H36.0391C37.2734 166.625 38.2005 166.88 38.8203 167.391C39.4453 167.901 39.7578 168.656 39.7578 169.656C39.7578 170.188 39.6068 170.659 39.3047 171.07C39.0026 171.477 38.5911 171.792 38.0703 172.016C38.6849 172.188 39.1693 172.516 39.5234 173C39.8828 173.479 40.0625 174.052 40.0625 174.719C40.0625 175.74 39.7318 176.542 39.0703 177.125C38.4089 177.708 37.474 178 36.2656 178H32.3203ZM33.8203 172.68V176.773H36.2969C36.9948 176.773 37.5443 176.594 37.9453 176.234C38.3516 175.87 38.5547 175.37 38.5547 174.734C38.5547 173.365 37.8099 172.68 36.3203 172.68H33.8203ZM33.8203 171.477H36.0859C36.7422 171.477 37.2656 171.312 37.6562 170.984C38.0521 170.656 38.25 170.211 38.25 169.648C38.25 169.023 38.0677 168.57 37.7031 168.289C37.3385 168.003 36.7839 167.859 36.0391 167.859H33.8203V171.477ZM45.5703 178.156C44.4245 178.156 43.4922 177.781 42.7734 177.031C42.0547 176.276 41.6953 175.268 41.6953 174.008V173.742C41.6953 172.904 41.8542 172.156 42.1719 171.5C42.4948 170.839 42.9427 170.323 43.5156 169.953C44.0938 169.578 44.7188 169.391 45.3906 169.391C46.4896 169.391 47.3438 169.753 47.9531 170.477C48.5625 171.201 48.8672 172.237 48.8672 173.586V174.188H43.1406C43.1615 175.021 43.4036 175.695 43.8672 176.211C44.3359 176.721 44.9297 176.977 45.6484 176.977C46.1589 176.977 46.5911 176.872 46.9453 176.664C47.2995 176.456 47.6094 176.18 47.875 175.836L48.7578 176.523C48.0495 177.612 46.987 178.156 45.5703 178.156ZM45.3906 170.578C44.8073 170.578 44.3177 170.792 43.9219 171.219C43.526 171.641 43.2812 172.234 43.1875 173H47.4219V172.891C47.3802 172.156 47.1823 171.589 46.8281 171.188C46.474 170.781 45.9948 170.578 45.3906 170.578ZM51.9141 169.547L51.9609 170.609C52.6068 169.797 53.4505 169.391 54.4922 169.391C56.2786 169.391 57.1797 170.398 57.1953 172.414V178H55.75V172.406C55.7448 171.797 55.6042 171.346 55.3281 171.055C55.0573 170.763 54.6328 170.617 54.0547 170.617C53.5859 170.617 53.1745 170.742 52.8203 170.992C52.4661 171.242 52.1901 171.57 51.9922 171.977V178H50.5469V169.547H51.9141ZM60.7344 176.82H65.6797V178H58.9688V176.938L63.6328 170.742H59.0391V169.547H65.4453V170.57L60.7344 176.82ZM68.8828 178H67.4375V169.547H68.8828V178ZM67.3203 167.305C67.3203 167.07 67.3906 166.872 67.5312 166.711C67.6771 166.549 67.8906 166.469 68.1719 166.469C68.4531 166.469 68.6667 166.549 68.8125 166.711C68.9583 166.872 69.0312 167.07 69.0312 167.305C69.0312 167.539 68.9583 167.734 68.8125 167.891C68.6667 168.047 68.4531 168.125 68.1719 168.125C67.8906 168.125 67.6771 168.047 67.5312 167.891C67.3906 167.734 67.3203 167.539 67.3203 167.305ZM72.5703 169.547L72.6172 170.609C73.263 169.797 74.1068 169.391 75.1484 169.391C76.9349 169.391 77.8359 170.398 77.8516 172.414V178H76.4062V172.406C76.401 171.797 76.2604 171.346 75.9844 171.055C75.7135 170.763 75.2891 170.617 74.7109 170.617C74.2422 170.617 73.8307 170.742 73.4766 170.992C73.1224 171.242 72.8464 171.57 72.6484 171.977V178H71.2031V169.547H72.5703ZM81.9922 167.5V169.547H83.5703V170.664H81.9922V175.906C81.9922 176.245 82.0625 176.5 82.2031 176.672C82.3438 176.839 82.5833 176.922 82.9219 176.922C83.0885 176.922 83.3177 176.891 83.6094 176.828V178C83.2292 178.104 82.8594 178.156 82.5 178.156C81.8542 178.156 81.3672 177.961 81.0391 177.57C80.7109 177.18 80.5469 176.625 80.5469 175.906V170.664H79.0078V169.547H80.5469V167.5H81.9922ZM89.3516 170.844C89.1328 170.807 88.8958 170.789 88.6406 170.789C87.6927 170.789 87.0495 171.193 86.7109 172V178H85.2656V169.547H86.6719L86.6953 170.523C87.1693 169.768 87.8411 169.391 88.7109 169.391C88.9922 169.391 89.2057 169.427 89.3516 169.5V170.844ZM94.0391 178.156C92.8932 178.156 91.9609 177.781 91.2422 177.031C90.5234 176.276 90.1641 175.268 90.1641 174.008V173.742C90.1641 172.904 90.3229 172.156 90.6406 171.5C90.9635 170.839 91.4115 170.323 91.9844 169.953C92.5625 169.578 93.1875 169.391 93.8594 169.391C94.9583 169.391 95.8125 169.753 96.4219 170.477C97.0312 171.201 97.3359 172.237 97.3359 173.586V174.188H91.6094C91.6302 175.021 91.8724 175.695 92.3359 176.211C92.8047 176.721 93.3984 176.977 94.1172 176.977C94.6276 176.977 95.0599 176.872 95.4141 176.664C95.7682 176.456 96.0781 176.18 96.3438 175.836L97.2266 176.523C96.5182 177.612 95.4557 178.156 94.0391 178.156ZM93.8594 170.578C93.276 170.578 92.7865 170.792 92.3906 171.219C91.9948 171.641 91.75 172.234 91.6562 173H95.8906V172.891C95.849 172.156 95.651 171.589 95.2969 171.188C94.9427 170.781 94.4635 170.578 93.8594 170.578ZM100.383 169.547L100.43 170.609C101.076 169.797 101.919 169.391 102.961 169.391C104.747 169.391 105.648 170.398 105.664 172.414V178H104.219V172.406C104.214 171.797 104.073 171.346 103.797 171.055C103.526 170.763 103.102 170.617 102.523 170.617C102.055 170.617 101.643 170.742 101.289 170.992C100.935 171.242 100.659 171.57 100.461 171.977V178H99.0156V169.547H100.383ZM109.211 169.547L109.258 170.609C109.904 169.797 110.747 169.391 111.789 169.391C113.576 169.391 114.477 170.398 114.492 172.414V178H113.047V172.406C113.042 171.797 112.901 171.346 112.625 171.055C112.354 170.763 111.93 170.617 111.352 170.617C110.883 170.617 110.471 170.742 110.117 170.992C109.763 171.242 109.487 171.57 109.289 171.977V178H107.844V169.547H109.211ZM120.18 178.156C119.034 178.156 118.102 177.781 117.383 177.031C116.664 176.276 116.305 175.268 116.305 174.008V173.742C116.305 172.904 116.464 172.156 116.781 171.5C117.104 170.839 117.552 170.323 118.125 169.953C118.703 169.578 119.328 169.391 120 169.391C121.099 169.391 121.953 169.753 122.562 170.477C123.172 171.201 123.477 172.237 123.477 173.586V174.188H117.75C117.771 175.021 118.013 175.695 118.477 176.211C118.945 176.721 119.539 176.977 120.258 176.977C120.768 176.977 121.201 176.872 121.555 176.664C121.909 176.456 122.219 176.18 122.484 175.836L123.367 176.523C122.659 177.612 121.596 178.156 120.18 178.156ZM120 170.578C119.417 170.578 118.927 170.792 118.531 171.219C118.135 171.641 117.891 172.234 117.797 173H122.031V172.891C121.99 172.156 121.792 171.589 121.438 171.188C121.083 170.781 120.604 170.578 120 170.578ZM129.242 170.844C129.023 170.807 128.786 170.789 128.531 170.789C127.583 170.789 126.94 171.193 126.602 172V178H125.156V169.547H126.562L126.586 170.523C127.06 169.768 127.732 169.391 128.602 169.391C128.883 169.391 129.096 169.427 129.242 169.5V170.844Z" fill="black"/>
<path d="M271.047 211.609H272.133C272.815 211.599 273.352 211.419 273.742 211.07C274.133 210.721 274.328 210.25 274.328 209.656C274.328 208.323 273.664 207.656 272.336 207.656C271.711 207.656 271.211 207.836 270.836 208.195C270.466 208.549 270.281 209.021 270.281 209.609H268.836C268.836 208.708 269.164 207.961 269.82 207.367C270.482 206.768 271.32 206.469 272.336 206.469C273.409 206.469 274.25 206.753 274.859 207.32C275.469 207.888 275.773 208.677 275.773 209.688C275.773 210.182 275.612 210.661 275.289 211.125C274.971 211.589 274.536 211.935 273.984 212.164C274.609 212.362 275.091 212.69 275.43 213.148C275.773 213.607 275.945 214.167 275.945 214.828C275.945 215.849 275.612 216.659 274.945 217.258C274.279 217.857 273.411 218.156 272.344 218.156C271.276 218.156 270.406 217.867 269.734 217.289C269.068 216.711 268.734 215.948 268.734 215H270.188C270.188 215.599 270.383 216.078 270.773 216.438C271.164 216.797 271.688 216.977 272.344 216.977C273.042 216.977 273.576 216.794 273.945 216.43C274.315 216.065 274.5 215.542 274.5 214.859C274.5 214.198 274.297 213.69 273.891 213.336C273.484 212.982 272.898 212.799 272.133 212.789H271.047V211.609ZM284.031 214.18H285.609V215.359H284.031V218H282.578V215.359H277.398V214.508L282.492 206.625H284.031V214.18ZM279.039 214.18H282.578V208.602L282.406 208.914L279.039 214.18Z" fill="black"/>
<path d="M34.7734 214.414L34.9922 215.914L35.3125 214.562L37.5625 206.625H38.8281L41.0234 214.562L41.3359 215.938L41.5781 214.406L43.3438 206.625H44.8516L42.0938 218H40.7266L38.3828 209.711L38.2031 208.844L38.0234 209.711L35.5938 218H34.2266L31.4766 206.625H32.9766L34.7734 214.414ZM47.8672 218H46.4219V209.547H47.8672V218ZM46.3047 207.305C46.3047 207.07 46.375 206.872 46.5156 206.711C46.6615 206.549 46.875 206.469 47.1562 206.469C47.4375 206.469 47.651 206.549 47.7969 206.711C47.9427 206.872 48.0156 207.07 48.0156 207.305C48.0156 207.539 47.9427 207.734 47.7969 207.891C47.651 208.047 47.4375 208.125 47.1562 208.125C46.875 208.125 46.6615 208.047 46.5156 207.891C46.375 207.734 46.3047 207.539 46.3047 207.305ZM51.5547 209.547L51.6016 210.609C52.2474 209.797 53.0911 209.391 54.1328 209.391C55.9193 209.391 56.8203 210.398 56.8359 212.414V218H55.3906V212.406C55.3854 211.797 55.2448 211.346 54.9688 211.055C54.6979 210.763 54.2734 210.617 53.6953 210.617C53.2266 210.617 52.8151 210.742 52.4609 210.992C52.1068 211.242 51.8307 211.57 51.6328 211.977V218H50.1875V209.547H51.5547ZM61.375 214.086L60.4688 215.031V218H59.0234V206H60.4688V213.258L61.2422 212.328L63.875 209.547H65.6328L62.3438 213.078L66.0156 218H64.3203L61.375 214.086ZM70.4766 218.156C69.3307 218.156 68.3984 217.781 67.6797 217.031C66.9609 216.276 66.6016 215.268 66.6016 214.008V213.742C66.6016 212.904 66.7604 212.156 67.0781 211.5C67.401 210.839 67.849 210.323 68.4219 209.953C69 209.578 69.625 209.391 70.2969 209.391C71.3958 209.391 72.25 209.753 72.8594 210.477C73.4688 211.201 73.7734 212.237 73.7734 213.586V214.188H68.0469C68.0677 215.021 68.3099 215.695 68.7734 216.211C69.2422 216.721 69.8359 216.977 70.5547 216.977C71.0651 216.977 71.4974 216.872 71.8516 216.664C72.2057 216.456 72.5156 216.18 72.7812 215.836L73.6641 216.523C72.9557 217.612 71.8932 218.156 70.4766 218.156ZM70.2969 210.578C69.7135 210.578 69.224 210.792 68.8281 211.219C68.4323 211.641 68.1875 212.234 68.0938 213H72.3281V212.891C72.2865 212.156 72.0885 211.589 71.7344 211.188C71.3802 210.781 70.901 210.578 70.2969 210.578ZM77.0234 218H75.5781V206H77.0234V218ZM84.2656 215.758C84.2656 215.367 84.1172 215.065 83.8203 214.852C83.5286 214.633 83.0156 214.445 82.2812 214.289C81.5521 214.133 80.9714 213.945 80.5391 213.727C80.112 213.508 79.7943 213.247 79.5859 212.945C79.3828 212.643 79.2812 212.284 79.2812 211.867C79.2812 211.174 79.5729 210.589 80.1562 210.109C80.7448 209.63 81.4948 209.391 82.4062 209.391C83.3646 209.391 84.1406 209.638 84.7344 210.133C85.3333 210.628 85.6328 211.26 85.6328 212.031H84.1797C84.1797 211.635 84.0104 211.294 83.6719 211.008C83.3385 210.721 82.9167 210.578 82.4062 210.578C81.8802 210.578 81.4688 210.693 81.1719 210.922C80.875 211.151 80.7266 211.451 80.7266 211.82C80.7266 212.169 80.8646 212.432 81.1406 212.609C81.4167 212.786 81.9141 212.956 82.6328 213.117C83.3568 213.279 83.9427 213.471 84.3906 213.695C84.8385 213.919 85.1693 214.19 85.3828 214.508C85.6016 214.82 85.7109 215.203 85.7109 215.656C85.7109 216.411 85.4089 217.018 84.8047 217.477C84.2005 217.93 83.4167 218.156 82.4531 218.156C81.776 218.156 81.1771 218.036 80.6562 217.797C80.1354 217.557 79.7266 217.224 79.4297 216.797C79.138 216.365 78.9922 215.898 78.9922 215.398H80.4375C80.4635 215.883 80.6562 216.268 81.0156 216.555C81.3802 216.836 81.8594 216.977 82.4531 216.977C83 216.977 83.4375 216.867 83.7656 216.648C84.099 216.424 84.2656 216.128 84.2656 215.758ZM90.9844 216.977C91.5 216.977 91.9505 216.82 92.3359 216.508C92.7214 216.195 92.9349 215.805 92.9766 215.336H94.3438C94.3177 215.82 94.151 216.281 93.8438 216.719C93.5365 217.156 93.125 217.505 92.6094 217.766C92.099 218.026 91.5573 218.156 90.9844 218.156C89.8333 218.156 88.9167 217.773 88.2344 217.008C87.5573 216.237 87.2188 215.185 87.2188 213.852V213.609C87.2188 212.786 87.3698 212.055 87.6719 211.414C87.974 210.773 88.4062 210.276 88.9688 209.922C89.5365 209.568 90.2057 209.391 90.9766 209.391C91.9245 209.391 92.7109 209.674 93.3359 210.242C93.9661 210.81 94.3021 211.547 94.3438 212.453H92.9766C92.9349 211.906 92.7266 211.458 92.3516 211.109C91.9818 210.755 91.5234 210.578 90.9766 210.578C90.2422 210.578 89.6719 210.844 89.2656 211.375C88.8646 211.901 88.6641 212.664 88.6641 213.664V213.938C88.6641 214.911 88.8646 215.661 89.2656 216.188C89.6667 216.714 90.2396 216.977 90.9844 216.977ZM97.4141 210.57C98.0547 209.784 98.888 209.391 99.9141 209.391C101.701 209.391 102.602 210.398 102.617 212.414V218H101.172V212.406C101.167 211.797 101.026 211.346 100.75 211.055C100.479 210.763 100.055 210.617 99.4766 210.617C99.0078 210.617 98.5964 210.742 98.2422 210.992C97.888 211.242 97.612 211.57 97.4141 211.977V218H95.9688V206H97.4141V210.57ZM106.352 218H104.906V206H106.352V218ZM112.18 218.156C111.034 218.156 110.102 217.781 109.383 217.031C108.664 216.276 108.305 215.268 108.305 214.008V213.742C108.305 212.904 108.464 212.156 108.781 211.5C109.104 210.839 109.552 210.323 110.125 209.953C110.703 209.578 111.328 209.391 112 209.391C113.099 209.391 113.953 209.753 114.562 210.477C115.172 211.201 115.477 212.237 115.477 213.586V214.188H109.75C109.771 215.021 110.013 215.695 110.477 216.211C110.945 216.721 111.539 216.977 112.258 216.977C112.768 216.977 113.201 216.872 113.555 216.664C113.909 216.456 114.219 216.18 114.484 215.836L115.367 216.523C114.659 217.612 113.596 218.156 112.18 218.156ZM112 210.578C111.417 210.578 110.927 210.792 110.531 211.219C110.135 211.641 109.891 212.234 109.797 213H114.031V212.891C113.99 212.156 113.792 211.589 113.438 211.188C113.083 210.781 112.604 210.578 112 210.578ZM118.727 218H117.281V209.547H118.727V218ZM117.164 207.305C117.164 207.07 117.234 206.872 117.375 206.711C117.521 206.549 117.734 206.469 118.016 206.469C118.297 206.469 118.51 206.549 118.656 206.711C118.802 206.872 118.875 207.07 118.875 207.305C118.875 207.539 118.802 207.734 118.656 207.891C118.51 208.047 118.297 208.125 118.016 208.125C117.734 208.125 117.521 208.047 117.375 207.891C117.234 207.734 117.164 207.539 117.164 207.305ZM121.758 218V210.664H120.422V209.547H121.758V208.68C121.758 207.773 122 207.073 122.484 206.578C122.969 206.083 123.654 205.836 124.539 205.836C124.872 205.836 125.203 205.88 125.531 205.969L125.453 207.141C125.208 207.094 124.948 207.07 124.672 207.07C124.203 207.07 123.841 207.208 123.586 207.484C123.331 207.755 123.203 208.146 123.203 208.656V209.547H125.008V210.664H123.203V218H121.758ZM129.93 218.156C128.784 218.156 127.852 217.781 127.133 217.031C126.414 216.276 126.055 215.268 126.055 214.008V213.742C126.055 212.904 126.214 212.156 126.531 211.5C126.854 210.839 127.302 210.323 127.875 209.953C128.453 209.578 129.078 209.391 129.75 209.391C130.849 209.391 131.703 209.753 132.312 210.477C132.922 211.201 133.227 212.237 133.227 213.586V214.188H127.5C127.521 215.021 127.763 215.695 128.227 216.211C128.695 216.721 129.289 216.977 130.008 216.977C130.518 216.977 130.951 216.872 131.305 216.664C131.659 216.456 131.969 216.18 132.234 215.836L133.117 216.523C132.409 217.612 131.346 218.156 129.93 218.156ZM129.75 210.578C129.167 210.578 128.677 210.792 128.281 211.219C127.885 211.641 127.641 212.234 127.547 213H131.781V212.891C131.74 212.156 131.542 211.589 131.188 211.188C130.833 210.781 130.354 210.578 129.75 210.578ZM138.992 210.844C138.773 210.807 138.536 210.789 138.281 210.789C137.333 210.789 136.69 211.193 136.352 212V218H134.906V209.547H136.312L136.336 210.523C136.81 209.768 137.482 209.391 138.352 209.391C138.633 209.391 138.846 209.427 138.992 209.5V210.844Z" fill="black"/>
</svg>
