<svg width="220" height="17" viewBox="0 0 220 17" fill="none" xmlns="http://www.w3.org/2000/svg">
<path opacity="0.6" d="M9.56055 10.4434H11.0059V12.9824H9.56055V16H6.26953V12.9824H0.771484L0.576172 10.9707L6.26953 1.81055V1.78125H9.56055V10.4434ZM3.71094 10.4434H6.26953V6.06836L6.06445 6.40039L3.71094 10.4434ZM24.0625 13.1973C24.0625 12.709 23.877 12.3314 23.5059 12.0645C23.1413 11.791 22.5 11.5566 21.582 11.3613C20.6706 11.166 19.9447 10.9316 19.4043 10.6582C18.8704 10.3848 18.4733 10.0592 18.2129 9.68164C17.959 9.30404 17.832 8.85482 17.832 8.33398C17.832 7.4681 18.1966 6.73568 18.9258 6.13672C19.6615 5.53776 20.599 5.23828 21.7383 5.23828C22.9362 5.23828 23.9062 5.54753 24.6484 6.16602C25.3971 6.78451 25.7715 7.57552 25.7715 8.53906H23.9551C23.9551 8.04427 23.7435 7.61784 23.3203 7.25977C22.9036 6.90169 22.3763 6.72266 21.7383 6.72266C21.0807 6.72266 20.5664 6.86589 20.1953 7.15234C19.8242 7.4388 19.6387 7.81315 19.6387 8.27539C19.6387 8.71159 19.8112 9.04036 20.1562 9.26172C20.5013 9.48307 21.123 9.69466 22.0215 9.89648C22.9264 10.0983 23.6589 10.3392 24.2188 10.6191C24.7786 10.8991 25.1921 11.2376 25.459 11.6348C25.7324 12.0254 25.8691 12.5039 25.8691 13.0703C25.8691 14.0143 25.4915 14.7728 24.7363 15.3457C23.9811 15.9121 23.0013 16.1953 21.7969 16.1953C20.9505 16.1953 20.2018 16.0456 19.5508 15.7461C18.8997 15.4466 18.3887 15.0299 18.0176 14.4961C17.653 13.9557 17.4707 13.373 17.4707 12.748H19.2773C19.3099 13.3535 19.5508 13.8353 20 14.1934C20.4557 14.5449 21.0547 14.7207 21.7969 14.7207C22.4805 14.7207 23.0273 14.584 23.4375 14.3105C23.8542 14.0306 24.0625 13.6595 24.0625 13.1973ZM32.6074 16.1953C31.1751 16.1953 30.0098 15.7266 29.1113 14.7891C28.2129 13.8451 27.7637 12.5853 27.7637 11.0098V10.6777C27.7637 9.62956 27.9622 8.69531 28.3594 7.875C28.763 7.04818 29.3229 6.40365 30.0391 5.94141C30.7617 5.47266 31.543 5.23828 32.3828 5.23828C33.7565 5.23828 34.8242 5.69076 35.5859 6.5957C36.3477 7.50065 36.7285 8.79622 36.7285 10.4824V11.2344H29.5703C29.5964 12.276 29.8991 13.1191 30.4785 13.7637C31.0645 14.4017 31.8066 14.7207 32.7051 14.7207C33.3431 14.7207 33.8835 14.5905 34.3262 14.3301C34.7689 14.0697 35.1562 13.7246 35.4883 13.2949L36.5918 14.1543C35.7064 15.515 34.3783 16.1953 32.6074 16.1953ZM32.3828 6.72266C31.6536 6.72266 31.0417 6.98958 30.5469 7.52344C30.0521 8.05078 29.7461 8.79297 29.6289 9.75H34.9219V9.61328C34.8698 8.69531 34.6224 7.98568 34.1797 7.48438C33.737 6.97656 33.138 6.72266 32.3828 6.72266ZM40.791 16H38.9844V1H40.791V16ZM48.0762 16.1953C46.6439 16.1953 45.4785 15.7266 44.5801 14.7891C43.6816 13.8451 43.2324 12.5853 43.2324 11.0098V10.6777C43.2324 9.62956 43.431 8.69531 43.8281 7.875C44.2318 7.04818 44.7917 6.40365 45.5078 5.94141C46.2305 5.47266 47.0117 5.23828 47.8516 5.23828C49.2253 5.23828 50.293 5.69076 51.0547 6.5957C51.8164 7.50065 52.1973 8.79622 52.1973 10.4824V11.2344H45.0391C45.0651 12.276 45.3678 13.1191 45.9473 13.7637C46.5332 14.4017 47.2754 14.7207 48.1738 14.7207C48.8118 14.7207 49.3522 14.5905 49.7949 14.3301C50.2376 14.0697 50.625 13.7246 50.957 13.2949L52.0605 14.1543C51.1751 15.515 49.847 16.1953 48.0762 16.1953ZM47.8516 6.72266C47.1224 6.72266 46.5104 6.98958 46.0156 7.52344C45.5208 8.05078 45.2148 8.79297 45.0977 9.75H50.3906V9.61328C50.3385 8.69531 50.0911 7.98568 49.6484 7.48438C49.2057 6.97656 48.6068 6.72266 47.8516 6.72266ZM58.5352 14.7207C59.1797 14.7207 59.7428 14.5254 60.2246 14.1348C60.7064 13.7441 60.9733 13.2559 61.0254 12.6699H62.7344C62.7018 13.2754 62.4935 13.8516 62.1094 14.3984C61.7253 14.9453 61.2109 15.3815 60.5664 15.707C59.9284 16.0326 59.2513 16.1953 58.5352 16.1953C57.0964 16.1953 55.9505 15.7168 55.0977 14.7598C54.2513 13.7962 53.8281 12.4811 53.8281 10.8145V10.5117C53.8281 9.48307 54.0169 8.56836 54.3945 7.76758C54.7721 6.9668 55.3125 6.34505 56.0156 5.90234C56.7253 5.45964 57.5618 5.23828 58.5254 5.23828C59.7103 5.23828 60.6934 5.5931 61.4746 6.30273C62.2624 7.01237 62.6823 7.93359 62.7344 9.06641H61.0254C60.9733 8.38281 60.7129 7.82292 60.2441 7.38672C59.7819 6.94401 59.209 6.72266 58.5254 6.72266C57.6074 6.72266 56.8945 7.05469 56.3867 7.71875C55.8854 8.3763 55.6348 9.33008 55.6348 10.5801V10.9219C55.6348 12.1393 55.8854 13.0768 56.3867 13.7344C56.888 14.3919 57.6042 14.7207 58.5352 14.7207ZM67.2168 2.875V5.43359H69.1895V6.83008H67.2168V13.3828C67.2168 13.806 67.3047 14.125 67.4805 14.3398C67.6562 14.5482 67.9557 14.6523 68.3789 14.6523C68.5872 14.6523 68.8737 14.6133 69.2383 14.5352V16C68.763 16.1302 68.3008 16.1953 67.8516 16.1953C67.0443 16.1953 66.4355 15.9512 66.0254 15.4629C65.6152 14.9746 65.4102 14.2812 65.4102 13.3828V6.83008H63.4863V5.43359H65.4102V2.875H67.2168ZM75.6934 16.1953C74.2611 16.1953 73.0957 15.7266 72.1973 14.7891C71.2988 13.8451 70.8496 12.5853 70.8496 11.0098V10.6777C70.8496 9.62956 71.0482 8.69531 71.4453 7.875C71.849 7.04818 72.4089 6.40365 73.125 5.94141C73.8477 5.47266 74.6289 5.23828 75.4688 5.23828C76.8424 5.23828 77.9102 5.69076 78.6719 6.5957C79.4336 7.50065 79.8145 8.79622 79.8145 10.4824V11.2344H72.6562C72.6823 12.276 72.985 13.1191 73.5645 13.7637C74.1504 14.4017 74.8926 14.7207 75.791 14.7207C76.429 14.7207 76.9694 14.5905 77.4121 14.3301C77.8548 14.0697 78.2422 13.7246 78.5742 13.2949L79.6777 14.1543C78.7923 15.515 77.4642 16.1953 75.6934 16.1953ZM75.4688 6.72266C74.7396 6.72266 74.1276 6.98958 73.6328 7.52344C73.138 8.05078 72.832 8.79297 72.7148 9.75H78.0078V9.61328C77.9557 8.69531 77.7083 7.98568 77.2656 7.48438C76.8229 6.97656 76.224 6.72266 75.4688 6.72266ZM81.4746 10.6289C81.4746 9.00781 81.8587 7.70573 82.627 6.72266C83.3952 5.73307 84.401 5.23828 85.6445 5.23828C86.8815 5.23828 87.8613 5.66146 88.584 6.50781V1H90.3906V16H88.7305L88.6426 14.8672C87.9199 15.7526 86.9141 16.1953 85.625 16.1953C84.401 16.1953 83.4017 15.694 82.627 14.6914C81.8587 13.6888 81.4746 12.3802 81.4746 10.7656V10.6289ZM83.2812 10.834C83.2812 12.0319 83.5286 12.9694 84.0234 13.6465C84.5182 14.3236 85.2018 14.6621 86.0742 14.6621C87.2201 14.6621 88.0566 14.1478 88.584 13.1191V8.26562C88.0436 7.26953 87.2135 6.77148 86.0938 6.77148C85.2083 6.77148 84.5182 7.11328 84.0234 7.79688C83.5286 8.48047 83.2812 9.49284 83.2812 10.834ZM99.0527 16V6.83008H97.3828V5.43359H99.0527V4.34961C99.0527 3.2168 99.3555 2.34115 99.9609 1.72266C100.566 1.10417 101.423 0.794922 102.529 0.794922C102.946 0.794922 103.359 0.85026 103.77 0.960938L103.672 2.42578C103.366 2.36719 103.04 2.33789 102.695 2.33789C102.109 2.33789 101.657 2.51042 101.338 2.85547C101.019 3.19401 100.859 3.68229 100.859 4.32031V5.43359H103.115V6.83008H100.859V16H99.0527ZM110.225 7.05469C109.951 7.00911 109.655 6.98633 109.336 6.98633C108.151 6.98633 107.347 7.49089 106.924 8.5V16H105.117V5.43359H106.875L106.904 6.6543C107.497 5.71029 108.337 5.23828 109.424 5.23828C109.775 5.23828 110.042 5.28385 110.225 5.375V7.05469ZM111.221 10.6191C111.221 9.58398 111.423 8.65299 111.826 7.82617C112.236 6.99935 112.803 6.36133 113.525 5.91211C114.255 5.46289 115.085 5.23828 116.016 5.23828C117.454 5.23828 118.617 5.73633 119.502 6.73242C120.394 7.72852 120.84 9.05339 120.84 10.707V10.834C120.84 11.8626 120.641 12.7871 120.244 13.6074C119.854 14.4212 119.29 15.056 118.555 15.5117C117.826 15.9674 116.986 16.1953 116.035 16.1953C114.603 16.1953 113.441 15.6973 112.549 14.7012C111.663 13.7051 111.221 12.3867 111.221 10.7461V10.6191ZM113.037 10.834C113.037 12.0059 113.307 12.9466 113.848 13.6562C114.395 14.3659 115.124 14.7207 116.035 14.7207C116.953 14.7207 117.682 14.3626 118.223 13.6465C118.763 12.9238 119.033 11.9147 119.033 10.6191C119.033 9.46029 118.757 8.52279 118.203 7.80664C117.656 7.08398 116.927 6.72266 116.016 6.72266C115.124 6.72266 114.404 7.07747 113.857 7.78711C113.311 8.49674 113.037 9.51237 113.037 10.834ZM124.805 5.43359L124.854 6.60547C125.628 5.69401 126.673 5.23828 127.988 5.23828C129.466 5.23828 130.472 5.80469 131.006 6.9375C131.357 6.42969 131.813 6.01953 132.373 5.70703C132.939 5.39453 133.607 5.23828 134.375 5.23828C136.693 5.23828 137.871 6.46549 137.91 8.91992V16H136.104V9.02734C136.104 8.27214 135.931 7.70898 135.586 7.33789C135.241 6.96029 134.661 6.77148 133.848 6.77148C133.177 6.77148 132.62 6.97331 132.178 7.37695C131.735 7.77409 131.478 8.3112 131.406 8.98828V16H129.59V9.07617C129.59 7.53971 128.838 6.77148 127.334 6.77148C126.149 6.77148 125.339 7.27604 124.902 8.28516V16H123.096V5.43359H124.805ZM154.043 5.49219C154.043 6.20182 153.854 6.83333 153.477 7.38672C153.105 7.9401 152.601 8.37305 151.963 8.68555C152.705 9.00456 153.291 9.47005 153.721 10.082C154.157 10.694 154.375 11.3874 154.375 12.1621C154.375 13.3926 153.958 14.3724 153.125 15.1016C152.298 15.8307 151.208 16.1953 149.854 16.1953C148.486 16.1953 147.389 15.8307 146.562 15.1016C145.742 14.3659 145.332 13.3861 145.332 12.1621C145.332 11.3939 145.54 10.7005 145.957 10.082C146.38 9.46354 146.963 8.99479 147.705 8.67578C147.074 8.36328 146.576 7.93034 146.211 7.37695C145.846 6.82357 145.664 6.19531 145.664 5.49219C145.664 4.29427 146.048 3.34375 146.816 2.64062C147.585 1.9375 148.597 1.58594 149.854 1.58594C151.104 1.58594 152.113 1.9375 152.881 2.64062C153.656 3.34375 154.043 4.29427 154.043 5.49219ZM152.568 12.123C152.568 11.3288 152.314 10.681 151.807 10.1797C151.305 9.67839 150.648 9.42773 149.834 9.42773C149.02 9.42773 148.366 9.67513 147.871 10.1699C147.383 10.6647 147.139 11.3158 147.139 12.123C147.139 12.9303 147.376 13.5651 147.852 14.0273C148.333 14.4896 149.001 14.7207 149.854 14.7207C150.7 14.7207 151.364 14.4896 151.846 14.0273C152.327 13.5586 152.568 12.9238 152.568 12.123ZM149.854 3.07031C149.144 3.07031 148.568 3.29167 148.125 3.73438C147.689 4.17057 147.471 4.76628 147.471 5.52148C147.471 6.24414 147.686 6.83008 148.115 7.2793C148.551 7.72201 149.131 7.94336 149.854 7.94336C150.576 7.94336 151.152 7.72201 151.582 7.2793C152.018 6.83008 152.236 6.24414 152.236 5.52148C152.236 4.79883 152.012 4.20964 151.562 3.75391C151.113 3.29818 150.544 3.07031 149.854 3.07031ZM166.904 7.05469C166.631 7.00911 166.335 6.98633 166.016 6.98633C164.831 6.98633 164.027 7.49089 163.604 8.5V16H161.797V5.43359H163.555L163.584 6.6543C164.176 5.71029 165.016 5.23828 166.104 5.23828C166.455 5.23828 166.722 5.28385 166.904 5.375V7.05469ZM172.764 16.1953C171.331 16.1953 170.166 15.7266 169.268 14.7891C168.369 13.8451 167.92 12.5853 167.92 11.0098V10.6777C167.92 9.62956 168.118 8.69531 168.516 7.875C168.919 7.04818 169.479 6.40365 170.195 5.94141C170.918 5.47266 171.699 5.23828 172.539 5.23828C173.913 5.23828 174.98 5.69076 175.742 6.5957C176.504 7.50065 176.885 8.79622 176.885 10.4824V11.2344H169.727C169.753 12.276 170.055 13.1191 170.635 13.7637C171.221 14.4017 171.963 14.7207 172.861 14.7207C173.499 14.7207 174.04 14.5905 174.482 14.3301C174.925 14.0697 175.312 13.7246 175.645 13.2949L176.748 14.1543C175.863 15.515 174.535 16.1953 172.764 16.1953ZM172.539 6.72266C171.81 6.72266 171.198 6.98958 170.703 7.52344C170.208 8.05078 169.902 8.79297 169.785 9.75H175.078V9.61328C175.026 8.69531 174.779 7.98568 174.336 7.48438C173.893 6.97656 173.294 6.72266 172.539 6.72266ZM185.137 13.1973C185.137 12.709 184.951 12.3314 184.58 12.0645C184.215 11.791 183.574 11.5566 182.656 11.3613C181.745 11.166 181.019 10.9316 180.479 10.6582C179.945 10.3848 179.548 10.0592 179.287 9.68164C179.033 9.30404 178.906 8.85482 178.906 8.33398C178.906 7.4681 179.271 6.73568 180 6.13672C180.736 5.53776 181.673 5.23828 182.812 5.23828C184.01 5.23828 184.98 5.54753 185.723 6.16602C186.471 6.78451 186.846 7.57552 186.846 8.53906H185.029C185.029 8.04427 184.818 7.61784 184.395 7.25977C183.978 6.90169 183.451 6.72266 182.812 6.72266C182.155 6.72266 181.641 6.86589 181.27 7.15234C180.898 7.4388 180.713 7.81315 180.713 8.27539C180.713 8.71159 180.885 9.04036 181.23 9.26172C181.576 9.48307 182.197 9.69466 183.096 9.89648C184.001 10.0983 184.733 10.3392 185.293 10.6191C185.853 10.8991 186.266 11.2376 186.533 11.6348C186.807 12.0254 186.943 12.5039 186.943 13.0703C186.943 14.0143 186.566 14.7728 185.811 15.3457C185.055 15.9121 184.076 16.1953 182.871 16.1953C182.025 16.1953 181.276 16.0456 180.625 15.7461C179.974 15.4466 179.463 15.0299 179.092 14.4961C178.727 13.9557 178.545 13.373 178.545 12.748H180.352C180.384 13.3535 180.625 13.8353 181.074 14.1934C181.53 14.5449 182.129 14.7207 182.871 14.7207C183.555 14.7207 184.102 14.584 184.512 14.3105C184.928 14.0306 185.137 13.6595 185.137 13.1973ZM195.82 14.9551C195.117 15.7819 194.085 16.1953 192.725 16.1953C191.598 16.1953 190.739 15.8698 190.146 15.2188C189.561 14.5612 189.264 13.5911 189.258 12.3086V5.43359H191.064V12.2598C191.064 13.8613 191.715 14.6621 193.018 14.6621C194.398 14.6621 195.316 14.1478 195.771 13.1191V5.43359H197.578V16H195.859L195.82 14.9551ZM202.295 16H200.488V1H202.295V16ZM207.646 2.875V5.43359H209.619V6.83008H207.646V13.3828C207.646 13.806 207.734 14.125 207.91 14.3398C208.086 14.5482 208.385 14.6523 208.809 14.6523C209.017 14.6523 209.303 14.6133 209.668 14.5352V16C209.193 16.1302 208.73 16.1953 208.281 16.1953C207.474 16.1953 206.865 15.9512 206.455 15.4629C206.045 14.9746 205.84 14.2812 205.84 13.3828V6.83008H203.916V5.43359H205.84V2.875H207.646ZM217.891 13.1973C217.891 12.709 217.705 12.3314 217.334 12.0645C216.969 11.791 216.328 11.5566 215.41 11.3613C214.499 11.166 213.773 10.9316 213.232 10.6582C212.699 10.3848 212.301 10.0592 212.041 9.68164C211.787 9.30404 211.66 8.85482 211.66 8.33398C211.66 7.4681 212.025 6.73568 212.754 6.13672C213.49 5.53776 214.427 5.23828 215.566 5.23828C216.764 5.23828 217.734 5.54753 218.477 6.16602C219.225 6.78451 219.6 7.57552 219.6 8.53906H217.783C217.783 8.04427 217.572 7.61784 217.148 7.25977C216.732 6.90169 216.204 6.72266 215.566 6.72266C214.909 6.72266 214.395 6.86589 214.023 7.15234C213.652 7.4388 213.467 7.81315 213.467 8.27539C213.467 8.71159 213.639 9.04036 213.984 9.26172C214.329 9.48307 214.951 9.69466 215.85 9.89648C216.755 10.0983 217.487 10.3392 218.047 10.6191C218.607 10.8991 219.02 11.2376 219.287 11.6348C219.561 12.0254 219.697 12.5039 219.697 13.0703C219.697 14.0143 219.32 14.7728 218.564 15.3457C217.809 15.9121 216.829 16.1953 215.625 16.1953C214.779 16.1953 214.03 16.0456 213.379 15.7461C212.728 15.4466 212.217 15.0299 211.846 14.4961C211.481 13.9557 211.299 13.373 211.299 12.748H213.105C213.138 13.3535 213.379 13.8353 213.828 14.1934C214.284 14.5449 214.883 14.7207 215.625 14.7207C216.309 14.7207 216.855 14.584 217.266 14.3105C217.682 14.0306 217.891 13.6595 217.891 13.1973Z" fill="black"/>
</svg>
