<svg width="365" height="219" viewBox="0 0 365 219" fill="none" xmlns="http://www.w3.org/2000/svg">
<rect width="220" height="34" rx="4" fill="#C4C4C4" fill-opacity="0.5"/>
<path d="M275.047 62.1797H276.625V63.3594H275.047V66H273.594V63.3594H268.414V62.5078L273.508 54.625H275.047V62.1797ZM270.055 62.1797H273.594V56.6016L273.422 56.9141L270.055 62.1797Z" fill="black"/>
<path d="M40.1797 55.8594H36.5234V66H35.0312V55.8594H31.3828V54.625H40.1797V55.8594ZM46.0391 61.3984H43.3672V66H41.8594V54.625H45.625C46.9062 54.625 47.8906 54.9167 48.5781 55.5C49.2708 56.0833 49.6172 56.9323 49.6172 58.0469C49.6172 58.7552 49.4245 59.3724 49.0391 59.8984C48.6589 60.4245 48.1276 60.8177 47.4453 61.0781L50.1172 65.9062V66H48.5078L46.0391 61.3984ZM43.3672 60.1719H45.6719C46.4167 60.1719 47.0078 59.9792 47.4453 59.5938C47.888 59.2083 48.1094 58.6927 48.1094 58.0469C48.1094 57.3438 47.8984 56.8047 47.4766 56.4297C47.0599 56.0547 46.4557 55.8646 45.6641 55.8594H43.3672V60.1719ZM51.7266 66V54.625H54.9375C55.9271 54.625 56.8021 54.8438 57.5625 55.2812C58.3229 55.7188 58.9089 56.3411 59.3203 57.1484C59.737 57.9557 59.9479 58.8828 59.9531 59.9297V60.6562C59.9531 61.7292 59.7448 62.6693 59.3281 63.4766C58.9167 64.2839 58.3255 64.9036 57.5547 65.3359C56.7891 65.7682 55.8958 65.9896 54.875 66H51.7266ZM53.2266 55.8594V64.7734H54.8047C55.9609 64.7734 56.8594 64.4141 57.5 63.6953C58.1458 62.9766 58.4688 61.9531 58.4688 60.625V59.9609C58.4688 58.6693 58.1641 57.6667 57.5547 56.9531C56.9505 56.2344 56.0911 55.8698 54.9766 55.8594H53.2266ZM62.5156 60.2969L63.0938 54.625H68.9219V55.9609H64.3203L63.9766 59.0625C64.5339 58.7344 65.1667 58.5703 65.875 58.5703C66.9115 58.5703 67.7344 58.9141 68.3438 59.6016C68.9531 60.2839 69.2578 61.2083 69.2578 62.375C69.2578 63.5469 68.9401 64.4714 68.3047 65.1484C67.6745 65.8203 66.7917 66.1562 65.6562 66.1562C64.651 66.1562 63.8307 65.8776 63.1953 65.3203C62.5599 64.763 62.1979 63.9922 62.1094 63.0078H63.4766C63.5651 63.6589 63.7969 64.151 64.1719 64.4844C64.5469 64.8125 65.0417 64.9766 65.6562 64.9766C66.3281 64.9766 66.8542 64.7474 67.2344 64.2891C67.6198 63.8307 67.8125 63.1979 67.8125 62.3906C67.8125 61.6302 67.6042 61.0208 67.1875 60.5625C66.776 60.099 66.2266 59.8672 65.5391 59.8672C64.9089 59.8672 64.4141 60.0052 64.0547 60.2812L63.6719 60.5938L62.5156 60.2969ZM76.9375 62.1797H78.5156V63.3594H76.9375V66H75.4844V63.3594H70.3047V62.5078L75.3984 54.625H76.9375V62.1797ZM71.9453 62.1797H75.4844V56.6016L75.3125 56.9141L71.9453 62.1797ZM85.9219 62.1797H87.5V63.3594H85.9219V66H84.4688V63.3594H79.2891V62.5078L84.3828 54.625H85.9219V62.1797ZM80.9297 62.1797H84.4688V56.6016L84.2969 56.9141L80.9297 62.1797ZM90.9062 59.6094H91.9922C92.6745 59.599 93.2109 59.4193 93.6016 59.0703C93.9922 58.7214 94.1875 58.25 94.1875 57.6562C94.1875 56.3229 93.5234 55.6562 92.1953 55.6562C91.5703 55.6562 91.0703 55.8359 90.6953 56.1953C90.3255 56.5495 90.1406 57.0208 90.1406 57.6094H88.6953C88.6953 56.7083 89.0234 55.9609 89.6797 55.3672C90.3411 54.7682 91.1797 54.4688 92.1953 54.4688C93.2682 54.4688 94.1094 54.7526 94.7188 55.3203C95.3281 55.888 95.6328 56.6771 95.6328 57.6875C95.6328 58.1823 95.4714 58.6615 95.1484 59.125C94.8307 59.5885 94.3958 59.9349 93.8438 60.1641C94.4688 60.362 94.9505 60.6901 95.2891 61.1484C95.6328 61.6068 95.8047 62.1667 95.8047 62.8281C95.8047 63.849 95.4714 64.6589 94.8047 65.2578C94.138 65.8568 93.2708 66.1562 92.2031 66.1562C91.1354 66.1562 90.2656 65.8672 89.5938 65.2891C88.9271 64.7109 88.5938 63.9479 88.5938 63H90.0469C90.0469 63.599 90.2422 64.0781 90.6328 64.4375C91.0234 64.7969 91.5469 64.9766 92.2031 64.9766C92.901 64.9766 93.4349 64.7943 93.8047 64.4297C94.1745 64.0651 94.3594 63.5417 94.3594 62.8594C94.3594 62.1979 94.1562 61.6901 93.75 61.3359C93.3438 60.9818 92.7578 60.7995 91.9922 60.7891H90.9062V59.6094ZM98.4531 60.2969L99.0312 54.625H104.859V55.9609H100.258L99.9141 59.0625C100.471 58.7344 101.104 58.5703 101.812 58.5703C102.849 58.5703 103.672 58.9141 104.281 59.6016C104.891 60.2839 105.195 61.2083 105.195 62.375C105.195 63.5469 104.878 64.4714 104.242 65.1484C103.612 65.8203 102.729 66.1562 101.594 66.1562C100.589 66.1562 99.7682 65.8776 99.1328 65.3203C98.4974 64.763 98.1354 63.9922 98.0469 63.0078H99.4141C99.5026 63.6589 99.7344 64.151 100.109 64.4844C100.484 64.8125 100.979 64.9766 101.594 64.9766C102.266 64.9766 102.792 64.7474 103.172 64.2891C103.557 63.8307 103.75 63.1979 103.75 62.3906C103.75 61.6302 103.542 61.0208 103.125 60.5625C102.714 60.099 102.164 59.8672 101.477 59.8672C100.846 59.8672 100.352 60.0052 99.9922 60.2812L99.6094 60.5938L98.4531 60.2969Z" fill="black"/>
<path d="M275.844 92.5938C275.844 93.1615 275.693 93.6667 275.391 94.1094C275.094 94.5521 274.69 94.8984 274.18 95.1484C274.773 95.4036 275.242 95.776 275.586 96.2656C275.935 96.7552 276.109 97.3099 276.109 97.9297C276.109 98.9141 275.776 99.6979 275.109 100.281C274.448 100.865 273.576 101.156 272.492 101.156C271.398 101.156 270.521 100.865 269.859 100.281C269.203 99.6927 268.875 98.9089 268.875 97.9297C268.875 97.3151 269.042 96.7604 269.375 96.2656C269.714 95.7708 270.18 95.3958 270.773 95.1406C270.268 94.8906 269.87 94.5443 269.578 94.1016C269.286 93.6589 269.141 93.1562 269.141 92.5938C269.141 91.6354 269.448 90.875 270.062 90.3125C270.677 89.75 271.487 89.4688 272.492 89.4688C273.492 89.4688 274.299 89.75 274.914 90.3125C275.534 90.875 275.844 91.6354 275.844 92.5938ZM274.664 97.8984C274.664 97.263 274.461 96.7448 274.055 96.3438C273.654 95.9427 273.128 95.7422 272.477 95.7422C271.826 95.7422 271.302 95.9401 270.906 96.3359C270.516 96.7318 270.32 97.2526 270.32 97.8984C270.32 98.5443 270.51 99.0521 270.891 99.4219C271.276 99.7917 271.81 99.9766 272.492 99.9766C273.169 99.9766 273.701 99.7917 274.086 99.4219C274.471 99.0469 274.664 98.5391 274.664 97.8984ZM272.492 90.6562C271.924 90.6562 271.464 90.8333 271.109 91.1875C270.76 91.5365 270.586 92.013 270.586 92.6172C270.586 93.1953 270.758 93.6641 271.102 94.0234C271.451 94.3776 271.914 94.5547 272.492 94.5547C273.07 94.5547 273.531 94.3776 273.875 94.0234C274.224 93.6641 274.398 93.1953 274.398 92.6172C274.398 92.0391 274.219 91.5677 273.859 91.2031C273.5 90.8385 273.044 90.6562 272.492 90.6562Z" fill="black"/>
<path d="M34.7734 97.4141L34.9922 98.9141L35.3125 97.5625L37.5625 89.625H38.8281L41.0234 97.5625L41.3359 98.9375L41.5781 97.4062L43.3438 89.625H44.8516L42.0938 101H40.7266L38.3828 92.7109L38.2031 91.8438L38.0234 92.7109L35.5938 101H34.2266L31.4766 89.625H32.9766L34.7734 97.4141ZM49.875 95.9297C48.5885 95.5599 47.651 95.1068 47.0625 94.5703C46.4792 94.0286 46.1875 93.362 46.1875 92.5703C46.1875 91.6745 46.5443 90.9349 47.2578 90.3516C47.9766 89.763 48.9089 89.4688 50.0547 89.4688C50.8359 89.4688 51.5312 89.6198 52.1406 89.9219C52.7552 90.224 53.2292 90.6406 53.5625 91.1719C53.901 91.7031 54.0703 92.2839 54.0703 92.9141H52.5625C52.5625 92.2266 52.3438 91.6875 51.9062 91.2969C51.4688 90.901 50.8516 90.7031 50.0547 90.7031C49.3151 90.7031 48.737 90.8672 48.3203 91.1953C47.9089 91.5182 47.7031 91.9688 47.7031 92.5469C47.7031 93.0104 47.8984 93.4036 48.2891 93.7266C48.6849 94.0443 49.3542 94.3359 50.2969 94.6016C51.2448 94.8672 51.9844 95.1615 52.5156 95.4844C53.0521 95.8021 53.4479 96.1745 53.7031 96.6016C53.9635 97.0286 54.0938 97.5312 54.0938 98.1094C54.0938 99.0312 53.7344 99.7708 53.0156 100.328C52.2969 100.88 51.3359 101.156 50.1328 101.156C49.3516 101.156 48.6224 101.008 47.9453 100.711C47.2682 100.409 46.7448 99.9974 46.375 99.4766C46.0104 98.9557 45.8281 98.3646 45.8281 97.7031H47.3359C47.3359 98.3906 47.5885 98.9349 48.0938 99.3359C48.6042 99.7318 49.2839 99.9297 50.1328 99.9297C50.9245 99.9297 51.5312 99.7682 51.9531 99.4453C52.375 99.1224 52.5859 98.6823 52.5859 98.125C52.5859 97.5677 52.3906 97.138 52 96.8359C51.6094 96.5286 50.901 96.2266 49.875 95.9297ZM62.4531 95.7422H57.5234V99.7734H63.25V101H56.0234V89.625H63.1719V90.8594H57.5234V94.5156H62.4531V95.7422ZM69.4922 101H68.0391V91.3672L65.125 92.4375V91.125L69.2656 89.5703H69.4922V101ZM79.3984 89.6172V90.8438H79.1328C78.0078 90.8646 77.112 91.1979 76.4453 91.8438C75.7786 92.4896 75.3932 93.3984 75.2891 94.5703C75.888 93.8828 76.7057 93.5391 77.7422 93.5391C78.7318 93.5391 79.5208 93.888 80.1094 94.5859C80.7031 95.2839 81 96.1849 81 97.2891C81 98.4609 80.6797 99.3984 80.0391 100.102C79.4036 100.805 78.5495 101.156 77.4766 101.156C76.388 101.156 75.5052 100.74 74.8281 99.9062C74.151 99.0677 73.8125 97.9896 73.8125 96.6719V96.1172C73.8125 94.0234 74.2578 92.4245 75.1484 91.3203C76.0443 90.2109 77.375 89.6432 79.1406 89.6172H79.3984ZM77.5 94.7422C77.0052 94.7422 76.5495 94.8906 76.1328 95.1875C75.7161 95.4844 75.4271 95.8568 75.2656 96.3047V96.8359C75.2656 97.7734 75.4766 98.5286 75.8984 99.1016C76.3203 99.6745 76.8464 99.9609 77.4766 99.9609C78.1276 99.9609 78.638 99.7214 79.0078 99.2422C79.3828 98.763 79.5703 98.1354 79.5703 97.3594C79.5703 96.5781 79.3802 95.9479 79 95.4688C78.625 94.9844 78.125 94.7422 77.5 94.7422ZM90.1641 101H82.7109V99.9609L86.6484 95.5859C87.2318 94.9245 87.6328 94.388 87.8516 93.9766C88.0755 93.5599 88.1875 93.1302 88.1875 92.6875C88.1875 92.0938 88.0078 91.6068 87.6484 91.2266C87.2891 90.8464 86.8099 90.6562 86.2109 90.6562C85.4922 90.6562 84.9323 90.862 84.5312 91.2734C84.1354 91.6797 83.9375 92.2474 83.9375 92.9766H82.4922C82.4922 91.9297 82.8281 91.0833 83.5 90.4375C84.1771 89.7917 85.0807 89.4688 86.2109 89.4688C87.2682 89.4688 88.1042 89.7474 88.7188 90.3047C89.3333 90.8568 89.6406 91.5938 89.6406 92.5156C89.6406 93.6354 88.9271 94.9688 87.5 96.5156L84.4531 99.8203H90.1641V101ZM96.4453 101H94.9922V91.3672L92.0781 92.4375V91.125L96.2188 89.5703H96.4453V101ZM102.555 96.5469V101H101.055V89.625H105.25C106.495 89.625 107.469 89.9427 108.172 90.5781C108.88 91.2135 109.234 92.0547 109.234 93.1016C109.234 94.2057 108.888 95.0573 108.195 95.6562C107.508 96.25 106.521 96.5469 105.234 96.5469H102.555ZM102.555 95.3203H105.25C106.052 95.3203 106.667 95.1328 107.094 94.7578C107.521 94.3776 107.734 93.8307 107.734 93.1172C107.734 92.4401 107.521 91.8984 107.094 91.4922C106.667 91.0859 106.081 90.875 105.336 90.8594H102.555V95.3203Z" fill="black"/>
<path d="M274.617 128.617V129.844H274.352C273.227 129.865 272.331 130.198 271.664 130.844C270.997 131.49 270.612 132.398 270.508 133.57C271.107 132.883 271.924 132.539 272.961 132.539C273.951 132.539 274.74 132.888 275.328 133.586C275.922 134.284 276.219 135.185 276.219 136.289C276.219 137.461 275.898 138.398 275.258 139.102C274.622 139.805 273.768 140.156 272.695 140.156C271.607 140.156 270.724 139.74 270.047 138.906C269.37 138.068 269.031 136.99 269.031 135.672V135.117C269.031 133.023 269.477 131.424 270.367 130.32C271.263 129.211 272.594 128.643 274.359 128.617H274.617ZM272.719 133.742C272.224 133.742 271.768 133.891 271.352 134.188C270.935 134.484 270.646 134.857 270.484 135.305V135.836C270.484 136.773 270.695 137.529 271.117 138.102C271.539 138.674 272.065 138.961 272.695 138.961C273.346 138.961 273.857 138.721 274.227 138.242C274.602 137.763 274.789 137.135 274.789 136.359C274.789 135.578 274.599 134.948 274.219 134.469C273.844 133.984 273.344 133.742 272.719 133.742Z" fill="black"/>
<path d="M34.7734 136.414L34.9922 137.914L35.3125 136.562L37.5625 128.625H38.8281L41.0234 136.562L41.3359 137.938L41.5781 136.406L43.3438 128.625H44.8516L42.0938 140H40.7266L38.3828 131.711L38.2031 130.844L38.0234 131.711L35.5938 140H34.2266L31.4766 128.625H32.9766L34.7734 136.414ZM49.875 134.93C48.5885 134.56 47.651 134.107 47.0625 133.57C46.4792 133.029 46.1875 132.362 46.1875 131.57C46.1875 130.674 46.5443 129.935 47.2578 129.352C47.9766 128.763 48.9089 128.469 50.0547 128.469C50.8359 128.469 51.5312 128.62 52.1406 128.922C52.7552 129.224 53.2292 129.641 53.5625 130.172C53.901 130.703 54.0703 131.284 54.0703 131.914H52.5625C52.5625 131.227 52.3438 130.688 51.9062 130.297C51.4688 129.901 50.8516 129.703 50.0547 129.703C49.3151 129.703 48.737 129.867 48.3203 130.195C47.9089 130.518 47.7031 130.969 47.7031 131.547C47.7031 132.01 47.8984 132.404 48.2891 132.727C48.6849 133.044 49.3542 133.336 50.2969 133.602C51.2448 133.867 51.9844 134.161 52.5156 134.484C53.0521 134.802 53.4479 135.174 53.7031 135.602C53.9635 136.029 54.0938 136.531 54.0938 137.109C54.0938 138.031 53.7344 138.771 53.0156 139.328C52.2969 139.88 51.3359 140.156 50.1328 140.156C49.3516 140.156 48.6224 140.008 47.9453 139.711C47.2682 139.409 46.7448 138.997 46.375 138.477C46.0104 137.956 45.8281 137.365 45.8281 136.703H47.3359C47.3359 137.391 47.5885 137.935 48.0938 138.336C48.6042 138.732 49.2839 138.93 50.1328 138.93C50.9245 138.93 51.5312 138.768 51.9531 138.445C52.375 138.122 52.5859 137.682 52.5859 137.125C52.5859 136.568 52.3906 136.138 52 135.836C51.6094 135.529 50.901 135.227 49.875 134.93ZM62.4531 134.742H57.5234V138.773H63.25V140H56.0234V128.625H63.1719V129.859H57.5234V133.516H62.4531V134.742ZM69.4922 140H68.0391V130.367L65.125 131.438V130.125L69.2656 128.57H69.4922V140ZM81.0703 129.438L76.3594 140H74.8438L79.5391 129.812H73.3828V128.625H81.0703V129.438ZM90.1641 140H82.7109V138.961L86.6484 134.586C87.2318 133.924 87.6328 133.388 87.8516 132.977C88.0755 132.56 88.1875 132.13 88.1875 131.688C88.1875 131.094 88.0078 130.607 87.6484 130.227C87.2891 129.846 86.8099 129.656 86.2109 129.656C85.4922 129.656 84.9323 129.862 84.5312 130.273C84.1354 130.68 83.9375 131.247 83.9375 131.977H82.4922C82.4922 130.93 82.8281 130.083 83.5 129.438C84.1771 128.792 85.0807 128.469 86.2109 128.469C87.2682 128.469 88.1042 128.747 88.7188 129.305C89.3333 129.857 89.6406 130.594 89.6406 131.516C89.6406 132.635 88.9271 133.969 87.5 135.516L84.4531 138.82H90.1641V140ZM96.4453 140H94.9922V130.367L92.0781 131.438V130.125L96.2188 128.57H96.4453V140ZM102.555 135.547V140H101.055V128.625H105.25C106.495 128.625 107.469 128.943 108.172 129.578C108.88 130.214 109.234 131.055 109.234 132.102C109.234 133.206 108.888 134.057 108.195 134.656C107.508 135.25 106.521 135.547 105.234 135.547H102.555ZM102.555 134.32H105.25C106.052 134.32 106.667 134.133 107.094 133.758C107.521 133.378 107.734 132.831 107.734 132.117C107.734 131.44 107.521 130.898 107.094 130.492C106.667 130.086 106.081 129.875 105.336 129.859H102.555V134.32Z" fill="black"/>
<path d="M276.367 20.3633H271.744L270.865 23H268.062L272.825 10.2031H275.269L280.059 23H277.255L276.367 20.3633ZM272.456 18.2275H275.655L274.047 13.4375L272.456 18.2275ZM286.237 20.3721C286.237 20.0615 286.082 19.8184 285.771 19.6426C285.467 19.4609 284.975 19.2998 284.295 19.1592C282.033 18.6846 280.902 17.7236 280.902 16.2764C280.902 15.4326 281.251 14.7295 281.948 14.167C282.651 13.5986 283.568 13.3145 284.699 13.3145C285.906 13.3145 286.87 13.5986 287.591 14.167C288.317 14.7354 288.681 15.4736 288.681 16.3818H286.141C286.141 16.0186 286.023 15.7197 285.789 15.4854C285.555 15.2451 285.188 15.125 284.69 15.125C284.263 15.125 283.932 15.2217 283.697 15.415C283.463 15.6084 283.346 15.8545 283.346 16.1533C283.346 16.4346 283.478 16.6631 283.741 16.8389C284.011 17.0088 284.462 17.1582 285.095 17.2871C285.728 17.4102 286.261 17.5508 286.694 17.709C288.036 18.2012 288.707 19.0537 288.707 20.2666C288.707 21.1338 288.335 21.8369 287.591 22.376C286.847 22.9092 285.886 23.1758 284.708 23.1758C283.911 23.1758 283.202 23.0352 282.581 22.7539C281.966 22.4668 281.482 22.0771 281.131 21.585C280.779 21.0869 280.604 20.5508 280.604 19.9766H283.012C283.035 20.4277 283.202 20.7734 283.513 21.0137C283.823 21.2539 284.239 21.374 284.761 21.374C285.247 21.374 285.613 21.2832 285.859 21.1016C286.111 20.9141 286.237 20.6709 286.237 20.3721ZM295.501 20.3721C295.501 20.0615 295.346 19.8184 295.035 19.6426C294.73 19.4609 294.238 19.2998 293.559 19.1592C291.297 18.6846 290.166 17.7236 290.166 16.2764C290.166 15.4326 290.515 14.7295 291.212 14.167C291.915 13.5986 292.832 13.3145 293.963 13.3145C295.17 13.3145 296.134 13.5986 296.854 14.167C297.581 14.7354 297.944 15.4736 297.944 16.3818H295.404C295.404 16.0186 295.287 15.7197 295.053 15.4854C294.818 15.2451 294.452 15.125 293.954 15.125C293.526 15.125 293.195 15.2217 292.961 15.415C292.727 15.6084 292.609 15.8545 292.609 16.1533C292.609 16.4346 292.741 16.6631 293.005 16.8389C293.274 17.0088 293.726 17.1582 294.358 17.2871C294.991 17.4102 295.524 17.5508 295.958 17.709C297.3 18.2012 297.971 19.0537 297.971 20.2666C297.971 21.1338 297.599 21.8369 296.854 22.376C296.11 22.9092 295.149 23.1758 293.972 23.1758C293.175 23.1758 292.466 23.0352 291.845 22.7539C291.229 22.4668 290.746 22.0771 290.395 21.585C290.043 21.0869 289.867 20.5508 289.867 19.9766H292.275C292.299 20.4277 292.466 20.7734 292.776 21.0137C293.087 21.2539 293.503 21.374 294.024 21.374C294.511 21.374 294.877 21.2832 295.123 21.1016C295.375 20.9141 295.501 20.6709 295.501 20.3721ZM303.991 23.1758C302.597 23.1758 301.46 22.748 300.581 21.8926C299.708 21.0371 299.271 19.8975 299.271 18.4736V18.2275C299.271 17.2725 299.456 16.4199 299.825 15.6699C300.194 14.9141 300.716 14.334 301.39 13.9297C302.069 13.5195 302.843 13.3145 303.71 13.3145C305.011 13.3145 306.033 13.7246 306.777 14.5449C307.527 15.3652 307.902 16.5283 307.902 18.0342V19.0713H301.847C301.929 19.6924 302.175 20.1904 302.585 20.5654C303.001 20.9404 303.525 21.1279 304.158 21.1279C305.137 21.1279 305.901 20.7734 306.452 20.0645L307.7 21.4619C307.319 22.001 306.804 22.4229 306.153 22.7275C305.503 23.0264 304.782 23.1758 303.991 23.1758ZM303.701 15.3711C303.197 15.3711 302.787 15.541 302.471 15.8809C302.16 16.2207 301.961 16.707 301.873 17.3398H305.406V17.1377C305.395 16.5752 305.242 16.1416 304.949 15.8369C304.656 15.5264 304.24 15.3711 303.701 15.3711ZM312.394 11.1523V13.4902H314.02V15.3535H312.394V20.0996C312.394 20.4512 312.461 20.7031 312.596 20.8555C312.73 21.0078 312.988 21.084 313.369 21.084C313.65 21.084 313.899 21.0635 314.116 21.0225V22.9473C313.618 23.0996 313.105 23.1758 312.578 23.1758C310.797 23.1758 309.889 22.2764 309.854 20.4775V15.3535H308.465V13.4902H309.854V11.1523H312.394ZM323.872 21.1279C324.341 21.1279 324.722 20.999 325.015 20.7412C325.308 20.4834 325.46 20.1406 325.472 19.7129H327.854C327.848 20.3574 327.672 20.9492 327.326 21.4883C326.98 22.0215 326.506 22.4375 325.902 22.7363C325.305 23.0293 324.643 23.1758 323.916 23.1758C322.557 23.1758 321.484 22.7451 320.699 21.8838C319.914 21.0166 319.521 19.8213 319.521 18.2979V18.1309C319.521 16.666 319.911 15.4971 320.69 14.624C321.47 13.751 322.539 13.3145 323.898 13.3145C325.088 13.3145 326.04 13.6543 326.755 14.334C327.476 15.0078 327.842 15.9072 327.854 17.0322H325.472C325.46 16.54 325.308 16.1416 325.015 15.8369C324.722 15.5264 324.335 15.3711 323.854 15.3711C323.263 15.3711 322.814 15.5879 322.51 16.0215C322.211 16.4492 322.062 17.1465 322.062 18.1133V18.377C322.062 19.3555 322.211 20.0586 322.51 20.4863C322.809 20.9141 323.263 21.1279 323.872 21.1279ZM328.908 18.1572C328.908 17.2139 329.09 16.373 329.453 15.6348C329.816 14.8965 330.338 14.3252 331.018 13.9209C331.703 13.5166 332.497 13.3145 333.399 13.3145C334.683 13.3145 335.729 13.707 336.537 14.4922C337.352 15.2773 337.806 16.3438 337.899 17.6914L337.917 18.3418C337.917 19.8008 337.51 20.9727 336.695 21.8574C335.881 22.7363 334.788 23.1758 333.417 23.1758C332.046 23.1758 330.95 22.7363 330.13 21.8574C329.315 20.9785 328.908 19.7832 328.908 18.2715V18.1572ZM331.448 18.3418C331.448 19.2441 331.618 19.9355 331.958 20.416C332.298 20.8906 332.784 21.1279 333.417 21.1279C334.032 21.1279 334.513 20.8936 334.858 20.4248C335.204 19.9502 335.377 19.1943 335.377 18.1572C335.377 17.2725 335.204 16.5869 334.858 16.1006C334.513 15.6143 334.026 15.3711 333.399 15.3711C332.778 15.3711 332.298 15.6143 331.958 16.1006C331.618 16.5811 331.448 17.3281 331.448 18.3418ZM345.177 22.0332C344.55 22.7949 343.683 23.1758 342.575 23.1758C341.556 23.1758 340.776 22.8828 340.237 22.2969C339.704 21.7109 339.432 20.8525 339.42 19.7217V13.4902H341.96V19.6338C341.96 20.624 342.411 21.1191 343.313 21.1191C344.175 21.1191 344.767 20.8203 345.089 20.2227V13.4902H347.638V23H345.247L345.177 22.0332ZM351.892 13.4902L351.971 14.5889C352.65 13.7393 353.562 13.3145 354.704 13.3145C355.712 13.3145 356.462 13.6104 356.954 14.2021C357.446 14.7939 357.698 15.6787 357.71 16.8564V23H355.17V16.918C355.17 16.3789 355.053 15.9893 354.818 15.749C354.584 15.5029 354.194 15.3799 353.649 15.3799C352.935 15.3799 352.398 15.6846 352.041 16.2939V23H349.501V13.4902H351.892ZM362.685 11.1523V13.4902H364.311V15.3535H362.685V20.0996C362.685 20.4512 362.752 20.7031 362.887 20.8555C363.021 21.0078 363.279 21.084 363.66 21.084C363.941 21.084 364.19 21.0635 364.407 21.0225V22.9473C363.909 23.0996 363.396 23.1758 362.869 23.1758C361.088 23.1758 360.18 22.2764 360.145 20.4775V15.3535H358.756V13.4902H360.145V11.1523H362.685Z" fill="black"/>
<path d="M42.5488 23H39.9121L34.7793 14.5801V23H32.1426V10.2031H34.7793L39.9209 18.6406V10.2031H42.5488V23ZM50.1953 23C50.0781 22.7715 49.9932 22.4873 49.9404 22.1475C49.3252 22.833 48.5254 23.1758 47.541 23.1758C46.6094 23.1758 45.8359 22.9062 45.2207 22.3672C44.6113 21.8281 44.3066 21.1484 44.3066 20.3281C44.3066 19.3203 44.6787 18.5469 45.4229 18.0078C46.1729 17.4688 47.2539 17.1963 48.666 17.1904H49.835V16.6455C49.835 16.2061 49.7207 15.8545 49.4922 15.5908C49.2695 15.3271 48.915 15.1953 48.4287 15.1953C48.001 15.1953 47.6641 15.2979 47.418 15.5029C47.1777 15.708 47.0576 15.9893 47.0576 16.3467H44.5176C44.5176 15.7959 44.6875 15.2861 45.0273 14.8174C45.3672 14.3486 45.8477 13.9824 46.4688 13.7188C47.0898 13.4492 47.7871 13.3145 48.5605 13.3145C49.7324 13.3145 50.6611 13.6104 51.3467 14.2021C52.0381 14.7881 52.3838 15.6143 52.3838 16.6807V20.8027C52.3896 21.7051 52.5156 22.3877 52.7617 22.8506V23H50.1953ZM48.0947 21.2334C48.4697 21.2334 48.8154 21.1514 49.1318 20.9873C49.4482 20.8174 49.6826 20.5918 49.835 20.3105V18.6758H48.8857C47.6143 18.6758 46.9375 19.1152 46.8555 19.9941L46.8467 20.1436C46.8467 20.46 46.958 20.7207 47.1807 20.9258C47.4033 21.1309 47.708 21.2334 48.0947 21.2334ZM56.7168 13.4902L56.7959 14.5537C57.4697 13.7275 58.3809 13.3145 59.5293 13.3145C60.7539 13.3145 61.5947 13.7979 62.0518 14.7646C62.7197 13.7979 63.6719 13.3145 64.9082 13.3145C65.9395 13.3145 66.707 13.6162 67.2109 14.2197C67.7148 14.8174 67.9668 15.7197 67.9668 16.9268V23H65.418V16.9355C65.418 16.3965 65.3125 16.0039 65.1016 15.7578C64.8906 15.5059 64.5186 15.3799 63.9854 15.3799C63.2236 15.3799 62.6963 15.7432 62.4033 16.4697L62.4121 23H59.8721V16.9443C59.8721 16.3936 59.7637 15.9951 59.5469 15.749C59.3301 15.5029 58.9609 15.3799 58.4395 15.3799C57.7188 15.3799 57.1973 15.6787 56.875 16.2764V23H54.335V13.4902H56.7168ZM74.3037 23.1758C72.9092 23.1758 71.7725 22.748 70.8936 21.8926C70.0205 21.0371 69.584 19.8975 69.584 18.4736V18.2275C69.584 17.2725 69.7686 16.4199 70.1377 15.6699C70.5068 14.9141 71.0283 14.334 71.7021 13.9297C72.3818 13.5195 73.1553 13.3145 74.0225 13.3145C75.3232 13.3145 76.3457 13.7246 77.0898 14.5449C77.8398 15.3652 78.2148 16.5283 78.2148 18.0342V19.0713H72.1592C72.2412 19.6924 72.4873 20.1904 72.8975 20.5654C73.3135 20.9404 73.8379 21.1279 74.4707 21.1279C75.4492 21.1279 76.2139 20.7734 76.7646 20.0645L78.0127 21.4619C77.6318 22.001 77.1162 22.4229 76.4658 22.7275C75.8154 23.0264 75.0947 23.1758 74.3037 23.1758ZM74.0137 15.3711C73.5098 15.3711 73.0996 15.541 72.7832 15.8809C72.4727 16.2207 72.2734 16.707 72.1855 17.3398H75.7188V17.1377C75.707 16.5752 75.5547 16.1416 75.2617 15.8369C74.9688 15.5264 74.5527 15.3711 74.0137 15.3711Z" fill="black"/>
<path d="M200.5 11L208.727 20H192.273L200.5 11Z" fill="#151515"/>
<path d="M273.695 178H272.242V168.367L269.328 169.438V168.125L273.469 166.57H273.695V178ZM285.383 178H277.93V176.961L281.867 172.586C282.451 171.924 282.852 171.388 283.07 170.977C283.294 170.56 283.406 170.13 283.406 169.688C283.406 169.094 283.227 168.607 282.867 168.227C282.508 167.846 282.029 167.656 281.43 167.656C280.711 167.656 280.151 167.862 279.75 168.273C279.354 168.68 279.156 169.247 279.156 169.977H277.711C277.711 168.93 278.047 168.083 278.719 167.438C279.396 166.792 280.299 166.469 281.43 166.469C282.487 166.469 283.323 166.747 283.938 167.305C284.552 167.857 284.859 168.594 284.859 169.516C284.859 170.635 284.146 171.969 282.719 173.516L279.672 176.82H285.383V178Z" fill="black"/>
<path d="M34.7734 174.414L34.9922 175.914L35.3125 174.562L37.5625 166.625H38.8281L41.0234 174.562L41.3359 175.938L41.5781 174.406L43.3438 166.625H44.8516L42.0938 178H40.7266L38.3828 169.711L38.2031 168.844L38.0234 169.711L35.5938 178H34.2266L31.4766 166.625H32.9766L34.7734 174.414ZM49.875 172.93C48.5885 172.56 47.651 172.107 47.0625 171.57C46.4792 171.029 46.1875 170.362 46.1875 169.57C46.1875 168.674 46.5443 167.935 47.2578 167.352C47.9766 166.763 48.9089 166.469 50.0547 166.469C50.8359 166.469 51.5312 166.62 52.1406 166.922C52.7552 167.224 53.2292 167.641 53.5625 168.172C53.901 168.703 54.0703 169.284 54.0703 169.914H52.5625C52.5625 169.227 52.3438 168.688 51.9062 168.297C51.4688 167.901 50.8516 167.703 50.0547 167.703C49.3151 167.703 48.737 167.867 48.3203 168.195C47.9089 168.518 47.7031 168.969 47.7031 169.547C47.7031 170.01 47.8984 170.404 48.2891 170.727C48.6849 171.044 49.3542 171.336 50.2969 171.602C51.2448 171.867 51.9844 172.161 52.5156 172.484C53.0521 172.802 53.4479 173.174 53.7031 173.602C53.9635 174.029 54.0938 174.531 54.0938 175.109C54.0938 176.031 53.7344 176.771 53.0156 177.328C52.2969 177.88 51.3359 178.156 50.1328 178.156C49.3516 178.156 48.6224 178.008 47.9453 177.711C47.2682 177.409 46.7448 176.997 46.375 176.477C46.0104 175.956 45.8281 175.365 45.8281 174.703H47.3359C47.3359 175.391 47.5885 175.935 48.0938 176.336C48.6042 176.732 49.2839 176.93 50.1328 176.93C50.9245 176.93 51.5312 176.768 51.9531 176.445C52.375 176.122 52.5859 175.682 52.5859 175.125C52.5859 174.568 52.3906 174.138 52 173.836C51.6094 173.529 50.901 173.227 49.875 172.93ZM62.4531 172.742H57.5234V176.773H63.25V178H56.0234V166.625H63.1719V167.859H57.5234V171.516H62.4531V172.742ZM72.1953 178H64.7422V176.961L68.6797 172.586C69.263 171.924 69.6641 171.388 69.8828 170.977C70.1068 170.56 70.2188 170.13 70.2188 169.688C70.2188 169.094 70.0391 168.607 69.6797 168.227C69.3203 167.846 68.8411 167.656 68.2422 167.656C67.5234 167.656 66.9635 167.862 66.5625 168.273C66.1667 168.68 65.9688 169.247 65.9688 169.977H64.5234C64.5234 168.93 64.8594 168.083 65.5312 167.438C66.2083 166.792 67.112 166.469 68.2422 166.469C69.2995 166.469 70.1354 166.747 70.75 167.305C71.3646 167.857 71.6719 168.594 71.6719 169.516C71.6719 170.635 70.9583 171.969 69.5312 173.516L66.4844 176.82H72.1953V178ZM80.8594 173.148C80.8594 174.841 80.5703 176.099 79.9922 176.922C79.4141 177.745 78.5104 178.156 77.2812 178.156C76.0677 178.156 75.1693 177.755 74.5859 176.953C74.0026 176.146 73.7005 174.943 73.6797 173.344V171.414C73.6797 169.742 73.9688 168.5 74.5469 167.688C75.125 166.875 76.0312 166.469 77.2656 166.469C78.4896 166.469 79.3906 166.862 79.9688 167.648C80.5469 168.43 80.8438 169.638 80.8594 171.273V173.148ZM79.4141 171.172C79.4141 169.948 79.2422 169.057 78.8984 168.5C78.5547 167.938 78.0104 167.656 77.2656 167.656C76.526 167.656 75.987 167.935 75.6484 168.492C75.3099 169.049 75.1354 169.906 75.125 171.062V173.375C75.125 174.604 75.3021 175.513 75.6562 176.102C76.0156 176.685 76.5573 176.977 77.2812 176.977C77.9948 176.977 78.5234 176.701 78.8672 176.148C79.2161 175.596 79.3984 174.727 79.4141 173.539V171.172ZM90.1641 178H82.7109V176.961L86.6484 172.586C87.2318 171.924 87.6328 171.388 87.8516 170.977C88.0755 170.56 88.1875 170.13 88.1875 169.688C88.1875 169.094 88.0078 168.607 87.6484 168.227C87.2891 167.846 86.8099 167.656 86.2109 167.656C85.4922 167.656 84.9323 167.862 84.5312 168.273C84.1354 168.68 83.9375 169.247 83.9375 169.977H82.4922C82.4922 168.93 82.8281 168.083 83.5 167.438C84.1771 166.792 85.0807 166.469 86.2109 166.469C87.2682 166.469 88.1042 166.747 88.7188 167.305C89.3333 167.857 89.6406 168.594 89.6406 169.516C89.6406 170.635 88.9271 171.969 87.5 173.516L84.4531 176.82H90.1641V178ZM96.4453 178H94.9922V168.367L92.0781 169.438V168.125L96.2188 166.57H96.4453V178ZM102.555 173.547V178H101.055V166.625H105.25C106.495 166.625 107.469 166.943 108.172 167.578C108.88 168.214 109.234 169.055 109.234 170.102C109.234 171.206 108.888 172.057 108.195 172.656C107.508 173.25 106.521 173.547 105.234 173.547H102.555ZM102.555 172.32H105.25C106.052 172.32 106.667 172.133 107.094 171.758C107.521 171.378 107.734 170.831 107.734 170.117C107.734 169.44 107.521 168.898 107.094 168.492C106.667 168.086 106.081 167.875 105.336 167.859H102.555V172.32Z" fill="black"/>
<path d="M271.047 211.609H272.133C272.815 211.599 273.352 211.419 273.742 211.07C274.133 210.721 274.328 210.25 274.328 209.656C274.328 208.323 273.664 207.656 272.336 207.656C271.711 207.656 271.211 207.836 270.836 208.195C270.466 208.549 270.281 209.021 270.281 209.609H268.836C268.836 208.708 269.164 207.961 269.82 207.367C270.482 206.768 271.32 206.469 272.336 206.469C273.409 206.469 274.25 206.753 274.859 207.32C275.469 207.888 275.773 208.677 275.773 209.688C275.773 210.182 275.612 210.661 275.289 211.125C274.971 211.589 274.536 211.935 273.984 212.164C274.609 212.362 275.091 212.69 275.43 213.148C275.773 213.607 275.945 214.167 275.945 214.828C275.945 215.849 275.612 216.659 274.945 217.258C274.279 217.857 273.411 218.156 272.344 218.156C271.276 218.156 270.406 217.867 269.734 217.289C269.068 216.711 268.734 215.948 268.734 215H270.188C270.188 215.599 270.383 216.078 270.773 216.438C271.164 216.797 271.688 216.977 272.344 216.977C273.042 216.977 273.576 216.794 273.945 216.43C274.315 216.065 274.5 215.542 274.5 214.859C274.5 214.198 274.297 213.69 273.891 213.336C273.484 212.982 272.898 212.799 272.133 212.789H271.047V211.609ZM284.031 214.18H285.609V215.359H284.031V218H282.578V215.359H277.398V214.508L282.492 206.625H284.031V214.18ZM279.039 214.18H282.578V208.602L282.406 208.914L279.039 214.18Z" fill="black"/>
<path d="M40.1797 207.859H36.5234V218H35.0312V207.859H31.3828V206.625H40.1797V207.859ZM48.1406 212.977H43.3672V218H41.8672V206.625H48.9141V207.859H43.3672V211.75H48.1406V212.977ZM56.9844 212.977H52.2109V218H50.7109V206.625H57.7578V207.859H52.2109V211.75H56.9844V212.977ZM65.2812 214.18H66.8594V215.359H65.2812V218H63.8281V215.359H58.6484V214.508L63.7422 206.625H65.2812V214.18ZM60.2891 214.18H63.8281V208.602L63.6562 208.914L60.2891 214.18ZM68.8281 212.297L69.4062 206.625H75.2344V207.961H70.6328L70.2891 211.062C70.8464 210.734 71.4792 210.57 72.1875 210.57C73.224 210.57 74.0469 210.914 74.6562 211.602C75.2656 212.284 75.5703 213.208 75.5703 214.375C75.5703 215.547 75.2526 216.471 74.6172 217.148C73.987 217.82 73.1042 218.156 71.9688 218.156C70.9635 218.156 70.1432 217.878 69.5078 217.32C68.8724 216.763 68.5104 215.992 68.4219 215.008H69.7891C69.8776 215.659 70.1094 216.151 70.4844 216.484C70.8594 216.812 71.3542 216.977 71.9688 216.977C72.6406 216.977 73.1667 216.747 73.5469 216.289C73.9323 215.831 74.125 215.198 74.125 214.391C74.125 213.63 73.9167 213.021 73.5 212.562C73.0885 212.099 72.5391 211.867 71.8516 211.867C71.2214 211.867 70.7266 212.005 70.3672 212.281L69.9844 212.594L68.8281 212.297ZM79.25 211.609H80.3359C81.0182 211.599 81.5547 211.419 81.9453 211.07C82.3359 210.721 82.5312 210.25 82.5312 209.656C82.5312 208.323 81.8672 207.656 80.5391 207.656C79.9141 207.656 79.4141 207.836 79.0391 208.195C78.6693 208.549 78.4844 209.021 78.4844 209.609H77.0391C77.0391 208.708 77.3672 207.961 78.0234 207.367C78.6849 206.768 79.5234 206.469 80.5391 206.469C81.612 206.469 82.4531 206.753 83.0625 207.32C83.6719 207.888 83.9766 208.677 83.9766 209.688C83.9766 210.182 83.8151 210.661 83.4922 211.125C83.1745 211.589 82.7396 211.935 82.1875 212.164C82.8125 212.362 83.2943 212.69 83.6328 213.148C83.9766 213.607 84.1484 214.167 84.1484 214.828C84.1484 215.849 83.8151 216.659 83.1484 217.258C82.4818 217.857 81.6146 218.156 80.5469 218.156C79.4792 218.156 78.6094 217.867 77.9375 217.289C77.2708 216.711 76.9375 215.948 76.9375 215H78.3906C78.3906 215.599 78.5859 216.078 78.9766 216.438C79.3672 216.797 79.8906 216.977 80.5469 216.977C81.2448 216.977 81.7786 216.794 82.1484 216.43C82.5182 216.065 82.7031 215.542 82.7031 214.859C82.7031 214.198 82.5 213.69 82.0938 213.336C81.6875 212.982 81.1016 212.799 80.3359 212.789H79.25V211.609ZM86.7969 212.297L87.375 206.625H93.2031V207.961H88.6016L88.2578 211.062C88.8151 210.734 89.4479 210.57 90.1562 210.57C91.1927 210.57 92.0156 210.914 92.625 211.602C93.2344 212.284 93.5391 213.208 93.5391 214.375C93.5391 215.547 93.2214 216.471 92.5859 217.148C91.9557 217.82 91.0729 218.156 89.9375 218.156C88.9323 218.156 88.112 217.878 87.4766 217.32C86.8411 216.763 86.4792 215.992 86.3906 215.008H87.7578C87.8464 215.659 88.0781 216.151 88.4531 216.484C88.8281 216.812 89.3229 216.977 89.9375 216.977C90.6094 216.977 91.1354 216.747 91.5156 216.289C91.901 215.831 92.0938 215.198 92.0938 214.391C92.0938 213.63 91.8854 213.021 91.4688 212.562C91.0573 212.099 90.5078 211.867 89.8203 211.867C89.1901 211.867 88.6953 212.005 88.3359 212.281L87.9531 212.594L86.7969 212.297ZM96.9922 213.547V218H95.4922V206.625H99.6875C100.932 206.625 101.906 206.943 102.609 207.578C103.318 208.214 103.672 209.055 103.672 210.102C103.672 211.206 103.326 212.057 102.633 212.656C101.945 213.25 100.958 213.547 99.6719 213.547H96.9922ZM96.9922 212.32H99.6875C100.49 212.32 101.104 212.133 101.531 211.758C101.958 211.378 102.172 210.831 102.172 210.117C102.172 209.44 101.958 208.898 101.531 208.492C101.104 208.086 100.518 207.875 99.7734 207.859H96.9922V212.32Z" fill="black"/>
</svg>
