<svg width="219" height="17" viewBox="0 0 219 17" fill="none" xmlns="http://www.w3.org/2000/svg">
<path opacity="0.6" d="M7.16406 16H3.86328V5.49219L0.621094 6.43945V3.93945L6.86133 1.78125H7.16406V16ZM23.0625 13.1973C23.0625 12.709 22.877 12.3314 22.5059 12.0645C22.1413 11.791 21.5 11.5566 20.582 11.3613C19.6706 11.166 18.9447 10.9316 18.4043 10.6582C17.8704 10.3848 17.4733 10.0592 17.2129 9.68164C16.959 9.30404 16.832 8.85482 16.832 8.33398C16.832 7.4681 17.1966 6.73568 17.9258 6.13672C18.6615 5.53776 19.599 5.23828 20.7383 5.23828C21.9362 5.23828 22.9062 5.54753 23.6484 6.16602C24.3971 6.78451 24.7715 7.57552 24.7715 8.53906H22.9551C22.9551 8.04427 22.7435 7.61784 22.3203 7.25977C21.9036 6.90169 21.3763 6.72266 20.7383 6.72266C20.0807 6.72266 19.5664 6.86589 19.1953 7.15234C18.8242 7.4388 18.6387 7.81315 18.6387 8.27539C18.6387 8.71159 18.8112 9.04036 19.1562 9.26172C19.5013 9.48307 20.123 9.69466 21.0215 9.89648C21.9264 10.0983 22.6589 10.3392 23.2188 10.6191C23.7786 10.8991 24.1921 11.2376 24.459 11.6348C24.7324 12.0254 24.8691 12.5039 24.8691 13.0703C24.8691 14.0143 24.4915 14.7728 23.7363 15.3457C22.9811 15.9121 22.0013 16.1953 20.7969 16.1953C19.9505 16.1953 19.2018 16.0456 18.5508 15.7461C17.8997 15.4466 17.3887 15.0299 17.0176 14.4961C16.653 13.9557 16.4707 13.373 16.4707 12.748H18.2773C18.3099 13.3535 18.5508 13.8353 19 14.1934C19.4557 14.5449 20.0547 14.7207 20.7969 14.7207C21.4805 14.7207 22.0273 14.584 22.4375 14.3105C22.8542 14.0306 23.0625 13.6595 23.0625 13.1973ZM31.6074 16.1953C30.1751 16.1953 29.0098 15.7266 28.1113 14.7891C27.2129 13.8451 26.7637 12.5853 26.7637 11.0098V10.6777C26.7637 9.62956 26.9622 8.69531 27.3594 7.875C27.763 7.04818 28.3229 6.40365 29.0391 5.94141C29.7617 5.47266 30.543 5.23828 31.3828 5.23828C32.7565 5.23828 33.8242 5.69076 34.5859 6.5957C35.3477 7.50065 35.7285 8.79622 35.7285 10.4824V11.2344H28.5703C28.5964 12.276 28.8991 13.1191 29.4785 13.7637C30.0645 14.4017 30.8066 14.7207 31.7051 14.7207C32.3431 14.7207 32.8835 14.5905 33.3262 14.3301C33.7689 14.0697 34.1562 13.7246 34.4883 13.2949L35.5918 14.1543C34.7064 15.515 33.3783 16.1953 31.6074 16.1953ZM31.3828 6.72266C30.6536 6.72266 30.0417 6.98958 29.5469 7.52344C29.0521 8.05078 28.7461 8.79297 28.6289 9.75H33.9219V9.61328C33.8698 8.69531 33.6224 7.98568 33.1797 7.48438C32.737 6.97656 32.138 6.72266 31.3828 6.72266ZM39.791 16H37.9844V1H39.791V16ZM47.0762 16.1953C45.6439 16.1953 44.4785 15.7266 43.5801 14.7891C42.6816 13.8451 42.2324 12.5853 42.2324 11.0098V10.6777C42.2324 9.62956 42.431 8.69531 42.8281 7.875C43.2318 7.04818 43.7917 6.40365 44.5078 5.94141C45.2305 5.47266 46.0117 5.23828 46.8516 5.23828C48.2253 5.23828 49.293 5.69076 50.0547 6.5957C50.8164 7.50065 51.1973 8.79622 51.1973 10.4824V11.2344H44.0391C44.0651 12.276 44.3678 13.1191 44.9473 13.7637C45.5332 14.4017 46.2754 14.7207 47.1738 14.7207C47.8118 14.7207 48.3522 14.5905 48.7949 14.3301C49.2376 14.0697 49.625 13.7246 49.957 13.2949L51.0605 14.1543C50.1751 15.515 48.847 16.1953 47.0762 16.1953ZM46.8516 6.72266C46.1224 6.72266 45.5104 6.98958 45.0156 7.52344C44.5208 8.05078 44.2148 8.79297 44.0977 9.75H49.3906V9.61328C49.3385 8.69531 49.0911 7.98568 48.6484 7.48438C48.2057 6.97656 47.6068 6.72266 46.8516 6.72266ZM57.5352 14.7207C58.1797 14.7207 58.7428 14.5254 59.2246 14.1348C59.7064 13.7441 59.9733 13.2559 60.0254 12.6699H61.7344C61.7018 13.2754 61.4935 13.8516 61.1094 14.3984C60.7253 14.9453 60.2109 15.3815 59.5664 15.707C58.9284 16.0326 58.2513 16.1953 57.5352 16.1953C56.0964 16.1953 54.9505 15.7168 54.0977 14.7598C53.2513 13.7962 52.8281 12.4811 52.8281 10.8145V10.5117C52.8281 9.48307 53.0169 8.56836 53.3945 7.76758C53.7721 6.9668 54.3125 6.34505 55.0156 5.90234C55.7253 5.45964 56.5618 5.23828 57.5254 5.23828C58.7103 5.23828 59.6934 5.5931 60.4746 6.30273C61.2624 7.01237 61.6823 7.93359 61.7344 9.06641H60.0254C59.9733 8.38281 59.7129 7.82292 59.2441 7.38672C58.7819 6.94401 58.209 6.72266 57.5254 6.72266C56.6074 6.72266 55.8945 7.05469 55.3867 7.71875C54.8854 8.3763 54.6348 9.33008 54.6348 10.5801V10.9219C54.6348 12.1393 54.8854 13.0768 55.3867 13.7344C55.888 14.3919 56.6042 14.7207 57.5352 14.7207ZM66.2168 2.875V5.43359H68.1895V6.83008H66.2168V13.3828C66.2168 13.806 66.3047 14.125 66.4805 14.3398C66.6562 14.5482 66.9557 14.6523 67.3789 14.6523C67.5872 14.6523 67.8737 14.6133 68.2383 14.5352V16C67.763 16.1302 67.3008 16.1953 66.8516 16.1953C66.0443 16.1953 65.4355 15.9512 65.0254 15.4629C64.6152 14.9746 64.4102 14.2812 64.4102 13.3828V6.83008H62.4863V5.43359H64.4102V2.875H66.2168ZM74.6934 16.1953C73.2611 16.1953 72.0957 15.7266 71.1973 14.7891C70.2988 13.8451 69.8496 12.5853 69.8496 11.0098V10.6777C69.8496 9.62956 70.0482 8.69531 70.4453 7.875C70.849 7.04818 71.4089 6.40365 72.125 5.94141C72.8477 5.47266 73.6289 5.23828 74.4688 5.23828C75.8424 5.23828 76.9102 5.69076 77.6719 6.5957C78.4336 7.50065 78.8145 8.79622 78.8145 10.4824V11.2344H71.6562C71.6823 12.276 71.985 13.1191 72.5645 13.7637C73.1504 14.4017 73.8926 14.7207 74.791 14.7207C75.429 14.7207 75.9694 14.5905 76.4121 14.3301C76.8548 14.0697 77.2422 13.7246 77.5742 13.2949L78.6777 14.1543C77.7923 15.515 76.4642 16.1953 74.6934 16.1953ZM74.4688 6.72266C73.7396 6.72266 73.1276 6.98958 72.6328 7.52344C72.138 8.05078 71.832 8.79297 71.7148 9.75H77.0078V9.61328C76.9557 8.69531 76.7083 7.98568 76.2656 7.48438C75.8229 6.97656 75.224 6.72266 74.4688 6.72266ZM80.4746 10.6289C80.4746 9.00781 80.8587 7.70573 81.627 6.72266C82.3952 5.73307 83.401 5.23828 84.6445 5.23828C85.8815 5.23828 86.8613 5.66146 87.584 6.50781V1H89.3906V16H87.7305L87.6426 14.8672C86.9199 15.7526 85.9141 16.1953 84.625 16.1953C83.401 16.1953 82.4017 15.694 81.627 14.6914C80.8587 13.6888 80.4746 12.3802 80.4746 10.7656V10.6289ZM82.2812 10.834C82.2812 12.0319 82.5286 12.9694 83.0234 13.6465C83.5182 14.3236 84.2018 14.6621 85.0742 14.6621C86.2201 14.6621 87.0566 14.1478 87.584 13.1191V8.26562C87.0436 7.26953 86.2135 6.77148 85.0938 6.77148C84.2083 6.77148 83.5182 7.11328 83.0234 7.79688C82.5286 8.48047 82.2812 9.49284 82.2812 10.834ZM98.0527 16V6.83008H96.3828V5.43359H98.0527V4.34961C98.0527 3.2168 98.3555 2.34115 98.9609 1.72266C99.5664 1.10417 100.423 0.794922 101.529 0.794922C101.946 0.794922 102.359 0.85026 102.77 0.960938L102.672 2.42578C102.366 2.36719 102.04 2.33789 101.695 2.33789C101.109 2.33789 100.657 2.51042 100.338 2.85547C100.019 3.19401 99.8594 3.68229 99.8594 4.32031V5.43359H102.115V6.83008H99.8594V16H98.0527ZM109.225 7.05469C108.951 7.00911 108.655 6.98633 108.336 6.98633C107.151 6.98633 106.347 7.49089 105.924 8.5V16H104.117V5.43359H105.875L105.904 6.6543C106.497 5.71029 107.337 5.23828 108.424 5.23828C108.775 5.23828 109.042 5.28385 109.225 5.375V7.05469ZM110.221 10.6191C110.221 9.58398 110.423 8.65299 110.826 7.82617C111.236 6.99935 111.803 6.36133 112.525 5.91211C113.255 5.46289 114.085 5.23828 115.016 5.23828C116.454 5.23828 117.617 5.73633 118.502 6.73242C119.394 7.72852 119.84 9.05339 119.84 10.707V10.834C119.84 11.8626 119.641 12.7871 119.244 13.6074C118.854 14.4212 118.29 15.056 117.555 15.5117C116.826 15.9674 115.986 16.1953 115.035 16.1953C113.603 16.1953 112.441 15.6973 111.549 14.7012C110.663 13.7051 110.221 12.3867 110.221 10.7461V10.6191ZM112.037 10.834C112.037 12.0059 112.307 12.9466 112.848 13.6562C113.395 14.3659 114.124 14.7207 115.035 14.7207C115.953 14.7207 116.682 14.3626 117.223 13.6465C117.763 12.9238 118.033 11.9147 118.033 10.6191C118.033 9.46029 117.757 8.52279 117.203 7.80664C116.656 7.08398 115.927 6.72266 115.016 6.72266C114.124 6.72266 113.404 7.07747 112.857 7.78711C112.311 8.49674 112.037 9.51237 112.037 10.834ZM123.805 5.43359L123.854 6.60547C124.628 5.69401 125.673 5.23828 126.988 5.23828C128.466 5.23828 129.472 5.80469 130.006 6.9375C130.357 6.42969 130.813 6.01953 131.373 5.70703C131.939 5.39453 132.607 5.23828 133.375 5.23828C135.693 5.23828 136.871 6.46549 136.91 8.91992V16H135.104V9.02734C135.104 8.27214 134.931 7.70898 134.586 7.33789C134.241 6.96029 133.661 6.77148 132.848 6.77148C132.177 6.77148 131.62 6.97331 131.178 7.37695C130.735 7.77409 130.478 8.3112 130.406 8.98828V16H128.59V9.07617C128.59 7.53971 127.838 6.77148 126.334 6.77148C125.149 6.77148 124.339 7.27604 123.902 8.28516V16H122.096V5.43359H123.805ZM153.043 5.49219C153.043 6.20182 152.854 6.83333 152.477 7.38672C152.105 7.9401 151.601 8.37305 150.963 8.68555C151.705 9.00456 152.291 9.47005 152.721 10.082C153.157 10.694 153.375 11.3874 153.375 12.1621C153.375 13.3926 152.958 14.3724 152.125 15.1016C151.298 15.8307 150.208 16.1953 148.854 16.1953C147.486 16.1953 146.389 15.8307 145.562 15.1016C144.742 14.3659 144.332 13.3861 144.332 12.1621C144.332 11.3939 144.54 10.7005 144.957 10.082C145.38 9.46354 145.963 8.99479 146.705 8.67578C146.074 8.36328 145.576 7.93034 145.211 7.37695C144.846 6.82357 144.664 6.19531 144.664 5.49219C144.664 4.29427 145.048 3.34375 145.816 2.64062C146.585 1.9375 147.597 1.58594 148.854 1.58594C150.104 1.58594 151.113 1.9375 151.881 2.64062C152.656 3.34375 153.043 4.29427 153.043 5.49219ZM151.568 12.123C151.568 11.3288 151.314 10.681 150.807 10.1797C150.305 9.67839 149.648 9.42773 148.834 9.42773C148.02 9.42773 147.366 9.67513 146.871 10.1699C146.383 10.6647 146.139 11.3158 146.139 12.123C146.139 12.9303 146.376 13.5651 146.852 14.0273C147.333 14.4896 148.001 14.7207 148.854 14.7207C149.7 14.7207 150.364 14.4896 150.846 14.0273C151.327 13.5586 151.568 12.9238 151.568 12.123ZM148.854 3.07031C148.144 3.07031 147.568 3.29167 147.125 3.73438C146.689 4.17057 146.471 4.76628 146.471 5.52148C146.471 6.24414 146.686 6.83008 147.115 7.2793C147.551 7.72201 148.131 7.94336 148.854 7.94336C149.576 7.94336 150.152 7.72201 150.582 7.2793C151.018 6.83008 151.236 6.24414 151.236 5.52148C151.236 4.79883 151.012 4.20964 150.562 3.75391C150.113 3.29818 149.544 3.07031 148.854 3.07031ZM165.904 7.05469C165.631 7.00911 165.335 6.98633 165.016 6.98633C163.831 6.98633 163.027 7.49089 162.604 8.5V16H160.797V5.43359H162.555L162.584 6.6543C163.176 5.71029 164.016 5.23828 165.104 5.23828C165.455 5.23828 165.722 5.28385 165.904 5.375V7.05469ZM171.764 16.1953C170.331 16.1953 169.166 15.7266 168.268 14.7891C167.369 13.8451 166.92 12.5853 166.92 11.0098V10.6777C166.92 9.62956 167.118 8.69531 167.516 7.875C167.919 7.04818 168.479 6.40365 169.195 5.94141C169.918 5.47266 170.699 5.23828 171.539 5.23828C172.913 5.23828 173.98 5.69076 174.742 6.5957C175.504 7.50065 175.885 8.79622 175.885 10.4824V11.2344H168.727C168.753 12.276 169.055 13.1191 169.635 13.7637C170.221 14.4017 170.963 14.7207 171.861 14.7207C172.499 14.7207 173.04 14.5905 173.482 14.3301C173.925 14.0697 174.312 13.7246 174.645 13.2949L175.748 14.1543C174.863 15.515 173.535 16.1953 171.764 16.1953ZM171.539 6.72266C170.81 6.72266 170.198 6.98958 169.703 7.52344C169.208 8.05078 168.902 8.79297 168.785 9.75H174.078V9.61328C174.026 8.69531 173.779 7.98568 173.336 7.48438C172.893 6.97656 172.294 6.72266 171.539 6.72266ZM184.137 13.1973C184.137 12.709 183.951 12.3314 183.58 12.0645C183.215 11.791 182.574 11.5566 181.656 11.3613C180.745 11.166 180.019 10.9316 179.479 10.6582C178.945 10.3848 178.548 10.0592 178.287 9.68164C178.033 9.30404 177.906 8.85482 177.906 8.33398C177.906 7.4681 178.271 6.73568 179 6.13672C179.736 5.53776 180.673 5.23828 181.812 5.23828C183.01 5.23828 183.98 5.54753 184.723 6.16602C185.471 6.78451 185.846 7.57552 185.846 8.53906H184.029C184.029 8.04427 183.818 7.61784 183.395 7.25977C182.978 6.90169 182.451 6.72266 181.812 6.72266C181.155 6.72266 180.641 6.86589 180.27 7.15234C179.898 7.4388 179.713 7.81315 179.713 8.27539C179.713 8.71159 179.885 9.04036 180.23 9.26172C180.576 9.48307 181.197 9.69466 182.096 9.89648C183.001 10.0983 183.733 10.3392 184.293 10.6191C184.853 10.8991 185.266 11.2376 185.533 11.6348C185.807 12.0254 185.943 12.5039 185.943 13.0703C185.943 14.0143 185.566 14.7728 184.811 15.3457C184.055 15.9121 183.076 16.1953 181.871 16.1953C181.025 16.1953 180.276 16.0456 179.625 15.7461C178.974 15.4466 178.463 15.0299 178.092 14.4961C177.727 13.9557 177.545 13.373 177.545 12.748H179.352C179.384 13.3535 179.625 13.8353 180.074 14.1934C180.53 14.5449 181.129 14.7207 181.871 14.7207C182.555 14.7207 183.102 14.584 183.512 14.3105C183.928 14.0306 184.137 13.6595 184.137 13.1973ZM194.82 14.9551C194.117 15.7819 193.085 16.1953 191.725 16.1953C190.598 16.1953 189.739 15.8698 189.146 15.2188C188.561 14.5612 188.264 13.5911 188.258 12.3086V5.43359H190.064V12.2598C190.064 13.8613 190.715 14.6621 192.018 14.6621C193.398 14.6621 194.316 14.1478 194.771 13.1191V5.43359H196.578V16H194.859L194.82 14.9551ZM201.295 16H199.488V1H201.295V16ZM206.646 2.875V5.43359H208.619V6.83008H206.646V13.3828C206.646 13.806 206.734 14.125 206.91 14.3398C207.086 14.5482 207.385 14.6523 207.809 14.6523C208.017 14.6523 208.303 14.6133 208.668 14.5352V16C208.193 16.1302 207.73 16.1953 207.281 16.1953C206.474 16.1953 205.865 15.9512 205.455 15.4629C205.045 14.9746 204.84 14.2812 204.84 13.3828V6.83008H202.916V5.43359H204.84V2.875H206.646ZM216.891 13.1973C216.891 12.709 216.705 12.3314 216.334 12.0645C215.969 11.791 215.328 11.5566 214.41 11.3613C213.499 11.166 212.773 10.9316 212.232 10.6582C211.699 10.3848 211.301 10.0592 211.041 9.68164C210.787 9.30404 210.66 8.85482 210.66 8.33398C210.66 7.4681 211.025 6.73568 211.754 6.13672C212.49 5.53776 213.427 5.23828 214.566 5.23828C215.764 5.23828 216.734 5.54753 217.477 6.16602C218.225 6.78451 218.6 7.57552 218.6 8.53906H216.783C216.783 8.04427 216.572 7.61784 216.148 7.25977C215.732 6.90169 215.204 6.72266 214.566 6.72266C213.909 6.72266 213.395 6.86589 213.023 7.15234C212.652 7.4388 212.467 7.81315 212.467 8.27539C212.467 8.71159 212.639 9.04036 212.984 9.26172C213.329 9.48307 213.951 9.69466 214.85 9.89648C215.755 10.0983 216.487 10.3392 217.047 10.6191C217.607 10.8991 218.02 11.2376 218.287 11.6348C218.561 12.0254 218.697 12.5039 218.697 13.0703C218.697 14.0143 218.32 14.7728 217.564 15.3457C216.809 15.9121 215.829 16.1953 214.625 16.1953C213.779 16.1953 213.03 16.0456 212.379 15.7461C211.728 15.4466 211.217 15.0299 210.846 14.4961C210.481 13.9557 210.299 13.373 210.299 12.748H212.105C212.138 13.3535 212.379 13.8353 212.828 14.1934C213.284 14.5449 213.883 14.7207 214.625 14.7207C215.309 14.7207 215.855 14.584 216.266 14.3105C216.682 14.0306 216.891 13.6595 216.891 13.1973Z" fill="black"/>
</svg>
