<svg width="75" height="16" viewBox="0 0 75 16" fill="none" xmlns="http://www.w3.org/2000/svg">
<path opacity="0.6" d="M8.80469 4.49219C8.80469 5.20182 8.61589 5.83333 8.23828 6.38672C7.86719 6.9401 7.36263 7.37305 6.72461 7.68555C7.4668 8.00456 8.05273 8.47005 8.48242 9.08203C8.91862 9.69401 9.13672 10.3874 9.13672 11.1621C9.13672 12.3926 8.72005 13.3724 7.88672 14.1016C7.0599 14.8307 5.9694 15.1953 4.61523 15.1953C3.24805 15.1953 2.15104 14.8307 1.32422 14.1016C0.503906 13.3659 0.09375 12.3861 0.09375 11.1621C0.09375 10.3939 0.302083 9.70052 0.71875 9.08203C1.14193 8.46354 1.72461 7.99479 2.4668 7.67578C1.83529 7.36328 1.33724 6.93034 0.972656 6.37695C0.608073 5.82357 0.425781 5.19531 0.425781 4.49219C0.425781 3.29427 0.809896 2.34375 1.57812 1.64062C2.34635 0.9375 3.35872 0.585938 4.61523 0.585938C5.86523 0.585938 6.87435 0.9375 7.64258 1.64062C8.41732 2.34375 8.80469 3.29427 8.80469 4.49219ZM7.33008 11.123C7.33008 10.3288 7.07617 9.68099 6.56836 9.17969C6.06706 8.67839 5.40951 8.42773 4.5957 8.42773C3.7819 8.42773 3.1276 8.67513 2.63281 9.16992C2.14453 9.66471 1.90039 10.3158 1.90039 11.123C1.90039 11.9303 2.13802 12.5651 2.61328 13.0273C3.09505 13.4896 3.76237 13.7207 4.61523 13.7207C5.46159 13.7207 6.12565 13.4896 6.60742 13.0273C7.08919 12.5586 7.33008 11.9238 7.33008 11.123ZM4.61523 2.07031C3.9056 2.07031 3.32943 2.29167 2.88672 2.73438C2.45052 3.17057 2.23242 3.76628 2.23242 4.52148C2.23242 5.24414 2.44727 5.83008 2.87695 6.2793C3.31315 6.72201 3.89258 6.94336 4.61523 6.94336C5.33789 6.94336 5.91406 6.72201 6.34375 6.2793C6.77995 5.83008 6.99805 5.24414 6.99805 4.52148C6.99805 3.79883 6.77344 3.20964 6.32422 2.75391C5.875 2.29818 5.30534 2.07031 4.61523 2.07031ZM21.666 6.05469C21.3926 6.00911 21.0964 5.98633 20.7773 5.98633C19.5924 5.98633 18.7884 6.49089 18.3652 7.5V15H16.5586V4.43359H18.3164L18.3457 5.6543C18.9382 4.71029 19.778 4.23828 20.8652 4.23828C21.2168 4.23828 21.4837 4.28385 21.666 4.375V6.05469ZM27.5254 15.1953C26.0931 15.1953 24.9277 14.7266 24.0293 13.7891C23.1309 12.8451 22.6816 11.5853 22.6816 10.0098V9.67773C22.6816 8.62956 22.8802 7.69531 23.2773 6.875C23.681 6.04818 24.2409 5.40365 24.957 4.94141C25.6797 4.47266 26.4609 4.23828 27.3008 4.23828C28.6745 4.23828 29.7422 4.69076 30.5039 5.5957C31.2656 6.50065 31.6465 7.79622 31.6465 9.48242V10.2344H24.4883C24.5143 11.276 24.8171 12.1191 25.3965 12.7637C25.9824 13.4017 26.7246 13.7207 27.623 13.7207C28.2611 13.7207 28.8014 13.5905 29.2441 13.3301C29.6868 13.0697 30.0742 12.7246 30.4062 12.2949L31.5098 13.1543C30.6243 14.515 29.2962 15.1953 27.5254 15.1953ZM27.3008 5.72266C26.5716 5.72266 25.9596 5.98958 25.4648 6.52344C24.9701 7.05078 24.6641 7.79297 24.5469 8.75H29.8398V8.61328C29.7878 7.69531 29.5404 6.98568 29.0977 6.48438C28.6549 5.97656 28.056 5.72266 27.3008 5.72266ZM39.8984 12.1973C39.8984 11.709 39.7129 11.3314 39.3418 11.0645C38.9772 10.791 38.3359 10.5566 37.418 10.3613C36.5065 10.166 35.7806 9.93164 35.2402 9.6582C34.7064 9.38477 34.3092 9.05924 34.0488 8.68164C33.7949 8.30404 33.668 7.85482 33.668 7.33398C33.668 6.4681 34.0326 5.73568 34.7617 5.13672C35.4974 4.53776 36.4349 4.23828 37.5742 4.23828C38.7721 4.23828 39.7422 4.54753 40.4844 5.16602C41.2331 5.78451 41.6074 6.57552 41.6074 7.53906H39.791C39.791 7.04427 39.5794 6.61784 39.1562 6.25977C38.7396 5.90169 38.2122 5.72266 37.5742 5.72266C36.9167 5.72266 36.4023 5.86589 36.0312 6.15234C35.6602 6.4388 35.4746 6.81315 35.4746 7.27539C35.4746 7.71159 35.6471 8.04036 35.9922 8.26172C36.3372 8.48307 36.959 8.69466 37.8574 8.89648C38.7624 9.09831 39.4948 9.33919 40.0547 9.61914C40.6146 9.89909 41.028 10.2376 41.2949 10.6348C41.5684 11.0254 41.7051 11.5039 41.7051 12.0703C41.7051 13.0143 41.3275 13.7728 40.5723 14.3457C39.8171 14.9121 38.8372 15.1953 37.6328 15.1953C36.7865 15.1953 36.0378 15.0456 35.3867 14.7461C34.7357 14.4466 34.2246 14.0299 33.8535 13.4961C33.4889 12.9557 33.3066 12.373 33.3066 11.748H35.1133C35.1458 12.3535 35.3867 12.8353 35.8359 13.1934C36.2917 13.5449 36.8906 13.7207 37.6328 13.7207C38.3164 13.7207 38.8633 13.584 39.2734 13.3105C39.6901 13.0306 39.8984 12.6595 39.8984 12.1973ZM50.582 13.9551C49.8789 14.7819 48.847 15.1953 47.4863 15.1953C46.36 15.1953 45.5007 14.8698 44.9082 14.2188C44.3223 13.5612 44.026 12.5911 44.0195 11.3086V4.43359H45.8262V11.2598C45.8262 12.8613 46.4772 13.6621 47.7793 13.6621C49.1595 13.6621 50.0775 13.1478 50.5332 12.1191V4.43359H52.3398V15H50.6211L50.582 13.9551ZM57.0566 15H55.25V0H57.0566V15ZM62.4082 1.875V4.43359H64.3809V5.83008H62.4082V12.3828C62.4082 12.806 62.4961 13.125 62.6719 13.3398C62.8477 13.5482 63.1471 13.6523 63.5703 13.6523C63.7786 13.6523 64.0651 13.6133 64.4297 13.5352V15C63.9544 15.1302 63.4922 15.1953 63.043 15.1953C62.2357 15.1953 61.627 14.9512 61.2168 14.4629C60.8066 13.9746 60.6016 13.2812 60.6016 12.3828V5.83008H58.6777V4.43359H60.6016V1.875H62.4082ZM72.6523 12.1973C72.6523 11.709 72.4668 11.3314 72.0957 11.0645C71.7311 10.791 71.0898 10.5566 70.1719 10.3613C69.2604 10.166 68.5345 9.93164 67.9941 9.6582C67.4603 9.38477 67.0632 9.05924 66.8027 8.68164C66.5488 8.30404 66.4219 7.85482 66.4219 7.33398C66.4219 6.4681 66.7865 5.73568 67.5156 5.13672C68.2513 4.53776 69.1888 4.23828 70.3281 4.23828C71.526 4.23828 72.4961 4.54753 73.2383 5.16602C73.987 5.78451 74.3613 6.57552 74.3613 7.53906H72.5449C72.5449 7.04427 72.3333 6.61784 71.9102 6.25977C71.4935 5.90169 70.9661 5.72266 70.3281 5.72266C69.6706 5.72266 69.1562 5.86589 68.7852 6.15234C68.4141 6.4388 68.2285 6.81315 68.2285 7.27539C68.2285 7.71159 68.401 8.04036 68.7461 8.26172C69.0911 8.48307 69.7129 8.69466 70.6113 8.89648C71.5163 9.09831 72.2487 9.33919 72.8086 9.61914C73.3685 9.89909 73.7819 10.2376 74.0488 10.6348C74.3223 11.0254 74.459 11.5039 74.459 12.0703C74.459 13.0143 74.0814 13.7728 73.3262 14.3457C72.571 14.9121 71.5911 15.1953 70.3867 15.1953C69.5404 15.1953 68.7917 15.0456 68.1406 14.7461C67.4896 14.4466 66.9785 14.0299 66.6074 13.4961C66.2428 12.9557 66.0605 12.373 66.0605 11.748H67.8672C67.8997 12.3535 68.1406 12.8353 68.5898 13.1934C69.0456 13.5449 69.6445 13.7207 70.3867 13.7207C71.0703 13.7207 71.6172 13.584 72.0273 13.3105C72.444 13.0306 72.6523 12.6595 72.6523 12.1973Z" fill="black"/>
</svg>
