<svg width="715" height="135" viewBox="0 0 715 135" fill="none" xmlns="http://www.w3.org/2000/svg">
<path d="M11.5488 22H8.91211L3.7793 13.5801V22H1.14258V9.20312H3.7793L8.9209 17.6406V9.20312H11.5488V22ZM19.1953 22C19.0781 21.7715 18.9932 21.4873 18.9404 21.1475C18.3252 21.833 17.5254 22.1758 16.541 22.1758C15.6094 22.1758 14.8359 21.9062 14.2207 21.3672C13.6113 20.8281 13.3066 20.1484 13.3066 19.3281C13.3066 18.3203 13.6787 17.5469 14.4229 17.0078C15.1729 16.4688 16.2539 16.1963 17.666 16.1904H18.835V15.6455C18.835 15.2061 18.7207 14.8545 18.4922 14.5908C18.2695 14.3271 17.915 14.1953 17.4287 14.1953C17.001 14.1953 16.6641 14.2979 16.418 14.5029C16.1777 14.708 16.0576 14.9893 16.0576 15.3467H13.5176C13.5176 14.7959 13.6875 14.2861 14.0273 13.8174C14.3672 13.3486 14.8477 12.9824 15.4688 12.7188C16.0898 12.4492 16.7871 12.3145 17.5605 12.3145C18.7324 12.3145 19.6611 12.6104 20.3467 13.2021C21.0381 13.7881 21.3838 14.6143 21.3838 15.6807V19.8027C21.3896 20.7051 21.5156 21.3877 21.7617 21.8506V22H19.1953ZM17.0947 20.2334C17.4697 20.2334 17.8154 20.1514 18.1318 19.9873C18.4482 19.8174 18.6826 19.5918 18.835 19.3105V17.6758H17.8857C16.6143 17.6758 15.9375 18.1152 15.8555 18.9941L15.8467 19.1436C15.8467 19.46 15.958 19.7207 16.1807 19.9258C16.4033 20.1309 16.708 20.2334 17.0947 20.2334ZM25.7168 12.4902L25.7959 13.5537C26.4697 12.7275 27.3809 12.3145 28.5293 12.3145C29.7539 12.3145 30.5947 12.7979 31.0518 13.7646C31.7197 12.7979 32.6719 12.3145 33.9082 12.3145C34.9395 12.3145 35.707 12.6162 36.2109 13.2197C36.7148 13.8174 36.9668 14.7197 36.9668 15.9268V22H34.418V15.9355C34.418 15.3965 34.3125 15.0039 34.1016 14.7578C33.8906 14.5059 33.5186 14.3799 32.9854 14.3799C32.2236 14.3799 31.6963 14.7432 31.4033 15.4697L31.4121 22H28.8721V15.9443C28.8721 15.3936 28.7637 14.9951 28.5469 14.749C28.3301 14.5029 27.9609 14.3799 27.4395 14.3799C26.7188 14.3799 26.1973 14.6787 25.875 15.2764V22H23.335V12.4902H25.7168ZM43.3037 22.1758C41.9092 22.1758 40.7725 21.748 39.8936 20.8926C39.0205 20.0371 38.584 18.8975 38.584 17.4736V17.2275C38.584 16.2725 38.7686 15.4199 39.1377 14.6699C39.5068 13.9141 40.0283 13.334 40.7021 12.9297C41.3818 12.5195 42.1553 12.3145 43.0225 12.3145C44.3232 12.3145 45.3457 12.7246 46.0898 13.5449C46.8398 14.3652 47.2148 15.5283 47.2148 17.0342V18.0713H41.1592C41.2412 18.6924 41.4873 19.1904 41.8975 19.5654C42.3135 19.9404 42.8379 20.1279 43.4707 20.1279C44.4492 20.1279 45.2139 19.7734 45.7646 19.0645L47.0127 20.4619C46.6318 21.001 46.1162 21.4229 45.4658 21.7275C44.8154 22.0264 44.0947 22.1758 43.3037 22.1758ZM43.0137 14.3711C42.5098 14.3711 42.0996 14.541 41.7832 14.8809C41.4727 15.2207 41.2734 15.707 41.1855 16.3398H44.7188V16.1377C44.707 15.5752 44.5547 15.1416 44.2617 14.8369C43.9688 14.5264 43.5527 14.3711 43.0137 14.3711Z" fill="black"/>
<path d="M7.75 59.7422H2.82031V63.7734H8.54688V65H1.32031V53.625H8.46875V54.8594H2.82031V58.5156H7.75V59.7422ZM13.0234 59.6328L14.8984 56.5469H16.5859L13.8203 60.7266L16.6719 65H15L13.0469 61.8359L11.0938 65H9.41406L12.2656 60.7266L9.5 56.5469H11.1719L13.0234 59.6328ZM23.3438 65C23.2604 64.8333 23.1927 64.5365 23.1406 64.1094C22.4688 64.8073 21.6667 65.1562 20.7344 65.1562C19.901 65.1562 19.2161 64.9219 18.6797 64.4531C18.1484 63.9792 17.8828 63.3802 17.8828 62.6562C17.8828 61.776 18.2161 61.0938 18.8828 60.6094C19.5547 60.1198 20.4974 59.875 21.7109 59.875H23.1172V59.2109C23.1172 58.7057 22.9661 58.3047 22.6641 58.0078C22.362 57.7057 21.9167 57.5547 21.3281 57.5547C20.8125 57.5547 20.3802 57.6849 20.0312 57.9453C19.6823 58.2057 19.5078 58.5208 19.5078 58.8906H18.0547C18.0547 58.4688 18.2031 58.0625 18.5 57.6719C18.8021 57.276 19.2083 56.9635 19.7188 56.7344C20.2344 56.5052 20.7995 56.3906 21.4141 56.3906C22.388 56.3906 23.151 56.6354 23.7031 57.125C24.2552 57.6094 24.5417 58.2786 24.5625 59.1328V63.0234C24.5625 63.7995 24.6615 64.4167 24.8594 64.875V65H23.3438ZM20.9453 63.8984C21.3984 63.8984 21.8281 63.7812 22.2344 63.5469C22.6406 63.3125 22.9349 63.0078 23.1172 62.6328V60.8984H21.9844C20.2135 60.8984 19.3281 61.4167 19.3281 62.4531C19.3281 62.9062 19.4792 63.2604 19.7812 63.5156C20.0833 63.7708 20.4714 63.8984 20.9453 63.8984ZM39.3906 61.3906C39.25 62.5938 38.8047 63.5234 38.0547 64.1797C37.3099 64.8307 36.3177 65.1562 35.0781 65.1562C33.7344 65.1562 32.6562 64.6745 31.8438 63.7109C31.0365 62.7474 30.6328 61.4583 30.6328 59.8438V58.75C30.6328 57.6927 30.8203 56.763 31.1953 55.9609C31.5755 55.1589 32.112 54.5443 32.8047 54.1172C33.4974 53.6849 34.2995 53.4688 35.2109 53.4688C36.4193 53.4688 37.388 53.8073 38.1172 54.4844C38.8464 55.1562 39.2708 56.0885 39.3906 57.2812H37.8828C37.7526 56.375 37.4688 55.7188 37.0312 55.3125C36.599 54.9062 35.9922 54.7031 35.2109 54.7031C34.2526 54.7031 33.5 55.0573 32.9531 55.7656C32.4115 56.474 32.1406 57.4818 32.1406 58.7891V59.8906C32.1406 61.125 32.3984 62.1068 32.9141 62.8359C33.4297 63.5651 34.151 63.9297 35.0781 63.9297C35.9115 63.9297 36.5495 63.7422 36.9922 63.3672C37.4401 62.987 37.737 62.3281 37.8828 61.3906H39.3906ZM40.8359 60.6953C40.8359 59.8672 40.9974 59.1224 41.3203 58.4609C41.6484 57.7995 42.1016 57.2891 42.6797 56.9297C43.263 56.5703 43.9271 56.3906 44.6719 56.3906C45.8229 56.3906 46.7526 56.7891 47.4609 57.5859C48.1745 58.3828 48.5312 59.4427 48.5312 60.7656V60.8672C48.5312 61.6901 48.3724 62.4297 48.0547 63.0859C47.7422 63.737 47.2917 64.2448 46.7031 64.6094C46.1198 64.974 45.4479 65.1562 44.6875 65.1562C43.5417 65.1562 42.612 64.7578 41.8984 63.9609C41.1901 63.1641 40.8359 62.1094 40.8359 60.7969V60.6953ZM42.2891 60.8672C42.2891 61.8047 42.5052 62.5573 42.9375 63.125C43.375 63.6927 43.9583 63.9766 44.6875 63.9766C45.4219 63.9766 46.0052 63.6901 46.4375 63.1172C46.8698 62.5391 47.0859 61.7318 47.0859 60.6953C47.0859 59.7682 46.8646 59.0182 46.4219 58.4453C45.9844 57.8672 45.401 57.5781 44.6719 57.5781C43.9583 57.5781 43.3828 57.862 42.9453 58.4297C42.5078 58.9974 42.2891 59.8099 42.2891 60.8672ZM51.7109 56.5469L51.7578 57.6094C52.4036 56.7969 53.2474 56.3906 54.2891 56.3906C56.0755 56.3906 56.9766 57.3984 56.9922 59.4141V65H55.5469V59.4062C55.5417 58.7969 55.401 58.3464 55.125 58.0547C54.8542 57.763 54.4297 57.6172 53.8516 57.6172C53.3828 57.6172 52.9714 57.7422 52.6172 57.9922C52.263 58.2422 51.987 58.5703 51.7891 58.9766V65H50.3438V56.5469H51.7109ZM64.0938 62.7578C64.0938 62.3672 63.9453 62.0651 63.6484 61.8516C63.3568 61.6328 62.8438 61.4453 62.1094 61.2891C61.3802 61.1328 60.7995 60.9453 60.3672 60.7266C59.9401 60.5078 59.6224 60.2474 59.4141 59.9453C59.2109 59.6432 59.1094 59.2839 59.1094 58.8672C59.1094 58.1745 59.401 57.5885 59.9844 57.1094C60.5729 56.6302 61.3229 56.3906 62.2344 56.3906C63.1927 56.3906 63.9688 56.638 64.5625 57.1328C65.1615 57.6276 65.4609 58.2604 65.4609 59.0312H64.0078C64.0078 58.6354 63.8385 58.2943 63.5 58.0078C63.1667 57.7214 62.7448 57.5781 62.2344 57.5781C61.7083 57.5781 61.2969 57.6927 61 57.9219C60.7031 58.151 60.5547 58.4505 60.5547 58.8203C60.5547 59.1693 60.6927 59.4323 60.9688 59.6094C61.2448 59.7865 61.7422 59.9557 62.4609 60.1172C63.1849 60.2786 63.7708 60.4714 64.2188 60.6953C64.6667 60.9193 64.9974 61.1901 65.2109 61.5078C65.4297 61.8203 65.5391 62.2031 65.5391 62.6562C65.5391 63.4115 65.237 64.0182 64.6328 64.4766C64.0286 64.9297 63.2448 65.1562 62.2812 65.1562C61.6042 65.1562 61.0052 65.0365 60.4844 64.7969C59.9635 64.5573 59.5547 64.224 59.2578 63.7969C58.9661 63.3646 58.8203 62.8984 58.8203 62.3984H60.2656C60.2917 62.8828 60.4844 63.2682 60.8438 63.5547C61.2083 63.8359 61.6875 63.9766 62.2812 63.9766C62.8281 63.9766 63.2656 63.8672 63.5938 63.6484C63.9271 63.4245 64.0938 63.1276 64.0938 62.7578ZM69.3828 54.5V56.5469H70.9609V57.6641H69.3828V62.9062C69.3828 63.2448 69.4531 63.5 69.5938 63.6719C69.7344 63.8385 69.974 63.9219 70.3125 63.9219C70.4792 63.9219 70.7083 63.8906 71 63.8281V65C70.6198 65.1042 70.25 65.1562 69.8906 65.1562C69.2448 65.1562 68.7578 64.9609 68.4297 64.5703C68.1016 64.1797 67.9375 63.625 67.9375 62.9062V57.6641H66.3984V56.5469H67.9375V54.5H69.3828ZM76.7422 57.8438C76.5234 57.8073 76.2865 57.7891 76.0312 57.7891C75.0833 57.7891 74.4401 58.1927 74.1016 59V65H72.6562V56.5469H74.0625L74.0859 57.5234C74.5599 56.7682 75.2318 56.3906 76.1016 56.3906C76.3828 56.3906 76.5964 56.4271 76.7422 56.5V57.8438ZM83.2969 64.1641C82.7344 64.8255 81.9089 65.1562 80.8203 65.1562C79.9193 65.1562 79.2318 64.8958 78.7578 64.375C78.2891 63.849 78.0521 63.0729 78.0469 62.0469V56.5469H79.4922V62.0078C79.4922 63.2891 80.013 63.9297 81.0547 63.9297C82.1589 63.9297 82.8932 63.5182 83.2578 62.6953V56.5469H84.7031V65H83.3281L83.2969 64.1641ZM90.2969 63.9766C90.8125 63.9766 91.263 63.8203 91.6484 63.5078C92.0339 63.1953 92.2474 62.8047 92.2891 62.3359H93.6562C93.6302 62.8203 93.4635 63.2812 93.1562 63.7188C92.849 64.1562 92.4375 64.5052 91.9219 64.7656C91.4115 65.026 90.8698 65.1562 90.2969 65.1562C89.1458 65.1562 88.2292 64.7734 87.5469 64.0078C86.8698 63.237 86.5312 62.1849 86.5312 60.8516V60.6094C86.5312 59.7865 86.6823 59.0547 86.9844 58.4141C87.2865 57.7734 87.7188 57.276 88.2812 56.9219C88.849 56.5677 89.5182 56.3906 90.2891 56.3906C91.237 56.3906 92.0234 56.6745 92.6484 57.2422C93.2786 57.8099 93.6146 58.5469 93.6562 59.4531H92.2891C92.2474 58.9062 92.0391 58.4583 91.6641 58.1094C91.2943 57.7552 90.8359 57.5781 90.2891 57.5781C89.5547 57.5781 88.9844 57.8438 88.5781 58.375C88.1771 58.901 87.9766 59.6641 87.9766 60.6641V60.9375C87.9766 61.9115 88.1771 62.6615 88.5781 63.1875C88.9792 63.7135 89.5521 63.9766 90.2969 63.9766ZM97.2422 54.5V56.5469H98.8203V57.6641H97.2422V62.9062C97.2422 63.2448 97.3125 63.5 97.4531 63.6719C97.5938 63.8385 97.8333 63.9219 98.1719 63.9219C98.3385 63.9219 98.5677 63.8906 98.8594 63.8281V65C98.4792 65.1042 98.1094 65.1562 97.75 65.1562C97.1042 65.1562 96.6172 64.9609 96.2891 64.5703C95.9609 64.1797 95.7969 63.625 95.7969 62.9062V57.6641H94.2578V56.5469H95.7969V54.5H97.2422ZM102.086 65H100.641V56.5469H102.086V65ZM100.523 54.3047C100.523 54.0703 100.594 53.8724 100.734 53.7109C100.88 53.5495 101.094 53.4688 101.375 53.4688C101.656 53.4688 101.87 53.5495 102.016 53.7109C102.161 53.8724 102.234 54.0703 102.234 54.3047C102.234 54.5391 102.161 54.7344 102.016 54.8906C101.87 55.0469 101.656 55.125 101.375 55.125C101.094 55.125 100.88 55.0469 100.734 54.8906C100.594 54.7344 100.523 54.5391 100.523 54.3047ZM104.023 60.6953C104.023 59.8672 104.185 59.1224 104.508 58.4609C104.836 57.7995 105.289 57.2891 105.867 56.9297C106.451 56.5703 107.115 56.3906 107.859 56.3906C109.01 56.3906 109.94 56.7891 110.648 57.5859C111.362 58.3828 111.719 59.4427 111.719 60.7656V60.8672C111.719 61.6901 111.56 62.4297 111.242 63.0859C110.93 63.737 110.479 64.2448 109.891 64.6094C109.307 64.974 108.635 65.1562 107.875 65.1562C106.729 65.1562 105.799 64.7578 105.086 63.9609C104.378 63.1641 104.023 62.1094 104.023 60.7969V60.6953ZM105.477 60.8672C105.477 61.8047 105.693 62.5573 106.125 63.125C106.562 63.6927 107.146 63.9766 107.875 63.9766C108.609 63.9766 109.193 63.6901 109.625 63.1172C110.057 62.5391 110.273 61.7318 110.273 60.6953C110.273 59.7682 110.052 59.0182 109.609 58.4453C109.172 57.8672 108.589 57.5781 107.859 57.5781C107.146 57.5781 106.57 57.862 106.133 58.4297C105.695 58.9974 105.477 59.8099 105.477 60.8672ZM114.898 56.5469L114.945 57.6094C115.591 56.7969 116.435 56.3906 117.477 56.3906C119.263 56.3906 120.164 57.3984 120.18 59.4141V65H118.734V59.4062C118.729 58.7969 118.589 58.3464 118.312 58.0547C118.042 57.763 117.617 57.6172 117.039 57.6172C116.57 57.6172 116.159 57.7422 115.805 57.9922C115.451 58.2422 115.174 58.5703 114.977 58.9766V65H113.531V56.5469H114.898Z" fill="black"/>
<path d="M303.695 65H302.242V55.3672L299.328 56.4375V55.125L303.469 53.5703H303.695V65ZM308.594 59.2969L309.172 53.625H315V54.9609H310.398L310.055 58.0625C310.612 57.7344 311.245 57.5703 311.953 57.5703C312.99 57.5703 313.812 57.9141 314.422 58.6016C315.031 59.2839 315.336 60.2083 315.336 61.375C315.336 62.5469 315.018 63.4714 314.383 64.1484C313.753 64.8203 312.87 65.1562 311.734 65.1562C310.729 65.1562 309.909 64.8776 309.273 64.3203C308.638 63.763 308.276 62.9922 308.188 62.0078H309.555C309.643 62.6589 309.875 63.151 310.25 63.4844C310.625 63.8125 311.12 63.9766 311.734 63.9766C312.406 63.9766 312.932 63.7474 313.312 63.2891C313.698 62.8307 313.891 62.1979 313.891 61.3906C313.891 60.6302 313.682 60.0208 313.266 59.5625C312.854 59.099 312.305 58.8672 311.617 58.8672C310.987 58.8672 310.492 59.0052 310.133 59.2812L309.75 59.5938L308.594 59.2969Z" fill="black"/>
<path d="M305.047 95.1797H306.625V96.3594H305.047V99H303.594V96.3594H298.414V95.5078L303.508 87.625H305.047V95.1797ZM300.055 95.1797H303.594V89.6016L303.422 89.9141L300.055 95.1797Z" fill="black"/>
<path d="M4.21094 128.711L2.82031 130.156V134H1.32031V122.625H2.82031V128.25L7.875 122.625H9.6875L5.21094 127.648L10.0391 134H8.24219L4.21094 128.711ZM16.3438 134C16.2604 133.833 16.1927 133.536 16.1406 133.109C15.4688 133.807 14.6667 134.156 13.7344 134.156C12.901 134.156 12.2161 133.922 11.6797 133.453C11.1484 132.979 10.8828 132.38 10.8828 131.656C10.8828 130.776 11.2161 130.094 11.8828 129.609C12.5547 129.12 13.4974 128.875 14.7109 128.875H16.1172V128.211C16.1172 127.706 15.9661 127.305 15.6641 127.008C15.362 126.706 14.9167 126.555 14.3281 126.555C13.8125 126.555 13.3802 126.685 13.0312 126.945C12.6823 127.206 12.5078 127.521 12.5078 127.891H11.0547C11.0547 127.469 11.2031 127.062 11.5 126.672C11.8021 126.276 12.2083 125.964 12.7188 125.734C13.2344 125.505 13.7995 125.391 14.4141 125.391C15.388 125.391 16.151 125.635 16.7031 126.125C17.2552 126.609 17.5417 127.279 17.5625 128.133V132.023C17.5625 132.799 17.6615 133.417 17.8594 133.875V134H16.3438ZM13.9453 132.898C14.3984 132.898 14.8281 132.781 15.2344 132.547C15.6406 132.312 15.9349 132.008 16.1172 131.633V129.898H14.9844C13.2135 129.898 12.3281 130.417 12.3281 131.453C12.3281 131.906 12.4792 132.26 12.7812 132.516C13.0833 132.771 13.4714 132.898 13.9453 132.898ZM23.9141 126.844C23.6953 126.807 23.4583 126.789 23.2031 126.789C22.2552 126.789 21.612 127.193 21.2734 128V134H19.8281V125.547H21.2344L21.2578 126.523C21.7318 125.768 22.4036 125.391 23.2734 125.391C23.5547 125.391 23.7682 125.427 23.9141 125.5V126.844ZM27.6016 123.5V125.547H29.1797V126.664H27.6016V131.906C27.6016 132.245 27.6719 132.5 27.8125 132.672C27.9531 132.839 28.1927 132.922 28.5312 132.922C28.6979 132.922 28.9271 132.891 29.2188 132.828V134C28.8385 134.104 28.4688 134.156 28.1094 134.156C27.4635 134.156 26.9766 133.961 26.6484 133.57C26.3203 133.18 26.1562 132.625 26.1562 131.906V126.664H24.6172V125.547H26.1562V123.5H27.6016ZM31.1016 134V122.625H34.8203C36.0547 122.625 36.9818 122.88 37.6016 123.391C38.2266 123.901 38.5391 124.656 38.5391 125.656C38.5391 126.188 38.388 126.659 38.0859 127.07C37.7839 127.477 37.3724 127.792 36.8516 128.016C37.4661 128.188 37.9505 128.516 38.3047 129C38.6641 129.479 38.8438 130.052 38.8438 130.719C38.8438 131.74 38.513 132.542 37.8516 133.125C37.1901 133.708 36.2552 134 35.0469 134H31.1016ZM32.6016 128.68V132.773H35.0781C35.776 132.773 36.3255 132.594 36.7266 132.234C37.1328 131.87 37.3359 131.37 37.3359 130.734C37.3359 129.365 36.5911 128.68 35.1016 128.68H32.6016ZM32.6016 127.477H34.8672C35.5234 127.477 36.0469 127.312 36.4375 126.984C36.8333 126.656 37.0312 126.211 37.0312 125.648C37.0312 125.023 36.849 124.57 36.4844 124.289C36.1198 124.003 35.5651 123.859 34.8203 123.859H32.6016V127.477ZM46.0625 134C45.9792 133.833 45.9115 133.536 45.8594 133.109C45.1875 133.807 44.3854 134.156 43.4531 134.156C42.6198 134.156 41.9349 133.922 41.3984 133.453C40.8672 132.979 40.6016 132.38 40.6016 131.656C40.6016 130.776 40.9349 130.094 41.6016 129.609C42.2734 129.12 43.2161 128.875 44.4297 128.875H45.8359V128.211C45.8359 127.706 45.6849 127.305 45.3828 127.008C45.0807 126.706 44.6354 126.555 44.0469 126.555C43.5312 126.555 43.099 126.685 42.75 126.945C42.401 127.206 42.2266 127.521 42.2266 127.891H40.7734C40.7734 127.469 40.9219 127.062 41.2188 126.672C41.5208 126.276 41.9271 125.964 42.4375 125.734C42.9531 125.505 43.5182 125.391 44.1328 125.391C45.1068 125.391 45.8698 125.635 46.4219 126.125C46.974 126.609 47.2604 127.279 47.2812 128.133V132.023C47.2812 132.799 47.3802 133.417 47.5781 133.875V134H46.0625ZM43.6641 132.898C44.1172 132.898 44.5469 132.781 44.9531 132.547C45.3594 132.312 45.6536 132.008 45.8359 131.633V129.898H44.7031C42.9323 129.898 42.0469 130.417 42.0469 131.453C42.0469 131.906 42.1979 132.26 42.5 132.516C42.8021 132.771 43.1901 132.898 43.6641 132.898ZM54.7656 133.164C54.2031 133.826 53.3776 134.156 52.2891 134.156C51.388 134.156 50.7005 133.896 50.2266 133.375C49.7578 132.849 49.5208 132.073 49.5156 131.047V125.547H50.9609V131.008C50.9609 132.289 51.4818 132.93 52.5234 132.93C53.6276 132.93 54.362 132.518 54.7266 131.695V125.547H56.1719V134H54.7969L54.7656 133.164Z" fill="black"/>
<path d="M305.844 125.594C305.844 126.161 305.693 126.667 305.391 127.109C305.094 127.552 304.69 127.898 304.18 128.148C304.773 128.404 305.242 128.776 305.586 129.266C305.935 129.755 306.109 130.31 306.109 130.93C306.109 131.914 305.776 132.698 305.109 133.281C304.448 133.865 303.576 134.156 302.492 134.156C301.398 134.156 300.521 133.865 299.859 133.281C299.203 132.693 298.875 131.909 298.875 130.93C298.875 130.315 299.042 129.76 299.375 129.266C299.714 128.771 300.18 128.396 300.773 128.141C300.268 127.891 299.87 127.544 299.578 127.102C299.286 126.659 299.141 126.156 299.141 125.594C299.141 124.635 299.448 123.875 300.062 123.312C300.677 122.75 301.487 122.469 302.492 122.469C303.492 122.469 304.299 122.75 304.914 123.312C305.534 123.875 305.844 124.635 305.844 125.594ZM304.664 130.898C304.664 130.263 304.461 129.745 304.055 129.344C303.654 128.943 303.128 128.742 302.477 128.742C301.826 128.742 301.302 128.94 300.906 129.336C300.516 129.732 300.32 130.253 300.32 130.898C300.32 131.544 300.51 132.052 300.891 132.422C301.276 132.792 301.81 132.977 302.492 132.977C303.169 132.977 303.701 132.792 304.086 132.422C304.471 132.047 304.664 131.539 304.664 130.898ZM302.492 123.656C301.924 123.656 301.464 123.833 301.109 124.188C300.76 124.536 300.586 125.013 300.586 125.617C300.586 126.195 300.758 126.664 301.102 127.023C301.451 127.378 301.914 127.555 302.492 127.555C303.07 127.555 303.531 127.378 303.875 127.023C304.224 126.664 304.398 126.195 304.398 125.617C304.398 125.039 304.219 124.568 303.859 124.203C303.5 123.839 303.044 123.656 302.492 123.656Z" fill="black"/>
<path d="M440.047 58.6094H441.133C441.815 58.599 442.352 58.4193 442.742 58.0703C443.133 57.7214 443.328 57.25 443.328 56.6562C443.328 55.3229 442.664 54.6562 441.336 54.6562C440.711 54.6562 440.211 54.8359 439.836 55.1953C439.466 55.5495 439.281 56.0208 439.281 56.6094H437.836C437.836 55.7083 438.164 54.9609 438.82 54.3672C439.482 53.7682 440.32 53.4688 441.336 53.4688C442.409 53.4688 443.25 53.7526 443.859 54.3203C444.469 54.888 444.773 55.6771 444.773 56.6875C444.773 57.1823 444.612 57.6615 444.289 58.125C443.971 58.5885 443.536 58.9349 442.984 59.1641C443.609 59.362 444.091 59.6901 444.43 60.1484C444.773 60.6068 444.945 61.1667 444.945 61.8281C444.945 62.849 444.612 63.6589 443.945 64.2578C443.279 64.8568 442.411 65.1562 441.344 65.1562C440.276 65.1562 439.406 64.8672 438.734 64.2891C438.068 63.7109 437.734 62.9479 437.734 62H439.188C439.188 62.599 439.383 63.0781 439.773 63.4375C440.164 63.7969 440.688 63.9766 441.344 63.9766C442.042 63.9766 442.576 63.7943 442.945 63.4297C443.315 63.0651 443.5 62.5417 443.5 61.8594C443.5 61.1979 443.297 60.6901 442.891 60.3359C442.484 59.9818 441.898 59.7995 441.133 59.7891H440.047V58.6094Z" fill="black"/>
<path d="M442.695 99H441.242V89.3672L438.328 90.4375V89.125L442.469 87.5703H442.695V99ZM449.031 92.6094H450.117C450.799 92.599 451.336 92.4193 451.727 92.0703C452.117 91.7214 452.312 91.25 452.312 90.6562C452.312 89.3229 451.648 88.6562 450.32 88.6562C449.695 88.6562 449.195 88.8359 448.82 89.1953C448.451 89.5495 448.266 90.0208 448.266 90.6094H446.82C446.82 89.7083 447.148 88.9609 447.805 88.3672C448.466 87.7682 449.305 87.4688 450.32 87.4688C451.393 87.4688 452.234 87.7526 452.844 88.3203C453.453 88.888 453.758 89.6771 453.758 90.6875C453.758 91.1823 453.596 91.6615 453.273 92.125C452.956 92.5885 452.521 92.9349 451.969 93.1641C452.594 93.362 453.076 93.6901 453.414 94.1484C453.758 94.6068 453.93 95.1667 453.93 95.8281C453.93 96.849 453.596 97.6589 452.93 98.2578C452.263 98.8568 451.396 99.1562 450.328 99.1562C449.26 99.1562 448.391 98.8672 447.719 98.2891C447.052 97.7109 446.719 96.9479 446.719 96H448.172C448.172 96.599 448.367 97.0781 448.758 97.4375C449.148 97.7969 449.672 97.9766 450.328 97.9766C451.026 97.9766 451.56 97.7943 451.93 97.4297C452.299 97.0651 452.484 96.5417 452.484 95.8594C452.484 95.1979 452.281 94.6901 451.875 94.3359C451.469 93.9818 450.883 93.7995 450.117 93.7891H449.031V92.6094ZM462.016 95.1797H463.594V96.3594H462.016V99H460.562V96.3594H455.383V95.5078L460.477 87.625H462.016V95.1797ZM457.023 95.1797H460.562V89.6016L460.391 89.9141L457.023 95.1797Z" fill="black"/>
<path d="M442.695 134H441.242V124.367L438.328 125.438V124.125L442.469 122.57H442.695V134ZM454.062 129.148C454.062 130.841 453.773 132.099 453.195 132.922C452.617 133.745 451.714 134.156 450.484 134.156C449.271 134.156 448.372 133.755 447.789 132.953C447.206 132.146 446.904 130.943 446.883 129.344V127.414C446.883 125.742 447.172 124.5 447.75 123.688C448.328 122.875 449.234 122.469 450.469 122.469C451.693 122.469 452.594 122.862 453.172 123.648C453.75 124.43 454.047 125.638 454.062 127.273V129.148ZM452.617 127.172C452.617 125.948 452.445 125.057 452.102 124.5C451.758 123.938 451.214 123.656 450.469 123.656C449.729 123.656 449.19 123.935 448.852 124.492C448.513 125.049 448.339 125.906 448.328 127.062V129.375C448.328 130.604 448.505 131.513 448.859 132.102C449.219 132.685 449.76 132.977 450.484 132.977C451.198 132.977 451.727 132.701 452.07 132.148C452.419 131.596 452.602 130.727 452.617 129.539V127.172Z" fill="black"/>
<path d="M555.398 65H547.945V63.9609L551.883 59.5859C552.466 58.9245 552.867 58.388 553.086 57.9766C553.31 57.5599 553.422 57.1302 553.422 56.6875C553.422 56.0938 553.242 55.6068 552.883 55.2266C552.523 54.8464 552.044 54.6562 551.445 54.6562C550.727 54.6562 550.167 54.862 549.766 55.2734C549.37 55.6797 549.172 56.2474 549.172 56.9766H547.727C547.727 55.9297 548.062 55.0833 548.734 54.4375C549.411 53.7917 550.315 53.4688 551.445 53.4688C552.503 53.4688 553.339 53.7474 553.953 54.3047C554.568 54.8568 554.875 55.5938 554.875 56.5156C554.875 57.6354 554.161 58.9688 552.734 60.5156L549.688 63.8203H555.398V65Z" fill="black"/>
<path d="M554.047 95.1797H555.625V96.3594H554.047V99H552.594V96.3594H547.414V95.5078L552.508 87.625H554.047V95.1797ZM549.055 95.1797H552.594V89.6016L552.422 89.9141L549.055 95.1797ZM564.062 94.1484C564.062 95.8411 563.773 97.099 563.195 97.9219C562.617 98.7448 561.714 99.1562 560.484 99.1562C559.271 99.1562 558.372 98.7552 557.789 97.9531C557.206 97.1458 556.904 95.9427 556.883 94.3438V92.4141C556.883 90.7422 557.172 89.5 557.75 88.6875C558.328 87.875 559.234 87.4688 560.469 87.4688C561.693 87.4688 562.594 87.862 563.172 88.6484C563.75 89.4297 564.047 90.638 564.062 92.2734V94.1484ZM562.617 92.1719C562.617 90.9479 562.445 90.0573 562.102 89.5C561.758 88.9375 561.214 88.6562 560.469 88.6562C559.729 88.6562 559.19 88.9349 558.852 89.4922C558.513 90.0495 558.339 90.9062 558.328 92.0625V94.375C558.328 95.6042 558.505 96.513 558.859 97.1016C559.219 97.6849 559.76 97.9766 560.484 97.9766C561.198 97.9766 561.727 97.7005 562.07 97.1484C562.419 96.5964 562.602 95.7266 562.617 94.5391V92.1719Z" fill="black"/>
<path d="M552.695 134H551.242V124.367L548.328 125.438V124.125L552.469 122.57H552.695V134ZM564.062 129.148C564.062 130.841 563.773 132.099 563.195 132.922C562.617 133.745 561.714 134.156 560.484 134.156C559.271 134.156 558.372 133.755 557.789 132.953C557.206 132.146 556.904 130.943 556.883 129.344V127.414C556.883 125.742 557.172 124.5 557.75 123.688C558.328 122.875 559.234 122.469 560.469 122.469C561.693 122.469 562.594 122.862 563.172 123.648C563.75 124.43 564.047 125.638 564.062 127.273V129.148ZM562.617 127.172C562.617 125.948 562.445 125.057 562.102 124.5C561.758 123.938 561.214 123.656 560.469 123.656C559.729 123.656 559.19 123.935 558.852 124.492C558.513 125.049 558.339 125.906 558.328 127.062V129.375C558.328 130.604 558.505 131.513 558.859 132.102C559.219 132.685 559.76 132.977 560.484 132.977C561.198 132.977 561.727 132.701 562.07 132.148C562.419 131.596 562.602 130.727 562.617 129.539V127.172Z" fill="black"/>
<path d="M389 0H277C274.791 0 273 1.79086 273 4V30C273 32.2091 274.791 34 277 34H389C391.209 34 393 32.2091 393 30V4C393 1.79086 391.209 0 389 0Z" fill="#C4C4C4" fill-opacity="0.5"/>
<path d="M367.5 11L375.727 20H359.273L367.5 11Z" fill="#151515"/>
<path d="M308.828 9.20312V17.6318C308.828 19.0322 308.389 20.1396 307.51 20.9541C306.637 21.7686 305.441 22.1758 303.924 22.1758C302.43 22.1758 301.243 21.7803 300.364 20.9893C299.485 20.1982 299.037 19.1113 299.02 17.7285V9.20312H301.656V17.6494C301.656 18.4873 301.855 19.0996 302.254 19.4863C302.658 19.8672 303.215 20.0576 303.924 20.0576C305.406 20.0576 306.159 19.2783 306.183 17.7197V9.20312H308.828ZM315.974 19.3721C315.974 19.0615 315.818 18.8184 315.508 18.6426C315.203 18.4609 314.711 18.2998 314.031 18.1592C311.77 17.6846 310.639 16.7236 310.639 15.2764C310.639 14.4326 310.987 13.7295 311.685 13.167C312.388 12.5986 313.305 12.3145 314.436 12.3145C315.643 12.3145 316.606 12.5986 317.327 13.167C318.054 13.7354 318.417 14.4736 318.417 15.3818H315.877C315.877 15.0186 315.76 14.7197 315.525 14.4854C315.291 14.2451 314.925 14.125 314.427 14.125C313.999 14.125 313.668 14.2217 313.434 14.415C313.199 14.6084 313.082 14.8545 313.082 15.1533C313.082 15.4346 313.214 15.6631 313.478 15.8389C313.747 16.0088 314.198 16.1582 314.831 16.2871C315.464 16.4102 315.997 16.5508 316.431 16.709C317.772 17.2012 318.443 18.0537 318.443 19.2666C318.443 20.1338 318.071 20.8369 317.327 21.376C316.583 21.9092 315.622 22.1758 314.444 22.1758C313.647 22.1758 312.938 22.0352 312.317 21.7539C311.702 21.4668 311.219 21.0771 310.867 20.585C310.516 20.0869 310.34 19.5508 310.34 18.9766H312.748C312.771 19.4277 312.938 19.7734 313.249 20.0137C313.56 20.2539 313.976 20.374 314.497 20.374C314.983 20.374 315.35 20.2832 315.596 20.1016C315.848 19.9141 315.974 19.6709 315.974 19.3721ZM324.464 22.1758C323.069 22.1758 321.933 21.748 321.054 20.8926C320.181 20.0371 319.744 18.8975 319.744 17.4736V17.2275C319.744 16.2725 319.929 15.4199 320.298 14.6699C320.667 13.9141 321.188 13.334 321.862 12.9297C322.542 12.5195 323.315 12.3145 324.183 12.3145C325.483 12.3145 326.506 12.7246 327.25 13.5449C328 14.3652 328.375 15.5283 328.375 17.0342V18.0713H322.319C322.401 18.6924 322.647 19.1904 323.058 19.5654C323.474 19.9404 323.998 20.1279 324.631 20.1279C325.609 20.1279 326.374 19.7734 326.925 19.0645L328.173 20.4619C327.792 21.001 327.276 21.4229 326.626 21.7275C325.976 22.0264 325.255 22.1758 324.464 22.1758ZM324.174 14.3711C323.67 14.3711 323.26 14.541 322.943 14.8809C322.633 15.2207 322.434 15.707 322.346 16.3398H325.879V16.1377C325.867 15.5752 325.715 15.1416 325.422 14.8369C325.129 14.5264 324.713 14.3711 324.174 14.3711ZM335.169 14.8721C334.823 14.8252 334.519 14.8018 334.255 14.8018C333.294 14.8018 332.664 15.127 332.365 15.7773V22H329.825V12.4902H332.225L332.295 13.624C332.805 12.751 333.511 12.3145 334.413 12.3145C334.694 12.3145 334.958 12.3525 335.204 12.4287L335.169 14.8721ZM341.55 19.3721C341.55 19.0615 341.395 18.8184 341.084 18.6426C340.779 18.4609 340.287 18.2998 339.607 18.1592C337.346 17.6846 336.215 16.7236 336.215 15.2764C336.215 14.4326 336.563 13.7295 337.261 13.167C337.964 12.5986 338.881 12.3145 340.012 12.3145C341.219 12.3145 342.183 12.5986 342.903 13.167C343.63 13.7354 343.993 14.4736 343.993 15.3818H341.453C341.453 15.0186 341.336 14.7197 341.102 14.4854C340.867 14.2451 340.501 14.125 340.003 14.125C339.575 14.125 339.244 14.2217 339.01 14.415C338.775 14.6084 338.658 14.8545 338.658 15.1533C338.658 15.4346 338.79 15.6631 339.054 15.8389C339.323 16.0088 339.774 16.1582 340.407 16.2871C341.04 16.4102 341.573 16.5508 342.007 16.709C343.349 17.2012 344.02 18.0537 344.02 19.2666C344.02 20.1338 343.647 20.8369 342.903 21.376C342.159 21.9092 341.198 22.1758 340.021 22.1758C339.224 22.1758 338.515 22.0352 337.894 21.7539C337.278 21.4668 336.795 21.0771 336.443 20.585C336.092 20.0869 335.916 19.5508 335.916 18.9766H338.324C338.348 19.4277 338.515 19.7734 338.825 20.0137C339.136 20.2539 339.552 20.374 340.073 20.374C340.56 20.374 340.926 20.2832 341.172 20.1016C341.424 19.9141 341.55 19.6709 341.55 19.3721Z" fill="black"/>
<path d="M445.367 19.3633H440.744L439.865 22H437.062L441.825 9.20312H444.269L449.059 22H446.255L445.367 19.3633ZM441.456 17.2275H444.655L443.047 12.4375L441.456 17.2275ZM455.237 19.3721C455.237 19.0615 455.082 18.8184 454.771 18.6426C454.467 18.4609 453.975 18.2998 453.295 18.1592C451.033 17.6846 449.902 16.7236 449.902 15.2764C449.902 14.4326 450.251 13.7295 450.948 13.167C451.651 12.5986 452.568 12.3145 453.699 12.3145C454.906 12.3145 455.87 12.5986 456.591 13.167C457.317 13.7354 457.681 14.4736 457.681 15.3818H455.141C455.141 15.0186 455.023 14.7197 454.789 14.4854C454.555 14.2451 454.188 14.125 453.69 14.125C453.263 14.125 452.932 14.2217 452.697 14.415C452.463 14.6084 452.346 14.8545 452.346 15.1533C452.346 15.4346 452.478 15.6631 452.741 15.8389C453.011 16.0088 453.462 16.1582 454.095 16.2871C454.728 16.4102 455.261 16.5508 455.694 16.709C457.036 17.2012 457.707 18.0537 457.707 19.2666C457.707 20.1338 457.335 20.8369 456.591 21.376C455.847 21.9092 454.886 22.1758 453.708 22.1758C452.911 22.1758 452.202 22.0352 451.581 21.7539C450.966 21.4668 450.482 21.0771 450.131 20.585C449.779 20.0869 449.604 19.5508 449.604 18.9766H452.012C452.035 19.4277 452.202 19.7734 452.513 20.0137C452.823 20.2539 453.239 20.374 453.761 20.374C454.247 20.374 454.613 20.2832 454.859 20.1016C455.111 19.9141 455.237 19.6709 455.237 19.3721ZM464.501 19.3721C464.501 19.0615 464.346 18.8184 464.035 18.6426C463.73 18.4609 463.238 18.2998 462.559 18.1592C460.297 17.6846 459.166 16.7236 459.166 15.2764C459.166 14.4326 459.515 13.7295 460.212 13.167C460.915 12.5986 461.832 12.3145 462.963 12.3145C464.17 12.3145 465.134 12.5986 465.854 13.167C466.581 13.7354 466.944 14.4736 466.944 15.3818H464.404C464.404 15.0186 464.287 14.7197 464.053 14.4854C463.818 14.2451 463.452 14.125 462.954 14.125C462.526 14.125 462.195 14.2217 461.961 14.415C461.727 14.6084 461.609 14.8545 461.609 15.1533C461.609 15.4346 461.741 15.6631 462.005 15.8389C462.274 16.0088 462.726 16.1582 463.358 16.2871C463.991 16.4102 464.524 16.5508 464.958 16.709C466.3 17.2012 466.971 18.0537 466.971 19.2666C466.971 20.1338 466.599 20.8369 465.854 21.376C465.11 21.9092 464.149 22.1758 462.972 22.1758C462.175 22.1758 461.466 22.0352 460.845 21.7539C460.229 21.4668 459.746 21.0771 459.395 20.585C459.043 20.0869 458.867 19.5508 458.867 18.9766H461.275C461.299 19.4277 461.466 19.7734 461.776 20.0137C462.087 20.2539 462.503 20.374 463.024 20.374C463.511 20.374 463.877 20.2832 464.123 20.1016C464.375 19.9141 464.501 19.6709 464.501 19.3721ZM472.991 22.1758C471.597 22.1758 470.46 21.748 469.581 20.8926C468.708 20.0371 468.271 18.8975 468.271 17.4736V17.2275C468.271 16.2725 468.456 15.4199 468.825 14.6699C469.194 13.9141 469.716 13.334 470.39 12.9297C471.069 12.5195 471.843 12.3145 472.71 12.3145C474.011 12.3145 475.033 12.7246 475.777 13.5449C476.527 14.3652 476.902 15.5283 476.902 17.0342V18.0713H470.847C470.929 18.6924 471.175 19.1904 471.585 19.5654C472.001 19.9404 472.525 20.1279 473.158 20.1279C474.137 20.1279 474.901 19.7734 475.452 19.0645L476.7 20.4619C476.319 21.001 475.804 21.4229 475.153 21.7275C474.503 22.0264 473.782 22.1758 472.991 22.1758ZM472.701 14.3711C472.197 14.3711 471.787 14.541 471.471 14.8809C471.16 15.2207 470.961 15.707 470.873 16.3398H474.406V16.1377C474.395 15.5752 474.242 15.1416 473.949 14.8369C473.656 14.5264 473.24 14.3711 472.701 14.3711ZM481.394 10.1523V12.4902H483.02V14.3535H481.394V19.0996C481.394 19.4512 481.461 19.7031 481.596 19.8555C481.73 20.0078 481.988 20.084 482.369 20.084C482.65 20.084 482.899 20.0635 483.116 20.0225V21.9473C482.618 22.0996 482.105 22.1758 481.578 22.1758C479.797 22.1758 478.889 21.2764 478.854 19.4775V14.3535H477.465V12.4902H478.854V10.1523H481.394ZM489.585 19.3721C489.585 19.0615 489.43 18.8184 489.119 18.6426C488.814 18.4609 488.322 18.2998 487.643 18.1592C485.381 17.6846 484.25 16.7236 484.25 15.2764C484.25 14.4326 484.599 13.7295 485.296 13.167C485.999 12.5986 486.916 12.3145 488.047 12.3145C489.254 12.3145 490.218 12.5986 490.938 13.167C491.665 13.7354 492.028 14.4736 492.028 15.3818H489.488C489.488 15.0186 489.371 14.7197 489.137 14.4854C488.902 14.2451 488.536 14.125 488.038 14.125C487.61 14.125 487.279 14.2217 487.045 14.415C486.811 14.6084 486.693 14.8545 486.693 15.1533C486.693 15.4346 486.825 15.6631 487.089 15.8389C487.358 16.0088 487.81 16.1582 488.442 16.2871C489.075 16.4102 489.608 16.5508 490.042 16.709C491.384 17.2012 492.055 18.0537 492.055 19.2666C492.055 20.1338 491.683 20.8369 490.938 21.376C490.194 21.9092 489.233 22.1758 488.056 22.1758C487.259 22.1758 486.55 22.0352 485.929 21.7539C485.313 21.4668 484.83 21.0771 484.479 20.585C484.127 20.0869 483.951 19.5508 483.951 18.9766H486.359C486.383 19.4277 486.55 19.7734 486.86 20.0137C487.171 20.2539 487.587 20.374 488.108 20.374C488.595 20.374 488.961 20.2832 489.207 20.1016C489.459 19.9141 489.585 19.6709 489.585 19.3721Z" fill="black"/>
<path d="M555.367 19.3633H550.744L549.865 22H547.062L551.825 9.20312H554.269L559.059 22H556.255L555.367 19.3633ZM551.456 17.2275H554.655L553.047 12.4375L551.456 17.2275ZM565.237 19.3721C565.237 19.0615 565.082 18.8184 564.771 18.6426C564.467 18.4609 563.975 18.2998 563.295 18.1592C561.033 17.6846 559.902 16.7236 559.902 15.2764C559.902 14.4326 560.251 13.7295 560.948 13.167C561.651 12.5986 562.568 12.3145 563.699 12.3145C564.906 12.3145 565.87 12.5986 566.591 13.167C567.317 13.7354 567.681 14.4736 567.681 15.3818H565.141C565.141 15.0186 565.023 14.7197 564.789 14.4854C564.555 14.2451 564.188 14.125 563.69 14.125C563.263 14.125 562.932 14.2217 562.697 14.415C562.463 14.6084 562.346 14.8545 562.346 15.1533C562.346 15.4346 562.478 15.6631 562.741 15.8389C563.011 16.0088 563.462 16.1582 564.095 16.2871C564.728 16.4102 565.261 16.5508 565.694 16.709C567.036 17.2012 567.707 18.0537 567.707 19.2666C567.707 20.1338 567.335 20.8369 566.591 21.376C565.847 21.9092 564.886 22.1758 563.708 22.1758C562.911 22.1758 562.202 22.0352 561.581 21.7539C560.966 21.4668 560.482 21.0771 560.131 20.585C559.779 20.0869 559.604 19.5508 559.604 18.9766H562.012C562.035 19.4277 562.202 19.7734 562.513 20.0137C562.823 20.2539 563.239 20.374 563.761 20.374C564.247 20.374 564.613 20.2832 564.859 20.1016C565.111 19.9141 565.237 19.6709 565.237 19.3721ZM574.501 19.3721C574.501 19.0615 574.346 18.8184 574.035 18.6426C573.73 18.4609 573.238 18.2998 572.559 18.1592C570.297 17.6846 569.166 16.7236 569.166 15.2764C569.166 14.4326 569.515 13.7295 570.212 13.167C570.915 12.5986 571.832 12.3145 572.963 12.3145C574.17 12.3145 575.134 12.5986 575.854 13.167C576.581 13.7354 576.944 14.4736 576.944 15.3818H574.404C574.404 15.0186 574.287 14.7197 574.053 14.4854C573.818 14.2451 573.452 14.125 572.954 14.125C572.526 14.125 572.195 14.2217 571.961 14.415C571.727 14.6084 571.609 14.8545 571.609 15.1533C571.609 15.4346 571.741 15.6631 572.005 15.8389C572.274 16.0088 572.726 16.1582 573.358 16.2871C573.991 16.4102 574.524 16.5508 574.958 16.709C576.3 17.2012 576.971 18.0537 576.971 19.2666C576.971 20.1338 576.599 20.8369 575.854 21.376C575.11 21.9092 574.149 22.1758 572.972 22.1758C572.175 22.1758 571.466 22.0352 570.845 21.7539C570.229 21.4668 569.746 21.0771 569.395 20.585C569.043 20.0869 568.867 19.5508 568.867 18.9766H571.275C571.299 19.4277 571.466 19.7734 571.776 20.0137C572.087 20.2539 572.503 20.374 573.024 20.374C573.511 20.374 573.877 20.2832 574.123 20.1016C574.375 19.9141 574.501 19.6709 574.501 19.3721ZM582.991 22.1758C581.597 22.1758 580.46 21.748 579.581 20.8926C578.708 20.0371 578.271 18.8975 578.271 17.4736V17.2275C578.271 16.2725 578.456 15.4199 578.825 14.6699C579.194 13.9141 579.716 13.334 580.39 12.9297C581.069 12.5195 581.843 12.3145 582.71 12.3145C584.011 12.3145 585.033 12.7246 585.777 13.5449C586.527 14.3652 586.902 15.5283 586.902 17.0342V18.0713H580.847C580.929 18.6924 581.175 19.1904 581.585 19.5654C582.001 19.9404 582.525 20.1279 583.158 20.1279C584.137 20.1279 584.901 19.7734 585.452 19.0645L586.7 20.4619C586.319 21.001 585.804 21.4229 585.153 21.7275C584.503 22.0264 583.782 22.1758 582.991 22.1758ZM582.701 14.3711C582.197 14.3711 581.787 14.541 581.471 14.8809C581.16 15.2207 580.961 15.707 580.873 16.3398H584.406V16.1377C584.395 15.5752 584.242 15.1416 583.949 14.8369C583.656 14.5264 583.24 14.3711 582.701 14.3711ZM591.394 10.1523V12.4902H593.02V14.3535H591.394V19.0996C591.394 19.4512 591.461 19.7031 591.596 19.8555C591.73 20.0078 591.988 20.084 592.369 20.084C592.65 20.084 592.899 20.0635 593.116 20.0225V21.9473C592.618 22.0996 592.105 22.1758 591.578 22.1758C589.797 22.1758 588.889 21.2764 588.854 19.4775V14.3535H587.465V12.4902H588.854V10.1523H591.394ZM599.585 19.3721C599.585 19.0615 599.43 18.8184 599.119 18.6426C598.814 18.4609 598.322 18.2998 597.643 18.1592C595.381 17.6846 594.25 16.7236 594.25 15.2764C594.25 14.4326 594.599 13.7295 595.296 13.167C595.999 12.5986 596.916 12.3145 598.047 12.3145C599.254 12.3145 600.218 12.5986 600.938 13.167C601.665 13.7354 602.028 14.4736 602.028 15.3818H599.488C599.488 15.0186 599.371 14.7197 599.137 14.4854C598.902 14.2451 598.536 14.125 598.038 14.125C597.61 14.125 597.279 14.2217 597.045 14.415C596.811 14.6084 596.693 14.8545 596.693 15.1533C596.693 15.4346 596.825 15.6631 597.089 15.8389C597.358 16.0088 597.81 16.1582 598.442 16.2871C599.075 16.4102 599.608 16.5508 600.042 16.709C601.384 17.2012 602.055 18.0537 602.055 19.2666C602.055 20.1338 601.683 20.8369 600.938 21.376C600.194 21.9092 599.233 22.1758 598.056 22.1758C597.259 22.1758 596.55 22.0352 595.929 21.7539C595.313 21.4668 594.83 21.0771 594.479 20.585C594.127 20.0869 593.951 19.5508 593.951 18.9766H596.359C596.383 19.4277 596.55 19.7734 596.86 20.0137C597.171 20.2539 597.587 20.374 598.108 20.374C598.595 20.374 598.961 20.2832 599.207 20.1016C599.459 19.9141 599.585 19.6709 599.585 19.3721ZM616.451 18.5459L617.699 12.4902H620.151L617.726 22H615.599L613.797 16.0146L611.995 22H609.877L607.451 12.4902H609.903L611.143 18.5371L612.883 12.4902H614.72L616.451 18.5459ZM624.098 22H621.549V12.4902H624.098V22ZM621.399 10.0293C621.399 9.64844 621.525 9.33496 621.777 9.08887C622.035 8.84277 622.384 8.71973 622.823 8.71973C623.257 8.71973 623.603 8.84277 623.86 9.08887C624.118 9.33496 624.247 9.64844 624.247 10.0293C624.247 10.416 624.115 10.7324 623.852 10.9785C623.594 11.2246 623.251 11.3477 622.823 11.3477C622.396 11.3477 622.05 11.2246 621.786 10.9785C621.528 10.7324 621.399 10.416 621.399 10.0293ZM629.239 10.1523V12.4902H630.865V14.3535H629.239V19.0996C629.239 19.4512 629.307 19.7031 629.441 19.8555C629.576 20.0078 629.834 20.084 630.215 20.084C630.496 20.084 630.745 20.0635 630.962 20.0225V21.9473C630.464 22.0996 629.951 22.1758 629.424 22.1758C627.643 22.1758 626.734 21.2764 626.699 19.4775V14.3535H625.311V12.4902H626.699V10.1523H629.239ZM634.759 13.5273C635.433 12.7188 636.279 12.3145 637.299 12.3145C639.361 12.3145 640.407 13.5127 640.437 15.9092V22H637.896V15.9795C637.896 15.4346 637.779 15.0332 637.545 14.7754C637.311 14.5117 636.921 14.3799 636.376 14.3799C635.632 14.3799 635.093 14.667 634.759 15.2412V22H632.219V8.5H634.759V13.5273ZM649.217 12.4902L649.296 13.5537C649.97 12.7275 650.881 12.3145 652.029 12.3145C653.254 12.3145 654.095 12.7979 654.552 13.7646C655.22 12.7979 656.172 12.3145 657.408 12.3145C658.439 12.3145 659.207 12.6162 659.711 13.2197C660.215 13.8174 660.467 14.7197 660.467 15.9268V22H657.918V15.9355C657.918 15.3965 657.812 15.0039 657.602 14.7578C657.391 14.5059 657.019 14.3799 656.485 14.3799C655.724 14.3799 655.196 14.7432 654.903 15.4697L654.912 22H652.372V15.9443C652.372 15.3936 652.264 14.9951 652.047 14.749C651.83 14.5029 651.461 14.3799 650.939 14.3799C650.219 14.3799 649.697 14.6787 649.375 15.2764V22H646.835V12.4902H649.217ZM662.031 17.1572C662.031 16.2139 662.213 15.373 662.576 14.6348C662.939 13.8965 663.461 13.3252 664.141 12.9209C664.826 12.5166 665.62 12.3145 666.522 12.3145C667.806 12.3145 668.852 12.707 669.66 13.4922C670.475 14.2773 670.929 15.3438 671.022 16.6914L671.04 17.3418C671.04 18.8008 670.633 19.9727 669.818 20.8574C669.004 21.7363 667.911 22.1758 666.54 22.1758C665.169 22.1758 664.073 21.7363 663.253 20.8574C662.438 19.9785 662.031 18.7832 662.031 17.2715V17.1572ZM664.571 17.3418C664.571 18.2441 664.741 18.9355 665.081 19.416C665.421 19.8906 665.907 20.1279 666.54 20.1279C667.155 20.1279 667.636 19.8936 667.981 19.4248C668.327 18.9502 668.5 18.1943 668.5 17.1572C668.5 16.2725 668.327 15.5869 667.981 15.1006C667.636 14.6143 667.149 14.3711 666.522 14.3711C665.901 14.3711 665.421 14.6143 665.081 15.1006C664.741 15.5811 664.571 16.3281 664.571 17.3418ZM672.209 17.1748C672.209 15.6924 672.54 14.5117 673.202 13.6328C673.87 12.7539 674.781 12.3145 675.936 12.3145C676.861 12.3145 677.626 12.6602 678.229 13.3516V8.5H680.778V22H678.484L678.361 20.9893C677.729 21.7803 676.914 22.1758 675.918 22.1758C674.799 22.1758 673.899 21.7363 673.22 20.8574C672.546 19.9727 672.209 18.7451 672.209 17.1748ZM674.749 17.3594C674.749 18.25 674.904 18.9326 675.215 19.4072C675.525 19.8818 675.977 20.1191 676.568 20.1191C677.354 20.1191 677.907 19.7881 678.229 19.126V15.373C677.913 14.7109 677.365 14.3799 676.586 14.3799C675.361 14.3799 674.749 15.373 674.749 17.3594ZM688.442 21.0332C687.815 21.7949 686.948 22.1758 685.841 22.1758C684.821 22.1758 684.042 21.8828 683.503 21.2969C682.97 20.7109 682.697 19.8525 682.686 18.7217V12.4902H685.226V18.6338C685.226 19.624 685.677 20.1191 686.579 20.1191C687.44 20.1191 688.032 19.8203 688.354 19.2227V12.4902H690.903V22H688.513L688.442 21.0332ZM695.5 22H692.951V8.5H695.5V22ZM701.978 22.1758C700.583 22.1758 699.446 21.748 698.567 20.8926C697.694 20.0371 697.258 18.8975 697.258 17.4736V17.2275C697.258 16.2725 697.442 15.4199 697.812 14.6699C698.181 13.9141 698.702 13.334 699.376 12.9297C700.056 12.5195 700.829 12.3145 701.696 12.3145C702.997 12.3145 704.02 12.7246 704.764 13.5449C705.514 14.3652 705.889 15.5283 705.889 17.0342V18.0713H699.833C699.915 18.6924 700.161 19.1904 700.571 19.5654C700.987 19.9404 701.512 20.1279 702.145 20.1279C703.123 20.1279 703.888 19.7734 704.438 19.0645L705.687 20.4619C705.306 21.001 704.79 21.4229 704.14 21.7275C703.489 22.0264 702.769 22.1758 701.978 22.1758ZM701.688 14.3711C701.184 14.3711 700.773 14.541 700.457 14.8809C700.146 15.2207 699.947 15.707 699.859 16.3398H703.393V16.1377C703.381 15.5752 703.229 15.1416 702.936 14.8369C702.643 14.5264 702.227 14.3711 701.688 14.3711ZM712.489 19.3721C712.489 19.0615 712.334 18.8184 712.023 18.6426C711.719 18.4609 711.227 18.2998 710.547 18.1592C708.285 17.6846 707.154 16.7236 707.154 15.2764C707.154 14.4326 707.503 13.7295 708.2 13.167C708.903 12.5986 709.82 12.3145 710.951 12.3145C712.158 12.3145 713.122 12.5986 713.843 13.167C714.569 13.7354 714.933 14.4736 714.933 15.3818H712.393C712.393 15.0186 712.275 14.7197 712.041 14.4854C711.807 14.2451 711.44 14.125 710.942 14.125C710.515 14.125 710.184 14.2217 709.949 14.415C709.715 14.6084 709.598 14.8545 709.598 15.1533C709.598 15.4346 709.729 15.6631 709.993 15.8389C710.263 16.0088 710.714 16.1582 711.347 16.2871C711.979 16.4102 712.513 16.5508 712.946 16.709C714.288 17.2012 714.959 18.0537 714.959 19.2666C714.959 20.1338 714.587 20.8369 713.843 21.376C713.099 21.9092 712.138 22.1758 710.96 22.1758C710.163 22.1758 709.454 22.0352 708.833 21.7539C708.218 21.4668 707.734 21.0771 707.383 20.585C707.031 20.0869 706.855 19.5508 706.855 18.9766H709.264C709.287 19.4277 709.454 19.7734 709.765 20.0137C710.075 20.2539 710.491 20.374 711.013 20.374C711.499 20.374 711.865 20.2832 712.111 20.1016C712.363 19.9141 712.489 19.6709 712.489 19.3721Z" fill="black"/>
<path d="M5.53125 88.6328L1.76562 99H0.226562L4.5625 87.625H5.55469L5.53125 88.6328ZM8.6875 99L4.91406 88.6328L4.89062 87.625H5.88281L10.2344 99H8.6875ZM8.49219 94.7891V96.0234H2.10156V94.7891H8.49219ZM13.1094 87V99H11.6562V87H13.1094ZM16.875 92.1719V102.25H15.4219V90.5469H16.75L16.875 92.1719ZM22.5703 94.7031V94.8672C22.5703 95.4818 22.4974 96.0521 22.3516 96.5781C22.2057 97.099 21.9922 97.5521 21.7109 97.9375C21.4349 98.3229 21.0938 98.6224 20.6875 98.8359C20.2812 99.0495 19.8151 99.1562 19.2891 99.1562C18.7526 99.1562 18.2786 99.0677 17.8672 98.8906C17.4557 98.7135 17.1068 98.4557 16.8203 98.1172C16.5339 97.7786 16.3047 97.3724 16.1328 96.8984C15.9661 96.4245 15.8516 95.8906 15.7891 95.2969V94.4219C15.8516 93.7969 15.9688 93.237 16.1406 92.7422C16.3125 92.2474 16.5391 91.8255 16.8203 91.4766C17.1068 91.1224 17.4531 90.8542 17.8594 90.6719C18.2656 90.4844 18.7344 90.3906 19.2656 90.3906C19.7969 90.3906 20.2682 90.4948 20.6797 90.7031C21.0911 90.9062 21.4375 91.1979 21.7188 91.5781C22 91.9583 22.2109 92.4141 22.3516 92.9453C22.4974 93.4714 22.5703 94.0573 22.5703 94.7031ZM21.1172 94.8672V94.7031C21.1172 94.2812 21.0729 93.8854 20.9844 93.5156C20.8958 93.1406 20.7578 92.8125 20.5703 92.5312C20.388 92.2448 20.1536 92.0208 19.8672 91.8594C19.5807 91.6927 19.2396 91.6094 18.8438 91.6094C18.4792 91.6094 18.1615 91.6719 17.8906 91.7969C17.625 91.9219 17.3984 92.0911 17.2109 92.3047C17.0234 92.513 16.8698 92.7526 16.75 93.0234C16.6354 93.2891 16.5495 93.5651 16.4922 93.8516V95.875C16.5964 96.2396 16.7422 96.5833 16.9297 96.9062C17.1172 97.224 17.3672 97.4818 17.6797 97.6797C17.9922 97.8724 18.3854 97.9688 18.8594 97.9688C19.25 97.9688 19.5859 97.888 19.8672 97.7266C20.1536 97.5599 20.388 97.3333 20.5703 97.0469C20.7578 96.7604 20.8958 96.4323 20.9844 96.0625C21.0729 95.6875 21.1172 95.2891 21.1172 94.8672ZM25.8594 87V99H24.4141V87H25.8594ZM25.5156 94.4531L24.9141 94.4297C24.9193 93.8516 25.0052 93.3177 25.1719 92.8281C25.3385 92.3333 25.5729 91.9036 25.875 91.5391C26.1771 91.1745 26.5365 90.8932 26.9531 90.6953C27.375 90.4922 27.8411 90.3906 28.3516 90.3906C28.7682 90.3906 29.1432 90.4479 29.4766 90.5625C29.8099 90.6719 30.0938 90.849 30.3281 91.0938C30.5677 91.3385 30.75 91.6562 30.875 92.0469C31 92.4323 31.0625 92.9036 31.0625 93.4609V99H29.6094V93.4453C29.6094 93.0026 29.5443 92.6484 29.4141 92.3828C29.2839 92.112 29.0938 91.9167 28.8438 91.7969C28.5938 91.6719 28.2865 91.6094 27.9219 91.6094C27.5625 91.6094 27.2344 91.6849 26.9375 91.8359C26.6458 91.987 26.3932 92.1953 26.1797 92.4609C25.9714 92.7266 25.8073 93.0312 25.6875 93.375C25.5729 93.7135 25.5156 94.0729 25.5156 94.4531ZM38.2109 97.5547V93.2031C38.2109 92.8698 38.1432 92.5807 38.0078 92.3359C37.8776 92.0859 37.6797 91.8932 37.4141 91.7578C37.1484 91.6224 36.8203 91.5547 36.4297 91.5547C36.0651 91.5547 35.7448 91.6172 35.4688 91.7422C35.1979 91.8672 34.9844 92.0312 34.8281 92.2344C34.6771 92.4375 34.6016 92.6562 34.6016 92.8906H33.1562C33.1562 92.5885 33.2344 92.2891 33.3906 91.9922C33.5469 91.6953 33.7708 91.4271 34.0625 91.1875C34.3594 90.9427 34.7135 90.75 35.125 90.6094C35.5417 90.4635 36.0052 90.3906 36.5156 90.3906C37.1302 90.3906 37.6719 90.4948 38.1406 90.7031C38.6146 90.9115 38.9844 91.2266 39.25 91.6484C39.5208 92.0651 39.6562 92.5885 39.6562 93.2188V97.1562C39.6562 97.4375 39.6797 97.737 39.7266 98.0547C39.7786 98.3724 39.8542 98.6458 39.9531 98.875V99H38.4453C38.3724 98.8333 38.3151 98.612 38.2734 98.3359C38.2318 98.0547 38.2109 97.7943 38.2109 97.5547ZM38.4609 93.875L38.4766 94.8906H37.0156C36.6042 94.8906 36.237 94.9245 35.9141 94.9922C35.5911 95.0547 35.3203 95.151 35.1016 95.2812C34.8828 95.4115 34.7161 95.5755 34.6016 95.7734C34.487 95.9661 34.4297 96.1927 34.4297 96.4531C34.4297 96.7188 34.4896 96.9609 34.6094 97.1797C34.7292 97.3984 34.9089 97.5729 35.1484 97.7031C35.3932 97.8281 35.6927 97.8906 36.0469 97.8906C36.4896 97.8906 36.8802 97.7969 37.2188 97.6094C37.5573 97.4219 37.8255 97.1927 38.0234 96.9219C38.2266 96.651 38.3359 96.388 38.3516 96.1328L38.9688 96.8281C38.9323 97.0469 38.8333 97.2891 38.6719 97.5547C38.5104 97.8203 38.2943 98.0755 38.0234 98.3203C37.7578 98.5599 37.4401 98.7604 37.0703 98.9219C36.7057 99.0781 36.2943 99.1562 35.8359 99.1562C35.263 99.1562 34.7604 99.0443 34.3281 98.8203C33.901 98.5964 33.5677 98.2969 33.3281 97.9219C33.0938 97.5417 32.9766 97.1172 32.9766 96.6484C32.9766 96.1953 33.0651 95.7969 33.2422 95.4531C33.4193 95.1042 33.6745 94.8151 34.0078 94.5859C34.3411 94.3516 34.7422 94.1745 35.2109 94.0547C35.6797 93.9349 36.2031 93.875 36.7812 93.875H38.4609ZM52.9844 95.3828H54.4844C54.4062 96.1016 54.2005 96.7448 53.8672 97.3125C53.5339 97.8802 53.0625 98.3307 52.4531 98.6641C51.8438 98.9922 51.0833 99.1562 50.1719 99.1562C49.5052 99.1562 48.8984 99.0312 48.3516 98.7812C47.8099 98.5312 47.3438 98.1771 46.9531 97.7188C46.5625 97.2552 46.2604 96.7005 46.0469 96.0547C45.8385 95.4036 45.7344 94.6797 45.7344 93.8828V92.75C45.7344 91.9531 45.8385 91.2318 46.0469 90.5859C46.2604 89.9349 46.5651 89.3776 46.9609 88.9141C47.362 88.4505 47.8438 88.0938 48.4062 87.8438C48.9688 87.5938 49.6016 87.4688 50.3047 87.4688C51.1641 87.4688 51.8906 87.6302 52.4844 87.9531C53.0781 88.276 53.5391 88.724 53.8672 89.2969C54.2005 89.8646 54.4062 90.5234 54.4844 91.2734H52.9844C52.9115 90.7422 52.776 90.2865 52.5781 89.9062C52.3802 89.5208 52.099 89.224 51.7344 89.0156C51.3698 88.8073 50.8932 88.7031 50.3047 88.7031C49.7995 88.7031 49.3542 88.7995 48.9688 88.9922C48.5885 89.1849 48.2682 89.4583 48.0078 89.8125C47.7526 90.1667 47.5599 90.5911 47.4297 91.0859C47.2995 91.5807 47.2344 92.1302 47.2344 92.7344V93.8828C47.2344 94.4401 47.2917 94.9635 47.4062 95.4531C47.526 95.9427 47.7057 96.3724 47.9453 96.7422C48.1849 97.112 48.4896 97.4036 48.8594 97.6172C49.2292 97.8255 49.6667 97.9297 50.1719 97.9297C50.8125 97.9297 51.3229 97.8281 51.7031 97.625C52.0833 97.4219 52.3698 97.1302 52.5625 96.75C52.7604 96.3698 52.901 95.9141 52.9844 95.3828ZM55.9375 94.8672V94.6875C55.9375 94.0781 56.026 93.513 56.2031 92.9922C56.3802 92.4661 56.6354 92.0104 56.9688 91.625C57.3021 91.2344 57.7057 90.9323 58.1797 90.7188C58.6536 90.5 59.1849 90.3906 59.7734 90.3906C60.3672 90.3906 60.901 90.5 61.375 90.7188C61.8542 90.9323 62.2604 91.2344 62.5938 91.625C62.9323 92.0104 63.1901 92.4661 63.3672 92.9922C63.5443 93.513 63.6328 94.0781 63.6328 94.6875V94.8672C63.6328 95.4766 63.5443 96.0417 63.3672 96.5625C63.1901 97.0833 62.9323 97.5391 62.5938 97.9297C62.2604 98.3151 61.8568 98.6172 61.3828 98.8359C60.9141 99.0495 60.3828 99.1562 59.7891 99.1562C59.1953 99.1562 58.6615 99.0495 58.1875 98.8359C57.7135 98.6172 57.3073 98.3151 56.9688 97.9297C56.6354 97.5391 56.3802 97.0833 56.2031 96.5625C56.026 96.0417 55.9375 95.4766 55.9375 94.8672ZM57.3828 94.6875V94.8672C57.3828 95.2891 57.4323 95.6875 57.5312 96.0625C57.6302 96.4323 57.7786 96.7604 57.9766 97.0469C58.1797 97.3333 58.4323 97.5599 58.7344 97.7266C59.0365 97.888 59.388 97.9688 59.7891 97.9688C60.1849 97.9688 60.5312 97.888 60.8281 97.7266C61.1302 97.5599 61.3802 97.3333 61.5781 97.0469C61.776 96.7604 61.9245 96.4323 62.0234 96.0625C62.1276 95.6875 62.1797 95.2891 62.1797 94.8672V94.6875C62.1797 94.2708 62.1276 93.8776 62.0234 93.5078C61.9245 93.1328 61.7734 92.8021 61.5703 92.5156C61.3724 92.224 61.1224 91.9948 60.8203 91.8281C60.5234 91.6615 60.1745 91.5781 59.7734 91.5781C59.3776 91.5781 59.0286 91.6615 58.7266 91.8281C58.4297 91.9948 58.1797 92.224 57.9766 92.5156C57.7786 92.8021 57.6302 93.1328 57.5312 93.5078C57.4323 93.8776 57.3828 94.2708 57.3828 94.6875ZM66.8906 91.875V99H65.4453V90.5469H66.8516L66.8906 91.875ZM69.5312 90.5L69.5234 91.8438C69.4036 91.8177 69.2891 91.8021 69.1797 91.7969C69.0755 91.7865 68.9557 91.7812 68.8203 91.7812C68.487 91.7812 68.1927 91.8333 67.9375 91.9375C67.6823 92.0417 67.4661 92.1875 67.2891 92.375C67.112 92.5625 66.9714 92.7865 66.8672 93.0469C66.7682 93.3021 66.7031 93.5833 66.6719 93.8906L66.2656 94.125C66.2656 93.6146 66.3151 93.1354 66.4141 92.6875C66.5182 92.2396 66.6771 91.8438 66.8906 91.5C67.1042 91.151 67.375 90.8802 67.7031 90.6875C68.0365 90.4896 68.4323 90.3906 68.8906 90.3906C68.9948 90.3906 69.1146 90.4036 69.25 90.4297C69.3854 90.4505 69.4792 90.474 69.5312 90.5ZM72.3125 92.1719V102.25H70.8594V90.5469H72.1875L72.3125 92.1719ZM78.0078 94.7031V94.8672C78.0078 95.4818 77.9349 96.0521 77.7891 96.5781C77.6432 97.099 77.4297 97.5521 77.1484 97.9375C76.8724 98.3229 76.5312 98.6224 76.125 98.8359C75.7188 99.0495 75.2526 99.1562 74.7266 99.1562C74.1901 99.1562 73.7161 99.0677 73.3047 98.8906C72.8932 98.7135 72.5443 98.4557 72.2578 98.1172C71.9714 97.7786 71.7422 97.3724 71.5703 96.8984C71.4036 96.4245 71.2891 95.8906 71.2266 95.2969V94.4219C71.2891 93.7969 71.4062 93.237 71.5781 92.7422C71.75 92.2474 71.9766 91.8255 72.2578 91.4766C72.5443 91.1224 72.8906 90.8542 73.2969 90.6719C73.7031 90.4844 74.1719 90.3906 74.7031 90.3906C75.2344 90.3906 75.7057 90.4948 76.1172 90.7031C76.5286 90.9062 76.875 91.1979 77.1562 91.5781C77.4375 91.9583 77.6484 92.4141 77.7891 92.9453C77.9349 93.4714 78.0078 94.0573 78.0078 94.7031ZM76.5547 94.8672V94.7031C76.5547 94.2812 76.5104 93.8854 76.4219 93.5156C76.3333 93.1406 76.1953 92.8125 76.0078 92.5312C75.8255 92.2448 75.5911 92.0208 75.3047 91.8594C75.0182 91.6927 74.6771 91.6094 74.2812 91.6094C73.9167 91.6094 73.599 91.6719 73.3281 91.7969C73.0625 91.9219 72.8359 92.0911 72.6484 92.3047C72.4609 92.513 72.3073 92.7526 72.1875 93.0234C72.0729 93.2891 71.987 93.5651 71.9297 93.8516V95.875C72.0339 96.2396 72.1797 96.5833 72.3672 96.9062C72.5547 97.224 72.8047 97.4818 73.1172 97.6797C73.4297 97.8724 73.8229 97.9688 74.2969 97.9688C74.6875 97.9688 75.0234 97.888 75.3047 97.7266C75.5911 97.5599 75.8255 97.3333 76.0078 97.0469C76.1953 96.7604 76.3333 96.4323 76.4219 96.0625C76.5104 95.6875 76.5547 95.2891 76.5547 94.8672Z" fill="black"/>
</svg>
