<svg width="600" height="71" viewBox="0 0 600 71" fill="none" xmlns="http://www.w3.org/2000/svg">
<path opacity="0.2" d="M20.1309 18.8789C19.8145 21.5859 18.8125 23.6777 17.125 25.1543C15.4492 26.6191 13.2168 27.3516 10.4277 27.3516C7.4043 27.3516 4.97852 26.2676 3.15039 24.0996C1.33398 21.9316 0.425781 19.0312 0.425781 15.3984V12.9375C0.425781 10.5586 0.847656 8.4668 1.69141 6.66211C2.54688 4.85742 3.75391 3.47461 5.3125 2.51367C6.87109 1.54102 8.67578 1.05469 10.7266 1.05469C13.4453 1.05469 15.625 1.81641 17.2656 3.33984C18.9062 4.85156 19.8613 6.94922 20.1309 9.63281H16.7383C16.4453 7.59375 15.8066 6.11719 14.8223 5.20312C13.8496 4.28906 12.4844 3.83203 10.7266 3.83203C8.57031 3.83203 6.87695 4.62891 5.64648 6.22266C4.42773 7.81641 3.81836 10.084 3.81836 13.0254V15.5039C3.81836 18.2812 4.39844 20.4902 5.55859 22.1309C6.71875 23.7715 8.3418 24.5918 10.4277 24.5918C12.3027 24.5918 13.7383 24.1699 14.7344 23.3262C15.7422 22.4707 16.4102 20.9883 16.7383 18.8789H20.1309ZM27.7773 27H24.5254V0H27.7773V27ZM36.5312 27H33.2793V7.98047H36.5312V27ZM33.0156 2.93555C33.0156 2.4082 33.1738 1.96289 33.4902 1.59961C33.8184 1.23633 34.2988 1.05469 34.9316 1.05469C35.5645 1.05469 36.0449 1.23633 36.373 1.59961C36.7012 1.96289 36.8652 2.4082 36.8652 2.93555C36.8652 3.46289 36.7012 3.90234 36.373 4.25391C36.0449 4.60547 35.5645 4.78125 34.9316 4.78125C34.2988 4.78125 33.8184 4.60547 33.4902 4.25391C33.1738 3.90234 33.0156 3.46289 33.0156 2.93555ZM49.3809 24.6973C50.541 24.6973 51.5547 24.3457 52.4219 23.6426C53.2891 22.9395 53.7695 22.0605 53.8633 21.0059H56.9395C56.8809 22.0957 56.5059 23.1328 55.8145 24.1172C55.123 25.1016 54.1973 25.8867 53.0371 26.4727C51.8887 27.0586 50.6699 27.3516 49.3809 27.3516C46.791 27.3516 44.7285 26.4902 43.1934 24.7676C41.6699 23.0332 40.9082 20.666 40.9082 17.666V17.1211C40.9082 15.2695 41.248 13.623 41.9277 12.1816C42.6074 10.7402 43.5801 9.62109 44.8457 8.82422C46.123 8.02734 47.6289 7.62891 49.3633 7.62891C51.4961 7.62891 53.2656 8.26758 54.6719 9.54492C56.0898 10.8223 56.8457 12.4805 56.9395 14.5195H53.8633C53.7695 13.2891 53.3008 12.2812 52.457 11.4961C51.625 10.6992 50.5938 10.3008 49.3633 10.3008C47.7109 10.3008 46.4277 10.8984 45.5137 12.0938C44.6113 13.2773 44.1602 14.9941 44.1602 17.2441V17.8594C44.1602 20.0508 44.6113 21.7383 45.5137 22.9219C46.416 24.1055 47.7051 24.6973 49.3809 24.6973ZM65.9043 18.1934L63.8652 20.3203V27H60.6133V0H63.8652V16.3301L65.6055 14.2383L71.5293 7.98047H75.4844L68.084 15.9258L76.3457 27H72.5312L65.9043 18.1934ZM92.1836 3.375V7.98047H95.7344V10.4941H92.1836V22.2891C92.1836 23.0508 92.3418 23.625 92.6582 24.0117C92.9746 24.3867 93.5137 24.5742 94.2754 24.5742C94.6504 24.5742 95.166 24.5039 95.8223 24.3633V27C94.9668 27.2344 94.1348 27.3516 93.3262 27.3516C91.873 27.3516 90.7773 26.9121 90.0391 26.0332C89.3008 25.1543 88.9316 23.9062 88.9316 22.2891V10.4941H85.4688V7.98047H88.9316V3.375H92.1836ZM102.801 10.2832C104.242 8.51367 106.117 7.62891 108.426 7.62891C112.445 7.62891 114.473 9.89648 114.508 14.4316V27H111.256V14.4141C111.244 13.043 110.928 12.0293 110.307 11.373C109.697 10.7168 108.742 10.3887 107.441 10.3887C106.387 10.3887 105.461 10.6699 104.664 11.2324C103.867 11.7949 103.246 12.5332 102.801 13.4473V27H99.5488V0H102.801V10.2832ZM127.27 27.3516C124.691 27.3516 122.594 26.5078 120.977 24.8203C119.359 23.1211 118.551 20.8535 118.551 18.0176V17.4199C118.551 15.5332 118.908 13.8516 119.623 12.375C120.35 10.8867 121.357 9.72656 122.646 8.89453C123.947 8.05078 125.354 7.62891 126.865 7.62891C129.338 7.62891 131.26 8.44336 132.631 10.0723C134.002 11.7012 134.688 14.0332 134.688 17.0684V18.4219H121.803C121.85 20.2969 122.395 21.8145 123.438 22.9746C124.492 24.123 125.828 24.6973 127.445 24.6973C128.594 24.6973 129.566 24.4629 130.363 23.9941C131.16 23.5254 131.857 22.9043 132.455 22.1309L134.441 23.6777C132.848 26.127 130.457 27.3516 127.27 27.3516ZM126.865 10.3008C125.553 10.3008 124.451 10.7812 123.561 11.7422C122.67 12.6914 122.119 14.0273 121.908 15.75H131.436V15.5039C131.342 13.8516 130.896 12.5742 130.1 11.6719C129.303 10.7578 128.225 10.3008 126.865 10.3008ZM155.447 15.5918C152.553 14.7598 150.443 13.7402 149.119 12.5332C147.807 11.3145 147.15 9.81445 147.15 8.0332C147.15 6.01758 147.953 4.35352 149.559 3.04102C151.176 1.7168 153.273 1.05469 155.852 1.05469C157.609 1.05469 159.174 1.39453 160.545 2.07422C161.928 2.75391 162.994 3.69141 163.744 4.88672C164.506 6.08203 164.887 7.38867 164.887 8.80664H161.494C161.494 7.25977 161.002 6.04688 160.018 5.16797C159.033 4.27734 157.645 3.83203 155.852 3.83203C154.188 3.83203 152.887 4.20117 151.949 4.93945C151.023 5.66602 150.561 6.67969 150.561 7.98047C150.561 9.02344 151 9.9082 151.879 10.6348C152.77 11.3496 154.275 12.0059 156.396 12.6035C158.529 13.2012 160.193 13.8633 161.389 14.5898C162.596 15.3047 163.486 16.1426 164.061 17.1035C164.646 18.0645 164.939 19.1953 164.939 20.4961C164.939 22.5703 164.131 24.2344 162.514 25.4883C160.896 26.7305 158.734 27.3516 156.027 27.3516C154.27 27.3516 152.629 27.0176 151.105 26.3496C149.582 25.6699 148.404 24.7441 147.572 23.5723C146.752 22.4004 146.342 21.0703 146.342 19.582H149.734C149.734 21.1289 150.303 22.3535 151.439 23.2559C152.588 24.1465 154.117 24.5918 156.027 24.5918C157.809 24.5918 159.174 24.2285 160.123 23.502C161.072 22.7754 161.547 21.7852 161.547 20.5312C161.547 19.2773 161.107 18.3105 160.229 17.6309C159.35 16.9395 157.756 16.2598 155.447 15.5918ZM180.514 27C180.326 26.625 180.174 25.957 180.057 24.9961C178.545 26.5664 176.74 27.3516 174.643 27.3516C172.768 27.3516 171.227 26.8242 170.02 25.7695C168.824 24.7031 168.227 23.3555 168.227 21.7266C168.227 19.7461 168.977 18.2109 170.477 17.1211C171.988 16.0195 174.109 15.4688 176.84 15.4688H180.004V13.9746C180.004 12.8379 179.664 11.9355 178.984 11.2676C178.305 10.5879 177.303 10.248 175.979 10.248C174.818 10.248 173.846 10.541 173.061 11.127C172.275 11.7129 171.883 12.4219 171.883 13.2539H168.613C168.613 12.3047 168.947 11.3906 169.615 10.5117C170.295 9.62109 171.209 8.91797 172.357 8.40234C173.518 7.88672 174.789 7.62891 176.172 7.62891C178.363 7.62891 180.08 8.17969 181.322 9.28125C182.564 10.3711 183.209 11.877 183.256 13.7988V22.5527C183.256 24.2988 183.479 25.6875 183.924 26.7188V27H180.514ZM175.117 24.5215C176.137 24.5215 177.104 24.2578 178.018 23.7305C178.932 23.2031 179.594 22.5176 180.004 21.6738V17.7715H177.455C173.471 17.7715 171.479 18.9375 171.479 21.2695C171.479 22.2891 171.818 23.0859 172.498 23.6602C173.178 24.2344 174.051 24.5215 175.117 24.5215ZM194.348 22.5879L199.059 7.98047H202.381L195.561 27H193.082L186.191 7.98047H189.514L194.348 22.5879ZM213.156 27.3516C210.578 27.3516 208.48 26.5078 206.863 24.8203C205.246 23.1211 204.438 20.8535 204.438 18.0176V17.4199C204.438 15.5332 204.795 13.8516 205.51 12.375C206.236 10.8867 207.244 9.72656 208.533 8.89453C209.834 8.05078 211.24 7.62891 212.752 7.62891C215.225 7.62891 217.146 8.44336 218.518 10.0723C219.889 11.7012 220.574 14.0332 220.574 17.0684V18.4219H207.689C207.736 20.2969 208.281 21.8145 209.324 22.9746C210.379 24.123 211.715 24.6973 213.332 24.6973C214.48 24.6973 215.453 24.4629 216.25 23.9941C217.047 23.5254 217.744 22.9043 218.342 22.1309L220.328 23.6777C218.734 26.127 216.344 27.3516 213.156 27.3516ZM212.752 10.3008C211.439 10.3008 210.338 10.7812 209.447 11.7422C208.557 12.6914 208.006 14.0273 207.795 15.75H217.322V15.5039C217.229 13.8516 216.783 12.5742 215.986 11.6719C215.189 10.7578 214.111 10.3008 212.752 10.3008ZM249.385 17.7012C249.385 20.6074 248.717 22.9453 247.381 24.7148C246.045 26.4727 244.252 27.3516 242.002 27.3516C239.6 27.3516 237.742 26.502 236.43 24.8027L236.271 27H233.283V0H236.535V10.0723C237.848 8.44336 239.658 7.62891 241.967 7.62891C244.275 7.62891 246.086 8.50195 247.398 10.248C248.723 11.9941 249.385 14.3848 249.385 17.4199V17.7012ZM246.133 17.332C246.133 15.1172 245.705 13.4062 244.85 12.1992C243.994 10.9922 242.764 10.3887 241.158 10.3887C239.014 10.3887 237.473 11.3848 236.535 13.377V21.6035C237.531 23.5957 239.084 24.5918 241.193 24.5918C242.752 24.5918 243.965 23.9883 244.832 22.7812C245.699 21.5742 246.133 19.7578 246.133 17.332ZM265.24 25.1191C263.975 26.6074 262.117 27.3516 259.668 27.3516C257.641 27.3516 256.094 26.7656 255.027 25.5938C253.973 24.4102 253.439 22.6641 253.428 20.3555V7.98047H256.68V20.2676C256.68 23.1504 257.852 24.5918 260.195 24.5918C262.68 24.5918 264.332 23.666 265.152 21.8145V7.98047H268.404V27H265.311L265.24 25.1191ZM277.773 3.375V7.98047H281.324V10.4941H277.773V22.2891C277.773 23.0508 277.932 23.625 278.248 24.0117C278.564 24.3867 279.104 24.5742 279.865 24.5742C280.24 24.5742 280.756 24.5039 281.412 24.3633V27C280.557 27.2344 279.725 27.3516 278.916 27.3516C277.463 27.3516 276.367 26.9121 275.629 26.0332C274.891 25.1543 274.521 23.9062 274.521 22.2891V10.4941H271.059V7.98047H274.521V3.375H277.773ZM289.551 3.375V7.98047H293.102V10.4941H289.551V22.2891C289.551 23.0508 289.709 23.625 290.025 24.0117C290.342 24.3867 290.881 24.5742 291.643 24.5742C292.018 24.5742 292.533 24.5039 293.189 24.3633V27C292.334 27.2344 291.502 27.3516 290.693 27.3516C289.24 27.3516 288.145 26.9121 287.406 26.0332C286.668 25.1543 286.299 23.9062 286.299 22.2891V10.4941H282.836V7.98047H286.299V3.375H289.551ZM295.703 17.3145C295.703 15.4512 296.066 13.7754 296.793 12.2871C297.531 10.7988 298.551 9.65039 299.852 8.8418C301.164 8.0332 302.658 7.62891 304.334 7.62891C306.924 7.62891 309.016 8.52539 310.609 10.3184C312.215 12.1113 313.018 14.4961 313.018 17.4727V17.7012C313.018 19.5527 312.66 21.2168 311.945 22.6934C311.242 24.1582 310.229 25.3008 308.904 26.1211C307.592 26.9414 306.08 27.3516 304.369 27.3516C301.791 27.3516 299.699 26.4551 298.094 24.6621C296.5 22.8691 295.703 20.4961 295.703 17.543V17.3145ZM298.973 17.7012C298.973 19.8105 299.459 21.5039 300.432 22.7812C301.416 24.0586 302.729 24.6973 304.369 24.6973C306.021 24.6973 307.334 24.0527 308.307 22.7637C309.279 21.4629 309.766 19.6465 309.766 17.3145C309.766 15.2285 309.268 13.541 308.271 12.252C307.287 10.9512 305.975 10.3008 304.334 10.3008C302.729 10.3008 301.434 10.9395 300.449 12.2168C299.465 13.4941 298.973 15.3223 298.973 17.7012ZM320.172 7.98047L320.277 10.3711C321.73 8.54297 323.629 7.62891 325.973 7.62891C329.992 7.62891 332.02 9.89648 332.055 14.4316V27H328.803V14.4141C328.791 13.043 328.475 12.0293 327.854 11.373C327.244 10.7168 326.289 10.3887 324.988 10.3887C323.934 10.3887 323.008 10.6699 322.211 11.2324C321.414 11.7949 320.793 12.5332 320.348 13.4473V27H317.096V7.98047H320.172ZM350.301 3.375V7.98047H353.852V10.4941H350.301V22.2891C350.301 23.0508 350.459 23.625 350.775 24.0117C351.092 24.3867 351.631 24.5742 352.393 24.5742C352.768 24.5742 353.283 24.5039 353.939 24.3633V27C353.084 27.2344 352.252 27.3516 351.443 27.3516C349.99 27.3516 348.895 26.9121 348.156 26.0332C347.418 25.1543 347.049 23.9062 347.049 22.2891V10.4941H343.586V7.98047H347.049V3.375H350.301ZM356.453 17.3145C356.453 15.4512 356.816 13.7754 357.543 12.2871C358.281 10.7988 359.301 9.65039 360.602 8.8418C361.914 8.0332 363.408 7.62891 365.084 7.62891C367.674 7.62891 369.766 8.52539 371.359 10.3184C372.965 12.1113 373.768 14.4961 373.768 17.4727V17.7012C373.768 19.5527 373.41 21.2168 372.695 22.6934C371.992 24.1582 370.979 25.3008 369.654 26.1211C368.342 26.9414 366.83 27.3516 365.119 27.3516C362.541 27.3516 360.449 26.4551 358.844 24.6621C357.25 22.8691 356.453 20.4961 356.453 17.543V17.3145ZM359.723 17.7012C359.723 19.8105 360.209 21.5039 361.182 22.7812C362.166 24.0586 363.479 24.6973 365.119 24.6973C366.771 24.6973 368.084 24.0527 369.057 22.7637C370.029 21.4629 370.516 19.6465 370.516 17.3145C370.516 15.2285 370.018 13.541 369.021 12.252C368.037 10.9512 366.725 10.3008 365.084 10.3008C363.479 10.3008 362.184 10.9395 361.199 12.2168C360.215 13.4941 359.723 15.3223 359.723 17.7012ZM398.518 27C398.33 26.625 398.178 25.957 398.061 24.9961C396.549 26.5664 394.744 27.3516 392.646 27.3516C390.771 27.3516 389.23 26.8242 388.023 25.7695C386.828 24.7031 386.23 23.3555 386.23 21.7266C386.23 19.7461 386.98 18.2109 388.48 17.1211C389.992 16.0195 392.113 15.4688 394.844 15.4688H398.008V13.9746C398.008 12.8379 397.668 11.9355 396.988 11.2676C396.309 10.5879 395.307 10.248 393.982 10.248C392.822 10.248 391.85 10.541 391.064 11.127C390.279 11.7129 389.887 12.4219 389.887 13.2539H386.617C386.617 12.3047 386.951 11.3906 387.619 10.5117C388.299 9.62109 389.213 8.91797 390.361 8.40234C391.521 7.88672 392.793 7.62891 394.176 7.62891C396.367 7.62891 398.084 8.17969 399.326 9.28125C400.568 10.3711 401.213 11.877 401.26 13.7988V22.5527C401.26 24.2988 401.482 25.6875 401.928 26.7188V27H398.518ZM393.121 24.5215C394.141 24.5215 395.107 24.2578 396.021 23.7305C396.936 23.2031 397.598 22.5176 398.008 21.6738V17.7715H395.459C391.475 17.7715 389.482 18.9375 389.482 21.2695C389.482 22.2891 389.822 23.0859 390.502 23.6602C391.182 24.2344 392.055 24.5215 393.121 24.5215ZM405.566 17.332C405.566 14.4141 406.258 12.0703 407.641 10.3008C409.023 8.51953 410.834 7.62891 413.072 7.62891C415.299 7.62891 417.062 8.39062 418.363 9.91406V0H421.615V27H418.627L418.469 24.9609C417.168 26.5547 415.357 27.3516 413.037 27.3516C410.834 27.3516 409.035 26.4492 407.641 24.6445C406.258 22.8398 405.566 20.4844 405.566 17.5781V17.332ZM408.818 17.7012C408.818 19.8574 409.264 21.5449 410.154 22.7637C411.045 23.9824 412.275 24.5918 413.846 24.5918C415.908 24.5918 417.414 23.666 418.363 21.8145V13.0781C417.391 11.2852 415.896 10.3887 413.881 10.3887C412.287 10.3887 411.045 11.0039 410.154 12.2344C409.264 13.4648 408.818 15.2871 408.818 17.7012ZM425.887 17.332C425.887 14.4141 426.578 12.0703 427.961 10.3008C429.344 8.51953 431.154 7.62891 433.393 7.62891C435.619 7.62891 437.383 8.39062 438.684 9.91406V0H441.936V27H438.947L438.789 24.9609C437.488 26.5547 435.678 27.3516 433.357 27.3516C431.154 27.3516 429.355 26.4492 427.961 24.6445C426.578 22.8398 425.887 20.4844 425.887 17.5781V17.332ZM429.139 17.7012C429.139 19.8574 429.584 21.5449 430.475 22.7637C431.365 23.9824 432.596 24.5918 434.166 24.5918C436.229 24.5918 437.734 23.666 438.684 21.8145V13.0781C437.711 11.2852 436.217 10.3887 434.201 10.3887C432.607 10.3887 431.365 11.0039 430.475 12.2344C429.584 13.4648 429.139 15.2871 429.139 17.7012ZM460.34 3.375V7.98047H463.891V10.4941H460.34V22.2891C460.34 23.0508 460.498 23.625 460.814 24.0117C461.131 24.3867 461.67 24.5742 462.432 24.5742C462.807 24.5742 463.322 24.5039 463.979 24.3633V27C463.123 27.2344 462.291 27.3516 461.482 27.3516C460.029 27.3516 458.934 26.9121 458.195 26.0332C457.457 25.1543 457.088 23.9062 457.088 22.2891V10.4941H453.625V7.98047H457.088V3.375H460.34ZM470.957 10.2832C472.398 8.51367 474.273 7.62891 476.582 7.62891C480.602 7.62891 482.629 9.89648 482.664 14.4316V27H479.412V14.4141C479.4 13.043 479.084 12.0293 478.463 11.373C477.854 10.7168 476.898 10.3887 475.598 10.3887C474.543 10.3887 473.617 10.6699 472.82 11.2324C472.023 11.7949 471.402 12.5332 470.957 13.4473V27H467.705V0H470.957V10.2832ZM495.426 27.3516C492.848 27.3516 490.75 26.5078 489.133 24.8203C487.516 23.1211 486.707 20.8535 486.707 18.0176V17.4199C486.707 15.5332 487.064 13.8516 487.779 12.375C488.506 10.8867 489.514 9.72656 490.803 8.89453C492.104 8.05078 493.51 7.62891 495.021 7.62891C497.494 7.62891 499.416 8.44336 500.787 10.0723C502.158 11.7012 502.844 14.0332 502.844 17.0684V18.4219H489.959C490.006 20.2969 490.551 21.8145 491.594 22.9746C492.648 24.123 493.984 24.6973 495.602 24.6973C496.75 24.6973 497.723 24.4629 498.52 23.9941C499.316 23.5254 500.014 22.9043 500.611 22.1309L502.598 23.6777C501.004 26.127 498.613 27.3516 495.426 27.3516ZM495.021 10.3008C493.709 10.3008 492.607 10.7812 491.717 11.7422C490.826 12.6914 490.275 14.0273 490.064 15.75H499.592V15.5039C499.498 13.8516 499.053 12.5742 498.256 11.6719C497.459 10.7578 496.381 10.3008 495.021 10.3008ZM527.295 27C527.107 26.625 526.955 25.957 526.838 24.9961C525.326 26.5664 523.521 27.3516 521.424 27.3516C519.549 27.3516 518.008 26.8242 516.801 25.7695C515.605 24.7031 515.008 23.3555 515.008 21.7266C515.008 19.7461 515.758 18.2109 517.258 17.1211C518.77 16.0195 520.891 15.4688 523.621 15.4688H526.785V13.9746C526.785 12.8379 526.445 11.9355 525.766 11.2676C525.086 10.5879 524.084 10.248 522.76 10.248C521.6 10.248 520.627 10.541 519.842 11.127C519.057 11.7129 518.664 12.4219 518.664 13.2539H515.395C515.395 12.3047 515.729 11.3906 516.396 10.5117C517.076 9.62109 517.99 8.91797 519.139 8.40234C520.299 7.88672 521.57 7.62891 522.953 7.62891C525.145 7.62891 526.861 8.17969 528.104 9.28125C529.346 10.3711 529.99 11.877 530.037 13.7988V22.5527C530.037 24.2988 530.26 25.6875 530.705 26.7188V27H527.295ZM521.898 24.5215C522.918 24.5215 523.885 24.2578 524.799 23.7305C525.713 23.2031 526.375 22.5176 526.785 21.6738V17.7715H524.236C520.252 17.7715 518.26 18.9375 518.26 21.2695C518.26 22.2891 518.6 23.0859 519.279 23.6602C519.959 24.2344 520.832 24.5215 521.898 24.5215ZM546.209 21.9551C546.209 21.0762 545.875 20.3965 545.207 19.916C544.551 19.4238 543.396 19.002 541.744 18.6504C540.104 18.2988 538.797 17.877 537.824 17.3848C536.863 16.8926 536.148 16.3066 535.68 15.627C535.223 14.9473 534.994 14.1387 534.994 13.2012C534.994 11.6426 535.65 10.3242 536.963 9.24609C538.287 8.16797 539.975 7.62891 542.025 7.62891C544.182 7.62891 545.928 8.18555 547.264 9.29883C548.611 10.4121 549.285 11.8359 549.285 13.5703H546.016C546.016 12.6797 545.635 11.9121 544.873 11.2676C544.123 10.623 543.174 10.3008 542.025 10.3008C540.842 10.3008 539.916 10.5586 539.248 11.0742C538.58 11.5898 538.246 12.2637 538.246 13.0957C538.246 13.8809 538.557 14.4727 539.178 14.8711C539.799 15.2695 540.918 15.6504 542.535 16.0137C544.164 16.377 545.482 16.8105 546.49 17.3145C547.498 17.8184 548.242 18.4277 548.723 19.1426C549.215 19.8457 549.461 20.707 549.461 21.7266C549.461 23.4258 548.781 24.791 547.422 25.8223C546.062 26.8418 544.299 27.3516 542.131 27.3516C540.607 27.3516 539.26 27.082 538.088 26.543C536.916 26.0039 535.996 25.2539 535.328 24.293C534.672 23.3203 534.344 22.2715 534.344 21.1465H537.596C537.654 22.2363 538.088 23.1035 538.896 23.748C539.717 24.3809 540.795 24.6973 542.131 24.6973C543.361 24.6973 544.346 24.4512 545.084 23.959C545.834 23.4551 546.209 22.7871 546.209 21.9551ZM564.771 21.9551C564.771 21.0762 564.438 20.3965 563.77 19.916C563.113 19.4238 561.959 19.002 560.307 18.6504C558.666 18.2988 557.359 17.877 556.387 17.3848C555.426 16.8926 554.711 16.3066 554.242 15.627C553.785 14.9473 553.557 14.1387 553.557 13.2012C553.557 11.6426 554.213 10.3242 555.525 9.24609C556.85 8.16797 558.537 7.62891 560.588 7.62891C562.744 7.62891 564.49 8.18555 565.826 9.29883C567.174 10.4121 567.848 11.8359 567.848 13.5703H564.578C564.578 12.6797 564.197 11.9121 563.436 11.2676C562.686 10.623 561.736 10.3008 560.588 10.3008C559.404 10.3008 558.479 10.5586 557.811 11.0742C557.143 11.5898 556.809 12.2637 556.809 13.0957C556.809 13.8809 557.119 14.4727 557.74 14.8711C558.361 15.2695 559.48 15.6504 561.098 16.0137C562.727 16.377 564.045 16.8105 565.053 17.3145C566.061 17.8184 566.805 18.4277 567.285 19.1426C567.777 19.8457 568.023 20.707 568.023 21.7266C568.023 23.4258 567.344 24.791 565.984 25.8223C564.625 26.8418 562.861 27.3516 560.693 27.3516C559.17 27.3516 557.822 27.082 556.65 26.543C555.479 26.0039 554.559 25.2539 553.891 24.293C553.234 23.3203 552.906 22.2715 552.906 21.1465H556.158C556.217 22.2363 556.65 23.1035 557.459 23.748C558.279 24.3809 559.357 24.6973 560.693 24.6973C561.924 24.6973 562.908 24.4512 563.646 23.959C564.396 23.4551 564.771 22.7871 564.771 21.9551ZM580.152 27.3516C577.574 27.3516 575.477 26.5078 573.859 24.8203C572.242 23.1211 571.434 20.8535 571.434 18.0176V17.4199C571.434 15.5332 571.791 13.8516 572.506 12.375C573.232 10.8867 574.24 9.72656 575.529 8.89453C576.83 8.05078 578.236 7.62891 579.748 7.62891C582.221 7.62891 584.143 8.44336 585.514 10.0723C586.885 11.7012 587.57 14.0332 587.57 17.0684V18.4219H574.686C574.732 20.2969 575.277 21.8145 576.32 22.9746C577.375 24.123 578.711 24.6973 580.328 24.6973C581.477 24.6973 582.449 24.4629 583.246 23.9941C584.043 23.5254 584.74 22.9043 585.338 22.1309L587.324 23.6777C585.73 26.127 583.34 27.3516 580.152 27.3516ZM579.748 10.3008C578.436 10.3008 577.334 10.7812 576.443 11.7422C575.553 12.6914 575.002 14.0273 574.791 15.75H584.318V15.5039C584.225 13.8516 583.779 12.5742 582.982 11.6719C582.186 10.7578 581.107 10.3008 579.748 10.3008ZM595.762 3.375V7.98047H599.312V10.4941H595.762V22.2891C595.762 23.0508 595.92 23.625 596.236 24.0117C596.553 24.3867 597.092 24.5742 597.854 24.5742C598.229 24.5742 598.744 24.5039 599.4 24.3633V27C598.545 27.2344 597.713 27.3516 596.904 27.3516C595.451 27.3516 594.355 26.9121 593.617 26.0332C592.879 25.1543 592.51 23.9062 592.51 22.2891V10.4941H589.047V7.98047H592.51V3.375H595.762ZM86.2422 70C86.0547 69.625 85.9023 68.957 85.7852 67.9961C84.2734 69.5664 82.4688 70.3516 80.3711 70.3516C78.4961 70.3516 76.9551 69.8242 75.748 68.7695C74.5527 67.7031 73.9551 66.3555 73.9551 64.7266C73.9551 62.7461 74.7051 61.2109 76.2051 60.1211C77.7168 59.0195 79.8379 58.4688 82.5684 58.4688H85.7324V56.9746C85.7324 55.8379 85.3926 54.9355 84.7129 54.2676C84.0332 53.5879 83.0312 53.248 81.707 53.248C80.5469 53.248 79.5742 53.541 78.7891 54.127C78.0039 54.7129 77.6113 55.4219 77.6113 56.2539H74.3418C74.3418 55.3047 74.6758 54.3906 75.3438 53.5117C76.0234 52.6211 76.9375 51.918 78.0859 51.4023C79.2461 50.8867 80.5176 50.6289 81.9004 50.6289C84.0918 50.6289 85.8086 51.1797 87.0508 52.2812C88.293 53.3711 88.9375 54.877 88.9844 56.7988V65.5527C88.9844 67.2988 89.207 68.6875 89.6523 69.7188V70H86.2422ZM80.8457 67.5215C81.8652 67.5215 82.832 67.2578 83.7461 66.7305C84.6602 66.2031 85.3223 65.5176 85.7324 64.6738V60.7715H83.1836C79.1992 60.7715 77.207 61.9375 77.207 64.2695C77.207 65.2891 77.5469 66.0859 78.2266 66.6602C78.9062 67.2344 79.7793 67.5215 80.8457 67.5215ZM97.1582 50.9805L97.2637 53.3711C98.7168 51.543 100.615 50.6289 102.959 50.6289C106.979 50.6289 109.006 52.8965 109.041 57.4316V70H105.789V57.4141C105.777 56.043 105.461 55.0293 104.84 54.373C104.23 53.7168 103.275 53.3887 101.975 53.3887C100.92 53.3887 99.9941 53.6699 99.1973 54.2324C98.4004 54.7949 97.7793 55.5332 97.334 56.4473V70H94.082V50.9805H97.1582ZM113.154 60.332C113.154 57.4141 113.846 55.0703 115.229 53.3008C116.611 51.5195 118.422 50.6289 120.66 50.6289C122.887 50.6289 124.65 51.3906 125.951 52.9141V43H129.203V70H126.215L126.057 67.9609C124.756 69.5547 122.945 70.3516 120.625 70.3516C118.422 70.3516 116.623 69.4492 115.229 67.6445C113.846 65.8398 113.154 63.4844 113.154 60.5781V60.332ZM116.406 60.7012C116.406 62.8574 116.852 64.5449 117.742 65.7637C118.633 66.9824 119.863 67.5918 121.434 67.5918C123.496 67.5918 125.002 66.666 125.951 64.8145V56.0781C124.979 54.2852 123.484 53.3887 121.469 53.3887C119.875 53.3887 118.633 54.0039 117.742 55.2344C116.852 56.4648 116.406 58.2871 116.406 60.7012ZM152.389 53.8984C151.896 53.8164 151.363 53.7754 150.789 53.7754C148.656 53.7754 147.209 54.6836 146.447 56.5V70H143.195V50.9805H146.359L146.412 53.1777C147.479 51.4785 148.99 50.6289 150.947 50.6289C151.58 50.6289 152.061 50.7109 152.389 50.875V53.8984ZM162.936 70.3516C160.357 70.3516 158.26 69.5078 156.643 67.8203C155.025 66.1211 154.217 63.8535 154.217 61.0176V60.4199C154.217 58.5332 154.574 56.8516 155.289 55.375C156.016 53.8867 157.023 52.7266 158.312 51.8945C159.613 51.0508 161.02 50.6289 162.531 50.6289C165.004 50.6289 166.926 51.4434 168.297 53.0723C169.668 54.7012 170.354 57.0332 170.354 60.0684V61.4219H157.469C157.516 63.2969 158.061 64.8145 159.104 65.9746C160.158 67.123 161.494 67.6973 163.111 67.6973C164.26 67.6973 165.232 67.4629 166.029 66.9941C166.826 66.5254 167.523 65.9043 168.121 65.1309L170.107 66.6777C168.514 69.127 166.123 70.3516 162.936 70.3516ZM162.531 53.3008C161.219 53.3008 160.117 53.7812 159.227 54.7422C158.336 55.6914 157.785 57.0273 157.574 58.75H167.102V58.5039C167.008 56.8516 166.562 55.5742 165.766 54.6719C164.969 53.7578 163.891 53.3008 162.531 53.3008ZM178.545 46.375V50.9805H182.096V53.4941H178.545V65.2891C178.545 66.0508 178.703 66.625 179.02 67.0117C179.336 67.3867 179.875 67.5742 180.637 67.5742C181.012 67.5742 181.527 67.5039 182.184 67.3633V70C181.328 70.2344 180.496 70.3516 179.688 70.3516C178.234 70.3516 177.139 69.9121 176.4 69.0332C175.662 68.1543 175.293 66.9062 175.293 65.2891V53.4941H171.83V50.9805H175.293V46.375H178.545ZM197.652 68.1191C196.387 69.6074 194.529 70.3516 192.08 70.3516C190.053 70.3516 188.506 69.7656 187.439 68.5938C186.385 67.4102 185.852 65.6641 185.84 63.3555V50.9805H189.092V63.2676C189.092 66.1504 190.264 67.5918 192.607 67.5918C195.092 67.5918 196.744 66.666 197.564 64.8145V50.9805H200.816V70H197.723L197.652 68.1191ZM214.967 53.8984C214.475 53.8164 213.941 53.7754 213.367 53.7754C211.234 53.7754 209.787 54.6836 209.025 56.5V70H205.773V50.9805H208.938L208.99 53.1777C210.057 51.4785 211.568 50.6289 213.525 50.6289C214.158 50.6289 214.639 50.7109 214.967 50.875V53.8984ZM221.049 50.9805L221.154 53.3711C222.607 51.543 224.506 50.6289 226.85 50.6289C230.869 50.6289 232.896 52.8965 232.932 57.4316V70H229.68V57.4141C229.668 56.043 229.352 55.0293 228.73 54.373C228.121 53.7168 227.166 53.3887 225.865 53.3887C224.811 53.3887 223.885 53.6699 223.088 54.2324C222.291 54.7949 221.67 55.5332 221.225 56.4473V70H217.973V50.9805H221.049ZM251.178 46.375V50.9805H254.729V53.4941H251.178V65.2891C251.178 66.0508 251.336 66.625 251.652 67.0117C251.969 67.3867 252.508 67.5742 253.27 67.5742C253.645 67.5742 254.16 67.5039 254.816 67.3633V70C253.961 70.2344 253.129 70.3516 252.32 70.3516C250.867 70.3516 249.771 69.9121 249.033 69.0332C248.295 68.1543 247.926 66.9062 247.926 65.2891V53.4941H244.463V50.9805H247.926V46.375H251.178ZM257.33 60.3145C257.33 58.4512 257.693 56.7754 258.42 55.2871C259.158 53.7988 260.178 52.6504 261.479 51.8418C262.791 51.0332 264.285 50.6289 265.961 50.6289C268.551 50.6289 270.643 51.5254 272.236 53.3184C273.842 55.1113 274.645 57.4961 274.645 60.4727V60.7012C274.645 62.5527 274.287 64.2168 273.572 65.6934C272.869 67.1582 271.855 68.3008 270.531 69.1211C269.219 69.9414 267.707 70.3516 265.996 70.3516C263.418 70.3516 261.326 69.4551 259.721 67.6621C258.127 65.8691 257.33 63.4961 257.33 60.543V60.3145ZM260.6 60.7012C260.6 62.8105 261.086 64.5039 262.059 65.7812C263.043 67.0586 264.355 67.6973 265.996 67.6973C267.648 67.6973 268.961 67.0527 269.934 65.7637C270.906 64.4629 271.393 62.6465 271.393 60.3145C271.393 58.2285 270.895 56.541 269.898 55.252C268.914 53.9512 267.602 53.3008 265.961 53.3008C264.355 53.3008 263.061 53.9395 262.076 55.2168C261.092 56.4941 260.6 58.3223 260.6 60.7012ZM299.395 70C299.207 69.625 299.055 68.957 298.938 67.9961C297.426 69.5664 295.621 70.3516 293.523 70.3516C291.648 70.3516 290.107 69.8242 288.9 68.7695C287.705 67.7031 287.107 66.3555 287.107 64.7266C287.107 62.7461 287.857 61.2109 289.357 60.1211C290.869 59.0195 292.99 58.4688 295.721 58.4688H298.885V56.9746C298.885 55.8379 298.545 54.9355 297.865 54.2676C297.186 53.5879 296.184 53.248 294.859 53.248C293.699 53.248 292.727 53.541 291.941 54.127C291.156 54.7129 290.764 55.4219 290.764 56.2539H287.494C287.494 55.3047 287.828 54.3906 288.496 53.5117C289.176 52.6211 290.09 51.918 291.238 51.4023C292.398 50.8867 293.67 50.6289 295.053 50.6289C297.244 50.6289 298.961 51.1797 300.203 52.2812C301.445 53.3711 302.09 54.877 302.137 56.7988V65.5527C302.137 67.2988 302.359 68.6875 302.805 69.7188V70H299.395ZM293.998 67.5215C295.018 67.5215 295.984 67.2578 296.898 66.7305C297.812 66.2031 298.475 65.5176 298.885 64.6738V60.7715H296.336C292.352 60.7715 290.359 61.9375 290.359 64.2695C290.359 65.2891 290.699 66.0859 291.379 66.6602C292.059 67.2344 292.932 67.5215 293.998 67.5215ZM318.309 64.9551C318.309 64.0762 317.975 63.3965 317.307 62.916C316.65 62.4238 315.496 62.002 313.844 61.6504C312.203 61.2988 310.896 60.877 309.924 60.3848C308.963 59.8926 308.248 59.3066 307.779 58.627C307.322 57.9473 307.094 57.1387 307.094 56.2012C307.094 54.6426 307.75 53.3242 309.062 52.2461C310.387 51.168 312.074 50.6289 314.125 50.6289C316.281 50.6289 318.027 51.1855 319.363 52.2988C320.711 53.4121 321.385 54.8359 321.385 56.5703H318.115C318.115 55.6797 317.734 54.9121 316.973 54.2676C316.223 53.623 315.273 53.3008 314.125 53.3008C312.941 53.3008 312.016 53.5586 311.348 54.0742C310.68 54.5898 310.346 55.2637 310.346 56.0957C310.346 56.8809 310.656 57.4727 311.277 57.8711C311.898 58.2695 313.018 58.6504 314.635 59.0137C316.264 59.377 317.582 59.8105 318.59 60.3145C319.598 60.8184 320.342 61.4277 320.822 62.1426C321.314 62.8457 321.561 63.707 321.561 64.7266C321.561 66.4258 320.881 67.791 319.521 68.8223C318.162 69.8418 316.398 70.3516 314.23 70.3516C312.707 70.3516 311.359 70.082 310.188 69.543C309.016 69.0039 308.096 68.2539 307.428 67.293C306.771 66.3203 306.443 65.2715 306.443 64.1465H309.695C309.754 65.2363 310.188 66.1035 310.996 66.748C311.816 67.3809 312.895 67.6973 314.23 67.6973C315.461 67.6973 316.445 67.4512 317.184 66.959C317.934 66.4551 318.309 65.7871 318.309 64.9551ZM336.871 64.9551C336.871 64.0762 336.537 63.3965 335.869 62.916C335.213 62.4238 334.059 62.002 332.406 61.6504C330.766 61.2988 329.459 60.877 328.486 60.3848C327.525 59.8926 326.811 59.3066 326.342 58.627C325.885 57.9473 325.656 57.1387 325.656 56.2012C325.656 54.6426 326.312 53.3242 327.625 52.2461C328.949 51.168 330.637 50.6289 332.688 50.6289C334.844 50.6289 336.59 51.1855 337.926 52.2988C339.273 53.4121 339.947 54.8359 339.947 56.5703H336.678C336.678 55.6797 336.297 54.9121 335.535 54.2676C334.785 53.623 333.836 53.3008 332.688 53.3008C331.504 53.3008 330.578 53.5586 329.91 54.0742C329.242 54.5898 328.908 55.2637 328.908 56.0957C328.908 56.8809 329.219 57.4727 329.84 57.8711C330.461 58.2695 331.58 58.6504 333.197 59.0137C334.826 59.377 336.145 59.8105 337.152 60.3145C338.16 60.8184 338.904 61.4277 339.385 62.1426C339.877 62.8457 340.123 63.707 340.123 64.7266C340.123 66.4258 339.443 67.791 338.084 68.8223C336.725 69.8418 334.961 70.3516 332.793 70.3516C331.27 70.3516 329.922 70.082 328.75 69.543C327.578 69.0039 326.658 68.2539 325.99 67.293C325.334 66.3203 325.006 65.2715 325.006 64.1465H328.258C328.316 65.2363 328.75 66.1035 329.559 66.748C330.379 67.3809 331.457 67.6973 332.793 67.6973C334.023 67.6973 335.008 67.4512 335.746 66.959C336.496 66.4551 336.871 65.7871 336.871 64.9551ZM352.252 70.3516C349.674 70.3516 347.576 69.5078 345.959 67.8203C344.342 66.1211 343.533 63.8535 343.533 61.0176V60.4199C343.533 58.5332 343.891 56.8516 344.605 55.375C345.332 53.8867 346.34 52.7266 347.629 51.8945C348.93 51.0508 350.336 50.6289 351.848 50.6289C354.32 50.6289 356.242 51.4434 357.613 53.0723C358.984 54.7012 359.67 57.0332 359.67 60.0684V61.4219H346.785C346.832 63.2969 347.377 64.8145 348.42 65.9746C349.475 67.123 350.811 67.6973 352.428 67.6973C353.576 67.6973 354.549 67.4629 355.346 66.9941C356.143 66.5254 356.84 65.9043 357.438 65.1309L359.424 66.6777C357.83 69.127 355.439 70.3516 352.252 70.3516ZM351.848 53.3008C350.535 53.3008 349.434 53.7812 348.543 54.7422C347.652 55.6914 347.102 57.0273 346.891 58.75H356.418V58.5039C356.324 56.8516 355.879 55.5742 355.082 54.6719C354.285 53.7578 353.207 53.3008 351.848 53.3008ZM367.861 46.375V50.9805H371.412V53.4941H367.861V65.2891C367.861 66.0508 368.02 66.625 368.336 67.0117C368.652 67.3867 369.191 67.5742 369.953 67.5742C370.328 67.5742 370.844 67.5039 371.5 67.3633V70C370.645 70.2344 369.812 70.3516 369.004 70.3516C367.551 70.3516 366.455 69.9121 365.717 69.0332C364.979 68.1543 364.609 66.9062 364.609 65.2891V53.4941H361.146V50.9805H364.609V46.375H367.861ZM395.23 64.9551C395.23 64.0762 394.896 63.3965 394.229 62.916C393.572 62.4238 392.418 62.002 390.766 61.6504C389.125 61.2988 387.818 60.877 386.846 60.3848C385.885 59.8926 385.17 59.3066 384.701 58.627C384.244 57.9473 384.016 57.1387 384.016 56.2012C384.016 54.6426 384.672 53.3242 385.984 52.2461C387.309 51.168 388.996 50.6289 391.047 50.6289C393.203 50.6289 394.949 51.1855 396.285 52.2988C397.633 53.4121 398.307 54.8359 398.307 56.5703H395.037C395.037 55.6797 394.656 54.9121 393.895 54.2676C393.145 53.623 392.195 53.3008 391.047 53.3008C389.863 53.3008 388.938 53.5586 388.27 54.0742C387.602 54.5898 387.268 55.2637 387.268 56.0957C387.268 56.8809 387.578 57.4727 388.199 57.8711C388.82 58.2695 389.939 58.6504 391.557 59.0137C393.186 59.377 394.504 59.8105 395.512 60.3145C396.52 60.8184 397.264 61.4277 397.744 62.1426C398.236 62.8457 398.482 63.707 398.482 64.7266C398.482 66.4258 397.803 67.791 396.443 68.8223C395.084 69.8418 393.32 70.3516 391.152 70.3516C389.629 70.3516 388.281 70.082 387.109 69.543C385.938 69.0039 385.018 68.2539 384.35 67.293C383.693 66.3203 383.365 65.2715 383.365 64.1465H386.617C386.676 65.2363 387.109 66.1035 387.918 66.748C388.738 67.3809 389.816 67.6973 391.152 67.6973C392.383 67.6973 393.367 67.4512 394.105 66.959C394.855 66.4551 395.23 65.7871 395.23 64.9551ZM410.611 70.3516C408.033 70.3516 405.936 69.5078 404.318 67.8203C402.701 66.1211 401.893 63.8535 401.893 61.0176V60.4199C401.893 58.5332 402.25 56.8516 402.965 55.375C403.691 53.8867 404.699 52.7266 405.988 51.8945C407.289 51.0508 408.695 50.6289 410.207 50.6289C412.68 50.6289 414.602 51.4434 415.973 53.0723C417.344 54.7012 418.029 57.0332 418.029 60.0684V61.4219H405.145C405.191 63.2969 405.736 64.8145 406.779 65.9746C407.834 67.123 409.17 67.6973 410.787 67.6973C411.936 67.6973 412.908 67.4629 413.705 66.9941C414.502 66.5254 415.199 65.9043 415.797 65.1309L417.783 66.6777C416.189 69.127 413.799 70.3516 410.611 70.3516ZM410.207 53.3008C408.895 53.3008 407.793 53.7812 406.902 54.7422C406.012 55.6914 405.461 57.0273 405.25 58.75H414.777V58.5039C414.684 56.8516 414.238 55.5742 413.441 54.6719C412.645 53.7578 411.566 53.3008 410.207 53.3008ZM425.342 70H422.09V43H425.342V70ZM438.455 70.3516C435.877 70.3516 433.779 69.5078 432.162 67.8203C430.545 66.1211 429.736 63.8535 429.736 61.0176V60.4199C429.736 58.5332 430.094 56.8516 430.809 55.375C431.535 53.8867 432.543 52.7266 433.832 51.8945C435.133 51.0508 436.539 50.6289 438.051 50.6289C440.523 50.6289 442.445 51.4434 443.816 53.0723C445.188 54.7012 445.873 57.0332 445.873 60.0684V61.4219H432.988C433.035 63.2969 433.58 64.8145 434.623 65.9746C435.678 67.123 437.014 67.6973 438.631 67.6973C439.779 67.6973 440.752 67.4629 441.549 66.9941C442.346 66.5254 443.043 65.9043 443.641 65.1309L445.627 66.6777C444.033 69.127 441.643 70.3516 438.455 70.3516ZM438.051 53.3008C436.738 53.3008 435.637 53.7812 434.746 54.7422C433.855 55.6914 433.305 57.0273 433.094 58.75H442.621V58.5039C442.527 56.8516 442.082 55.5742 441.285 54.6719C440.488 53.7578 439.41 53.3008 438.051 53.3008ZM457.281 67.6973C458.441 67.6973 459.455 67.3457 460.322 66.6426C461.189 65.9395 461.67 65.0605 461.764 64.0059H464.84C464.781 65.0957 464.406 66.1328 463.715 67.1172C463.023 68.1016 462.098 68.8867 460.938 69.4727C459.789 70.0586 458.57 70.3516 457.281 70.3516C454.691 70.3516 452.629 69.4902 451.094 67.7676C449.57 66.0332 448.809 63.666 448.809 60.666V60.1211C448.809 58.2695 449.148 56.623 449.828 55.1816C450.508 53.7402 451.48 52.6211 452.746 51.8242C454.023 51.0273 455.529 50.6289 457.264 50.6289C459.396 50.6289 461.166 51.2676 462.572 52.5449C463.99 53.8223 464.746 55.4805 464.84 57.5195H461.764C461.67 56.2891 461.201 55.2812 460.357 54.4961C459.525 53.6992 458.494 53.3008 457.264 53.3008C455.611 53.3008 454.328 53.8984 453.414 55.0938C452.512 56.2773 452.061 57.9941 452.061 60.2441V60.8594C452.061 63.0508 452.512 64.7383 453.414 65.9219C454.316 67.1055 455.605 67.6973 457.281 67.6973ZM472.908 46.375V50.9805H476.459V53.4941H472.908V65.2891C472.908 66.0508 473.066 66.625 473.383 67.0117C473.699 67.3867 474.238 67.5742 475 67.5742C475.375 67.5742 475.891 67.5039 476.547 67.3633V70C475.691 70.2344 474.859 70.3516 474.051 70.3516C472.598 70.3516 471.502 69.9121 470.764 69.0332C470.025 68.1543 469.656 66.9062 469.656 65.2891V53.4941H466.193V50.9805H469.656V46.375H472.908ZM483.807 70H480.555V50.9805H483.807V70ZM480.291 45.9355C480.291 45.4082 480.449 44.9629 480.766 44.5996C481.094 44.2363 481.574 44.0547 482.207 44.0547C482.84 44.0547 483.32 44.2363 483.648 44.5996C483.977 44.9629 484.141 45.4082 484.141 45.9355C484.141 46.4629 483.977 46.9023 483.648 47.2539C483.32 47.6055 482.84 47.7812 482.207 47.7812C481.574 47.7812 481.094 47.6055 480.766 47.2539C480.449 46.9023 480.291 46.4629 480.291 45.9355ZM488.166 60.3145C488.166 58.4512 488.529 56.7754 489.256 55.2871C489.994 53.7988 491.014 52.6504 492.314 51.8418C493.627 51.0332 495.121 50.6289 496.797 50.6289C499.387 50.6289 501.479 51.5254 503.072 53.3184C504.678 55.1113 505.48 57.4961 505.48 60.4727V60.7012C505.48 62.5527 505.123 64.2168 504.408 65.6934C503.705 67.1582 502.691 68.3008 501.367 69.1211C500.055 69.9414 498.543 70.3516 496.832 70.3516C494.254 70.3516 492.162 69.4551 490.557 67.6621C488.963 65.8691 488.166 63.4961 488.166 60.543V60.3145ZM491.436 60.7012C491.436 62.8105 491.922 64.5039 492.895 65.7812C493.879 67.0586 495.191 67.6973 496.832 67.6973C498.484 67.6973 499.797 67.0527 500.77 65.7637C501.742 64.4629 502.229 62.6465 502.229 60.3145C502.229 58.2285 501.73 56.541 500.734 55.252C499.75 53.9512 498.438 53.3008 496.797 53.3008C495.191 53.3008 493.896 53.9395 492.912 55.2168C491.928 56.4941 491.436 58.3223 491.436 60.7012ZM512.635 50.9805L512.74 53.3711C514.193 51.543 516.092 50.6289 518.436 50.6289C522.455 50.6289 524.482 52.8965 524.518 57.4316V70H521.266V57.4141C521.254 56.043 520.938 55.0293 520.316 54.373C519.707 53.7168 518.752 53.3887 517.451 53.3887C516.396 53.3887 515.471 53.6699 514.674 54.2324C513.877 54.7949 513.256 55.5332 512.811 56.4473V70H509.559V50.9805H512.635Z" fill="black"/>
</svg>
