<svg width="580" height="78" viewBox="0 0 580 78" fill="none" xmlns="http://www.w3.org/2000/svg">
<path opacity="0.2" d="M19.8516 18.8789C19.5352 21.5859 18.5332 23.6777 16.8457 25.1543C15.1699 26.6191 12.9375 27.3516 10.1484 27.3516C7.125 27.3516 4.69922 26.2676 2.87109 24.0996C1.05469 21.9316 0.146484 19.0312 0.146484 15.3984V12.9375C0.146484 10.5586 0.568359 8.4668 1.41211 6.66211C2.26758 4.85742 3.47461 3.47461 5.0332 2.51367C6.5918 1.54102 8.39648 1.05469 10.4473 1.05469C13.166 1.05469 15.3457 1.81641 16.9863 3.33984C18.627 4.85156 19.582 6.94922 19.8516 9.63281H16.459C16.166 7.59375 15.5273 6.11719 14.543 5.20312C13.5703 4.28906 12.2051 3.83203 10.4473 3.83203C8.29102 3.83203 6.59766 4.62891 5.36719 6.22266C4.14844 7.81641 3.53906 10.084 3.53906 13.0254V15.5039C3.53906 18.2812 4.11914 20.4902 5.2793 22.1309C6.43945 23.7715 8.0625 24.5918 10.1484 24.5918C12.0234 24.5918 13.459 24.1699 14.4551 23.3262C15.4629 22.4707 16.1309 20.9883 16.459 18.8789H19.8516ZM27.498 27H24.2461V0H27.498V27ZM36.252 27H33V7.98047H36.252V27ZM32.7363 2.93555C32.7363 2.4082 32.8945 1.96289 33.2109 1.59961C33.5391 1.23633 34.0195 1.05469 34.6523 1.05469C35.2852 1.05469 35.7656 1.23633 36.0938 1.59961C36.4219 1.96289 36.5859 2.4082 36.5859 2.93555C36.5859 3.46289 36.4219 3.90234 36.0938 4.25391C35.7656 4.60547 35.2852 4.78125 34.6523 4.78125C34.0195 4.78125 33.5391 4.60547 33.2109 4.25391C32.8945 3.90234 32.7363 3.46289 32.7363 2.93555ZM49.1016 24.6973C50.2617 24.6973 51.2754 24.3457 52.1426 23.6426C53.0098 22.9395 53.4902 22.0605 53.584 21.0059H56.6602C56.6016 22.0957 56.2266 23.1328 55.5352 24.1172C54.8438 25.1016 53.918 25.8867 52.7578 26.4727C51.6094 27.0586 50.3906 27.3516 49.1016 27.3516C46.5117 27.3516 44.4492 26.4902 42.9141 24.7676C41.3906 23.0332 40.6289 20.666 40.6289 17.666V17.1211C40.6289 15.2695 40.9688 13.623 41.6484 12.1816C42.3281 10.7402 43.3008 9.62109 44.5664 8.82422C45.8438 8.02734 47.3496 7.62891 49.084 7.62891C51.2168 7.62891 52.9863 8.26758 54.3926 9.54492C55.8105 10.8223 56.5664 12.4805 56.6602 14.5195H53.584C53.4902 13.2891 53.0215 12.2812 52.1777 11.4961C51.3457 10.6992 50.3145 10.3008 49.084 10.3008C47.4316 10.3008 46.1484 10.8984 45.2344 12.0938C44.332 13.2773 43.8809 14.9941 43.8809 17.2441V17.8594C43.8809 20.0508 44.332 21.7383 45.2344 22.9219C46.1367 24.1055 47.4258 24.6973 49.1016 24.6973ZM65.625 18.1934L63.5859 20.3203V27H60.334V0H63.5859V16.3301L65.3262 14.2383L71.25 7.98047H75.2051L67.8047 15.9258L76.0664 27H72.252L65.625 18.1934ZM91.9043 3.375V7.98047H95.4551V10.4941H91.9043V22.2891C91.9043 23.0508 92.0625 23.625 92.3789 24.0117C92.6953 24.3867 93.2344 24.5742 93.9961 24.5742C94.3711 24.5742 94.8867 24.5039 95.543 24.3633V27C94.6875 27.2344 93.8555 27.3516 93.0469 27.3516C91.5938 27.3516 90.498 26.9121 89.7598 26.0332C89.0215 25.1543 88.6523 23.9062 88.6523 22.2891V10.4941H85.1895V7.98047H88.6523V3.375H91.9043ZM102.521 10.2832C103.963 8.51367 105.838 7.62891 108.146 7.62891C112.166 7.62891 114.193 9.89648 114.229 14.4316V27H110.977V14.4141C110.965 13.043 110.648 12.0293 110.027 11.373C109.418 10.7168 108.463 10.3887 107.162 10.3887C106.107 10.3887 105.182 10.6699 104.385 11.2324C103.588 11.7949 102.967 12.5332 102.521 13.4473V27H99.2695V0H102.521V10.2832ZM126.99 27.3516C124.412 27.3516 122.314 26.5078 120.697 24.8203C119.08 23.1211 118.271 20.8535 118.271 18.0176V17.4199C118.271 15.5332 118.629 13.8516 119.344 12.375C120.07 10.8867 121.078 9.72656 122.367 8.89453C123.668 8.05078 125.074 7.62891 126.586 7.62891C129.059 7.62891 130.98 8.44336 132.352 10.0723C133.723 11.7012 134.408 14.0332 134.408 17.0684V18.4219H121.523C121.57 20.2969 122.115 21.8145 123.158 22.9746C124.213 24.123 125.549 24.6973 127.166 24.6973C128.314 24.6973 129.287 24.4629 130.084 23.9941C130.881 23.5254 131.578 22.9043 132.176 22.1309L134.162 23.6777C132.568 26.127 130.178 27.3516 126.99 27.3516ZM126.586 10.3008C125.273 10.3008 124.172 10.7812 123.281 11.7422C122.391 12.6914 121.84 14.0273 121.629 15.75H131.156V15.5039C131.062 13.8516 130.617 12.5742 129.82 11.6719C129.023 10.7578 127.945 10.3008 126.586 10.3008ZM155.168 15.5918C152.273 14.7598 150.164 13.7402 148.84 12.5332C147.527 11.3145 146.871 9.81445 146.871 8.0332C146.871 6.01758 147.674 4.35352 149.279 3.04102C150.896 1.7168 152.994 1.05469 155.572 1.05469C157.33 1.05469 158.895 1.39453 160.266 2.07422C161.648 2.75391 162.715 3.69141 163.465 4.88672C164.227 6.08203 164.607 7.38867 164.607 8.80664H161.215C161.215 7.25977 160.723 6.04688 159.738 5.16797C158.754 4.27734 157.365 3.83203 155.572 3.83203C153.908 3.83203 152.607 4.20117 151.67 4.93945C150.744 5.66602 150.281 6.67969 150.281 7.98047C150.281 9.02344 150.721 9.9082 151.6 10.6348C152.49 11.3496 153.996 12.0059 156.117 12.6035C158.25 13.2012 159.914 13.8633 161.109 14.5898C162.316 15.3047 163.207 16.1426 163.781 17.1035C164.367 18.0645 164.66 19.1953 164.66 20.4961C164.66 22.5703 163.852 24.2344 162.234 25.4883C160.617 26.7305 158.455 27.3516 155.748 27.3516C153.99 27.3516 152.35 27.0176 150.826 26.3496C149.303 25.6699 148.125 24.7441 147.293 23.5723C146.473 22.4004 146.062 21.0703 146.062 19.582H149.455C149.455 21.1289 150.023 22.3535 151.16 23.2559C152.309 24.1465 153.838 24.5918 155.748 24.5918C157.529 24.5918 158.895 24.2285 159.844 23.502C160.793 22.7754 161.268 21.7852 161.268 20.5312C161.268 19.2773 160.828 18.3105 159.949 17.6309C159.07 16.9395 157.477 16.2598 155.168 15.5918ZM180.234 27C180.047 26.625 179.895 25.957 179.777 24.9961C178.266 26.5664 176.461 27.3516 174.363 27.3516C172.488 27.3516 170.947 26.8242 169.74 25.7695C168.545 24.7031 167.947 23.3555 167.947 21.7266C167.947 19.7461 168.697 18.2109 170.197 17.1211C171.709 16.0195 173.83 15.4688 176.561 15.4688H179.725V13.9746C179.725 12.8379 179.385 11.9355 178.705 11.2676C178.025 10.5879 177.023 10.248 175.699 10.248C174.539 10.248 173.566 10.541 172.781 11.127C171.996 11.7129 171.604 12.4219 171.604 13.2539H168.334C168.334 12.3047 168.668 11.3906 169.336 10.5117C170.016 9.62109 170.93 8.91797 172.078 8.40234C173.238 7.88672 174.51 7.62891 175.893 7.62891C178.084 7.62891 179.801 8.17969 181.043 9.28125C182.285 10.3711 182.93 11.877 182.977 13.7988V22.5527C182.977 24.2988 183.199 25.6875 183.645 26.7188V27H180.234ZM174.838 24.5215C175.857 24.5215 176.824 24.2578 177.738 23.7305C178.652 23.2031 179.314 22.5176 179.725 21.6738V17.7715H177.176C173.191 17.7715 171.199 18.9375 171.199 21.2695C171.199 22.2891 171.539 23.0859 172.219 23.6602C172.898 24.2344 173.771 24.5215 174.838 24.5215ZM194.068 22.5879L198.779 7.98047H202.102L195.281 27H192.803L185.912 7.98047H189.234L194.068 22.5879ZM212.877 27.3516C210.299 27.3516 208.201 26.5078 206.584 24.8203C204.967 23.1211 204.158 20.8535 204.158 18.0176V17.4199C204.158 15.5332 204.516 13.8516 205.23 12.375C205.957 10.8867 206.965 9.72656 208.254 8.89453C209.555 8.05078 210.961 7.62891 212.473 7.62891C214.945 7.62891 216.867 8.44336 218.238 10.0723C219.609 11.7012 220.295 14.0332 220.295 17.0684V18.4219H207.41C207.457 20.2969 208.002 21.8145 209.045 22.9746C210.1 24.123 211.436 24.6973 213.053 24.6973C214.201 24.6973 215.174 24.4629 215.971 23.9941C216.768 23.5254 217.465 22.9043 218.062 22.1309L220.049 23.6777C218.455 26.127 216.064 27.3516 212.877 27.3516ZM212.473 10.3008C211.16 10.3008 210.059 10.7812 209.168 11.7422C208.277 12.6914 207.727 14.0273 207.516 15.75H217.043V15.5039C216.949 13.8516 216.504 12.5742 215.707 11.6719C214.91 10.7578 213.832 10.3008 212.473 10.3008ZM249.105 17.7012C249.105 20.6074 248.438 22.9453 247.102 24.7148C245.766 26.4727 243.973 27.3516 241.723 27.3516C239.32 27.3516 237.463 26.502 236.15 24.8027L235.992 27H233.004V0H236.256V10.0723C237.568 8.44336 239.379 7.62891 241.688 7.62891C243.996 7.62891 245.807 8.50195 247.119 10.248C248.443 11.9941 249.105 14.3848 249.105 17.4199V17.7012ZM245.854 17.332C245.854 15.1172 245.426 13.4062 244.57 12.1992C243.715 10.9922 242.484 10.3887 240.879 10.3887C238.734 10.3887 237.193 11.3848 236.256 13.377V21.6035C237.252 23.5957 238.805 24.5918 240.914 24.5918C242.473 24.5918 243.686 23.9883 244.553 22.7812C245.42 21.5742 245.854 19.7578 245.854 17.332ZM264.961 25.1191C263.695 26.6074 261.838 27.3516 259.389 27.3516C257.361 27.3516 255.814 26.7656 254.748 25.5938C253.693 24.4102 253.16 22.6641 253.148 20.3555V7.98047H256.4V20.2676C256.4 23.1504 257.572 24.5918 259.916 24.5918C262.4 24.5918 264.053 23.666 264.873 21.8145V7.98047H268.125V27H265.031L264.961 25.1191ZM277.494 3.375V7.98047H281.045V10.4941H277.494V22.2891C277.494 23.0508 277.652 23.625 277.969 24.0117C278.285 24.3867 278.824 24.5742 279.586 24.5742C279.961 24.5742 280.477 24.5039 281.133 24.3633V27C280.277 27.2344 279.445 27.3516 278.637 27.3516C277.184 27.3516 276.088 26.9121 275.35 26.0332C274.611 25.1543 274.242 23.9062 274.242 22.2891V10.4941H270.779V7.98047H274.242V3.375H277.494ZM289.271 3.375V7.98047H292.822V10.4941H289.271V22.2891C289.271 23.0508 289.43 23.625 289.746 24.0117C290.062 24.3867 290.602 24.5742 291.363 24.5742C291.738 24.5742 292.254 24.5039 292.91 24.3633V27C292.055 27.2344 291.223 27.3516 290.414 27.3516C288.961 27.3516 287.865 26.9121 287.127 26.0332C286.389 25.1543 286.02 23.9062 286.02 22.2891V10.4941H282.557V7.98047H286.02V3.375H289.271ZM295.424 17.3145C295.424 15.4512 295.787 13.7754 296.514 12.2871C297.252 10.7988 298.271 9.65039 299.572 8.8418C300.885 8.0332 302.379 7.62891 304.055 7.62891C306.645 7.62891 308.736 8.52539 310.33 10.3184C311.936 12.1113 312.738 14.4961 312.738 17.4727V17.7012C312.738 19.5527 312.381 21.2168 311.666 22.6934C310.963 24.1582 309.949 25.3008 308.625 26.1211C307.312 26.9414 305.801 27.3516 304.09 27.3516C301.512 27.3516 299.42 26.4551 297.814 24.6621C296.221 22.8691 295.424 20.4961 295.424 17.543V17.3145ZM298.693 17.7012C298.693 19.8105 299.18 21.5039 300.152 22.7812C301.137 24.0586 302.449 24.6973 304.09 24.6973C305.742 24.6973 307.055 24.0527 308.027 22.7637C309 21.4629 309.486 19.6465 309.486 17.3145C309.486 15.2285 308.988 13.541 307.992 12.252C307.008 10.9512 305.695 10.3008 304.055 10.3008C302.449 10.3008 301.154 10.9395 300.17 12.2168C299.186 13.4941 298.693 15.3223 298.693 17.7012ZM319.893 7.98047L319.998 10.3711C321.451 8.54297 323.35 7.62891 325.693 7.62891C329.713 7.62891 331.74 9.89648 331.775 14.4316V27H328.523V14.4141C328.512 13.043 328.195 12.0293 327.574 11.373C326.965 10.7168 326.01 10.3887 324.709 10.3887C323.654 10.3887 322.729 10.6699 321.932 11.2324C321.135 11.7949 320.514 12.5332 320.068 13.4473V27H316.816V7.98047H319.893ZM350.021 3.375V7.98047H353.572V10.4941H350.021V22.2891C350.021 23.0508 350.18 23.625 350.496 24.0117C350.812 24.3867 351.352 24.5742 352.113 24.5742C352.488 24.5742 353.004 24.5039 353.66 24.3633V27C352.805 27.2344 351.973 27.3516 351.164 27.3516C349.711 27.3516 348.615 26.9121 347.877 26.0332C347.139 25.1543 346.77 23.9062 346.77 22.2891V10.4941H343.307V7.98047H346.77V3.375H350.021ZM356.174 17.3145C356.174 15.4512 356.537 13.7754 357.264 12.2871C358.002 10.7988 359.021 9.65039 360.322 8.8418C361.635 8.0332 363.129 7.62891 364.805 7.62891C367.395 7.62891 369.486 8.52539 371.08 10.3184C372.686 12.1113 373.488 14.4961 373.488 17.4727V17.7012C373.488 19.5527 373.131 21.2168 372.416 22.6934C371.713 24.1582 370.699 25.3008 369.375 26.1211C368.062 26.9414 366.551 27.3516 364.84 27.3516C362.262 27.3516 360.17 26.4551 358.564 24.6621C356.971 22.8691 356.174 20.4961 356.174 17.543V17.3145ZM359.443 17.7012C359.443 19.8105 359.93 21.5039 360.902 22.7812C361.887 24.0586 363.199 24.6973 364.84 24.6973C366.492 24.6973 367.805 24.0527 368.777 22.7637C369.75 21.4629 370.236 19.6465 370.236 17.3145C370.236 15.2285 369.738 13.541 368.742 12.252C367.758 10.9512 366.445 10.3008 364.805 10.3008C363.199 10.3008 361.904 10.9395 360.92 12.2168C359.936 13.4941 359.443 15.3223 359.443 17.7012ZM398.238 27C398.051 26.625 397.898 25.957 397.781 24.9961C396.27 26.5664 394.465 27.3516 392.367 27.3516C390.492 27.3516 388.951 26.8242 387.744 25.7695C386.549 24.7031 385.951 23.3555 385.951 21.7266C385.951 19.7461 386.701 18.2109 388.201 17.1211C389.713 16.0195 391.834 15.4688 394.564 15.4688H397.729V13.9746C397.729 12.8379 397.389 11.9355 396.709 11.2676C396.029 10.5879 395.027 10.248 393.703 10.248C392.543 10.248 391.57 10.541 390.785 11.127C390 11.7129 389.607 12.4219 389.607 13.2539H386.338C386.338 12.3047 386.672 11.3906 387.34 10.5117C388.02 9.62109 388.934 8.91797 390.082 8.40234C391.242 7.88672 392.514 7.62891 393.896 7.62891C396.088 7.62891 397.805 8.17969 399.047 9.28125C400.289 10.3711 400.934 11.877 400.98 13.7988V22.5527C400.98 24.2988 401.203 25.6875 401.648 26.7188V27H398.238ZM392.842 24.5215C393.861 24.5215 394.828 24.2578 395.742 23.7305C396.656 23.2031 397.318 22.5176 397.729 21.6738V17.7715H395.18C391.195 17.7715 389.203 18.9375 389.203 21.2695C389.203 22.2891 389.543 23.0859 390.223 23.6602C390.902 24.2344 391.775 24.5215 392.842 24.5215ZM405.287 17.332C405.287 14.4141 405.979 12.0703 407.361 10.3008C408.744 8.51953 410.555 7.62891 412.793 7.62891C415.02 7.62891 416.783 8.39062 418.084 9.91406V0H421.336V27H418.348L418.189 24.9609C416.889 26.5547 415.078 27.3516 412.758 27.3516C410.555 27.3516 408.756 26.4492 407.361 24.6445C405.979 22.8398 405.287 20.4844 405.287 17.5781V17.332ZM408.539 17.7012C408.539 19.8574 408.984 21.5449 409.875 22.7637C410.766 23.9824 411.996 24.5918 413.566 24.5918C415.629 24.5918 417.135 23.666 418.084 21.8145V13.0781C417.111 11.2852 415.617 10.3887 413.602 10.3887C412.008 10.3887 410.766 11.0039 409.875 12.2344C408.984 13.4648 408.539 15.2871 408.539 17.7012ZM425.607 17.332C425.607 14.4141 426.299 12.0703 427.682 10.3008C429.064 8.51953 430.875 7.62891 433.113 7.62891C435.34 7.62891 437.104 8.39062 438.404 9.91406V0H441.656V27H438.668L438.51 24.9609C437.209 26.5547 435.398 27.3516 433.078 27.3516C430.875 27.3516 429.076 26.4492 427.682 24.6445C426.299 22.8398 425.607 20.4844 425.607 17.5781V17.332ZM428.859 17.7012C428.859 19.8574 429.305 21.5449 430.195 22.7637C431.086 23.9824 432.316 24.5918 433.887 24.5918C435.949 24.5918 437.455 23.666 438.404 21.8145V13.0781C437.432 11.2852 435.938 10.3887 433.922 10.3887C432.328 10.3887 431.086 11.0039 430.195 12.2344C429.305 13.4648 428.859 15.2871 428.859 17.7012ZM460.061 3.375V7.98047H463.611V10.4941H460.061V22.2891C460.061 23.0508 460.219 23.625 460.535 24.0117C460.852 24.3867 461.391 24.5742 462.152 24.5742C462.527 24.5742 463.043 24.5039 463.699 24.3633V27C462.844 27.2344 462.012 27.3516 461.203 27.3516C459.75 27.3516 458.654 26.9121 457.916 26.0332C457.178 25.1543 456.809 23.9062 456.809 22.2891V10.4941H453.346V7.98047H456.809V3.375H460.061ZM470.678 10.2832C472.119 8.51367 473.994 7.62891 476.303 7.62891C480.322 7.62891 482.35 9.89648 482.385 14.4316V27H479.133V14.4141C479.121 13.043 478.805 12.0293 478.184 11.373C477.574 10.7168 476.619 10.3887 475.318 10.3887C474.264 10.3887 473.338 10.6699 472.541 11.2324C471.744 11.7949 471.123 12.5332 470.678 13.4473V27H467.426V0H470.678V10.2832ZM495.146 27.3516C492.568 27.3516 490.471 26.5078 488.854 24.8203C487.236 23.1211 486.428 20.8535 486.428 18.0176V17.4199C486.428 15.5332 486.785 13.8516 487.5 12.375C488.227 10.8867 489.234 9.72656 490.523 8.89453C491.824 8.05078 493.23 7.62891 494.742 7.62891C497.215 7.62891 499.137 8.44336 500.508 10.0723C501.879 11.7012 502.564 14.0332 502.564 17.0684V18.4219H489.68C489.727 20.2969 490.271 21.8145 491.314 22.9746C492.369 24.123 493.705 24.6973 495.322 24.6973C496.471 24.6973 497.443 24.4629 498.24 23.9941C499.037 23.5254 499.734 22.9043 500.332 22.1309L502.318 23.6777C500.725 26.127 498.334 27.3516 495.146 27.3516ZM494.742 10.3008C493.43 10.3008 492.328 10.7812 491.438 11.7422C490.547 12.6914 489.996 14.0273 489.785 15.75H499.312V15.5039C499.219 13.8516 498.773 12.5742 497.977 11.6719C497.18 10.7578 496.102 10.3008 494.742 10.3008ZM519.686 3.375V7.98047H523.236V10.4941H519.686V22.2891C519.686 23.0508 519.844 23.625 520.16 24.0117C520.477 24.3867 521.016 24.5742 521.777 24.5742C522.152 24.5742 522.668 24.5039 523.324 24.3633V27C522.469 27.2344 521.637 27.3516 520.828 27.3516C519.375 27.3516 518.279 26.9121 517.541 26.0332C516.803 25.1543 516.434 23.9062 516.434 22.2891V10.4941H512.971V7.98047H516.434V3.375H519.686ZM533.273 22.2363L537.703 7.98047H541.184L533.537 29.9355C532.354 33.0996 530.473 34.6816 527.895 34.6816L527.279 34.6289L526.066 34.4004V31.7637L526.945 31.834C528.047 31.834 528.902 31.6113 529.512 31.166C530.133 30.7207 530.643 29.9062 531.041 28.7227L531.762 26.7891L524.977 7.98047H528.527L533.273 22.2363ZM560.168 17.7012C560.168 20.5957 559.506 22.9277 558.182 24.6973C556.857 26.4668 555.064 27.3516 552.803 27.3516C550.494 27.3516 548.678 26.6191 547.354 25.1543V34.3125H544.102V7.98047H547.072L547.23 10.0898C548.555 8.44922 550.395 7.62891 552.75 7.62891C555.035 7.62891 556.84 8.49023 558.164 10.2129C559.5 11.9355 560.168 14.332 560.168 17.4023V17.7012ZM556.916 17.332C556.916 15.1875 556.459 13.4941 555.545 12.252C554.631 11.0098 553.377 10.3887 551.783 10.3887C549.814 10.3887 548.338 11.2617 547.354 13.0078V22.0957C548.326 23.8301 549.814 24.6973 551.818 24.6973C553.377 24.6973 554.613 24.082 555.527 22.8516C556.453 21.6094 556.916 19.7695 556.916 17.332ZM572.209 27.3516C569.631 27.3516 567.533 26.5078 565.916 24.8203C564.299 23.1211 563.49 20.8535 563.49 18.0176V17.4199C563.49 15.5332 563.848 13.8516 564.562 12.375C565.289 10.8867 566.297 9.72656 567.586 8.89453C568.887 8.05078 570.293 7.62891 571.805 7.62891C574.277 7.62891 576.199 8.44336 577.57 10.0723C578.941 11.7012 579.627 14.0332 579.627 17.0684V18.4219H566.742C566.789 20.2969 567.334 21.8145 568.377 22.9746C569.432 24.123 570.768 24.6973 572.385 24.6973C573.533 24.6973 574.506 24.4629 575.303 23.9941C576.1 23.5254 576.797 22.9043 577.395 22.1309L579.381 23.6777C577.787 26.127 575.396 27.3516 572.209 27.3516ZM571.805 10.3008C570.492 10.3008 569.391 10.7812 568.5 11.7422C567.609 12.6914 567.059 14.0273 566.848 15.75H576.375V15.5039C576.281 13.8516 575.836 12.5742 575.039 11.6719C574.242 10.7578 573.164 10.3008 571.805 10.3008ZM85.9629 70C85.7754 69.625 85.623 68.957 85.5059 67.9961C83.9941 69.5664 82.1895 70.3516 80.0918 70.3516C78.2168 70.3516 76.6758 69.8242 75.4688 68.7695C74.2734 67.7031 73.6758 66.3555 73.6758 64.7266C73.6758 62.7461 74.4258 61.2109 75.9258 60.1211C77.4375 59.0195 79.5586 58.4688 82.2891 58.4688H85.4531V56.9746C85.4531 55.8379 85.1133 54.9355 84.4336 54.2676C83.7539 53.5879 82.752 53.248 81.4277 53.248C80.2676 53.248 79.2949 53.541 78.5098 54.127C77.7246 54.7129 77.332 55.4219 77.332 56.2539H74.0625C74.0625 55.3047 74.3965 54.3906 75.0645 53.5117C75.7441 52.6211 76.6582 51.918 77.8066 51.4023C78.9668 50.8867 80.2383 50.6289 81.6211 50.6289C83.8125 50.6289 85.5293 51.1797 86.7715 52.2812C88.0137 53.3711 88.6582 54.877 88.7051 56.7988V65.5527C88.7051 67.2988 88.9277 68.6875 89.373 69.7188V70H85.9629ZM80.5664 67.5215C81.5859 67.5215 82.5527 67.2578 83.4668 66.7305C84.3809 66.2031 85.043 65.5176 85.4531 64.6738V60.7715H82.9043C78.9199 60.7715 76.9277 61.9375 76.9277 64.2695C76.9277 65.2891 77.2676 66.0859 77.9473 66.6602C78.627 67.2344 79.5 67.5215 80.5664 67.5215ZM96.8789 50.9805L96.9844 53.3711C98.4375 51.543 100.336 50.6289 102.68 50.6289C106.699 50.6289 108.727 52.8965 108.762 57.4316V70H105.51V57.4141C105.498 56.043 105.182 55.0293 104.561 54.373C103.951 53.7168 102.996 53.3887 101.695 53.3887C100.641 53.3887 99.7148 53.6699 98.918 54.2324C98.1211 54.7949 97.5 55.5332 97.0547 56.4473V70H93.8027V50.9805H96.8789ZM112.875 60.332C112.875 57.4141 113.566 55.0703 114.949 53.3008C116.332 51.5195 118.143 50.6289 120.381 50.6289C122.607 50.6289 124.371 51.3906 125.672 52.9141V43H128.924V70H125.936L125.777 67.9609C124.477 69.5547 122.666 70.3516 120.346 70.3516C118.143 70.3516 116.344 69.4492 114.949 67.6445C113.566 65.8398 112.875 63.4844 112.875 60.5781V60.332ZM116.127 60.7012C116.127 62.8574 116.572 64.5449 117.463 65.7637C118.354 66.9824 119.584 67.5918 121.154 67.5918C123.217 67.5918 124.723 66.666 125.672 64.8145V56.0781C124.699 54.2852 123.205 53.3887 121.189 53.3887C119.596 53.3887 118.354 54.0039 117.463 55.2344C116.572 56.4648 116.127 58.2871 116.127 60.7012ZM152.109 53.8984C151.617 53.8164 151.084 53.7754 150.51 53.7754C148.377 53.7754 146.93 54.6836 146.168 56.5V70H142.916V50.9805H146.08L146.133 53.1777C147.199 51.4785 148.711 50.6289 150.668 50.6289C151.301 50.6289 151.781 50.7109 152.109 50.875V53.8984ZM162.656 70.3516C160.078 70.3516 157.98 69.5078 156.363 67.8203C154.746 66.1211 153.938 63.8535 153.938 61.0176V60.4199C153.938 58.5332 154.295 56.8516 155.01 55.375C155.736 53.8867 156.744 52.7266 158.033 51.8945C159.334 51.0508 160.74 50.6289 162.252 50.6289C164.725 50.6289 166.646 51.4434 168.018 53.0723C169.389 54.7012 170.074 57.0332 170.074 60.0684V61.4219H157.189C157.236 63.2969 157.781 64.8145 158.824 65.9746C159.879 67.123 161.215 67.6973 162.832 67.6973C163.98 67.6973 164.953 67.4629 165.75 66.9941C166.547 66.5254 167.244 65.9043 167.842 65.1309L169.828 66.6777C168.234 69.127 165.844 70.3516 162.656 70.3516ZM162.252 53.3008C160.939 53.3008 159.838 53.7812 158.947 54.7422C158.057 55.6914 157.506 57.0273 157.295 58.75H166.822V58.5039C166.729 56.8516 166.283 55.5742 165.486 54.6719C164.689 53.7578 163.611 53.3008 162.252 53.3008ZM178.266 46.375V50.9805H181.816V53.4941H178.266V65.2891C178.266 66.0508 178.424 66.625 178.74 67.0117C179.057 67.3867 179.596 67.5742 180.357 67.5742C180.732 67.5742 181.248 67.5039 181.904 67.3633V70C181.049 70.2344 180.217 70.3516 179.408 70.3516C177.955 70.3516 176.859 69.9121 176.121 69.0332C175.383 68.1543 175.014 66.9062 175.014 65.2891V53.4941H171.551V50.9805H175.014V46.375H178.266ZM197.373 68.1191C196.107 69.6074 194.25 70.3516 191.801 70.3516C189.773 70.3516 188.227 69.7656 187.16 68.5938C186.105 67.4102 185.572 65.6641 185.561 63.3555V50.9805H188.812V63.2676C188.812 66.1504 189.984 67.5918 192.328 67.5918C194.812 67.5918 196.465 66.666 197.285 64.8145V50.9805H200.537V70H197.443L197.373 68.1191ZM214.688 53.8984C214.195 53.8164 213.662 53.7754 213.088 53.7754C210.955 53.7754 209.508 54.6836 208.746 56.5V70H205.494V50.9805H208.658L208.711 53.1777C209.777 51.4785 211.289 50.6289 213.246 50.6289C213.879 50.6289 214.359 50.7109 214.688 50.875V53.8984ZM220.77 50.9805L220.875 53.3711C222.328 51.543 224.227 50.6289 226.57 50.6289C230.59 50.6289 232.617 52.8965 232.652 57.4316V70H229.4V57.4141C229.389 56.043 229.072 55.0293 228.451 54.373C227.842 53.7168 226.887 53.3887 225.586 53.3887C224.531 53.3887 223.605 53.6699 222.809 54.2324C222.012 54.7949 221.391 55.5332 220.945 56.4473V70H217.693V50.9805H220.77ZM250.898 46.375V50.9805H254.449V53.4941H250.898V65.2891C250.898 66.0508 251.057 66.625 251.373 67.0117C251.689 67.3867 252.229 67.5742 252.99 67.5742C253.365 67.5742 253.881 67.5039 254.537 67.3633V70C253.682 70.2344 252.85 70.3516 252.041 70.3516C250.588 70.3516 249.492 69.9121 248.754 69.0332C248.016 68.1543 247.646 66.9062 247.646 65.2891V53.4941H244.184V50.9805H247.646V46.375H250.898ZM257.051 60.3145C257.051 58.4512 257.414 56.7754 258.141 55.2871C258.879 53.7988 259.898 52.6504 261.199 51.8418C262.512 51.0332 264.006 50.6289 265.682 50.6289C268.271 50.6289 270.363 51.5254 271.957 53.3184C273.562 55.1113 274.365 57.4961 274.365 60.4727V60.7012C274.365 62.5527 274.008 64.2168 273.293 65.6934C272.59 67.1582 271.576 68.3008 270.252 69.1211C268.939 69.9414 267.428 70.3516 265.717 70.3516C263.139 70.3516 261.047 69.4551 259.441 67.6621C257.848 65.8691 257.051 63.4961 257.051 60.543V60.3145ZM260.32 60.7012C260.32 62.8105 260.807 64.5039 261.779 65.7812C262.764 67.0586 264.076 67.6973 265.717 67.6973C267.369 67.6973 268.682 67.0527 269.654 65.7637C270.627 64.4629 271.113 62.6465 271.113 60.3145C271.113 58.2285 270.615 56.541 269.619 55.252C268.635 53.9512 267.322 53.3008 265.682 53.3008C264.076 53.3008 262.781 53.9395 261.797 55.2168C260.812 56.4941 260.32 58.3223 260.32 60.7012ZM291.785 46.375V50.9805H295.336V53.4941H291.785V65.2891C291.785 66.0508 291.943 66.625 292.26 67.0117C292.576 67.3867 293.115 67.5742 293.877 67.5742C294.252 67.5742 294.768 67.5039 295.424 67.3633V70C294.568 70.2344 293.736 70.3516 292.928 70.3516C291.475 70.3516 290.379 69.9121 289.641 69.0332C288.902 68.1543 288.533 66.9062 288.533 65.2891V53.4941H285.07V50.9805H288.533V46.375H291.785ZM305.373 65.2363L309.803 50.9805H313.283L305.637 72.9355C304.453 76.0996 302.572 77.6816 299.994 77.6816L299.379 77.6289L298.166 77.4004V74.7637L299.045 74.834C300.146 74.834 301.002 74.6113 301.611 74.166C302.232 73.7207 302.742 72.9062 303.141 71.7227L303.861 69.7891L297.076 50.9805H300.627L305.373 65.2363ZM332.268 60.7012C332.268 63.5957 331.605 65.9277 330.281 67.6973C328.957 69.4668 327.164 70.3516 324.902 70.3516C322.594 70.3516 320.777 69.6191 319.453 68.1543V77.3125H316.201V50.9805H319.172L319.33 53.0898C320.654 51.4492 322.494 50.6289 324.85 50.6289C327.135 50.6289 328.939 51.4902 330.264 53.2129C331.6 54.9355 332.268 57.332 332.268 60.4023V60.7012ZM329.016 60.332C329.016 58.1875 328.559 56.4941 327.645 55.252C326.73 54.0098 325.477 53.3887 323.883 53.3887C321.914 53.3887 320.438 54.2617 319.453 56.0078V65.0957C320.426 66.8301 321.914 67.6973 323.918 67.6973C325.477 67.6973 326.713 67.082 327.627 65.8516C328.553 64.6094 329.016 62.7695 329.016 60.332ZM344.309 70.3516C341.73 70.3516 339.633 69.5078 338.016 67.8203C336.398 66.1211 335.59 63.8535 335.59 61.0176V60.4199C335.59 58.5332 335.947 56.8516 336.662 55.375C337.389 53.8867 338.396 52.7266 339.686 51.8945C340.986 51.0508 342.393 50.6289 343.904 50.6289C346.377 50.6289 348.299 51.4434 349.67 53.0723C351.041 54.7012 351.727 57.0332 351.727 60.0684V61.4219H338.842C338.889 63.2969 339.434 64.8145 340.477 65.9746C341.531 67.123 342.867 67.6973 344.484 67.6973C345.633 67.6973 346.605 67.4629 347.402 66.9941C348.199 66.5254 348.896 65.9043 349.494 65.1309L351.48 66.6777C349.887 69.127 347.496 70.3516 344.309 70.3516ZM343.904 53.3008C342.592 53.3008 341.49 53.7812 340.6 54.7422C339.709 55.6914 339.158 57.0273 338.947 58.75H348.475V58.5039C348.381 56.8516 347.936 55.5742 347.139 54.6719C346.342 53.7578 345.264 53.3008 343.904 53.3008ZM375.51 64.9551C375.51 64.0762 375.176 63.3965 374.508 62.916C373.852 62.4238 372.697 62.002 371.045 61.6504C369.404 61.2988 368.098 60.877 367.125 60.3848C366.164 59.8926 365.449 59.3066 364.98 58.627C364.523 57.9473 364.295 57.1387 364.295 56.2012C364.295 54.6426 364.951 53.3242 366.264 52.2461C367.588 51.168 369.275 50.6289 371.326 50.6289C373.482 50.6289 375.229 51.1855 376.564 52.2988C377.912 53.4121 378.586 54.8359 378.586 56.5703H375.316C375.316 55.6797 374.936 54.9121 374.174 54.2676C373.424 53.623 372.475 53.3008 371.326 53.3008C370.143 53.3008 369.217 53.5586 368.549 54.0742C367.881 54.5898 367.547 55.2637 367.547 56.0957C367.547 56.8809 367.857 57.4727 368.479 57.8711C369.1 58.2695 370.219 58.6504 371.836 59.0137C373.465 59.377 374.783 59.8105 375.791 60.3145C376.799 60.8184 377.543 61.4277 378.023 62.1426C378.516 62.8457 378.762 63.707 378.762 64.7266C378.762 66.4258 378.082 67.791 376.723 68.8223C375.363 69.8418 373.6 70.3516 371.432 70.3516C369.908 70.3516 368.561 70.082 367.389 69.543C366.217 69.0039 365.297 68.2539 364.629 67.293C363.973 66.3203 363.645 65.2715 363.645 64.1465H366.896C366.955 65.2363 367.389 66.1035 368.197 66.748C369.018 67.3809 370.096 67.6973 371.432 67.6973C372.662 67.6973 373.646 67.4512 374.385 66.959C375.135 66.4551 375.51 65.7871 375.51 64.9551ZM390.891 70.3516C388.312 70.3516 386.215 69.5078 384.598 67.8203C382.98 66.1211 382.172 63.8535 382.172 61.0176V60.4199C382.172 58.5332 382.529 56.8516 383.244 55.375C383.971 53.8867 384.979 52.7266 386.268 51.8945C387.568 51.0508 388.975 50.6289 390.486 50.6289C392.959 50.6289 394.881 51.4434 396.252 53.0723C397.623 54.7012 398.309 57.0332 398.309 60.0684V61.4219H385.424C385.471 63.2969 386.016 64.8145 387.059 65.9746C388.113 67.123 389.449 67.6973 391.066 67.6973C392.215 67.6973 393.188 67.4629 393.984 66.9941C394.781 66.5254 395.479 65.9043 396.076 65.1309L398.062 66.6777C396.469 69.127 394.078 70.3516 390.891 70.3516ZM390.486 53.3008C389.174 53.3008 388.072 53.7812 387.182 54.7422C386.291 55.6914 385.74 57.0273 385.529 58.75H395.057V58.5039C394.963 56.8516 394.518 55.5742 393.721 54.6719C392.924 53.7578 391.846 53.3008 390.486 53.3008ZM405.621 70H402.369V43H405.621V70ZM418.734 70.3516C416.156 70.3516 414.059 69.5078 412.441 67.8203C410.824 66.1211 410.016 63.8535 410.016 61.0176V60.4199C410.016 58.5332 410.373 56.8516 411.088 55.375C411.814 53.8867 412.822 52.7266 414.111 51.8945C415.412 51.0508 416.818 50.6289 418.33 50.6289C420.803 50.6289 422.725 51.4434 424.096 53.0723C425.467 54.7012 426.152 57.0332 426.152 60.0684V61.4219H413.268C413.314 63.2969 413.859 64.8145 414.902 65.9746C415.957 67.123 417.293 67.6973 418.91 67.6973C420.059 67.6973 421.031 67.4629 421.828 66.9941C422.625 66.5254 423.322 65.9043 423.92 65.1309L425.906 66.6777C424.312 69.127 421.922 70.3516 418.734 70.3516ZM418.33 53.3008C417.018 53.3008 415.916 53.7812 415.025 54.7422C414.135 55.6914 413.584 57.0273 413.373 58.75H422.9V58.5039C422.807 56.8516 422.361 55.5742 421.564 54.6719C420.768 53.7578 419.689 53.3008 418.33 53.3008ZM437.561 67.6973C438.721 67.6973 439.734 67.3457 440.602 66.6426C441.469 65.9395 441.949 65.0605 442.043 64.0059H445.119C445.061 65.0957 444.686 66.1328 443.994 67.1172C443.303 68.1016 442.377 68.8867 441.217 69.4727C440.068 70.0586 438.85 70.3516 437.561 70.3516C434.971 70.3516 432.908 69.4902 431.373 67.7676C429.85 66.0332 429.088 63.666 429.088 60.666V60.1211C429.088 58.2695 429.428 56.623 430.107 55.1816C430.787 53.7402 431.76 52.6211 433.025 51.8242C434.303 51.0273 435.809 50.6289 437.543 50.6289C439.676 50.6289 441.445 51.2676 442.852 52.5449C444.27 53.8223 445.025 55.4805 445.119 57.5195H442.043C441.949 56.2891 441.48 55.2812 440.637 54.4961C439.805 53.6992 438.773 53.3008 437.543 53.3008C435.891 53.3008 434.607 53.8984 433.693 55.0938C432.791 56.2773 432.34 57.9941 432.34 60.2441V60.8594C432.34 63.0508 432.791 64.7383 433.693 65.9219C434.596 67.1055 435.885 67.6973 437.561 67.6973ZM453.188 46.375V50.9805H456.738V53.4941H453.188V65.2891C453.188 66.0508 453.346 66.625 453.662 67.0117C453.979 67.3867 454.518 67.5742 455.279 67.5742C455.654 67.5742 456.17 67.5039 456.826 67.3633V70C455.971 70.2344 455.139 70.3516 454.33 70.3516C452.877 70.3516 451.781 69.9121 451.043 69.0332C450.305 68.1543 449.936 66.9062 449.936 65.2891V53.4941H446.473V50.9805H449.936V46.375H453.188ZM464.086 70H460.834V50.9805H464.086V70ZM460.57 45.9355C460.57 45.4082 460.729 44.9629 461.045 44.5996C461.373 44.2363 461.854 44.0547 462.486 44.0547C463.119 44.0547 463.6 44.2363 463.928 44.5996C464.256 44.9629 464.42 45.4082 464.42 45.9355C464.42 46.4629 464.256 46.9023 463.928 47.2539C463.6 47.6055 463.119 47.7812 462.486 47.7812C461.854 47.7812 461.373 47.6055 461.045 47.2539C460.729 46.9023 460.57 46.4629 460.57 45.9355ZM468.445 60.3145C468.445 58.4512 468.809 56.7754 469.535 55.2871C470.273 53.7988 471.293 52.6504 472.594 51.8418C473.906 51.0332 475.4 50.6289 477.076 50.6289C479.666 50.6289 481.758 51.5254 483.352 53.3184C484.957 55.1113 485.76 57.4961 485.76 60.4727V60.7012C485.76 62.5527 485.402 64.2168 484.688 65.6934C483.984 67.1582 482.971 68.3008 481.646 69.1211C480.334 69.9414 478.822 70.3516 477.111 70.3516C474.533 70.3516 472.441 69.4551 470.836 67.6621C469.242 65.8691 468.445 63.4961 468.445 60.543V60.3145ZM471.715 60.7012C471.715 62.8105 472.201 64.5039 473.174 65.7812C474.158 67.0586 475.471 67.6973 477.111 67.6973C478.764 67.6973 480.076 67.0527 481.049 65.7637C482.021 64.4629 482.508 62.6465 482.508 60.3145C482.508 58.2285 482.01 56.541 481.014 55.252C480.029 53.9512 478.717 53.3008 477.076 53.3008C475.471 53.3008 474.176 53.9395 473.191 55.2168C472.207 56.4941 471.715 58.3223 471.715 60.7012ZM492.914 50.9805L493.02 53.3711C494.473 51.543 496.371 50.6289 498.715 50.6289C502.734 50.6289 504.762 52.8965 504.797 57.4316V70H501.545V57.4141C501.533 56.043 501.217 55.0293 500.596 54.373C499.986 53.7168 499.031 53.3887 497.73 53.3887C496.676 53.3887 495.75 53.6699 494.953 54.2324C494.156 54.7949 493.535 55.5332 493.09 56.4473V70H489.838V50.9805H492.914Z" fill="black"/>
</svg>
