<svg width="583" height="71" viewBox="0 0 583 71" fill="none" xmlns="http://www.w3.org/2000/svg">
<path opacity="0.2" d="M20.0605 18.8789C19.7441 21.5859 18.7422 23.6777 17.0547 25.1543C15.3789 26.6191 13.1465 27.3516 10.3574 27.3516C7.33398 27.3516 4.9082 26.2676 3.08008 24.0996C1.26367 21.9316 0.355469 19.0312 0.355469 15.3984V12.9375C0.355469 10.5586 0.777344 8.4668 1.62109 6.66211C2.47656 4.85742 3.68359 3.47461 5.24219 2.51367C6.80078 1.54102 8.60547 1.05469 10.6562 1.05469C13.375 1.05469 15.5547 1.81641 17.1953 3.33984C18.8359 4.85156 19.791 6.94922 20.0605 9.63281H16.668C16.375 7.59375 15.7363 6.11719 14.752 5.20312C13.7793 4.28906 12.4141 3.83203 10.6562 3.83203C8.5 3.83203 6.80664 4.62891 5.57617 6.22266C4.35742 7.81641 3.74805 10.084 3.74805 13.0254V15.5039C3.74805 18.2812 4.32812 20.4902 5.48828 22.1309C6.64844 23.7715 8.27148 24.5918 10.3574 24.5918C12.2324 24.5918 13.668 24.1699 14.6641 23.3262C15.6719 22.4707 16.3398 20.9883 16.668 18.8789H20.0605ZM27.707 27H24.4551V0H27.707V27ZM36.4609 27H33.209V7.98047H36.4609V27ZM32.9453 2.93555C32.9453 2.4082 33.1035 1.96289 33.4199 1.59961C33.748 1.23633 34.2285 1.05469 34.8613 1.05469C35.4941 1.05469 35.9746 1.23633 36.3027 1.59961C36.6309 1.96289 36.7949 2.4082 36.7949 2.93555C36.7949 3.46289 36.6309 3.90234 36.3027 4.25391C35.9746 4.60547 35.4941 4.78125 34.8613 4.78125C34.2285 4.78125 33.748 4.60547 33.4199 4.25391C33.1035 3.90234 32.9453 3.46289 32.9453 2.93555ZM49.3105 24.6973C50.4707 24.6973 51.4844 24.3457 52.3516 23.6426C53.2188 22.9395 53.6992 22.0605 53.793 21.0059H56.8691C56.8105 22.0957 56.4355 23.1328 55.7441 24.1172C55.0527 25.1016 54.127 25.8867 52.9668 26.4727C51.8184 27.0586 50.5996 27.3516 49.3105 27.3516C46.7207 27.3516 44.6582 26.4902 43.123 24.7676C41.5996 23.0332 40.8379 20.666 40.8379 17.666V17.1211C40.8379 15.2695 41.1777 13.623 41.8574 12.1816C42.5371 10.7402 43.5098 9.62109 44.7754 8.82422C46.0527 8.02734 47.5586 7.62891 49.293 7.62891C51.4258 7.62891 53.1953 8.26758 54.6016 9.54492C56.0195 10.8223 56.7754 12.4805 56.8691 14.5195H53.793C53.6992 13.2891 53.2305 12.2812 52.3867 11.4961C51.5547 10.6992 50.5234 10.3008 49.293 10.3008C47.6406 10.3008 46.3574 10.8984 45.4434 12.0938C44.541 13.2773 44.0898 14.9941 44.0898 17.2441V17.8594C44.0898 20.0508 44.541 21.7383 45.4434 22.9219C46.3457 24.1055 47.6348 24.6973 49.3105 24.6973ZM65.834 18.1934L63.7949 20.3203V27H60.543V0H63.7949V16.3301L65.5352 14.2383L71.459 7.98047H75.4141L68.0137 15.9258L76.2754 27H72.4609L65.834 18.1934ZM92.1133 3.375V7.98047H95.6641V10.4941H92.1133V22.2891C92.1133 23.0508 92.2715 23.625 92.5879 24.0117C92.9043 24.3867 93.4434 24.5742 94.2051 24.5742C94.5801 24.5742 95.0957 24.5039 95.752 24.3633V27C94.8965 27.2344 94.0645 27.3516 93.2559 27.3516C91.8027 27.3516 90.707 26.9121 89.9688 26.0332C89.2305 25.1543 88.8613 23.9062 88.8613 22.2891V10.4941H85.3984V7.98047H88.8613V3.375H92.1133ZM102.73 10.2832C104.172 8.51367 106.047 7.62891 108.355 7.62891C112.375 7.62891 114.402 9.89648 114.438 14.4316V27H111.186V14.4141C111.174 13.043 110.857 12.0293 110.236 11.373C109.627 10.7168 108.672 10.3887 107.371 10.3887C106.316 10.3887 105.391 10.6699 104.594 11.2324C103.797 11.7949 103.176 12.5332 102.73 13.4473V27H99.4785V0H102.73V10.2832ZM127.199 27.3516C124.621 27.3516 122.523 26.5078 120.906 24.8203C119.289 23.1211 118.48 20.8535 118.48 18.0176V17.4199C118.48 15.5332 118.838 13.8516 119.553 12.375C120.279 10.8867 121.287 9.72656 122.576 8.89453C123.877 8.05078 125.283 7.62891 126.795 7.62891C129.268 7.62891 131.189 8.44336 132.561 10.0723C133.932 11.7012 134.617 14.0332 134.617 17.0684V18.4219H121.732C121.779 20.2969 122.324 21.8145 123.367 22.9746C124.422 24.123 125.758 24.6973 127.375 24.6973C128.523 24.6973 129.496 24.4629 130.293 23.9941C131.09 23.5254 131.787 22.9043 132.385 22.1309L134.371 23.6777C132.777 26.127 130.387 27.3516 127.199 27.3516ZM126.795 10.3008C125.482 10.3008 124.381 10.7812 123.49 11.7422C122.6 12.6914 122.049 14.0273 121.838 15.75H131.365V15.5039C131.271 13.8516 130.826 12.5742 130.029 11.6719C129.232 10.7578 128.154 10.3008 126.795 10.3008ZM155.377 15.5918C152.482 14.7598 150.373 13.7402 149.049 12.5332C147.736 11.3145 147.08 9.81445 147.08 8.0332C147.08 6.01758 147.883 4.35352 149.488 3.04102C151.105 1.7168 153.203 1.05469 155.781 1.05469C157.539 1.05469 159.104 1.39453 160.475 2.07422C161.857 2.75391 162.924 3.69141 163.674 4.88672C164.436 6.08203 164.816 7.38867 164.816 8.80664H161.424C161.424 7.25977 160.932 6.04688 159.947 5.16797C158.963 4.27734 157.574 3.83203 155.781 3.83203C154.117 3.83203 152.816 4.20117 151.879 4.93945C150.953 5.66602 150.49 6.67969 150.49 7.98047C150.49 9.02344 150.93 9.9082 151.809 10.6348C152.699 11.3496 154.205 12.0059 156.326 12.6035C158.459 13.2012 160.123 13.8633 161.318 14.5898C162.525 15.3047 163.416 16.1426 163.99 17.1035C164.576 18.0645 164.869 19.1953 164.869 20.4961C164.869 22.5703 164.061 24.2344 162.443 25.4883C160.826 26.7305 158.664 27.3516 155.957 27.3516C154.199 27.3516 152.559 27.0176 151.035 26.3496C149.512 25.6699 148.334 24.7441 147.502 23.5723C146.682 22.4004 146.271 21.0703 146.271 19.582H149.664C149.664 21.1289 150.232 22.3535 151.369 23.2559C152.518 24.1465 154.047 24.5918 155.957 24.5918C157.738 24.5918 159.104 24.2285 160.053 23.502C161.002 22.7754 161.477 21.7852 161.477 20.5312C161.477 19.2773 161.037 18.3105 160.158 17.6309C159.279 16.9395 157.686 16.2598 155.377 15.5918ZM180.443 27C180.256 26.625 180.104 25.957 179.986 24.9961C178.475 26.5664 176.67 27.3516 174.572 27.3516C172.697 27.3516 171.156 26.8242 169.949 25.7695C168.754 24.7031 168.156 23.3555 168.156 21.7266C168.156 19.7461 168.906 18.2109 170.406 17.1211C171.918 16.0195 174.039 15.4688 176.77 15.4688H179.934V13.9746C179.934 12.8379 179.594 11.9355 178.914 11.2676C178.234 10.5879 177.232 10.248 175.908 10.248C174.748 10.248 173.775 10.541 172.99 11.127C172.205 11.7129 171.812 12.4219 171.812 13.2539H168.543C168.543 12.3047 168.877 11.3906 169.545 10.5117C170.225 9.62109 171.139 8.91797 172.287 8.40234C173.447 7.88672 174.719 7.62891 176.102 7.62891C178.293 7.62891 180.01 8.17969 181.252 9.28125C182.494 10.3711 183.139 11.877 183.186 13.7988V22.5527C183.186 24.2988 183.408 25.6875 183.854 26.7188V27H180.443ZM175.047 24.5215C176.066 24.5215 177.033 24.2578 177.947 23.7305C178.861 23.2031 179.523 22.5176 179.934 21.6738V17.7715H177.385C173.4 17.7715 171.408 18.9375 171.408 21.2695C171.408 22.2891 171.748 23.0859 172.428 23.6602C173.107 24.2344 173.98 24.5215 175.047 24.5215ZM194.277 22.5879L198.988 7.98047H202.311L195.49 27H193.012L186.121 7.98047H189.443L194.277 22.5879ZM213.086 27.3516C210.508 27.3516 208.41 26.5078 206.793 24.8203C205.176 23.1211 204.367 20.8535 204.367 18.0176V17.4199C204.367 15.5332 204.725 13.8516 205.439 12.375C206.166 10.8867 207.174 9.72656 208.463 8.89453C209.764 8.05078 211.17 7.62891 212.682 7.62891C215.154 7.62891 217.076 8.44336 218.447 10.0723C219.818 11.7012 220.504 14.0332 220.504 17.0684V18.4219H207.619C207.666 20.2969 208.211 21.8145 209.254 22.9746C210.309 24.123 211.645 24.6973 213.262 24.6973C214.41 24.6973 215.383 24.4629 216.18 23.9941C216.977 23.5254 217.674 22.9043 218.271 22.1309L220.258 23.6777C218.664 26.127 216.273 27.3516 213.086 27.3516ZM212.682 10.3008C211.369 10.3008 210.268 10.7812 209.377 11.7422C208.486 12.6914 207.936 14.0273 207.725 15.75H217.252V15.5039C217.158 13.8516 216.713 12.5742 215.916 11.6719C215.119 10.7578 214.041 10.3008 212.682 10.3008ZM249.314 17.7012C249.314 20.6074 248.646 22.9453 247.311 24.7148C245.975 26.4727 244.182 27.3516 241.932 27.3516C239.529 27.3516 237.672 26.502 236.359 24.8027L236.201 27H233.213V0H236.465V10.0723C237.777 8.44336 239.588 7.62891 241.896 7.62891C244.205 7.62891 246.016 8.50195 247.328 10.248C248.652 11.9941 249.314 14.3848 249.314 17.4199V17.7012ZM246.062 17.332C246.062 15.1172 245.635 13.4062 244.779 12.1992C243.924 10.9922 242.693 10.3887 241.088 10.3887C238.943 10.3887 237.402 11.3848 236.465 13.377V21.6035C237.461 23.5957 239.014 24.5918 241.123 24.5918C242.682 24.5918 243.895 23.9883 244.762 22.7812C245.629 21.5742 246.062 19.7578 246.062 17.332ZM265.17 25.1191C263.904 26.6074 262.047 27.3516 259.598 27.3516C257.57 27.3516 256.023 26.7656 254.957 25.5938C253.902 24.4102 253.369 22.6641 253.357 20.3555V7.98047H256.609V20.2676C256.609 23.1504 257.781 24.5918 260.125 24.5918C262.609 24.5918 264.262 23.666 265.082 21.8145V7.98047H268.334V27H265.24L265.17 25.1191ZM277.703 3.375V7.98047H281.254V10.4941H277.703V22.2891C277.703 23.0508 277.861 23.625 278.178 24.0117C278.494 24.3867 279.033 24.5742 279.795 24.5742C280.17 24.5742 280.686 24.5039 281.342 24.3633V27C280.486 27.2344 279.654 27.3516 278.846 27.3516C277.393 27.3516 276.297 26.9121 275.559 26.0332C274.82 25.1543 274.451 23.9062 274.451 22.2891V10.4941H270.988V7.98047H274.451V3.375H277.703ZM289.48 3.375V7.98047H293.031V10.4941H289.48V22.2891C289.48 23.0508 289.639 23.625 289.955 24.0117C290.271 24.3867 290.811 24.5742 291.572 24.5742C291.947 24.5742 292.463 24.5039 293.119 24.3633V27C292.264 27.2344 291.432 27.3516 290.623 27.3516C289.17 27.3516 288.074 26.9121 287.336 26.0332C286.598 25.1543 286.229 23.9062 286.229 22.2891V10.4941H282.766V7.98047H286.229V3.375H289.48ZM295.633 17.3145C295.633 15.4512 295.996 13.7754 296.723 12.2871C297.461 10.7988 298.48 9.65039 299.781 8.8418C301.094 8.0332 302.588 7.62891 304.264 7.62891C306.854 7.62891 308.945 8.52539 310.539 10.3184C312.145 12.1113 312.947 14.4961 312.947 17.4727V17.7012C312.947 19.5527 312.59 21.2168 311.875 22.6934C311.172 24.1582 310.158 25.3008 308.834 26.1211C307.521 26.9414 306.01 27.3516 304.299 27.3516C301.721 27.3516 299.629 26.4551 298.023 24.6621C296.43 22.8691 295.633 20.4961 295.633 17.543V17.3145ZM298.902 17.7012C298.902 19.8105 299.389 21.5039 300.361 22.7812C301.346 24.0586 302.658 24.6973 304.299 24.6973C305.951 24.6973 307.264 24.0527 308.236 22.7637C309.209 21.4629 309.695 19.6465 309.695 17.3145C309.695 15.2285 309.197 13.541 308.201 12.252C307.217 10.9512 305.904 10.3008 304.264 10.3008C302.658 10.3008 301.363 10.9395 300.379 12.2168C299.395 13.4941 298.902 15.3223 298.902 17.7012ZM320.102 7.98047L320.207 10.3711C321.66 8.54297 323.559 7.62891 325.902 7.62891C329.922 7.62891 331.949 9.89648 331.984 14.4316V27H328.732V14.4141C328.721 13.043 328.404 12.0293 327.783 11.373C327.174 10.7168 326.219 10.3887 324.918 10.3887C323.863 10.3887 322.938 10.6699 322.141 11.2324C321.344 11.7949 320.723 12.5332 320.277 13.4473V27H317.025V7.98047H320.102ZM350.23 3.375V7.98047H353.781V10.4941H350.23V22.2891C350.23 23.0508 350.389 23.625 350.705 24.0117C351.021 24.3867 351.561 24.5742 352.322 24.5742C352.697 24.5742 353.213 24.5039 353.869 24.3633V27C353.014 27.2344 352.182 27.3516 351.373 27.3516C349.92 27.3516 348.824 26.9121 348.086 26.0332C347.348 25.1543 346.979 23.9062 346.979 22.2891V10.4941H343.516V7.98047H346.979V3.375H350.23ZM356.383 17.3145C356.383 15.4512 356.746 13.7754 357.473 12.2871C358.211 10.7988 359.23 9.65039 360.531 8.8418C361.844 8.0332 363.338 7.62891 365.014 7.62891C367.604 7.62891 369.695 8.52539 371.289 10.3184C372.895 12.1113 373.697 14.4961 373.697 17.4727V17.7012C373.697 19.5527 373.34 21.2168 372.625 22.6934C371.922 24.1582 370.908 25.3008 369.584 26.1211C368.271 26.9414 366.76 27.3516 365.049 27.3516C362.471 27.3516 360.379 26.4551 358.773 24.6621C357.18 22.8691 356.383 20.4961 356.383 17.543V17.3145ZM359.652 17.7012C359.652 19.8105 360.139 21.5039 361.111 22.7812C362.096 24.0586 363.408 24.6973 365.049 24.6973C366.701 24.6973 368.014 24.0527 368.986 22.7637C369.959 21.4629 370.445 19.6465 370.445 17.3145C370.445 15.2285 369.947 13.541 368.951 12.252C367.967 10.9512 366.654 10.3008 365.014 10.3008C363.408 10.3008 362.113 10.9395 361.129 12.2168C360.145 13.4941 359.652 15.3223 359.652 17.7012ZM398.447 27C398.26 26.625 398.107 25.957 397.99 24.9961C396.479 26.5664 394.674 27.3516 392.576 27.3516C390.701 27.3516 389.16 26.8242 387.953 25.7695C386.758 24.7031 386.16 23.3555 386.16 21.7266C386.16 19.7461 386.91 18.2109 388.41 17.1211C389.922 16.0195 392.043 15.4688 394.773 15.4688H397.938V13.9746C397.938 12.8379 397.598 11.9355 396.918 11.2676C396.238 10.5879 395.236 10.248 393.912 10.248C392.752 10.248 391.779 10.541 390.994 11.127C390.209 11.7129 389.816 12.4219 389.816 13.2539H386.547C386.547 12.3047 386.881 11.3906 387.549 10.5117C388.229 9.62109 389.143 8.91797 390.291 8.40234C391.451 7.88672 392.723 7.62891 394.105 7.62891C396.297 7.62891 398.014 8.17969 399.256 9.28125C400.498 10.3711 401.143 11.877 401.189 13.7988V22.5527C401.189 24.2988 401.412 25.6875 401.857 26.7188V27H398.447ZM393.051 24.5215C394.07 24.5215 395.037 24.2578 395.951 23.7305C396.865 23.2031 397.527 22.5176 397.938 21.6738V17.7715H395.389C391.404 17.7715 389.412 18.9375 389.412 21.2695C389.412 22.2891 389.752 23.0859 390.432 23.6602C391.111 24.2344 391.984 24.5215 393.051 24.5215ZM405.496 17.332C405.496 14.4141 406.188 12.0703 407.57 10.3008C408.953 8.51953 410.764 7.62891 413.002 7.62891C415.229 7.62891 416.992 8.39062 418.293 9.91406V0H421.545V27H418.557L418.398 24.9609C417.098 26.5547 415.287 27.3516 412.967 27.3516C410.764 27.3516 408.965 26.4492 407.57 24.6445C406.188 22.8398 405.496 20.4844 405.496 17.5781V17.332ZM408.748 17.7012C408.748 19.8574 409.193 21.5449 410.084 22.7637C410.975 23.9824 412.205 24.5918 413.775 24.5918C415.838 24.5918 417.344 23.666 418.293 21.8145V13.0781C417.32 11.2852 415.826 10.3887 413.811 10.3887C412.217 10.3887 410.975 11.0039 410.084 12.2344C409.193 13.4648 408.748 15.2871 408.748 17.7012ZM425.816 17.332C425.816 14.4141 426.508 12.0703 427.891 10.3008C429.273 8.51953 431.084 7.62891 433.322 7.62891C435.549 7.62891 437.312 8.39062 438.613 9.91406V0H441.865V27H438.877L438.719 24.9609C437.418 26.5547 435.607 27.3516 433.287 27.3516C431.084 27.3516 429.285 26.4492 427.891 24.6445C426.508 22.8398 425.816 20.4844 425.816 17.5781V17.332ZM429.068 17.7012C429.068 19.8574 429.514 21.5449 430.404 22.7637C431.295 23.9824 432.525 24.5918 434.096 24.5918C436.158 24.5918 437.664 23.666 438.613 21.8145V13.0781C437.641 11.2852 436.146 10.3887 434.131 10.3887C432.537 10.3887 431.295 11.0039 430.404 12.2344C429.514 13.4648 429.068 15.2871 429.068 17.7012ZM460.27 3.375V7.98047H463.82V10.4941H460.27V22.2891C460.27 23.0508 460.428 23.625 460.744 24.0117C461.061 24.3867 461.6 24.5742 462.361 24.5742C462.736 24.5742 463.252 24.5039 463.908 24.3633V27C463.053 27.2344 462.221 27.3516 461.412 27.3516C459.959 27.3516 458.863 26.9121 458.125 26.0332C457.387 25.1543 457.018 23.9062 457.018 22.2891V10.4941H453.555V7.98047H457.018V3.375H460.27ZM470.887 10.2832C472.328 8.51367 474.203 7.62891 476.512 7.62891C480.531 7.62891 482.559 9.89648 482.594 14.4316V27H479.342V14.4141C479.33 13.043 479.014 12.0293 478.393 11.373C477.783 10.7168 476.828 10.3887 475.527 10.3887C474.473 10.3887 473.547 10.6699 472.75 11.2324C471.953 11.7949 471.332 12.5332 470.887 13.4473V27H467.635V0H470.887V10.2832ZM495.355 27.3516C492.777 27.3516 490.68 26.5078 489.062 24.8203C487.445 23.1211 486.637 20.8535 486.637 18.0176V17.4199C486.637 15.5332 486.994 13.8516 487.709 12.375C488.436 10.8867 489.443 9.72656 490.732 8.89453C492.033 8.05078 493.439 7.62891 494.951 7.62891C497.424 7.62891 499.346 8.44336 500.717 10.0723C502.088 11.7012 502.773 14.0332 502.773 17.0684V18.4219H489.889C489.936 20.2969 490.48 21.8145 491.523 22.9746C492.578 24.123 493.914 24.6973 495.531 24.6973C496.68 24.6973 497.652 24.4629 498.449 23.9941C499.246 23.5254 499.943 22.9043 500.541 22.1309L502.527 23.6777C500.934 26.127 498.543 27.3516 495.355 27.3516ZM494.951 10.3008C493.639 10.3008 492.537 10.7812 491.646 11.7422C490.756 12.6914 490.205 14.0273 489.994 15.75H499.521V15.5039C499.428 13.8516 498.982 12.5742 498.186 11.6719C497.389 10.7578 496.311 10.3008 494.951 10.3008ZM527.225 25.1191C525.959 26.6074 524.102 27.3516 521.652 27.3516C519.625 27.3516 518.078 26.7656 517.012 25.5938C515.957 24.4102 515.424 22.6641 515.412 20.3555V7.98047H518.664V20.2676C518.664 23.1504 519.836 24.5918 522.18 24.5918C524.664 24.5918 526.316 23.666 527.137 21.8145V7.98047H530.389V27H527.295L527.225 25.1191ZM546.42 21.9551C546.42 21.0762 546.086 20.3965 545.418 19.916C544.762 19.4238 543.607 19.002 541.955 18.6504C540.314 18.2988 539.008 17.877 538.035 17.3848C537.074 16.8926 536.359 16.3066 535.891 15.627C535.434 14.9473 535.205 14.1387 535.205 13.2012C535.205 11.6426 535.861 10.3242 537.174 9.24609C538.498 8.16797 540.186 7.62891 542.236 7.62891C544.393 7.62891 546.139 8.18555 547.475 9.29883C548.822 10.4121 549.496 11.8359 549.496 13.5703H546.227C546.227 12.6797 545.846 11.9121 545.084 11.2676C544.334 10.623 543.385 10.3008 542.236 10.3008C541.053 10.3008 540.127 10.5586 539.459 11.0742C538.791 11.5898 538.457 12.2637 538.457 13.0957C538.457 13.8809 538.768 14.4727 539.389 14.8711C540.01 15.2695 541.129 15.6504 542.746 16.0137C544.375 16.377 545.693 16.8105 546.701 17.3145C547.709 17.8184 548.453 18.4277 548.934 19.1426C549.426 19.8457 549.672 20.707 549.672 21.7266C549.672 23.4258 548.992 24.791 547.633 25.8223C546.273 26.8418 544.51 27.3516 542.342 27.3516C540.818 27.3516 539.471 27.082 538.299 26.543C537.127 26.0039 536.207 25.2539 535.539 24.293C534.883 23.3203 534.555 22.2715 534.555 21.1465H537.807C537.865 22.2363 538.299 23.1035 539.107 23.748C539.928 24.3809 541.006 24.6973 542.342 24.6973C543.572 24.6973 544.557 24.4512 545.295 23.959C546.045 23.4551 546.42 22.7871 546.42 21.9551ZM561.801 27.3516C559.223 27.3516 557.125 26.5078 555.508 24.8203C553.891 23.1211 553.082 20.8535 553.082 18.0176V17.4199C553.082 15.5332 553.439 13.8516 554.154 12.375C554.881 10.8867 555.889 9.72656 557.178 8.89453C558.479 8.05078 559.885 7.62891 561.396 7.62891C563.869 7.62891 565.791 8.44336 567.162 10.0723C568.533 11.7012 569.219 14.0332 569.219 17.0684V18.4219H556.334C556.381 20.2969 556.926 21.8145 557.969 22.9746C559.023 24.123 560.359 24.6973 561.977 24.6973C563.125 24.6973 564.098 24.4629 564.895 23.9941C565.691 23.5254 566.389 22.9043 566.986 22.1309L568.973 23.6777C567.379 26.127 564.988 27.3516 561.801 27.3516ZM561.396 10.3008C560.084 10.3008 558.982 10.7812 558.092 11.7422C557.201 12.6914 556.65 14.0273 556.439 15.75H565.967V15.5039C565.873 13.8516 565.428 12.5742 564.631 11.6719C563.834 10.7578 562.756 10.3008 561.396 10.3008ZM582.191 10.8984C581.699 10.8164 581.166 10.7754 580.592 10.7754C578.459 10.7754 577.012 11.6836 576.25 13.5V27H572.998V7.98047H576.162L576.215 10.1777C577.281 8.47852 578.793 7.62891 580.75 7.62891C581.383 7.62891 581.863 7.71094 582.191 7.875V10.8984ZM86.1719 70C85.9844 69.625 85.832 68.957 85.7148 67.9961C84.2031 69.5664 82.3984 70.3516 80.3008 70.3516C78.4258 70.3516 76.8848 69.8242 75.6777 68.7695C74.4824 67.7031 73.8848 66.3555 73.8848 64.7266C73.8848 62.7461 74.6348 61.2109 76.1348 60.1211C77.6465 59.0195 79.7676 58.4688 82.498 58.4688H85.6621V56.9746C85.6621 55.8379 85.3223 54.9355 84.6426 54.2676C83.9629 53.5879 82.9609 53.248 81.6367 53.248C80.4766 53.248 79.5039 53.541 78.7188 54.127C77.9336 54.7129 77.541 55.4219 77.541 56.2539H74.2715C74.2715 55.3047 74.6055 54.3906 75.2734 53.5117C75.9531 52.6211 76.8672 51.918 78.0156 51.4023C79.1758 50.8867 80.4473 50.6289 81.8301 50.6289C84.0215 50.6289 85.7383 51.1797 86.9805 52.2812C88.2227 53.3711 88.8672 54.877 88.9141 56.7988V65.5527C88.9141 67.2988 89.1367 68.6875 89.582 69.7188V70H86.1719ZM80.7754 67.5215C81.7949 67.5215 82.7617 67.2578 83.6758 66.7305C84.5898 66.2031 85.252 65.5176 85.6621 64.6738V60.7715H83.1133C79.1289 60.7715 77.1367 61.9375 77.1367 64.2695C77.1367 65.2891 77.4766 66.0859 78.1562 66.6602C78.8359 67.2344 79.709 67.5215 80.7754 67.5215ZM97.0879 50.9805L97.1934 53.3711C98.6465 51.543 100.545 50.6289 102.889 50.6289C106.908 50.6289 108.936 52.8965 108.971 57.4316V70H105.719V57.4141C105.707 56.043 105.391 55.0293 104.77 54.373C104.16 53.7168 103.205 53.3887 101.904 53.3887C100.85 53.3887 99.9238 53.6699 99.127 54.2324C98.3301 54.7949 97.709 55.5332 97.2637 56.4473V70H94.0117V50.9805H97.0879ZM113.084 60.332C113.084 57.4141 113.775 55.0703 115.158 53.3008C116.541 51.5195 118.352 50.6289 120.59 50.6289C122.816 50.6289 124.58 51.3906 125.881 52.9141V43H129.133V70H126.145L125.986 67.9609C124.686 69.5547 122.875 70.3516 120.555 70.3516C118.352 70.3516 116.553 69.4492 115.158 67.6445C113.775 65.8398 113.084 63.4844 113.084 60.5781V60.332ZM116.336 60.7012C116.336 62.8574 116.781 64.5449 117.672 65.7637C118.562 66.9824 119.793 67.5918 121.363 67.5918C123.426 67.5918 124.932 66.666 125.881 64.8145V56.0781C124.908 54.2852 123.414 53.3887 121.398 53.3887C119.805 53.3887 118.562 54.0039 117.672 55.2344C116.781 56.4648 116.336 58.2871 116.336 60.7012ZM152.318 53.8984C151.826 53.8164 151.293 53.7754 150.719 53.7754C148.586 53.7754 147.139 54.6836 146.377 56.5V70H143.125V50.9805H146.289L146.342 53.1777C147.408 51.4785 148.92 50.6289 150.877 50.6289C151.51 50.6289 151.99 50.7109 152.318 50.875V53.8984ZM162.865 70.3516C160.287 70.3516 158.189 69.5078 156.572 67.8203C154.955 66.1211 154.146 63.8535 154.146 61.0176V60.4199C154.146 58.5332 154.504 56.8516 155.219 55.375C155.945 53.8867 156.953 52.7266 158.242 51.8945C159.543 51.0508 160.949 50.6289 162.461 50.6289C164.934 50.6289 166.855 51.4434 168.227 53.0723C169.598 54.7012 170.283 57.0332 170.283 60.0684V61.4219H157.398C157.445 63.2969 157.99 64.8145 159.033 65.9746C160.088 67.123 161.424 67.6973 163.041 67.6973C164.189 67.6973 165.162 67.4629 165.959 66.9941C166.756 66.5254 167.453 65.9043 168.051 65.1309L170.037 66.6777C168.443 69.127 166.053 70.3516 162.865 70.3516ZM162.461 53.3008C161.148 53.3008 160.047 53.7812 159.156 54.7422C158.266 55.6914 157.715 57.0273 157.504 58.75H167.031V58.5039C166.938 56.8516 166.492 55.5742 165.695 54.6719C164.898 53.7578 163.82 53.3008 162.461 53.3008ZM178.475 46.375V50.9805H182.025V53.4941H178.475V65.2891C178.475 66.0508 178.633 66.625 178.949 67.0117C179.266 67.3867 179.805 67.5742 180.566 67.5742C180.941 67.5742 181.457 67.5039 182.113 67.3633V70C181.258 70.2344 180.426 70.3516 179.617 70.3516C178.164 70.3516 177.068 69.9121 176.33 69.0332C175.592 68.1543 175.223 66.9062 175.223 65.2891V53.4941H171.76V50.9805H175.223V46.375H178.475ZM197.582 68.1191C196.316 69.6074 194.459 70.3516 192.01 70.3516C189.982 70.3516 188.436 69.7656 187.369 68.5938C186.314 67.4102 185.781 65.6641 185.77 63.3555V50.9805H189.021V63.2676C189.021 66.1504 190.193 67.5918 192.537 67.5918C195.021 67.5918 196.674 66.666 197.494 64.8145V50.9805H200.746V70H197.652L197.582 68.1191ZM214.896 53.8984C214.404 53.8164 213.871 53.7754 213.297 53.7754C211.164 53.7754 209.717 54.6836 208.955 56.5V70H205.703V50.9805H208.867L208.92 53.1777C209.986 51.4785 211.498 50.6289 213.455 50.6289C214.088 50.6289 214.568 50.7109 214.896 50.875V53.8984ZM220.979 50.9805L221.084 53.3711C222.537 51.543 224.436 50.6289 226.779 50.6289C230.799 50.6289 232.826 52.8965 232.861 57.4316V70H229.609V57.4141C229.598 56.043 229.281 55.0293 228.66 54.373C228.051 53.7168 227.096 53.3887 225.795 53.3887C224.74 53.3887 223.814 53.6699 223.018 54.2324C222.221 54.7949 221.6 55.5332 221.154 56.4473V70H217.902V50.9805H220.979ZM251.107 46.375V50.9805H254.658V53.4941H251.107V65.2891C251.107 66.0508 251.266 66.625 251.582 67.0117C251.898 67.3867 252.438 67.5742 253.199 67.5742C253.574 67.5742 254.09 67.5039 254.746 67.3633V70C253.891 70.2344 253.059 70.3516 252.25 70.3516C250.797 70.3516 249.701 69.9121 248.963 69.0332C248.225 68.1543 247.855 66.9062 247.855 65.2891V53.4941H244.393V50.9805H247.855V46.375H251.107ZM257.26 60.3145C257.26 58.4512 257.623 56.7754 258.35 55.2871C259.088 53.7988 260.107 52.6504 261.408 51.8418C262.721 51.0332 264.215 50.6289 265.891 50.6289C268.48 50.6289 270.572 51.5254 272.166 53.3184C273.771 55.1113 274.574 57.4961 274.574 60.4727V60.7012C274.574 62.5527 274.217 64.2168 273.502 65.6934C272.799 67.1582 271.785 68.3008 270.461 69.1211C269.148 69.9414 267.637 70.3516 265.926 70.3516C263.348 70.3516 261.256 69.4551 259.65 67.6621C258.057 65.8691 257.26 63.4961 257.26 60.543V60.3145ZM260.529 60.7012C260.529 62.8105 261.016 64.5039 261.988 65.7812C262.973 67.0586 264.285 67.6973 265.926 67.6973C267.578 67.6973 268.891 67.0527 269.863 65.7637C270.836 64.4629 271.322 62.6465 271.322 60.3145C271.322 58.2285 270.824 56.541 269.828 55.252C268.844 53.9512 267.531 53.3008 265.891 53.3008C264.285 53.3008 262.99 53.9395 262.006 55.2168C261.021 56.4941 260.529 58.3223 260.529 60.7012ZM299.324 68.1191C298.059 69.6074 296.201 70.3516 293.752 70.3516C291.725 70.3516 290.178 69.7656 289.111 68.5938C288.057 67.4102 287.523 65.6641 287.512 63.3555V50.9805H290.764V63.2676C290.764 66.1504 291.936 67.5918 294.279 67.5918C296.764 67.5918 298.416 66.666 299.236 64.8145V50.9805H302.488V70H299.395L299.324 68.1191ZM318.52 64.9551C318.52 64.0762 318.186 63.3965 317.518 62.916C316.861 62.4238 315.707 62.002 314.055 61.6504C312.414 61.2988 311.107 60.877 310.135 60.3848C309.174 59.8926 308.459 59.3066 307.99 58.627C307.533 57.9473 307.305 57.1387 307.305 56.2012C307.305 54.6426 307.961 53.3242 309.273 52.2461C310.598 51.168 312.285 50.6289 314.336 50.6289C316.492 50.6289 318.238 51.1855 319.574 52.2988C320.922 53.4121 321.596 54.8359 321.596 56.5703H318.326C318.326 55.6797 317.945 54.9121 317.184 54.2676C316.434 53.623 315.484 53.3008 314.336 53.3008C313.152 53.3008 312.227 53.5586 311.559 54.0742C310.891 54.5898 310.557 55.2637 310.557 56.0957C310.557 56.8809 310.867 57.4727 311.488 57.8711C312.109 58.2695 313.229 58.6504 314.846 59.0137C316.475 59.377 317.793 59.8105 318.801 60.3145C319.809 60.8184 320.553 61.4277 321.033 62.1426C321.525 62.8457 321.771 63.707 321.771 64.7266C321.771 66.4258 321.092 67.791 319.732 68.8223C318.373 69.8418 316.609 70.3516 314.441 70.3516C312.918 70.3516 311.57 70.082 310.398 69.543C309.227 69.0039 308.307 68.2539 307.639 67.293C306.982 66.3203 306.654 65.2715 306.654 64.1465H309.906C309.965 65.2363 310.398 66.1035 311.207 66.748C312.027 67.3809 313.105 67.6973 314.441 67.6973C315.672 67.6973 316.656 67.4512 317.395 66.959C318.145 66.4551 318.52 65.7871 318.52 64.9551ZM333.9 70.3516C331.322 70.3516 329.225 69.5078 327.607 67.8203C325.99 66.1211 325.182 63.8535 325.182 61.0176V60.4199C325.182 58.5332 325.539 56.8516 326.254 55.375C326.98 53.8867 327.988 52.7266 329.277 51.8945C330.578 51.0508 331.984 50.6289 333.496 50.6289C335.969 50.6289 337.891 51.4434 339.262 53.0723C340.633 54.7012 341.318 57.0332 341.318 60.0684V61.4219H328.434C328.48 63.2969 329.025 64.8145 330.068 65.9746C331.123 67.123 332.459 67.6973 334.076 67.6973C335.225 67.6973 336.197 67.4629 336.994 66.9941C337.791 66.5254 338.488 65.9043 339.086 65.1309L341.072 66.6777C339.479 69.127 337.088 70.3516 333.9 70.3516ZM333.496 53.3008C332.184 53.3008 331.082 53.7812 330.191 54.7422C329.301 55.6914 328.75 57.0273 328.539 58.75H338.066V58.5039C337.973 56.8516 337.527 55.5742 336.73 54.6719C335.934 53.7578 334.855 53.3008 333.496 53.3008ZM354.291 53.8984C353.799 53.8164 353.266 53.7754 352.691 53.7754C350.559 53.7754 349.111 54.6836 348.35 56.5V70H345.098V50.9805H348.262L348.314 53.1777C349.381 51.4785 350.893 50.6289 352.85 50.6289C353.482 50.6289 353.963 50.7109 354.291 50.875V53.8984ZM377.301 64.9551C377.301 64.0762 376.967 63.3965 376.299 62.916C375.643 62.4238 374.488 62.002 372.836 61.6504C371.195 61.2988 369.889 60.877 368.916 60.3848C367.955 59.8926 367.24 59.3066 366.771 58.627C366.314 57.9473 366.086 57.1387 366.086 56.2012C366.086 54.6426 366.742 53.3242 368.055 52.2461C369.379 51.168 371.066 50.6289 373.117 50.6289C375.273 50.6289 377.02 51.1855 378.355 52.2988C379.703 53.4121 380.377 54.8359 380.377 56.5703H377.107C377.107 55.6797 376.727 54.9121 375.965 54.2676C375.215 53.623 374.266 53.3008 373.117 53.3008C371.934 53.3008 371.008 53.5586 370.34 54.0742C369.672 54.5898 369.338 55.2637 369.338 56.0957C369.338 56.8809 369.648 57.4727 370.27 57.8711C370.891 58.2695 372.01 58.6504 373.627 59.0137C375.256 59.377 376.574 59.8105 377.582 60.3145C378.59 60.8184 379.334 61.4277 379.814 62.1426C380.307 62.8457 380.553 63.707 380.553 64.7266C380.553 66.4258 379.873 67.791 378.514 68.8223C377.154 69.8418 375.391 70.3516 373.223 70.3516C371.699 70.3516 370.352 70.082 369.18 69.543C368.008 69.0039 367.088 68.2539 366.42 67.293C365.764 66.3203 365.436 65.2715 365.436 64.1465H368.688C368.746 65.2363 369.18 66.1035 369.988 66.748C370.809 67.3809 371.887 67.6973 373.223 67.6973C374.453 67.6973 375.438 67.4512 376.176 66.959C376.926 66.4551 377.301 65.7871 377.301 64.9551ZM392.682 70.3516C390.104 70.3516 388.006 69.5078 386.389 67.8203C384.771 66.1211 383.963 63.8535 383.963 61.0176V60.4199C383.963 58.5332 384.32 56.8516 385.035 55.375C385.762 53.8867 386.77 52.7266 388.059 51.8945C389.359 51.0508 390.766 50.6289 392.277 50.6289C394.75 50.6289 396.672 51.4434 398.043 53.0723C399.414 54.7012 400.1 57.0332 400.1 60.0684V61.4219H387.215C387.262 63.2969 387.807 64.8145 388.85 65.9746C389.904 67.123 391.24 67.6973 392.857 67.6973C394.006 67.6973 394.979 67.4629 395.775 66.9941C396.572 66.5254 397.27 65.9043 397.867 65.1309L399.854 66.6777C398.26 69.127 395.869 70.3516 392.682 70.3516ZM392.277 53.3008C390.965 53.3008 389.863 53.7812 388.973 54.7422C388.082 55.6914 387.531 57.0273 387.32 58.75H396.848V58.5039C396.754 56.8516 396.309 55.5742 395.512 54.6719C394.715 53.7578 393.637 53.3008 392.277 53.3008ZM407.412 70H404.16V43H407.412V70ZM420.525 70.3516C417.947 70.3516 415.85 69.5078 414.232 67.8203C412.615 66.1211 411.807 63.8535 411.807 61.0176V60.4199C411.807 58.5332 412.164 56.8516 412.879 55.375C413.605 53.8867 414.613 52.7266 415.902 51.8945C417.203 51.0508 418.609 50.6289 420.121 50.6289C422.594 50.6289 424.516 51.4434 425.887 53.0723C427.258 54.7012 427.943 57.0332 427.943 60.0684V61.4219H415.059C415.105 63.2969 415.65 64.8145 416.693 65.9746C417.748 67.123 419.084 67.6973 420.701 67.6973C421.85 67.6973 422.822 67.4629 423.619 66.9941C424.416 66.5254 425.113 65.9043 425.711 65.1309L427.697 66.6777C426.104 69.127 423.713 70.3516 420.525 70.3516ZM420.121 53.3008C418.809 53.3008 417.707 53.7812 416.816 54.7422C415.926 55.6914 415.375 57.0273 415.164 58.75H424.691V58.5039C424.598 56.8516 424.152 55.5742 423.355 54.6719C422.559 53.7578 421.48 53.3008 420.121 53.3008ZM439.352 67.6973C440.512 67.6973 441.525 67.3457 442.393 66.6426C443.26 65.9395 443.74 65.0605 443.834 64.0059H446.91C446.852 65.0957 446.477 66.1328 445.785 67.1172C445.094 68.1016 444.168 68.8867 443.008 69.4727C441.859 70.0586 440.641 70.3516 439.352 70.3516C436.762 70.3516 434.699 69.4902 433.164 67.7676C431.641 66.0332 430.879 63.666 430.879 60.666V60.1211C430.879 58.2695 431.219 56.623 431.898 55.1816C432.578 53.7402 433.551 52.6211 434.816 51.8242C436.094 51.0273 437.6 50.6289 439.334 50.6289C441.467 50.6289 443.236 51.2676 444.643 52.5449C446.061 53.8223 446.816 55.4805 446.91 57.5195H443.834C443.74 56.2891 443.271 55.2812 442.428 54.4961C441.596 53.6992 440.564 53.3008 439.334 53.3008C437.682 53.3008 436.398 53.8984 435.484 55.0938C434.582 56.2773 434.131 57.9941 434.131 60.2441V60.8594C434.131 63.0508 434.582 64.7383 435.484 65.9219C436.387 67.1055 437.676 67.6973 439.352 67.6973ZM454.979 46.375V50.9805H458.529V53.4941H454.979V65.2891C454.979 66.0508 455.137 66.625 455.453 67.0117C455.77 67.3867 456.309 67.5742 457.07 67.5742C457.445 67.5742 457.961 67.5039 458.617 67.3633V70C457.762 70.2344 456.93 70.3516 456.121 70.3516C454.668 70.3516 453.572 69.9121 452.834 69.0332C452.096 68.1543 451.727 66.9062 451.727 65.2891V53.4941H448.264V50.9805H451.727V46.375H454.979ZM465.877 70H462.625V50.9805H465.877V70ZM462.361 45.9355C462.361 45.4082 462.52 44.9629 462.836 44.5996C463.164 44.2363 463.645 44.0547 464.277 44.0547C464.91 44.0547 465.391 44.2363 465.719 44.5996C466.047 44.9629 466.211 45.4082 466.211 45.9355C466.211 46.4629 466.047 46.9023 465.719 47.2539C465.391 47.6055 464.91 47.7812 464.277 47.7812C463.645 47.7812 463.164 47.6055 462.836 47.2539C462.52 46.9023 462.361 46.4629 462.361 45.9355ZM470.236 60.3145C470.236 58.4512 470.6 56.7754 471.326 55.2871C472.064 53.7988 473.084 52.6504 474.385 51.8418C475.697 51.0332 477.191 50.6289 478.867 50.6289C481.457 50.6289 483.549 51.5254 485.143 53.3184C486.748 55.1113 487.551 57.4961 487.551 60.4727V60.7012C487.551 62.5527 487.193 64.2168 486.479 65.6934C485.775 67.1582 484.762 68.3008 483.438 69.1211C482.125 69.9414 480.613 70.3516 478.902 70.3516C476.324 70.3516 474.232 69.4551 472.627 67.6621C471.033 65.8691 470.236 63.4961 470.236 60.543V60.3145ZM473.506 60.7012C473.506 62.8105 473.992 64.5039 474.965 65.7812C475.949 67.0586 477.262 67.6973 478.902 67.6973C480.555 67.6973 481.867 67.0527 482.84 65.7637C483.812 64.4629 484.299 62.6465 484.299 60.3145C484.299 58.2285 483.801 56.541 482.805 55.252C481.82 53.9512 480.508 53.3008 478.867 53.3008C477.262 53.3008 475.967 53.9395 474.982 55.2168C473.998 56.4941 473.506 58.3223 473.506 60.7012ZM494.705 50.9805L494.811 53.3711C496.264 51.543 498.162 50.6289 500.506 50.6289C504.525 50.6289 506.553 52.8965 506.588 57.4316V70H503.336V57.4141C503.324 56.043 503.008 55.0293 502.387 54.373C501.777 53.7168 500.822 53.3887 499.521 53.3887C498.467 53.3887 497.541 53.6699 496.744 54.2324C495.947 54.7949 495.326 55.5332 494.881 56.4473V70H491.629V50.9805H494.705Z" fill="black"/>
</svg>
