<svg width="605" height="78" fill="none" xmlns="http://www.w3.org/2000/svg"><path opacity=".2" d="M20.082 18.879c-.316 2.707-1.318 4.799-3.006 6.275-1.676 1.465-3.908 2.198-6.697 2.198-3.024 0-5.45-1.084-7.277-3.252C1.285 21.932.377 19.03.377 15.398v-2.46c0-2.38.422-4.471 1.266-6.276.855-1.805 2.062-3.187 3.62-4.148 1.56-.973 3.364-1.46 5.415-1.46 2.718 0 4.898.762 6.539 2.286 1.64 1.512 2.596 3.61 2.865 6.293h-3.393c-.293-2.04-.931-3.516-1.916-4.43-.972-.914-2.338-1.371-4.095-1.371-2.157 0-3.85.797-5.08 2.39-1.22 1.594-1.828 3.862-1.828 6.803v2.479c0 2.777.58 4.986 1.74 6.627 1.16 1.64 2.783 2.46 4.869 2.46 1.875 0 3.31-.421 4.306-1.265 1.008-.855 1.676-2.338 2.004-4.447h3.393zM27.728 27h-3.251V0h3.252v27zm8.754 0H33.23V7.98h3.252V27zM32.967 2.936c0-.528.158-.973.474-1.336.328-.364.809-.545 1.442-.545.633 0 1.113.181 1.441.545.328.363.492.808.492 1.336 0 .527-.164.966-.492 1.318-.328.351-.808.527-1.441.527s-1.114-.176-1.442-.527c-.316-.352-.474-.791-.474-1.318zm16.365 21.761c1.16 0 2.174-.351 3.041-1.054.867-.704 1.348-1.582 1.442-2.637h3.076c-.059 1.09-.434 2.127-1.125 3.111-.692.985-1.618 1.77-2.778 2.356a7.936 7.936 0 01-3.656.879c-2.59 0-4.652-.862-6.188-2.584-1.523-1.735-2.285-4.102-2.285-7.102v-.545c0-1.851.34-3.498 1.02-4.94.68-1.44 1.652-2.56 2.918-3.357 1.277-.797 2.783-1.195 4.518-1.195 2.132 0 3.902.639 5.308 1.916 1.418 1.277 2.174 2.935 2.268 4.975h-3.076c-.094-1.23-.563-2.239-1.407-3.024-.832-.797-1.863-1.195-3.093-1.195-1.653 0-2.936.597-3.85 1.793-.903 1.183-1.354 2.9-1.354 5.15v.615c0 2.192.452 3.88 1.354 5.063.902 1.183 2.191 1.775 3.867 1.775zm16.524-6.504l-2.04 2.127V27h-3.252V0h3.252v16.33l1.74-2.092 5.925-6.258h3.955l-7.4 7.946L76.295 27h-3.814l-6.626-8.807zM92.135 3.375V7.98h3.55v2.514h-3.55V22.29c0 .762.158 1.336.474 1.723.317.375.856.562 1.618.562.375 0 .89-.07 1.546-.21V27a9.426 9.426 0 01-2.496.352c-1.453 0-2.549-.44-3.287-1.319s-1.107-2.127-1.107-3.744V10.494H85.42V7.98h3.463V3.375h3.252zm10.617 6.908c1.441-1.77 3.316-2.654 5.625-2.654 4.019 0 6.047 2.267 6.082 6.803V27h-3.252V14.414c-.012-1.371-.328-2.385-.949-3.041-.61-.656-1.565-.984-2.865-.984-1.055 0-1.981.28-2.778.843a5.725 5.725 0 00-1.863 2.215V27H99.5V0h3.252v10.283zm24.469 17.069c-2.578 0-4.676-.844-6.293-2.532-1.617-1.699-2.426-3.966-2.426-6.802v-.598c0-1.887.357-3.568 1.072-5.045.727-1.488 1.735-2.648 3.024-3.48 1.3-.844 2.707-1.266 4.218-1.266 2.473 0 4.395.814 5.766 2.443 1.371 1.63 2.057 3.961 2.057 6.996v1.354h-12.885c.047 1.875.592 3.392 1.635 4.553 1.054 1.148 2.39 1.722 4.007 1.722 1.149 0 2.122-.234 2.918-.703a7.322 7.322 0 002.092-1.863l1.987 1.547c-1.594 2.449-3.985 3.674-7.172 3.674zm-.405-17.051c-1.312 0-2.414.48-3.304 1.441-.891.95-1.442 2.285-1.653 4.008h9.528v-.246c-.094-1.652-.539-2.93-1.336-3.832-.797-.914-1.875-1.371-3.235-1.371zm28.582 5.29c-2.894-.831-5.003-1.85-6.328-3.058-1.312-1.218-1.968-2.719-1.968-4.5 0-2.015.802-3.68 2.408-4.992 1.617-1.324 3.715-1.986 6.293-1.986 1.758 0 3.322.34 4.693 1.02 1.383.679 2.449 1.616 3.199 2.812a7.15 7.15 0 011.143 3.92h-3.393c0-1.547-.492-2.76-1.476-3.639-.985-.89-2.373-1.336-4.166-1.336-1.664 0-2.965.37-3.903 1.107-.925.727-1.388 1.74-1.388 3.041 0 1.043.439 1.928 1.318 2.655.891.715 2.397 1.37 4.518 1.969 2.132.597 3.797 1.26 4.992 1.986 1.207.715 2.098 1.553 2.672 2.514.586.96.879 2.091.879 3.392 0 2.074-.809 3.738-2.426 4.992-1.617 1.242-3.779 1.864-6.486 1.864-1.758 0-3.399-.334-4.922-1.002-1.524-.68-2.702-1.606-3.534-2.778-.82-1.172-1.23-2.502-1.23-3.99h3.393c0 1.547.568 2.771 1.705 3.674 1.148.89 2.677 1.336 4.588 1.336 1.781 0 3.146-.363 4.095-1.09.949-.727 1.424-1.717 1.424-2.97 0-1.255-.439-2.221-1.318-2.901-.879-.692-2.473-1.371-4.782-2.04zM180.465 27c-.188-.375-.34-1.043-.457-2.004-1.512 1.57-3.317 2.356-5.414 2.356-1.875 0-3.416-.528-4.623-1.582-1.196-1.067-1.793-2.415-1.793-4.043 0-1.98.75-3.516 2.25-4.606 1.511-1.101 3.633-1.652 6.363-1.652h3.164v-1.494c0-1.137-.34-2.04-1.019-2.707-.68-.68-1.682-1.02-3.006-1.02-1.16 0-2.133.293-2.918.879-.785.586-1.178 1.295-1.178 2.127h-3.27c0-.95.334-1.863 1.002-2.742.68-.89 1.594-1.594 2.743-2.11 1.16-.515 2.431-.773 3.814-.773 2.191 0 3.908.55 5.15 1.652 1.243 1.09 1.887 2.596 1.934 4.518v8.754c0 1.746.223 3.134.668 4.166V27h-3.41zm-5.397-2.479c1.02 0 1.987-.263 2.901-.79.914-.528 1.576-1.213 1.986-2.057v-3.902h-2.549c-3.984 0-5.976 1.166-5.976 3.498 0 1.02.34 1.816 1.019 2.39.68.574 1.553.861 2.619.861zm19.231-1.933L199.01 7.98h3.322L195.512 27h-2.479l-6.89-19.02h3.322l4.834 14.608zm18.808 4.764c-2.578 0-4.675-.844-6.293-2.532-1.617-1.699-2.425-3.966-2.425-6.802v-.598c0-1.887.357-3.568 1.072-5.045.727-1.488 1.734-2.648 3.023-3.48 1.301-.844 2.707-1.266 4.219-1.266 2.473 0 4.395.814 5.766 2.443 1.371 1.63 2.056 3.961 2.056 6.996v1.354h-12.884c.047 1.875.591 3.392 1.634 4.553 1.055 1.148 2.391 1.722 4.008 1.722 1.149 0 2.121-.234 2.918-.703a7.335 7.335 0 002.092-1.863l1.986 1.547c-1.593 2.449-3.984 3.674-7.172 3.674zm-.404-17.051c-1.312 0-2.414.48-3.305 1.441-.89.95-1.441 2.285-1.652 4.008h9.527v-.246c-.093-1.652-.539-2.93-1.335-3.832-.797-.914-1.876-1.371-3.235-1.371zm36.633 7.4c0 2.906-.668 5.244-2.004 7.014-1.336 1.758-3.129 2.637-5.379 2.637-2.402 0-4.26-.85-5.572-2.55L236.223 27h-2.989V0h3.252v10.072c1.313-1.629 3.123-2.443 5.432-2.443s4.119.873 5.432 2.619c1.324 1.746 1.986 4.137 1.986 7.172v.281zm-3.252-.369c0-2.215-.428-3.926-1.283-5.133-.856-1.207-2.086-1.81-3.692-1.81-2.144 0-3.685.996-4.623 2.988v8.226c.996 1.993 2.549 2.989 4.659 2.989 1.558 0 2.771-.604 3.638-1.81.867-1.208 1.301-3.024 1.301-5.45zm19.107 7.787c-1.265 1.488-3.123 2.233-5.572 2.233-2.027 0-3.574-.586-4.64-1.758-1.055-1.184-1.588-2.93-1.6-5.239V7.98h3.252v12.288c0 2.882 1.172 4.324 3.515 4.324 2.485 0 4.137-.926 4.958-2.777V7.98h3.251V27h-3.093l-.071-1.88zm12.534-21.744V7.98h3.55v2.514h-3.55V22.29c0 .762.158 1.336.474 1.723.317.375.856.562 1.617.562.375 0 .891-.07 1.547-.21V27a9.421 9.421 0 01-2.496.352c-1.453 0-2.549-.44-3.287-1.319s-1.107-2.127-1.107-3.744V10.494h-3.463V7.98h3.463V3.375h3.252zm11.777 0V7.98h3.551v2.514h-3.551V22.29c0 .762.158 1.336.475 1.723.316.375.855.562 1.617.562.375 0 .89-.07 1.547-.21V27a9.433 9.433 0 01-2.496.352c-1.454 0-2.549-.44-3.288-1.319-.738-.879-1.107-2.127-1.107-3.744V10.494h-3.463V7.98h3.463V3.375h3.252zm6.152 13.94c0-1.864.364-3.54 1.09-5.028.738-1.488 1.758-2.637 3.059-3.445 1.312-.809 2.806-1.213 4.482-1.213 2.59 0 4.682.896 6.276 2.69 1.605 1.792 2.408 4.177 2.408 7.154v.228c0 1.852-.358 3.516-1.073 4.992-.703 1.465-1.716 2.608-3.041 3.428-1.312.82-2.824 1.23-4.535 1.23-2.578 0-4.67-.896-6.275-2.689-1.594-1.793-2.391-4.166-2.391-7.119v-.229zm3.27.386c0 2.11.486 3.803 1.459 5.08.984 1.278 2.297 1.916 3.937 1.916 1.653 0 2.965-.644 3.938-1.933.972-1.301 1.459-3.117 1.459-5.45 0-2.085-.498-3.773-1.494-5.062-.985-1.3-2.297-1.951-3.938-1.951-1.605 0-2.9.639-3.885 1.916-.984 1.277-1.476 3.105-1.476 5.484zm21.199-9.72l.106 2.39c1.453-1.828 3.351-2.742 5.695-2.742 4.019 0 6.047 2.267 6.082 6.803V27h-3.252V14.414c-.012-1.371-.328-2.385-.949-3.041-.61-.656-1.565-.984-2.866-.984-1.054 0-1.98.28-2.777.843a5.725 5.725 0 00-1.863 2.215V27h-3.252V7.98h3.076zm30.129-4.606V7.98h3.551v2.514h-3.551V22.29c0 .762.158 1.336.475 1.723.316.375.855.562 1.617.562.375 0 .89-.07 1.547-.21V27a9.433 9.433 0 01-2.496.352c-1.454 0-2.549-.44-3.288-1.319-.738-.879-1.107-2.127-1.107-3.744V10.494h-3.463V7.98H347V3.375h3.252zm6.152 13.94c0-1.864.364-3.54 1.09-5.028.738-1.488 1.758-2.637 3.059-3.445 1.312-.809 2.806-1.213 4.482-1.213 2.59 0 4.682.896 6.276 2.69 1.605 1.792 2.408 4.177 2.408 7.154v.228c0 1.852-.358 3.516-1.073 4.992-.703 1.465-1.716 2.608-3.041 3.428-1.312.82-2.824 1.23-4.535 1.23-2.578 0-4.67-.896-6.275-2.689-1.594-1.793-2.391-4.166-2.391-7.119v-.229zm3.27.386c0 2.11.486 3.803 1.459 5.08.984 1.278 2.297 1.916 3.937 1.916 1.653 0 2.965-.644 3.938-1.933.972-1.301 1.459-3.117 1.459-5.45 0-2.085-.498-3.773-1.494-5.062-.985-1.3-2.297-1.951-3.938-1.951-1.605 0-2.9.639-3.885 1.916-.984 1.277-1.476 3.105-1.476 5.484zM398.469 27c-.188-.375-.34-1.043-.457-2.004-1.512 1.57-3.317 2.356-5.414 2.356-1.875 0-3.416-.528-4.623-1.582-1.196-1.067-1.793-2.415-1.793-4.043 0-1.98.75-3.516 2.25-4.606 1.511-1.101 3.632-1.652 6.363-1.652h3.164v-1.494c0-1.137-.34-2.04-1.02-2.707-.679-.68-1.681-1.02-3.005-1.02-1.161 0-2.133.293-2.918.879-.786.586-1.178 1.295-1.178 2.127h-3.27c0-.95.334-1.863 1.002-2.742.68-.89 1.594-1.594 2.742-2.11 1.161-.515 2.432-.773 3.815-.773 2.191 0 3.908.55 5.15 1.652 1.243 1.09 1.887 2.596 1.934 4.518v8.754c0 1.746.223 3.134.668 4.166V27h-3.41zm-5.397-2.479c1.02 0 1.987-.263 2.901-.79.914-.528 1.576-1.213 1.986-2.057v-3.902h-2.549c-3.984 0-5.976 1.166-5.976 3.498 0 1.02.339 1.816 1.019 2.39.68.574 1.553.861 2.619.861zm12.446-7.189c0-2.918.691-5.262 2.074-7.031 1.383-1.781 3.193-2.672 5.431-2.672 2.227 0 3.991.762 5.291 2.285V0h3.252v27h-2.988l-.158-2.04c-1.301 1.595-3.111 2.392-5.432 2.392-2.203 0-4.002-.903-5.396-2.707-1.383-1.805-2.074-4.16-2.074-7.067v-.246zm3.252.37c0 2.155.445 3.843 1.335 5.062.891 1.218 2.122 1.828 3.692 1.828 2.062 0 3.568-.926 4.517-2.777v-8.737c-.972-1.793-2.466-2.69-4.482-2.69-1.594 0-2.836.616-3.727 1.846-.89 1.23-1.335 3.053-1.335 5.467zm17.068-.37c0-2.918.691-5.262 2.074-7.031 1.383-1.781 3.193-2.672 5.432-2.672 2.226 0 3.99.762 5.291 2.285V0h3.252v27h-2.989l-.158-2.04c-1.301 1.595-3.111 2.392-5.431 2.392-2.204 0-4.002-.903-5.397-2.707-1.383-1.805-2.074-4.16-2.074-7.067v-.246zm3.252.37c0 2.155.445 3.843 1.336 5.062.89 1.218 2.121 1.828 3.691 1.828 2.063 0 3.569-.926 4.518-2.777v-8.737c-.973-1.793-2.467-2.69-4.483-2.69-1.593 0-2.836.616-3.726 1.846-.891 1.23-1.336 3.053-1.336 5.467zm31.201-14.327V7.98h3.551v2.514h-3.551V22.29c0 .762.158 1.336.475 1.723.316.375.855.562 1.617.562.375 0 .89-.07 1.547-.21V27a9.433 9.433 0 01-2.496.352c-1.454 0-2.549-.44-3.288-1.319-.738-.879-1.107-2.127-1.107-3.744V10.494h-3.463V7.98h3.463V3.375h3.252zm10.617 6.908c1.442-1.77 3.317-2.654 5.625-2.654 4.02 0 6.047 2.267 6.082 6.803V27h-3.252V14.414c-.011-1.371-.328-2.385-.949-3.041-.609-.656-1.564-.984-2.865-.984-1.055 0-1.981.28-2.778.843a5.742 5.742 0 00-1.863 2.215V27h-3.252V0h3.252v10.283zm24.469 17.069c-2.578 0-4.676-.844-6.293-2.532-1.617-1.699-2.426-3.966-2.426-6.802v-.598c0-1.887.358-3.568 1.072-5.045.727-1.488 1.735-2.648 3.024-3.48 1.301-.844 2.707-1.266 4.219-1.266 2.472 0 4.394.814 5.765 2.443 1.371 1.63 2.057 3.961 2.057 6.996v1.354H489.91c.047 1.875.592 3.392 1.635 4.553 1.055 1.148 2.391 1.722 4.008 1.722 1.148 0 2.121-.234 2.918-.703a7.318 7.318 0 002.091-1.863l1.987 1.547c-1.594 2.449-3.985 3.674-7.172 3.674zm-.404-17.051c-1.313 0-2.414.48-3.305 1.441-.891.95-1.441 2.285-1.652 4.008h9.527v-.246c-.094-1.652-.539-2.93-1.336-3.832-.797-.914-1.875-1.371-3.234-1.371zm19.757 7.031c0-2.965.686-5.32 2.057-7.066 1.371-1.758 3.188-2.637 5.449-2.637 2.321 0 4.131.82 5.432 2.46l.158-2.109h2.971v18.563c0 2.46-.733 4.4-2.197 5.818-1.454 1.418-3.411 2.127-5.871 2.127-1.372 0-2.713-.293-4.026-.879-1.312-.586-2.314-1.388-3.006-2.408l1.688-1.951c1.394 1.723 3.099 2.584 5.115 2.584 1.582 0 2.812-.445 3.691-1.336.891-.89 1.336-2.145 1.336-3.762v-1.634c-1.3 1.5-3.076 2.25-5.326 2.25-2.226 0-4.031-.897-5.414-2.69-1.371-1.793-2.057-4.236-2.057-7.33zm3.27.37c0 2.144.439 3.831 1.318 5.062.879 1.218 2.11 1.828 3.692 1.828 2.051 0 3.556-.932 4.517-2.795v-8.684c-.996-1.816-2.49-2.724-4.482-2.724-1.582 0-2.818.615-3.709 1.845S518 15.287 518 17.701zm26.912-6.804a9.745 9.745 0 00-1.6-.123c-2.132 0-3.58.909-4.341 2.725V27h-3.252V7.98h3.164l.053 2.198c1.066-1.7 2.578-2.55 4.535-2.55.633 0 1.113.083 1.441.247v3.023zm1.793 6.416c0-1.863.363-3.539 1.09-5.027.738-1.488 1.758-2.637 3.059-3.445 1.312-.809 2.806-1.213 4.482-1.213 2.59 0 4.682.896 6.275 2.69 1.606 1.792 2.409 4.177 2.409 7.154v.228c0 1.852-.358 3.516-1.073 4.992-.703 1.465-1.717 2.608-3.041 3.428-1.312.82-2.824 1.23-4.535 1.23-2.578 0-4.67-.896-6.275-2.689-1.594-1.793-2.391-4.166-2.391-7.119v-.229zm3.27.387c0 2.11.486 3.803 1.459 5.08.984 1.278 2.296 1.916 3.937 1.916 1.652 0 2.965-.644 3.938-1.933.972-1.301 1.459-3.117 1.459-5.45 0-2.085-.498-3.773-1.495-5.062-.984-1.3-2.296-1.951-3.937-1.951-1.606 0-2.9.639-3.885 1.916-.984 1.277-1.476 3.105-1.476 5.484zm29.865 7.418c-1.266 1.488-3.123 2.233-5.572 2.233-2.028 0-3.575-.586-4.641-1.758-1.055-1.184-1.588-2.93-1.6-5.239V7.98h3.252v12.288c0 2.882 1.172 4.324 3.516 4.324 2.484 0 4.137-.926 4.957-2.777V7.98h3.252V27h-3.094l-.07-1.88zm24.187-7.418c0 2.895-.662 5.227-1.986 6.996-1.324 1.77-3.117 2.655-5.379 2.655-2.308 0-4.125-.733-5.449-2.198v9.159h-3.252V7.98h2.971l.158 2.11c1.324-1.64 3.164-2.461 5.519-2.461 2.286 0 4.09.861 5.414 2.584 1.336 1.723 2.004 4.119 2.004 7.19v.298zm-3.252-.369c0-2.145-.457-3.838-1.371-5.08-.914-1.242-2.168-1.863-3.761-1.863-1.969 0-3.446.873-4.43 2.619v9.088c.973 1.734 2.461 2.601 4.465 2.601 1.558 0 2.795-.615 3.709-1.845.925-1.243 1.388-3.082 1.388-5.52zM86.193 70c-.187-.375-.34-1.043-.457-2.004-1.511 1.57-3.316 2.356-5.414 2.356-1.875 0-3.416-.528-4.623-1.583-1.195-1.066-1.793-2.413-1.793-4.042 0-1.98.75-3.516 2.25-4.606 1.512-1.102 3.633-1.652 6.363-1.652h3.165v-1.494c0-1.137-.34-2.04-1.02-2.707-.68-.68-1.682-1.02-3.006-1.02-1.16 0-2.133.293-2.918.879-.785.586-1.177 1.295-1.177 2.127h-3.27c0-.95.334-1.863 1.002-2.742.68-.89 1.594-1.594 2.742-2.11 1.16-.515 2.432-.773 3.815-.773 2.191 0 3.908.55 5.15 1.652 1.242 1.09 1.887 2.596 1.934 4.518v8.754c0 1.746.222 3.135.667 4.166V70h-3.41zm-5.396-2.478c1.02 0 1.986-.264 2.9-.791.914-.528 1.576-1.213 1.987-2.057V60.77h-2.55c-3.984 0-5.976 1.166-5.976 3.498 0 1.02.34 1.817 1.02 2.391.68.574 1.553.862 2.619.862zM97.109 50.98l.106 2.391c1.453-1.828 3.351-2.742 5.695-2.742 4.02 0 6.047 2.268 6.082 6.803V70h-3.252V57.414c-.011-1.371-.328-2.385-.949-3.041-.609-.656-1.564-.984-2.865-.984-1.055 0-1.98.28-2.778.843a5.73 5.73 0 00-1.863 2.215V70h-3.252V50.98h3.076zm15.996 9.352c0-2.918.692-5.262 2.075-7.031 1.382-1.782 3.193-2.672 5.431-2.672 2.227 0 3.991.762 5.291 2.285V43h3.252v27h-2.988l-.158-2.04c-1.301 1.595-3.112 2.392-5.432 2.392-2.203 0-4.002-.903-5.396-2.708-1.383-1.804-2.075-4.16-2.075-7.066v-.246zm3.252.37c0 2.155.446 3.843 1.336 5.062.891 1.218 2.121 1.828 3.692 1.828 2.062 0 3.568-.926 4.517-2.778v-8.736c-.972-1.793-2.466-2.69-4.482-2.69-1.594 0-2.836.616-3.727 1.846-.89 1.23-1.336 3.053-1.336 5.467zm35.983-6.804a9.754 9.754 0 00-1.6-.123c-2.133 0-3.58.909-4.342 2.725V70h-3.252V50.98h3.165l.052 2.198c1.067-1.7 2.578-2.55 4.535-2.55.633 0 1.114.083 1.442.247v3.023zm10.547 16.454c-2.578 0-4.676-.844-6.293-2.532-1.617-1.699-2.426-3.966-2.426-6.802v-.598c0-1.887.357-3.568 1.072-5.045.727-1.488 1.735-2.648 3.024-3.48 1.3-.844 2.707-1.266 4.218-1.266 2.473 0 4.395.814 5.766 2.443 1.371 1.63 2.057 3.961 2.057 6.996v1.354H157.42c.047 1.875.592 3.392 1.635 4.553 1.054 1.148 2.39 1.722 4.007 1.722 1.149 0 2.122-.234 2.918-.703a7.322 7.322 0 002.092-1.863l1.987 1.547c-1.594 2.449-3.985 3.674-7.172 3.674zm-.405-17.051c-1.312 0-2.414.48-3.304 1.441-.891.95-1.442 2.285-1.653 4.008h9.528v-.246c-.094-1.652-.539-2.93-1.336-3.832-.797-.914-1.875-1.371-3.235-1.371zm16.014-6.926v4.605h3.551v2.514h-3.551V65.29c0 .762.158 1.336.475 1.723.316.375.855.562 1.617.562.375 0 .891-.07 1.547-.21V70a9.433 9.433 0 01-2.496.352c-1.453 0-2.549-.44-3.287-1.319-.739-.879-1.108-2.127-1.108-3.744V53.494h-3.463V50.98h3.463v-4.605h3.252zm19.108 21.744c-1.266 1.488-3.124 2.233-5.573 2.233-2.027 0-3.574-.586-4.64-1.758-1.055-1.184-1.588-2.93-1.6-5.238V50.98h3.252v12.288c0 2.882 1.172 4.324 3.516 4.324 2.484 0 4.136-.926 4.957-2.778V50.981h3.252V70h-3.094l-.07-1.88zm17.314-14.22a9.745 9.745 0 00-1.6-.124c-2.132 0-3.58.909-4.341 2.725V70h-3.252V50.98h3.164l.052 2.198c1.067-1.7 2.579-2.55 4.536-2.55.632 0 1.113.083 1.441.247v3.023zM221 50.98l.105 2.391c1.454-1.828 3.352-2.742 5.696-2.742 4.019 0 6.047 2.268 6.082 6.803V70h-3.252V57.414c-.012-1.371-.328-2.385-.949-3.041-.61-.656-1.565-.984-2.866-.984-1.054 0-1.98.28-2.777.843a5.725 5.725 0 00-1.863 2.215V70h-3.252V50.98H221zm30.129-4.605v4.605h3.551v2.514h-3.551V65.29c0 .762.158 1.336.475 1.723.316.375.855.562 1.617.562.375 0 .89-.07 1.547-.21V70a9.434 9.434 0 01-2.497.352c-1.453 0-2.548-.44-3.287-1.319-.738-.879-1.107-2.127-1.107-3.744V53.494h-3.463V50.98h3.463v-4.605h3.252zm6.152 13.94c0-1.864.364-3.54 1.09-5.028.738-1.488 1.758-2.637 3.059-3.445 1.312-.809 2.806-1.213 4.482-1.213 2.59 0 4.682.896 6.276 2.69 1.605 1.792 2.408 4.177 2.408 7.154v.228c0 1.852-.358 3.516-1.073 4.992-.703 1.465-1.716 2.608-3.041 3.428-1.312.82-2.824 1.23-4.535 1.23-2.578 0-4.67-.896-6.275-2.689-1.594-1.793-2.391-4.166-2.391-7.119v-.228zm3.27.386c0 2.11.486 3.803 1.459 5.08.984 1.278 2.297 1.916 3.937 1.916 1.653 0 2.965-.644 3.938-1.933.972-1.301 1.459-3.117 1.459-5.45 0-2.086-.498-3.773-1.494-5.062-.985-1.3-2.297-1.951-3.938-1.951-1.605 0-2.9.639-3.885 1.916-.984 1.277-1.476 3.105-1.476 5.484zm26.279-.369c0-2.965.686-5.32 2.057-7.066 1.371-1.758 3.187-2.637 5.449-2.637 2.32 0 4.131.82 5.432 2.46l.158-2.108h2.97v18.562c0 2.46-.732 4.4-2.197 5.818-1.453 1.418-3.41 2.127-5.871 2.127a9.78 9.78 0 01-4.025-.879c-1.313-.586-2.315-1.388-3.006-2.408l1.687-1.951c1.395 1.723 3.1 2.584 5.116 2.584 1.582 0 2.812-.445 3.691-1.336.891-.89 1.336-2.145 1.336-3.762v-1.634c-1.301 1.5-3.076 2.25-5.326 2.25-2.227 0-4.031-.897-5.414-2.69-1.371-1.793-2.057-4.236-2.057-7.33zm3.27.37c0 2.144.439 3.831 1.318 5.062.879 1.218 2.109 1.828 3.691 1.828 2.051 0 3.557-.932 4.518-2.795v-8.684c-.996-1.816-2.49-2.724-4.482-2.724-1.583 0-2.819.615-3.709 1.845-.891 1.23-1.336 3.053-1.336 5.467zm26.912-6.804a9.754 9.754 0 00-1.6-.123c-2.133 0-3.58.909-4.342 2.725V70h-3.252V50.98h3.164l.053 2.198c1.067-1.7 2.578-2.55 4.535-2.55.633 0 1.114.083 1.442.247v3.023zm1.793 6.416c0-1.863.363-3.539 1.09-5.027.738-1.488 1.757-2.637 3.058-3.445 1.313-.809 2.807-1.213 4.483-1.213 2.589 0 4.681.896 6.275 2.69 1.605 1.792 2.408 4.177 2.408 7.154v.228c0 1.852-.357 3.516-1.072 4.992-.703 1.465-1.717 2.608-3.041 3.428-1.313.82-2.824 1.23-4.535 1.23-2.578 0-4.67-.896-6.276-2.689-1.593-1.793-2.39-4.166-2.39-7.119v-.228zm3.269.387c0 2.11.487 3.803 1.459 5.08.985 1.278 2.297 1.916 3.938 1.916 1.652 0 2.965-.644 3.937-1.933.973-1.301 1.459-3.117 1.459-5.45 0-2.086-.498-3.773-1.494-5.062-.984-1.3-2.297-1.951-3.937-1.951-1.606 0-2.901.639-3.885 1.916-.985 1.277-1.477 3.105-1.477 5.484zm29.865 7.418c-1.265 1.488-3.123 2.233-5.572 2.233-2.027 0-3.574-.586-4.64-1.758-1.055-1.184-1.588-2.93-1.6-5.238V50.98h3.252v12.288c0 2.882 1.172 4.324 3.516 4.324 2.484 0 4.136-.926 4.957-2.778V50.981h3.252V70h-3.094l-.071-1.88zm24.188-7.418c0 2.895-.662 5.227-1.986 6.996-1.325 1.77-3.118 2.655-5.379 2.655-2.309 0-4.125-.733-5.45-2.198v9.159h-3.251V50.98h2.97l.158 2.11c1.325-1.64 3.165-2.461 5.52-2.461 2.285 0 4.09.861 5.414 2.584 1.336 1.722 2.004 4.119 2.004 7.19v.298zm-3.252-.369c0-2.145-.457-3.838-1.371-5.08-.914-1.242-2.168-1.863-3.762-1.863-1.969 0-3.445.873-4.43 2.619v9.088c.973 1.734 2.461 2.601 4.465 2.601 1.559 0 2.795-.615 3.709-1.845.926-1.243 1.389-3.083 1.389-5.52zm27.404 4.623c0-.879-.334-1.558-1.002-2.039-.656-.492-1.81-.914-3.463-1.266-1.64-.351-2.947-.773-3.919-1.265-.961-.492-1.676-1.078-2.145-1.758-.457-.68-.686-1.488-.686-2.426 0-1.558.657-2.877 1.969-3.955 1.324-1.078 3.012-1.617 5.063-1.617 2.156 0 3.902.556 5.238 1.67 1.348 1.113 2.021 2.537 2.021 4.271h-3.269c0-.89-.381-1.658-1.143-2.302-.75-.645-1.699-.967-2.847-.967-1.184 0-2.11.258-2.778.773-.668.516-1.002 1.19-1.002 2.022 0 .785.311 1.377.932 1.775.621.398 1.74.78 3.357 1.143 1.629.363 2.948.796 3.956 1.3 1.007.504 1.751 1.114 2.232 1.829.492.703.738 1.564.738 2.584 0 1.699-.679 3.064-2.039 4.095-1.359 1.02-3.123 1.53-5.291 1.53-1.523 0-2.871-.27-4.043-.809-1.172-.54-2.092-1.29-2.76-2.25-.656-.973-.984-2.022-.984-3.147h3.252c.059 1.09.492 1.957 1.301 2.602.82.633 1.898.95 3.234.95 1.231 0 2.215-.247 2.953-.739.75-.504 1.125-1.172 1.125-2.004zm15.381 5.397c-2.578 0-4.676-.844-6.293-2.532-1.617-1.699-2.426-3.966-2.426-6.802v-.598c0-1.887.358-3.568 1.073-5.045.726-1.488 1.734-2.648 3.023-3.48 1.301-.844 2.707-1.266 4.219-1.266 2.473 0 4.394.814 5.765 2.443 1.372 1.63 2.057 3.961 2.057 6.996v1.354h-12.885c.047 1.875.592 3.392 1.635 4.553 1.055 1.148 2.391 1.722 4.008 1.722 1.148 0 2.121-.234 2.918-.703a7.335 7.335 0 002.092-1.863l1.986 1.547c-1.594 2.449-3.984 3.674-7.172 3.674zm-.404-17.051c-1.313 0-2.414.48-3.305 1.441-.89.95-1.441 2.285-1.652 4.008h9.527v-.246c-.094-1.652-.539-2.93-1.336-3.832-.797-.914-1.875-1.371-3.234-1.371zM430.391 70h-3.252V43h3.252v27zm13.113.352c-2.578 0-4.676-.844-6.293-2.532-1.617-1.699-2.426-3.966-2.426-6.802v-.598c0-1.887.358-3.568 1.072-5.045.727-1.488 1.735-2.648 3.024-3.48 1.301-.844 2.707-1.266 4.219-1.266 2.472 0 4.394.814 5.765 2.443 1.371 1.63 2.057 3.961 2.057 6.996v1.354h-12.885c.047 1.875.592 3.392 1.635 4.553 1.055 1.148 2.39 1.722 4.008 1.722 1.148 0 2.121-.234 2.918-.703a7.318 7.318 0 002.091-1.863l1.987 1.547c-1.594 2.449-3.985 3.674-7.172 3.674zM443.1 53.3c-1.313 0-2.414.48-3.305 1.441-.891.95-1.441 2.285-1.652 4.008h9.527v-.246c-.094-1.652-.539-2.93-1.336-3.832-.797-.914-1.875-1.371-3.234-1.371zm19.23 14.396c1.16 0 2.174-.351 3.041-1.054.867-.704 1.348-1.582 1.441-2.637h3.077c-.059 1.09-.434 2.127-1.125 3.111-.692.985-1.618 1.77-2.778 2.356a7.934 7.934 0 01-3.656.879c-2.59 0-4.652-.862-6.187-2.584-1.524-1.735-2.286-4.102-2.286-7.102v-.545c0-1.852.34-3.498 1.02-4.94.68-1.44 1.652-2.56 2.918-3.357 1.277-.797 2.783-1.195 4.517-1.195 2.133 0 3.903.639 5.309 1.916 1.418 1.277 2.174 2.935 2.268 4.974h-3.077c-.093-1.23-.562-2.238-1.406-3.023-.832-.797-1.863-1.195-3.094-1.195-1.652 0-2.935.597-3.849 1.793-.902 1.183-1.354 2.9-1.354 5.15v.615c0 2.192.452 3.88 1.354 5.063.902 1.184 2.191 1.775 3.867 1.775zm15.627-21.322v4.605h3.551v2.514h-3.551V65.29c0 .762.158 1.336.475 1.723.316.375.855.562 1.617.562.375 0 .89-.07 1.547-.21V70a9.433 9.433 0 01-2.496.352c-1.454 0-2.549-.44-3.288-1.319-.738-.879-1.107-2.127-1.107-3.744V53.494h-3.463V50.98h3.463v-4.605h3.252zM488.855 70h-3.251V50.98h3.251V70zm-3.515-24.065c0-.527.158-.972.474-1.335.329-.364.809-.545 1.442-.545.633 0 1.113.181 1.441.545.328.363.492.808.492 1.335 0 .528-.164.967-.492 1.319-.328.352-.808.527-1.441.527s-1.113-.175-1.442-.527c-.316-.352-.474-.791-.474-1.319zm7.875 14.38c0-1.864.363-3.54 1.09-5.028.738-1.488 1.757-2.637 3.058-3.445 1.313-.809 2.807-1.213 4.483-1.213 2.59 0 4.681.896 6.275 2.69 1.606 1.792 2.408 4.177 2.408 7.154v.228c0 1.852-.357 3.516-1.072 4.992-.703 1.465-1.717 2.608-3.041 3.428-1.312.82-2.824 1.23-4.535 1.23-2.578 0-4.67-.896-6.276-2.689-1.593-1.793-2.39-4.166-2.39-7.119v-.228zm3.269.386c0 2.11.487 3.803 1.459 5.08.985 1.278 2.297 1.916 3.938 1.916 1.652 0 2.965-.644 3.937-1.933.973-1.301 1.459-3.117 1.459-5.45 0-2.086-.498-3.773-1.494-5.062-.984-1.3-2.297-1.951-3.937-1.951-1.606 0-2.901.639-3.885 1.916s-1.477 3.105-1.477 5.484zm21.2-9.72l.105 2.39c1.453-1.828 3.352-2.742 5.695-2.742 4.02 0 6.047 2.268 6.082 6.803V70h-3.252V57.414c-.011-1.371-.328-2.385-.949-3.041-.609-.656-1.564-.984-2.865-.984-1.055 0-1.98.28-2.777.843a5.736 5.736 0 00-1.864 2.215V70h-3.252V50.98h3.077z" fill="#000"/></svg>