<svg width="75" height="16" fill="none" xmlns="http://www.w3.org/2000/svg"><path opacity=".6" d="M8.805 4.492c0 .71-.19 1.341-.567 1.895a3.784 3.784 0 01-1.513 1.299c.742.319 1.328.784 1.757 1.396a3.49 3.49 0 01.655 2.08c0 1.23-.417 2.21-1.25 2.94-.827.729-1.918 1.093-3.272 1.093-1.367 0-2.464-.364-3.29-1.093-.821-.736-1.231-1.716-1.231-2.94 0-.768.208-1.461.625-2.08.423-.618 1.006-1.087 1.748-1.406a3.726 3.726 0 01-1.494-1.3 3.349 3.349 0 01-.547-1.884c0-1.198.384-2.148 1.152-2.851C2.346.937 3.358.586 4.615.586c1.25 0 2.26.352 3.028 1.055.774.703 1.162 1.653 1.162 2.851zM7.33 11.123c0-.794-.254-1.442-.762-1.943-.5-.502-1.158-.752-1.972-.752-.814 0-1.468.247-1.963.742-.488.495-.733 1.146-.733 1.953 0 .807.238 1.442.713 1.904.482.463 1.15.694 2.002.694.847 0 1.51-.231 1.992-.694.482-.468.723-1.103.723-1.904zM4.615 2.07c-.71 0-1.286.222-1.728.664-.436.437-.655 1.032-.655 1.787 0 .723.215 1.31.645 1.758.436.443 1.016.664 1.738.664.723 0 1.3-.221 1.729-.664.436-.449.654-1.035.654-1.758 0-.722-.225-1.311-.674-1.767-.449-.456-1.019-.684-1.709-.684zm17.051 3.985a5.412 5.412 0 00-.889-.069c-1.185 0-1.989.505-2.412 1.514V15H16.56V4.434h1.757l.03 1.22c.592-.944 1.432-1.416 2.52-1.416.35 0 .618.046.8.137v1.68zm5.86 9.14c-1.433 0-2.598-.468-3.497-1.406-.898-.944-1.347-2.204-1.347-3.78v-.331c0-1.048.198-1.983.595-2.803.404-.827.964-1.471 1.68-1.934a4.226 4.226 0 012.344-.703c1.373 0 2.441.453 3.203 1.358s1.142 2.2 1.142 3.886v.752h-7.158c.026 1.042.33 1.885.909 2.53.585.638 1.328.957 2.226.957.638 0 1.178-.13 1.621-.39.443-.261.83-.606 1.162-1.036l1.104.86c-.886 1.36-2.214 2.04-3.985 2.04zM27.3 5.723c-.73 0-1.341.267-1.836.8-.495.528-.8 1.27-.918 2.227h5.293v-.137c-.052-.918-.3-1.627-.742-2.129-.443-.507-1.042-.761-1.797-.761zm12.597 6.474c0-.488-.185-.866-.556-1.132-.365-.274-1.006-.508-1.924-.704-.911-.195-1.637-.43-2.178-.703-.534-.273-.93-.599-1.191-.976-.254-.378-.381-.827-.381-1.348 0-.866.365-1.598 1.094-2.197.735-.6 1.673-.899 2.812-.899 1.198 0 2.168.31 2.91.928.75.619 1.123 1.41 1.123 2.373H39.79c0-.495-.212-.921-.635-1.28-.416-.357-.944-.536-1.582-.536-.657 0-1.172.143-1.543.43-.37.286-.556.66-.556 1.122 0 .437.172.765.517.987.345.221.967.433 1.865.634.905.202 1.638.443 2.198.723.56.28.973.619 1.24 1.016.273.39.41.869.41 1.435 0 .944-.377 1.703-1.133 2.276-.755.566-1.735.85-2.94.85-.846 0-1.594-.15-2.245-.45-.651-.3-1.162-.716-1.534-1.25a3.066 3.066 0 01-.546-1.748h1.806c.033.606.274 1.087.723 1.445.456.352 1.055.528 1.797.528.683 0 1.23-.137 1.64-.41.417-.28.625-.652.625-1.114zm10.684 1.758c-.703.827-1.735 1.24-3.096 1.24-1.126 0-1.985-.325-2.578-.976-.586-.658-.882-1.628-.889-2.91V4.434h1.807v6.826c0 1.601.651 2.402 1.953 2.402 1.38 0 2.298-.514 2.754-1.543V4.434h1.807V15H50.62l-.039-1.045zM57.057 15H55.25V0h1.807v15zm5.351-13.125v2.559h1.973V5.83h-1.973v6.553c0 .423.088.742.264.957.176.208.475.312.898.312.209 0 .495-.039.86-.117V15c-.476.13-.938.195-1.387.195-.807 0-1.416-.244-1.826-.732-.41-.488-.615-1.182-.615-2.08V5.83h-1.924V4.434h1.924V1.875h1.806zm10.244 10.322c0-.488-.185-.866-.556-1.132-.365-.274-1.006-.508-1.924-.704-.912-.195-1.638-.43-2.178-.703-.534-.273-.93-.599-1.191-.976-.254-.378-.381-.827-.381-1.348 0-.866.365-1.598 1.094-2.197.735-.6 1.673-.899 2.812-.899 1.198 0 2.168.31 2.91.928.749.619 1.123 1.41 1.123 2.373h-1.816c0-.495-.212-.921-.635-1.28-.416-.357-.944-.536-1.582-.536-.657 0-1.172.143-1.543.43-.37.286-.556.66-.556 1.122 0 .437.172.765.517.987.345.221.967.433 1.865.634.905.202 1.638.443 2.198.723.56.28.973.619 1.24 1.016.273.39.41.869.41 1.435 0 .944-.378 1.703-1.133 2.276-.755.566-1.735.85-2.94.85-.846 0-1.594-.15-2.245-.45-.651-.3-1.163-.716-1.534-1.25a3.066 3.066 0 01-.546-1.748h1.806c.033.606.274 1.087.723 1.445.456.352 1.054.528 1.797.528.683 0 1.23-.137 1.64-.41.417-.28.625-.652.625-1.114z" fill="#000"/></svg>