<svg width="219" height="17" fill="none" xmlns="http://www.w3.org/2000/svg"><path opacity=".6" d="M7.164 16h-3.3V5.492L.62 6.44v-2.5l6.24-2.158h.303V16zm15.899-2.803c0-.488-.186-.866-.557-1.132-.365-.274-1.006-.508-1.924-.704-.911-.195-1.637-.43-2.178-.703-.534-.273-.93-.599-1.191-.976-.254-.378-.381-.827-.381-1.348 0-.866.365-1.598 1.094-2.197.736-.6 1.673-.899 2.812-.899 1.198 0 2.168.31 2.91.928.75.619 1.123 1.41 1.123 2.373h-1.816c0-.495-.211-.921-.635-1.28-.416-.357-.944-.536-1.582-.536-.657 0-1.172.143-1.543.43-.37.286-.556.66-.556 1.122 0 .437.172.765.517.987.345.221.967.433 1.866.634.904.202 1.637.443 2.197.723.56.28.973.619 1.24 1.016.273.39.41.869.41 1.435 0 .944-.378 1.703-1.133 2.276-.755.566-1.735.85-2.94.85-.845 0-1.594-.15-2.245-.45-.651-.3-1.162-.716-1.533-1.25a3.066 3.066 0 01-.547-1.748h1.806c.033.606.274 1.087.723 1.445.456.352 1.055.528 1.797.528.683 0 1.23-.137 1.64-.41.417-.28.625-.652.625-1.114zm8.544 2.998c-1.432 0-2.597-.468-3.496-1.406-.898-.944-1.347-2.204-1.347-3.78v-.331c0-1.048.198-1.983.595-2.803.404-.827.964-1.471 1.68-1.934a4.225 4.225 0 012.344-.703c1.374 0 2.441.453 3.203 1.358s1.142 2.2 1.142 3.886v.752H28.57c.026 1.042.33 1.885.909 2.53.585.638 1.328.957 2.226.957.638 0 1.178-.13 1.621-.39.443-.261.83-.606 1.162-1.036l1.104.86c-.886 1.36-2.214 2.04-3.985 2.04zm-.224-9.472c-.73 0-1.341.267-1.836.8-.495.528-.8 1.27-.918 2.227h5.293v-.137c-.052-.918-.3-1.627-.742-2.129-.443-.507-1.042-.761-1.797-.761zM39.79 16h-1.807V1h1.807v15zm7.285.195c-1.432 0-2.598-.468-3.496-1.406-.898-.944-1.348-2.204-1.348-3.78v-.331c0-1.048.199-1.983.596-2.803.404-.827.964-1.471 1.68-1.934a4.226 4.226 0 012.344-.703c1.373 0 2.441.453 3.203 1.358.761.905 1.142 2.2 1.142 3.886v.752H44.04c.026 1.042.329 1.885.908 2.53.586.638 1.328.957 2.227.957.638 0 1.178-.13 1.62-.39a4.066 4.066 0 001.163-1.036l1.103.86c-.885 1.36-2.213 2.04-3.984 2.04zm-.224-9.472c-.73 0-1.342.267-1.836.8-.495.528-.801 1.27-.918 2.227h5.293v-.137c-.052-.918-.3-1.627-.743-2.129-.442-.507-1.041-.761-1.796-.761zm10.683 7.998c.645 0 1.208-.196 1.69-.586.481-.39.748-.88.8-1.465h1.71c-.033.605-.242 1.182-.626 1.728a4.107 4.107 0 01-1.543 1.309 4.407 4.407 0 01-2.03.488c-1.44 0-2.586-.478-3.438-1.435-.847-.964-1.27-2.279-1.27-3.945v-.303c0-1.029.189-1.944.566-2.744.378-.801.919-1.423 1.622-1.866.71-.442 1.546-.664 2.51-.664 1.184 0 2.167.355 2.949 1.065.787.71 1.207 1.63 1.26 2.763h-1.71c-.052-.683-.312-1.243-.78-1.68-.463-.442-1.036-.663-1.72-.663-.918 0-1.63.332-2.138.996-.502.657-.752 1.611-.752 2.861v.342c0 1.217.25 2.155.752 2.812.501.658 1.217.987 2.148.987zm8.682-11.846v2.559h1.972V6.83h-1.972v6.553c0 .423.088.742.264.957.175.208.475.312.898.312.208 0 .495-.039.86-.117V16c-.476.13-.938.195-1.387.195-.808 0-1.416-.244-1.827-.732-.41-.488-.615-1.182-.615-2.08V6.83h-1.924V5.434h1.924V2.875h1.807zm8.476 13.32c-1.432 0-2.597-.468-3.496-1.406-.898-.944-1.347-2.204-1.347-3.78v-.331c0-1.048.198-1.983.595-2.803.404-.827.964-1.471 1.68-1.934a4.226 4.226 0 012.344-.703c1.373 0 2.441.453 3.203 1.358s1.142 2.2 1.142 3.886v.752h-7.158c.026 1.042.329 1.885.908 2.53.586.638 1.329.957 2.227.957.638 0 1.178-.13 1.621-.39.443-.261.83-.606 1.162-1.036l1.104.86c-.886 1.36-2.214 2.04-3.985 2.04zm-.224-9.472c-.73 0-1.341.267-1.836.8-.495.528-.801 1.27-.918 2.227h5.293v-.137c-.052-.918-.3-1.627-.742-2.129-.443-.507-1.042-.761-1.797-.761zm6.006 3.906c0-1.621.384-2.923 1.152-3.906.768-.99 1.774-1.485 3.017-1.485 1.237 0 2.217.423 2.94 1.27V1h1.807v15h-1.66l-.088-1.133c-.723.886-1.729 1.328-3.018 1.328-1.224 0-2.223-.501-2.998-1.504-.768-1.002-1.152-2.31-1.152-3.925v-.137zm1.806.205c0 1.198.248 2.135.742 2.813.495.677 1.179 1.015 2.051 1.015 1.146 0 1.983-.514 2.51-1.543V8.266c-.54-.996-1.37-1.495-2.49-1.495-.886 0-1.576.342-2.07 1.026-.495.683-.743 1.696-.743 3.037zM98.053 16V6.83h-1.67V5.434h1.67V4.35c0-1.133.303-2.009.908-2.627.605-.619 1.462-.928 2.568-.928.417 0 .83.055 1.241.166l-.098 1.465a5.194 5.194 0 00-.977-.088c-.586 0-1.038.172-1.357.517-.319.339-.479.827-.479 1.465v1.114h2.256V6.83h-2.256V16h-1.806zm11.172-8.945a5.422 5.422 0 00-.889-.069c-1.185 0-1.989.505-2.412 1.514V16h-1.807V5.434h1.758l.029 1.22c.593-.944 1.433-1.416 2.52-1.416.351 0 .618.046.801.137v1.68zm.996 3.564c0-1.035.202-1.966.605-2.793.41-.827.977-1.465 1.699-1.914.73-.45 1.56-.674 2.491-.674 1.438 0 2.601.498 3.486 1.494.892.997 1.338 2.321 1.338 3.975v.127c0 1.029-.199 1.953-.596 2.773a4.45 4.45 0 01-1.689 1.905c-.729.455-1.569.683-2.52.683-1.432 0-2.594-.498-3.486-1.494-.886-.996-1.328-2.314-1.328-3.955v-.127zm1.816.215c0 1.172.27 2.113.811 2.822.547.71 1.276 1.065 2.187 1.065.918 0 1.647-.358 2.188-1.075.54-.722.81-1.731.81-3.027 0-1.159-.276-2.096-.83-2.812-.547-.723-1.276-1.084-2.187-1.084-.892 0-1.612.354-2.159 1.064-.546.71-.82 1.725-.82 3.047zm11.768-5.4l.049 1.171c.774-.911 1.819-1.367 3.134-1.367 1.478 0 2.484.567 3.018 1.7a4.01 4.01 0 011.367-1.231c.566-.312 1.234-.469 2.002-.469 2.318 0 3.496 1.227 3.535 3.682V16h-1.806V9.027c0-.755-.173-1.318-.518-1.69-.345-.377-.925-.566-1.738-.566-.671 0-1.228.202-1.67.606-.443.397-.7.934-.772 1.611V16h-1.816V9.076c0-1.536-.752-2.305-2.256-2.305-1.185 0-1.995.505-2.432 1.514V16h-1.806V5.434h1.709zm29.238.058c0 .71-.189 1.341-.566 1.895a3.791 3.791 0 01-1.514 1.299c.742.319 1.328.784 1.758 1.396.436.612.654 1.305.654 2.08 0 1.23-.417 2.21-1.25 2.94-.827.729-1.917 1.093-3.271 1.093-1.368 0-2.465-.364-3.292-1.093-.82-.736-1.23-1.716-1.23-2.94 0-.768.208-1.462.625-2.08.423-.618 1.006-1.087 1.748-1.406a3.732 3.732 0 01-1.494-1.3 3.346 3.346 0 01-.547-1.884c0-1.198.384-2.148 1.152-2.851.769-.704 1.781-1.055 3.038-1.055 1.25 0 2.259.351 3.027 1.055.775.703 1.162 1.653 1.162 2.851zm-1.475 6.631c0-.794-.254-1.442-.761-1.943-.502-.502-1.159-.752-1.973-.752-.814 0-1.468.247-1.963.742-.488.495-.732 1.146-.732 1.953 0 .807.237 1.442.713 1.904.481.463 1.149.694 2.002.694.846 0 1.51-.231 1.992-.694.481-.468.722-1.103.722-1.904zm-2.714-9.053c-.71 0-1.286.222-1.729.664-.436.437-.654 1.032-.654 1.787 0 .723.215 1.31.644 1.758.436.443 1.016.664 1.739.664.722 0 1.298-.221 1.728-.664.436-.449.654-1.035.654-1.758 0-.722-.224-1.311-.674-1.767-.449-.456-1.018-.684-1.708-.684zm17.05 3.985a5.401 5.401 0 00-.888-.069c-1.185 0-1.989.505-2.412 1.514V16h-1.807V5.434h1.758l.029 1.22c.592-.944 1.432-1.416 2.52-1.416.351 0 .618.046.8.137v1.68zm5.86 9.14c-1.433 0-2.598-.468-3.496-1.406-.899-.944-1.348-2.204-1.348-3.78v-.331c0-1.048.198-1.983.596-2.803.403-.827.963-1.471 1.679-1.934a4.227 4.227 0 012.344-.703c1.374 0 2.441.453 3.203 1.358s1.143 2.2 1.143 3.886v.752h-7.158c.026 1.042.328 1.885.908 2.53.586.638 1.328.957 2.226.957.638 0 1.179-.13 1.621-.39.443-.261.83-.606 1.163-1.036l1.103.86c-.885 1.36-2.213 2.04-3.984 2.04zm-.225-9.472c-.729 0-1.341.267-1.836.8-.495.528-.801 1.27-.918 2.227h5.293v-.137c-.052-.918-.299-1.627-.742-2.129-.443-.507-1.042-.761-1.797-.761zm12.598 6.474c0-.488-.186-.866-.557-1.132-.365-.274-1.006-.508-1.924-.704-.911-.195-1.637-.43-2.177-.703-.534-.273-.931-.599-1.192-.976-.254-.378-.381-.827-.381-1.348 0-.866.365-1.598 1.094-2.197.736-.6 1.673-.899 2.812-.899 1.198 0 2.168.31 2.911.928.748.619 1.123 1.41 1.123 2.373h-1.817c0-.495-.211-.921-.634-1.28-.417-.357-.944-.536-1.583-.536-.657 0-1.171.143-1.542.43a1.35 1.35 0 00-.557 1.122c0 .437.172.765.517.987.346.221.967.433 1.866.634.905.202 1.637.443 2.197.723.56.28.973.619 1.24 1.016.274.39.41.869.41 1.435 0 .944-.377 1.703-1.132 2.276-.756.566-1.735.85-2.94.85-.846 0-1.595-.15-2.246-.45-.651-.3-1.162-.716-1.533-1.25a3.063 3.063 0 01-.547-1.748h1.807c.032.606.273 1.087.722 1.445.456.352 1.055.528 1.797.528.684 0 1.231-.137 1.641-.41.416-.28.625-.652.625-1.114zm10.683 1.758c-.703.827-1.735 1.24-3.095 1.24-1.127 0-1.986-.325-2.579-.976-.585-.658-.882-1.628-.888-2.91V5.434h1.806v6.826c0 1.601.651 2.402 1.954 2.402 1.38 0 2.298-.514 2.753-1.543V5.434h1.807V16h-1.719l-.039-1.045zM201.295 16h-1.807V1h1.807v15zm5.351-13.125v2.559h1.973V6.83h-1.973v6.553c0 .423.088.742.264.957.176.208.475.312.899.312.208 0 .494-.039.859-.117V16a5.24 5.24 0 01-1.387.195c-.807 0-1.416-.244-1.826-.732-.41-.488-.615-1.182-.615-2.08V6.83h-1.924V5.434h1.924V2.875h1.806zm10.245 10.322c0-.488-.186-.866-.557-1.132-.365-.274-1.006-.508-1.924-.704-.911-.195-1.637-.43-2.178-.703-.533-.273-.931-.599-1.191-.976-.254-.378-.381-.827-.381-1.348 0-.866.365-1.598 1.094-2.197.736-.6 1.673-.899 2.812-.899 1.198 0 2.168.31 2.911.928.748.619 1.123 1.41 1.123 2.373h-1.817c0-.495-.211-.921-.635-1.28-.416-.357-.944-.536-1.582-.536-.657 0-1.171.143-1.543.43a1.35 1.35 0 00-.556 1.122c0 .437.172.765.517.987.345.221.967.433 1.866.634.905.202 1.637.443 2.197.723.56.28.973.619 1.24 1.016.274.39.41.869.41 1.435 0 .944-.377 1.703-1.133 2.276-.755.566-1.735.85-2.939.85-.846 0-1.595-.15-2.246-.45-.651-.3-1.162-.716-1.533-1.25a3.063 3.063 0 01-.547-1.748h1.806c.033.606.274 1.087.723 1.445.456.352 1.055.528 1.797.528.684 0 1.23-.137 1.641-.41.416-.28.625-.652.625-1.114z" fill="#000"/></svg>