<svg width="715" height="135" fill="none" xmlns="http://www.w3.org/2000/svg"><path d="M11.549 22H8.912L3.78 13.58V22H1.143V9.203h2.636l5.142 8.438V9.203h2.628V22zm7.646 0a2.822 2.822 0 01-.255-.852c-.615.685-1.415 1.028-2.399 1.028-.932 0-1.705-.27-2.32-.809-.61-.539-.914-1.219-.914-2.039 0-1.008.372-1.781 1.116-2.32.75-.54 1.83-.812 3.243-.818h1.169v-.545c0-.439-.114-.79-.343-1.054-.223-.264-.577-.396-1.063-.396-.428 0-.765.103-1.011.308-.24.205-.36.486-.36.844h-2.54c0-.551.17-1.06.51-1.53.34-.468.82-.835 1.44-1.098.622-.27 1.32-.404 2.093-.404 1.171 0 2.1.295 2.786.887.691.586 1.037 1.412 1.037 2.479v4.122c.006.902.132 1.585.378 2.048V22h-2.567zm-2.1-1.767c.375 0 .72-.082 1.037-.246.316-.17.55-.395.703-.676v-1.635h-.95c-1.27 0-1.948.44-2.03 1.318l-.008.15c0 .316.111.577.334.782.222.205.527.307.914.307zm8.622-7.743l.079 1.064c.674-.827 1.585-1.24 2.733-1.24 1.225 0 2.066.484 2.523 1.45.668-.966 1.62-1.45 2.856-1.45 1.032 0 1.799.302 2.303.906.504.597.756 1.5.756 2.707V22h-2.549v-6.065c0-.539-.105-.931-.316-1.177-.211-.252-.583-.378-1.117-.378-.761 0-1.289.363-1.582 1.09l.01 6.53h-2.54v-6.056c0-.55-.11-.949-.326-1.195-.217-.246-.586-.37-1.108-.37-.72 0-1.242.3-1.564.897V22h-2.54v-9.51h2.382zm17.587 9.686c-1.395 0-2.532-.428-3.41-1.283-.873-.856-1.31-1.995-1.31-3.42v-.245c0-.956.185-1.808.554-2.558.369-.756.89-1.336 1.564-1.74.68-.41 1.453-.615 2.32-.615 1.301 0 2.324.41 3.068 1.23.75.82 1.125 1.983 1.125 3.49v1.036h-6.056c.082.621.328 1.12.739 1.494.415.375.94.563 1.573.563.978 0 1.743-.355 2.294-1.064l1.248 1.398c-.381.539-.897.96-1.547 1.265-.65.3-1.371.449-2.162.449zm-.29-7.805c-.504 0-.914.17-1.23.51-.311.34-.51.826-.599 1.459h3.534v-.202c-.012-.563-.164-.996-.457-1.301-.293-.31-.71-.466-1.248-.466zM7.75 59.742H2.82v4.031h5.727V65H1.32V53.625h7.15v1.234H2.82v3.657h4.93v1.226zm5.273-.11l1.875-3.085h1.688l-2.766 4.18L16.672 65H15l-1.953-3.164L11.094 65h-1.68l2.852-4.273-2.766-4.18h1.672l1.851 3.086zM23.343 65c-.083-.167-.15-.463-.202-.89-.672.697-1.474 1.046-2.407 1.046-.833 0-1.518-.234-2.054-.703-.532-.474-.797-1.073-.797-1.797 0-.88.333-1.562 1-2.047.672-.49 1.614-.734 2.828-.734h1.406v-.664c0-.505-.15-.906-.453-1.203-.302-.302-.747-.453-1.336-.453-.515 0-.948.13-1.297.39s-.523.576-.523.946h-1.453c0-.422.148-.828.445-1.22.302-.395.708-.707 1.219-.937a4.126 4.126 0 011.695-.343c.974 0 1.737.244 2.29.734.551.484.838 1.154.858 2.008v3.89c0 .776.1 1.394.297 1.852V65h-1.515zm-2.398-1.102c.453 0 .883-.117 1.29-.351.406-.234.7-.54.882-.914v-1.735h-1.133c-1.77 0-2.656.519-2.656 1.555 0 .453.151.807.453 1.063.302.255.69.382 1.164.382zm18.446-2.507c-.141 1.203-.586 2.132-1.336 2.789-.745.65-1.737.976-2.977.976-1.344 0-2.422-.482-3.234-1.445-.808-.964-1.211-2.253-1.211-3.867V58.75c0-1.057.187-1.987.562-2.79.38-.801.917-1.416 1.61-1.843.692-.432 1.495-.648 2.406-.648 1.208 0 2.177.338 2.906 1.015.73.672 1.154 1.605 1.274 2.797h-1.508c-.13-.906-.414-1.562-.852-1.968-.432-.407-1.039-.61-1.82-.61-.958 0-1.711.354-2.258 1.063-.542.708-.812 1.716-.812 3.023v1.102c0 1.234.257 2.216.773 2.945.516.73 1.237 1.094 2.164 1.094.833 0 1.471-.188 1.914-.563.448-.38.745-1.039.89-1.976h1.509zm1.445-.696c0-.828.161-1.573.484-2.234.328-.661.782-1.172 1.36-1.531.583-.36 1.247-.54 1.992-.54 1.15 0 2.08.4 2.789 1.196.714.797 1.07 1.857 1.07 3.18v.101c0 .823-.159 1.563-.476 2.219a3.56 3.56 0 01-1.352 1.523c-.583.365-1.255.547-2.016.547-1.145 0-2.075-.398-2.789-1.195-.708-.797-1.062-1.852-1.062-3.164v-.102zm1.453.172c0 .938.216 1.69.648 2.258.438.568 1.021.852 1.75.852.735 0 1.318-.287 1.75-.86.433-.578.649-1.385.649-2.422 0-.927-.221-1.677-.664-2.25-.438-.578-1.021-.867-1.75-.867-.714 0-1.29.284-1.727.852-.437.567-.656 1.38-.656 2.437zm9.422-4.32l.047 1.062c.646-.812 1.49-1.218 2.531-1.218 1.786 0 2.688 1.007 2.703 3.023V65h-1.445v-5.594c-.005-.61-.146-1.06-.422-1.351-.27-.292-.695-.438-1.273-.438-.47 0-.88.125-1.235.375-.354.25-.63.578-.828.985V65h-1.445v-8.453h1.367zm12.383 6.21c0-.39-.149-.692-.446-.905-.291-.22-.804-.407-1.539-.563-.729-.156-1.31-.344-1.742-.562-.427-.22-.745-.48-.953-.782-.203-.302-.305-.661-.305-1.078 0-.692.292-1.278.875-1.758.589-.479 1.339-.718 2.25-.718.959 0 1.735.247 2.328.742.6.495.899 1.127.899 1.898h-1.453c0-.396-.17-.737-.508-1.023-.333-.287-.755-.43-1.266-.43-.526 0-.937.115-1.234.344a1.081 1.081 0 00-.445.898c0 .35.138.612.414.79.276.176.773.346 1.492.507.724.162 1.31.354 1.758.578.448.224.778.495.992.813.219.312.328.695.328 1.148 0 .755-.302 1.362-.906 1.82-.604.454-1.388.68-2.352.68-.677 0-1.276-.12-1.797-.36-.52-.239-.93-.572-1.226-1a2.453 2.453 0 01-.438-1.398h1.446c.026.485.218.87.578 1.157.364.28.843.422 1.437.422.547 0 .985-.11 1.313-.329.333-.224.5-.52.5-.89zm5.289-8.257v2.047h1.578v1.117h-1.578v5.242c0 .339.07.594.21.766.141.167.381.25.72.25a3.5 3.5 0 00.687-.094V65c-.38.104-.75.156-1.11.156-.645 0-1.132-.195-1.46-.586-.328-.39-.493-.945-.493-1.664v-5.242h-1.539v-1.117h1.54V54.5h1.445zm7.36 3.344a4.327 4.327 0 00-.712-.055c-.948 0-1.59.404-1.93 1.211v6h-1.445v-8.453h1.406l.024.976c.474-.755 1.146-1.132 2.016-1.132.28 0 .494.036.64.109v1.344zm6.554 6.32c-.563.662-1.388.992-2.477.992-.9 0-1.588-.26-2.062-.781-.469-.526-.706-1.302-.711-2.328v-5.5h1.445v5.46c0 1.282.521 1.923 1.563 1.923 1.104 0 1.838-.412 2.203-1.235v-6.148h1.445V65h-1.375l-.031-.836zm7-.187c.516 0 .966-.157 1.351-.47.386-.312.6-.702.641-1.171h1.367a2.621 2.621 0 01-.5 1.383 3.286 3.286 0 01-1.234 1.047 3.53 3.53 0 01-1.625.39c-1.151 0-2.068-.383-2.75-1.148-.677-.771-1.016-1.823-1.016-3.156v-.243c0-.823.151-1.554.453-2.195a3.46 3.46 0 011.297-1.492c.568-.354 1.237-.531 2.008-.531.948 0 1.734.284 2.36.851.63.568.966 1.305 1.007 2.211H92.29c-.042-.547-.25-.995-.625-1.344-.37-.354-.828-.53-1.375-.53-.734 0-1.305.265-1.71.796-.402.526-.602 1.29-.602 2.29v.273c0 .973.2 1.723.601 2.25.401.526.974.789 1.719.789zm6.945-9.477v2.047h1.578v1.117h-1.578v5.242c0 .339.07.594.211.766.14.167.38.25.719.25a3.5 3.5 0 00.687-.094V65c-.38.104-.75.156-1.109.156-.646 0-1.133-.195-1.46-.586-.33-.39-.493-.945-.493-1.664v-5.242h-1.54v-1.117h1.54V54.5h1.445zm4.844 10.5h-1.445v-8.453h1.445V65zm-1.563-10.695c0-.235.071-.433.211-.594.146-.161.36-.242.641-.242s.495.08.641.242c.145.161.218.36.218.594 0 .234-.073.43-.218.586-.146.156-.36.234-.641.234s-.495-.078-.641-.234a.846.846 0 01-.211-.586zm3.5 6.39c0-.828.162-1.573.485-2.234.328-.661.781-1.172 1.359-1.531.584-.36 1.248-.54 1.992-.54 1.151 0 2.081.4 2.789 1.196.714.797 1.071 1.857 1.071 3.18v.101c0 .823-.159 1.563-.477 2.219a3.559 3.559 0 01-1.351 1.523c-.584.365-1.256.547-2.016.547-1.146 0-2.076-.398-2.789-1.195-.708-.797-1.063-1.852-1.063-3.164v-.102zm1.454.172c0 .938.216 1.69.648 2.258.437.568 1.021.852 1.75.852.734 0 1.318-.287 1.75-.86.432-.578.648-1.385.648-2.422 0-.927-.221-1.677-.664-2.25-.437-.578-1.02-.867-1.75-.867-.713 0-1.289.284-1.726.852-.438.567-.656 1.38-.656 2.437zm9.421-4.32l.047 1.062c.646-.812 1.49-1.218 2.532-1.218 1.786 0 2.687 1.007 2.703 3.023V65h-1.446v-5.594c-.005-.61-.145-1.06-.422-1.351-.27-.292-.695-.438-1.273-.438-.469 0-.88.125-1.234.375a2.54 2.54 0 00-.828.985V65h-1.446v-8.453h1.367zM303.695 65h-1.453v-9.633l-2.914 1.07v-1.312l4.141-1.555h.226V65zm4.899-5.703l.578-5.672H315v1.336h-4.602l-.343 3.102c.557-.329 1.19-.493 1.898-.493 1.037 0 1.859.344 2.469 1.032.609.682.914 1.606.914 2.773 0 1.172-.318 2.096-.953 2.773-.63.672-1.513 1.008-2.649 1.008-1.005 0-1.825-.278-2.461-.836-.635-.557-.997-1.328-1.085-2.312h1.367c.088.65.32 1.143.695 1.476.375.328.87.493 1.484.493.672 0 1.198-.23 1.578-.688.386-.458.579-1.091.579-1.898 0-.76-.209-1.37-.625-1.828-.412-.464-.961-.696-1.649-.696-.63 0-1.125.138-1.484.414l-.383.313-1.156-.297zm-3.547 35.883h1.578v1.18h-1.578V99h-1.453v-2.64h-5.18v-.852l5.094-7.883h1.539v7.555zm-4.992 0h3.539v-5.578l-.172.312-3.367 5.266zM4.21 128.711l-1.39 1.445V134h-1.5v-11.375h1.5v5.625l5.055-5.625h1.813l-4.477 5.023L10.039 134H8.242l-4.031-5.289zM16.345 134c-.084-.167-.151-.464-.203-.891-.672.698-1.474 1.047-2.407 1.047-.833 0-1.518-.234-2.054-.703-.532-.474-.797-1.073-.797-1.797 0-.88.333-1.562 1-2.047.672-.489 1.614-.734 2.828-.734h1.406v-.664c0-.505-.15-.906-.453-1.203-.302-.302-.747-.453-1.336-.453-.515 0-.948.13-1.297.39-.349.261-.523.576-.523.946h-1.453c0-.422.148-.829.445-1.219.302-.396.708-.708 1.219-.938a4.13 4.13 0 011.695-.343c.974 0 1.737.244 2.29.734.551.484.838 1.154.858 2.008v3.89c0 .776.1 1.394.297 1.852V134h-1.515zm-2.399-1.102c.453 0 .883-.117 1.29-.351.406-.235.7-.539.882-.914v-1.735h-1.133c-1.77 0-2.656.519-2.656 1.555 0 .453.151.807.453 1.063.302.255.69.382 1.164.382zm9.97-6.054a4.272 4.272 0 00-.712-.055c-.948 0-1.591.404-1.93 1.211v6h-1.445v-8.453h1.406l.024.976c.474-.755 1.146-1.132 2.015-1.132.282 0 .495.036.641.109v1.344zm3.687-3.344v2.047h1.578v1.117h-1.578v5.242c0 .339.07.594.21.766.141.167.38.25.72.25.166 0 .395-.031.687-.094V134c-.38.104-.75.156-1.11.156-.646 0-1.132-.195-1.46-.586-.329-.39-.493-.945-.493-1.664v-5.242h-1.539v-1.117h1.54V123.5h1.445zm3.5 10.5v-11.375h3.718c1.235 0 2.162.255 2.782.766.625.51.937 1.265.937 2.265 0 .532-.151 1.003-.453 1.414-.302.407-.714.722-1.234.946.614.172 1.099.5 1.453.984.36.479.539 1.052.539 1.719 0 1.021-.331 1.823-.992 2.406-.662.583-1.597.875-2.805.875h-3.945zm1.5-5.32v4.093h2.476c.698 0 1.247-.179 1.649-.539.406-.364.609-.864.609-1.5 0-1.369-.745-2.054-2.234-2.054h-2.5zm0-1.203h2.265c.656 0 1.18-.165 1.57-.493.396-.328.594-.773.594-1.336 0-.625-.182-1.078-.547-1.359-.364-.286-.919-.43-1.664-.43h-2.218v3.618zM46.062 134c-.083-.167-.15-.464-.203-.891-.672.698-1.474 1.047-2.406 1.047-.833 0-1.518-.234-2.055-.703-.53-.474-.796-1.073-.796-1.797 0-.88.333-1.562 1-2.047.671-.489 1.614-.734 2.828-.734h1.406v-.664c0-.505-.151-.906-.453-1.203-.302-.302-.748-.453-1.336-.453-.516 0-.948.13-1.297.39-.349.261-.523.576-.523.946h-1.454c0-.422.149-.829.446-1.219.302-.396.708-.708 1.218-.938a4.13 4.13 0 011.696-.343c.974 0 1.737.244 2.289.734.552.484.838 1.154.86 2.008v3.89c0 .776.098 1.394.296 1.852V134h-1.516zm-2.398-1.102c.453 0 .883-.117 1.29-.351.405-.235.7-.539.882-.914v-1.735h-1.133c-1.77 0-2.656.519-2.656 1.555 0 .453.15.807.453 1.063.302.255.69.382 1.164.382zm11.102.266c-.563.662-1.388.992-2.477.992-.901 0-1.589-.26-2.062-.781-.47-.526-.706-1.302-.711-2.328v-5.5h1.445v5.461c0 1.281.52 1.922 1.562 1.922 1.105 0 1.839-.412 2.204-1.235v-6.148h1.445V134h-1.375l-.031-.836zm251.078-7.57c0 .567-.151 1.073-.453 1.515a3.029 3.029 0 01-1.211 1.039 3.243 3.243 0 011.406 1.118c.349.489.523 1.044.523 1.664 0 .984-.333 1.768-1 2.351-.661.584-1.533.875-2.617.875-1.094 0-1.971-.291-2.633-.875-.656-.588-.984-1.372-.984-2.351 0-.615.167-1.17.5-1.664.339-.495.805-.87 1.398-1.125a2.989 2.989 0 01-1.195-1.039 2.678 2.678 0 01-.437-1.508c0-.959.307-1.719.921-2.282.615-.562 1.425-.843 2.43-.843 1 0 1.807.281 2.422.843.62.563.93 1.323.93 2.282zm-1.18 5.304c0-.635-.203-1.153-.609-1.554-.401-.401-.927-.602-1.578-.602s-1.175.198-1.571.594c-.39.396-.586.917-.586 1.562 0 .646.19 1.154.571 1.524.385.37.919.555 1.601.555.677 0 1.209-.185 1.594-.555.385-.375.578-.883.578-1.524zm-2.172-7.242c-.568 0-1.028.177-1.383.532-.349.348-.523.825-.523 1.429 0 .578.172 1.047.516 1.406.349.355.812.532 1.39.532.578 0 1.039-.177 1.383-.532.349-.359.523-.828.523-1.406s-.179-1.049-.539-1.414c-.359-.364-.815-.547-1.367-.547zM440.047 58.61h1.086c.682-.011 1.219-.19 1.609-.54.391-.349.586-.82.586-1.414 0-1.333-.664-2-1.992-2-.625 0-1.125.18-1.5.54-.37.354-.555.825-.555 1.413h-1.445c0-.9.328-1.648.984-2.242.662-.599 1.5-.898 2.516-.898 1.073 0 1.914.284 2.523.851.61.568.914 1.357.914 2.367 0 .495-.161.974-.484 1.438a2.88 2.88 0 01-1.305 1.04c.625.197 1.107.525 1.446.983.343.459.515 1.019.515 1.68 0 1.021-.333 1.83-1 2.43-.666.599-1.534.898-2.601.898-1.068 0-1.938-.289-2.61-.867-.666-.578-1-1.341-1-2.289h1.454c0 .599.195 1.078.585 1.438.391.359.915.539 1.571.539.698 0 1.232-.183 1.601-.547.37-.365.555-.888.555-1.57 0-.662-.203-1.17-.609-1.524-.407-.354-.993-.536-1.758-.547h-1.086v-1.18zM442.695 99h-1.453v-9.633l-2.914 1.07v-1.312l4.141-1.555h.226V99zm6.336-6.39h1.086c.682-.011 1.219-.19 1.61-.54.39-.349.585-.82.585-1.414 0-1.333-.664-2-1.992-2-.625 0-1.125.18-1.5.54-.369.353-.554.825-.554 1.413h-1.446c0-.9.328-1.648.985-2.242.661-.599 1.5-.898 2.515-.898 1.073 0 1.914.284 2.524.851.609.568.914 1.357.914 2.368 0 .494-.162.974-.485 1.437-.317.463-.752.81-1.304 1.04.625.197 1.107.525 1.445.983.344.459.516 1.019.516 1.68 0 1.021-.334 1.83-1 2.43-.667.599-1.534.898-2.602.898-1.068 0-1.937-.289-2.609-.867-.667-.578-1-1.341-1-2.289h1.453c0 .599.195 1.078.586 1.438.39.359.914.539 1.57.539.698 0 1.232-.183 1.602-.547.369-.365.554-.888.554-1.57 0-.662-.203-1.17-.609-1.524-.406-.354-.992-.537-1.758-.547h-1.086v-1.18zm12.985 2.57h1.578v1.18h-1.578V99h-1.454v-2.64h-5.179v-.852l5.094-7.883h1.539v7.555zm-4.993 0h3.539v-5.578l-.171.312-3.368 5.266zM442.695 134h-1.453v-9.633l-2.914 1.071v-1.313l4.141-1.555h.226V134zm11.367-4.852c0 1.693-.289 2.951-.867 3.774-.578.823-1.481 1.234-2.711 1.234-1.213 0-2.112-.401-2.695-1.203-.583-.807-.885-2.01-.906-3.609v-1.93c0-1.672.289-2.914.867-3.726.578-.813 1.484-1.219 2.719-1.219 1.224 0 2.125.393 2.703 1.179.578.782.875 1.99.89 3.625v1.875zm-1.445-1.976c0-1.224-.172-2.115-.515-2.672-.344-.562-.888-.844-1.633-.844-.74 0-1.279.279-1.617.836-.339.557-.513 1.414-.524 2.57v2.313c0 1.229.177 2.138.531 2.727.36.583.901.875 1.625.875.714 0 1.243-.276 1.586-.829.349-.552.532-1.421.547-2.609v-2.367zM555.398 65h-7.453v-1.04l3.938-4.374c.583-.661.984-1.198 1.203-1.61a2.69 2.69 0 00.336-1.288c0-.594-.18-1.081-.539-1.461-.36-.38-.839-.57-1.438-.57-.718 0-1.278.205-1.679.616-.396.407-.594.974-.594 1.704h-1.445c0-1.047.335-1.894 1.007-2.54.677-.645 1.581-.968 2.711-.968 1.058 0 1.894.278 2.508.836.615.552.922 1.289.922 2.21 0 1.12-.714 2.454-2.141 4l-3.046 3.305h5.71V65zm-1.351 30.18h1.578v1.18h-1.578V99h-1.453v-2.64h-5.18v-.852l5.094-7.883h1.539v7.555zm-4.992 0h3.539v-5.578l-.172.312-3.367 5.266zm15.007-1.032c0 1.693-.289 2.951-.867 3.774-.578.823-1.481 1.234-2.711 1.234-1.213 0-2.112-.4-2.695-1.203-.583-.807-.885-2.01-.906-3.61v-1.929c0-1.672.289-2.914.867-3.727.578-.812 1.484-1.218 2.719-1.218 1.224 0 2.125.393 2.703 1.18.578.78.875 1.989.89 3.624v1.875zm-1.445-1.976c0-1.224-.172-2.115-.515-2.672-.344-.563-.888-.844-1.633-.844-.74 0-1.279.279-1.617.836-.339.557-.513 1.414-.524 2.57v2.313c0 1.23.177 2.138.531 2.727.36.583.901.875 1.625.875.714 0 1.243-.276 1.586-.829.349-.552.532-1.421.547-2.609v-2.367zM552.695 134h-1.453v-9.633l-2.914 1.071v-1.313l4.141-1.555h.226V134zm11.367-4.852c0 1.693-.289 2.951-.867 3.774-.578.823-1.481 1.234-2.711 1.234-1.213 0-2.112-.401-2.695-1.203-.583-.807-.885-2.01-.906-3.609v-1.93c0-1.672.289-2.914.867-3.726.578-.813 1.484-1.219 2.719-1.219 1.224 0 2.125.393 2.703 1.179.578.782.875 1.99.89 3.625v1.875zm-1.445-1.976c0-1.224-.172-2.115-.515-2.672-.344-.562-.888-.844-1.633-.844-.74 0-1.279.279-1.617.836-.339.557-.513 1.414-.524 2.57v2.313c0 1.229.177 2.138.531 2.727.36.583.901.875 1.625.875.714 0 1.243-.276 1.586-.829.349-.552.532-1.421.547-2.609v-2.367z" fill="#000"/><path d="M389 0H277a4 4 0 00-4 4v26a4 4 0 004 4h112a4 4 0 004-4V4a4 4 0 00-4-4z" fill="#C4C4C4" fill-opacity=".5"/><path d="M367.5 11l8.227 9h-16.454l8.227-9z" fill="#151515"/><path d="M308.828 9.203v8.429c0 1.4-.439 2.508-1.318 3.322-.873.815-2.069 1.222-3.586 1.222-1.494 0-2.681-.396-3.56-1.187-.879-.79-1.327-1.878-1.344-3.26V9.203h2.636v8.446c0 .838.199 1.45.598 1.837.404.381.961.572 1.67.572 1.482 0 2.235-.78 2.259-2.338V9.203h2.645zm7.146 10.17c0-.312-.156-.555-.466-.73-.305-.182-.797-.343-1.477-.484-2.261-.474-3.392-1.435-3.392-2.883 0-.843.348-1.546 1.046-2.109.703-.568 1.62-.852 2.751-.852 1.207 0 2.17.284 2.891.852.727.568 1.09 1.307 1.09 2.215h-2.54c0-.363-.117-.662-.352-.897-.234-.24-.6-.36-1.098-.36-.428 0-.759.097-.993.29a.914.914 0 00-.352.738c0 .282.132.51.396.686.269.17.72.32 1.353.448a10.72 10.72 0 011.6.422c1.341.492 2.012 1.345 2.012 2.558 0 .867-.372 1.57-1.116 2.109-.744.533-1.705.8-2.883.8-.797 0-1.506-.14-2.127-.422-.615-.287-1.098-.677-1.45-1.169a2.74 2.74 0 01-.527-1.608h2.408c.023.45.19.796.501 1.037.311.24.727.36 1.248.36.486 0 .853-.09 1.099-.272a.87.87 0 00.378-.73zm8.49 2.803c-1.395 0-2.531-.428-3.41-1.283-.873-.856-1.31-1.995-1.31-3.42v-.245c0-.956.185-1.808.554-2.558.369-.756.89-1.336 1.564-1.74.68-.41 1.453-.615 2.321-.615 1.3 0 2.323.41 3.067 1.23.75.82 1.125 1.983 1.125 3.49v1.036h-6.056c.082.621.328 1.12.739 1.494.416.375.94.563 1.573.563.978 0 1.743-.355 2.294-1.064l1.248 1.398c-.381.539-.897.96-1.547 1.265-.65.3-1.371.449-2.162.449zm-.29-7.805c-.504 0-.914.17-1.231.51-.31.34-.509.826-.597 1.459h3.533v-.202c-.012-.563-.164-.996-.457-1.301-.293-.31-.709-.466-1.248-.466zm10.995.501a6.895 6.895 0 00-.914-.07c-.961 0-1.591.325-1.89.975V22h-2.54v-9.51h2.4l.07 1.134c.51-.873 1.216-1.31 2.118-1.31.281 0 .545.038.791.115l-.035 2.443zm6.381 4.5c0-.31-.155-.554-.466-.73-.305-.181-.797-.342-1.477-.483-2.261-.474-3.392-1.435-3.392-2.883 0-.843.348-1.546 1.046-2.109.703-.568 1.62-.852 2.751-.852 1.207 0 2.171.284 2.891.852.727.568 1.09 1.307 1.09 2.215h-2.54c0-.363-.117-.662-.351-.897-.235-.24-.601-.36-1.099-.36-.428 0-.759.097-.993.29a.914.914 0 00-.352.738c0 .282.132.51.396.686.269.17.72.32 1.353.448a10.72 10.72 0 011.6.422c1.342.492 2.013 1.345 2.013 2.558 0 .867-.373 1.57-1.117 2.109-.744.533-1.705.8-2.882.8-.797 0-1.506-.14-2.127-.422-.616-.287-1.099-.677-1.451-1.169a2.74 2.74 0 01-.527-1.608h2.408c.024.45.191.796.501 1.037.311.24.727.36 1.248.36.487 0 .853-.09 1.099-.272a.87.87 0 00.378-.73zm103.817-.009h-4.623L439.865 22h-2.803l4.763-12.797h2.444L449.059 22h-2.804l-.888-2.637zm-3.911-2.136h3.199l-1.608-4.79-1.591 4.79zm13.781 2.145c0-.31-.155-.554-.466-.73-.304-.181-.796-.342-1.476-.483-2.262-.474-3.393-1.435-3.393-2.883 0-.843.349-1.546 1.046-2.109.703-.568 1.62-.852 2.751-.852 1.207 0 2.171.284 2.892.852.726.568 1.09 1.307 1.09 2.215h-2.54c0-.363-.118-.662-.352-.897-.234-.24-.601-.36-1.099-.36-.427 0-.758.097-.993.29a.916.916 0 00-.351.738c0 .282.132.51.395.686.27.17.721.32 1.354.448a10.67 10.67 0 011.599.422c1.342.492 2.013 1.345 2.013 2.558 0 .867-.372 1.57-1.116 2.109-.744.533-1.705.8-2.883.8-.797 0-1.506-.14-2.127-.422-.615-.287-1.099-.677-1.45-1.169a2.732 2.732 0 01-.527-1.608h2.408c.023.45.19.796.501 1.037.31.24.726.36 1.248.36.486 0 .852-.09 1.098-.272a.87.87 0 00.378-.73zm9.264 0c0-.31-.155-.554-.466-.73-.305-.181-.797-.342-1.476-.483-2.262-.474-3.393-1.435-3.393-2.883 0-.843.349-1.546 1.046-2.109.703-.568 1.62-.852 2.751-.852 1.207 0 2.171.284 2.891.852.727.568 1.09 1.307 1.09 2.215h-2.54c0-.363-.117-.662-.351-.897-.235-.24-.601-.36-1.099-.36-.428 0-.759.097-.993.29a.917.917 0 00-.352.738c0 .282.132.51.396.686.269.17.721.32 1.353.448a10.72 10.72 0 011.6.422c1.342.492 2.013 1.345 2.013 2.558 0 .867-.372 1.57-1.117 2.109-.744.533-1.705.8-2.882.8-.797 0-1.506-.14-2.127-.422-.616-.287-1.099-.677-1.45-1.169a2.733 2.733 0 01-.528-1.608h2.408c.024.45.191.796.501 1.037.311.24.727.36 1.248.36.487 0 .853-.09 1.099-.272a.87.87 0 00.378-.73zm8.49 2.804c-1.394 0-2.531-.428-3.41-1.283-.873-.856-1.31-1.995-1.31-3.42v-.245c0-.956.185-1.808.554-2.558.369-.756.891-1.336 1.565-1.74.679-.41 1.453-.615 2.32-.615 1.301 0 2.323.41 3.067 1.23.75.82 1.125 1.983 1.125 3.49v1.036h-6.055c.082.621.328 1.12.738 1.494.416.375.94.563 1.573.563.979 0 1.743-.355 2.294-1.064l1.248 1.398c-.381.539-.896.96-1.547 1.265-.65.3-1.371.449-2.162.449zm-.29-7.805c-.504 0-.914.17-1.23.51-.311.34-.51.826-.598 1.459h3.533v-.202c-.011-.563-.164-.996-.457-1.301-.293-.31-.709-.466-1.248-.466zm8.693-4.219v2.338h1.626v1.864h-1.626V19.1c0 .351.067.603.202.755.134.153.392.229.773.229.281 0 .53-.02.747-.061v1.924a5.231 5.231 0 01-1.538.229c-1.781 0-2.689-.9-2.724-2.698v-5.125h-1.389V12.49h1.389v-2.338h2.54zm8.191 9.22c0-.31-.155-.554-.466-.73-.305-.181-.797-.342-1.476-.483-2.262-.474-3.393-1.435-3.393-2.883 0-.843.349-1.546 1.046-2.109.703-.568 1.62-.852 2.751-.852 1.207 0 2.171.284 2.891.852.727.568 1.09 1.307 1.09 2.215h-2.54c0-.363-.117-.662-.351-.897-.235-.24-.601-.36-1.099-.36-.428 0-.759.097-.993.29a.917.917 0 00-.352.738c0 .282.132.51.396.686.269.17.721.32 1.353.448a10.72 10.72 0 011.6.422c1.342.492 2.013 1.345 2.013 2.558 0 .867-.372 1.57-1.117 2.109-.744.533-1.705.8-2.882.8-.797 0-1.506-.14-2.127-.422-.616-.287-1.099-.677-1.45-1.169a2.733 2.733 0 01-.528-1.608h2.408c.024.45.191.796.501 1.037.311.24.727.36 1.248.36.487 0 .853-.09 1.099-.272a.87.87 0 00.378-.73zm65.782-.009h-4.623L549.865 22h-2.803l4.763-12.797h2.444L559.059 22h-2.804l-.888-2.637zm-3.911-2.136h3.199l-1.608-4.79-1.591 4.79zm13.781 2.145c0-.31-.155-.554-.466-.73-.304-.181-.796-.342-1.476-.483-2.262-.474-3.393-1.435-3.393-2.883 0-.843.349-1.546 1.046-2.109.703-.568 1.62-.852 2.751-.852 1.207 0 2.171.284 2.892.852.726.568 1.09 1.307 1.09 2.215h-2.54c0-.363-.118-.662-.352-.897-.234-.24-.601-.36-1.099-.36-.427 0-.758.097-.993.29a.916.916 0 00-.351.738c0 .282.132.51.395.686.27.17.721.32 1.354.448a10.67 10.67 0 011.599.422c1.342.492 2.013 1.345 2.013 2.558 0 .867-.372 1.57-1.116 2.109-.744.533-1.705.8-2.883.8-.797 0-1.506-.14-2.127-.422-.615-.287-1.099-.677-1.45-1.169a2.732 2.732 0 01-.527-1.608h2.408c.023.45.19.796.501 1.037.31.24.726.36 1.248.36.486 0 .852-.09 1.098-.272a.87.87 0 00.378-.73zm9.264 0c0-.31-.155-.554-.466-.73-.305-.181-.797-.342-1.476-.483-2.262-.474-3.393-1.435-3.393-2.883 0-.843.349-1.546 1.046-2.109.703-.568 1.62-.852 2.751-.852 1.207 0 2.171.284 2.891.852.727.568 1.09 1.307 1.09 2.215h-2.54c0-.363-.117-.662-.351-.897-.235-.24-.601-.36-1.099-.36-.428 0-.759.097-.993.29a.917.917 0 00-.352.738c0 .282.132.51.396.686.269.17.721.32 1.353.448a10.72 10.72 0 011.6.422c1.342.492 2.013 1.345 2.013 2.558 0 .867-.372 1.57-1.117 2.109-.744.533-1.705.8-2.882.8-.797 0-1.506-.14-2.127-.422-.616-.287-1.099-.677-1.45-1.169a2.733 2.733 0 01-.528-1.608h2.408c.024.45.191.796.501 1.037.311.24.727.36 1.248.36.487 0 .853-.09 1.099-.272a.87.87 0 00.378-.73zm8.49 2.804c-1.394 0-2.531-.428-3.41-1.283-.873-.856-1.31-1.995-1.31-3.42v-.245c0-.956.185-1.808.554-2.558.369-.756.891-1.336 1.565-1.74.679-.41 1.453-.615 2.32-.615 1.301 0 2.323.41 3.067 1.23.75.82 1.125 1.983 1.125 3.49v1.036h-6.055c.082.621.328 1.12.738 1.494.416.375.94.563 1.573.563.979 0 1.743-.355 2.294-1.064l1.248 1.398c-.381.539-.896.96-1.547 1.265-.65.3-1.371.449-2.162.449zm-.29-7.805c-.504 0-.914.17-1.23.51-.311.34-.51.826-.598 1.459h3.533v-.202c-.011-.563-.164-.996-.457-1.301-.293-.31-.709-.466-1.248-.466zm8.693-4.219v2.338h1.626v1.864h-1.626V19.1c0 .351.067.603.202.755.134.153.392.229.773.229.281 0 .53-.02.747-.061v1.924a5.231 5.231 0 01-1.538.229c-1.781 0-2.689-.9-2.724-2.698v-5.125h-1.389V12.49h1.389v-2.338h2.54zm8.191 9.22c0-.31-.155-.554-.466-.73-.305-.181-.797-.342-1.476-.483-2.262-.474-3.393-1.435-3.393-2.883 0-.843.349-1.546 1.046-2.109.703-.568 1.62-.852 2.751-.852 1.207 0 2.171.284 2.891.852.727.568 1.09 1.307 1.09 2.215h-2.54c0-.363-.117-.662-.351-.897-.235-.24-.601-.36-1.099-.36-.428 0-.759.097-.993.29a.917.917 0 00-.352.738c0 .282.132.51.396.686.269.17.721.32 1.353.448a10.72 10.72 0 011.6.422c1.342.492 2.013 1.345 2.013 2.558 0 .867-.372 1.57-1.117 2.109-.744.533-1.705.8-2.882.8-.797 0-1.506-.14-2.127-.422-.616-.287-1.099-.677-1.45-1.169a2.733 2.733 0 01-.528-1.608h2.408c.024.45.191.796.501 1.037.311.24.727.36 1.248.36.487 0 .853-.09 1.099-.272a.87.87 0 00.378-.73zm16.866-.826l1.248-6.056h2.452L617.726 22h-2.127l-1.802-5.985L611.995 22h-2.118l-2.426-9.51h2.452l1.24 6.047 1.74-6.047h1.837l1.731 6.056zM624.098 22h-2.549v-9.51h2.549V22zm-2.699-11.97c0-.382.126-.695.378-.941.258-.246.607-.37 1.046-.37.434 0 .78.124 1.037.37.258.246.387.56.387.94 0 .387-.132.703-.395.95-.258.246-.601.369-1.029.369-.427 0-.773-.123-1.037-.37-.258-.246-.387-.562-.387-.949zm7.84.122v2.338h1.626v1.864h-1.626V19.1c0 .351.068.603.202.755.135.153.393.229.774.229.281 0 .53-.02.747-.061v1.924a5.231 5.231 0 01-1.538.229c-1.781 0-2.69-.9-2.725-2.698v-5.125h-1.388V12.49h1.388v-2.338h2.54zm5.52 3.375c.674-.808 1.52-1.212 2.54-1.212 2.062 0 3.108 1.198 3.138 3.594V22h-2.541v-6.02c0-.545-.117-.947-.351-1.205-.234-.263-.624-.395-1.169-.395-.744 0-1.283.287-1.617.861V22h-2.54V8.5h2.54v5.027zm14.458-1.037l.079 1.064c.674-.827 1.585-1.24 2.733-1.24 1.225 0 2.066.484 2.523 1.45.668-.966 1.62-1.45 2.856-1.45 1.031 0 1.799.302 2.303.906.504.597.756 1.5.756 2.707V22h-2.549v-6.065c0-.539-.106-.931-.316-1.177-.211-.252-.583-.378-1.117-.378-.761 0-1.289.363-1.582 1.09l.009 6.53h-2.54v-6.056c0-.55-.108-.949-.325-1.195-.217-.246-.586-.37-1.108-.37-.72 0-1.242.3-1.564.897V22h-2.54v-9.51h2.382zm12.814 4.667c0-.943.182-1.784.545-2.522a3.995 3.995 0 011.565-1.714c.685-.404 1.479-.606 2.381-.606 1.284 0 2.33.392 3.138 1.177.815.785 1.269 1.852 1.362 3.2l.018.65c0 1.459-.407 2.63-1.222 3.515-.814.88-1.907 1.319-3.278 1.319s-2.467-.44-3.287-1.319c-.815-.878-1.222-2.074-1.222-3.585v-.115zm2.54.185c0 .902.17 1.594.51 2.074.34.475.826.712 1.459.712.615 0 1.096-.234 1.441-.703.346-.475.519-1.23.519-2.268 0-.884-.173-1.57-.519-2.056-.345-.487-.832-.73-1.459-.73-.621 0-1.101.243-1.441.73-.34.48-.51 1.227-.51 2.24zm7.638-.167c0-1.483.331-2.663.993-3.542.668-.88 1.579-1.318 2.734-1.318.925 0 1.69.345 2.293 1.037V8.5h2.549V22h-2.294l-.123-1.01c-.632.79-1.447 1.186-2.443 1.186-1.119 0-2.019-.44-2.698-1.319-.674-.884-1.011-2.112-1.011-3.682zm2.54.184c0 .891.155 1.574.466 2.048.31.475.762.712 1.353.712.786 0 1.339-.33 1.661-.993v-3.753c-.316-.662-.864-.993-1.643-.993-1.225 0-1.837.993-1.837 2.98zm13.693 3.674c-.627.762-1.494 1.143-2.601 1.143-1.02 0-1.799-.293-2.338-.88-.533-.585-.806-1.444-.817-2.574V12.49h2.54v6.144c0 .99.451 1.485 1.353 1.485.861 0 1.453-.299 1.775-.896V12.49h2.549V22h-2.39l-.071-.967zM695.5 22h-2.549V8.5h2.549V22zm6.478.176c-1.395 0-2.532-.428-3.411-1.283-.873-.856-1.309-1.995-1.309-3.42v-.245c0-.956.184-1.808.554-2.558.369-.756.89-1.336 1.564-1.74.68-.41 1.453-.615 2.32-.615 1.301 0 2.324.41 3.068 1.23.75.82 1.125 1.983 1.125 3.49v1.036h-6.056c.082.621.328 1.12.738 1.494.416.375.941.563 1.574.563.978 0 1.743-.355 2.293-1.064l1.249 1.398c-.381.539-.897.96-1.547 1.265-.651.3-1.371.449-2.162.449zm-.29-7.805c-.504 0-.915.17-1.231.51-.311.34-.51.826-.598 1.459h3.534v-.202c-.012-.563-.164-.996-.457-1.301-.293-.31-.709-.466-1.248-.466zm10.801 5.001c0-.31-.155-.554-.466-.73-.304-.181-.796-.342-1.476-.483-2.262-.474-3.393-1.435-3.393-2.883 0-.843.349-1.546 1.046-2.109.703-.568 1.62-.852 2.751-.852 1.207 0 2.171.284 2.892.852.726.568 1.09 1.307 1.09 2.215h-2.54c0-.363-.118-.662-.352-.897-.234-.24-.601-.36-1.099-.36-.427 0-.758.097-.993.29a.916.916 0 00-.351.738c0 .282.131.51.395.686.27.17.721.32 1.354.448.632.123 1.166.264 1.599.422 1.342.492 2.013 1.345 2.013 2.558 0 .867-.372 1.57-1.116 2.109-.744.533-1.705.8-2.883.8-.797 0-1.506-.14-2.127-.422-.615-.287-1.099-.677-1.45-1.169a2.733 2.733 0 01-.528-1.608h2.409c.023.45.19.796.501 1.037.31.24.726.36 1.248.36.486 0 .852-.09 1.098-.272a.87.87 0 00.378-.73zM5.531 88.633L1.766 99H.226l4.337-11.375h.992l-.024 1.008zM8.688 99L4.913 88.633l-.023-1.008h.992L10.234 99H8.688zm-.196-4.21v1.233h-6.39V94.79h6.39zM13.11 87v12h-1.453V87h1.453zm3.766 5.172v10.078h-1.453V90.547h1.328l.125 1.625zm5.695 2.531v.164c0 .615-.073 1.185-.218 1.711-.146.521-.36.974-.641 1.36a2.913 2.913 0 01-1.023.898c-.407.213-.873.32-1.399.32-.536 0-1.01-.088-1.422-.265a2.805 2.805 0 01-1.047-.774 3.953 3.953 0 01-.687-1.219 7.051 7.051 0 01-.344-1.601v-.875c.063-.625.18-1.185.352-1.68.172-.495.398-.916.68-1.265a2.79 2.79 0 011.038-.805c.407-.188.875-.281 1.407-.281.53 0 1.002.104 1.414.312.411.203.758.495 1.039.875a4 4 0 01.633 1.367 6.61 6.61 0 01.218 1.758zm-1.453.164v-.164c0-.422-.044-.818-.133-1.187a3.002 3.002 0 00-.414-.985 1.973 1.973 0 00-.703-.672c-.286-.166-.627-.25-1.023-.25a2.25 2.25 0 00-.953.188 2.06 2.06 0 00-.68.508 2.695 2.695 0 00-.461.718 4.13 4.13 0 00-.258.829v2.023c.104.365.25.708.438 1.031.187.318.437.576.75.774.312.192.705.289 1.18.289.39 0 .726-.081 1.007-.242.287-.167.521-.394.703-.68a3.1 3.1 0 00.414-.984c.089-.376.133-.774.133-1.196zM25.86 87v12h-1.445V87h1.445zm-.343 7.453l-.602-.023a5.084 5.084 0 01.258-1.602c.166-.495.4-.924.703-1.289a3.133 3.133 0 012.477-1.148c.416 0 .791.057 1.125.171.333.11.617.287.851.532.24.245.422.562.547.953.125.385.188.857.188 1.414V99H29.61v-5.555c0-.442-.065-.797-.195-1.062a1.2 1.2 0 00-.57-.586c-.25-.125-.558-.188-.922-.188-.36 0-.688.076-.985.227a2.36 2.36 0 00-.757.625c-.209.266-.373.57-.492.914a3.34 3.34 0 00-.172 1.078zm12.695 3.102v-4.352a1.77 1.77 0 00-.203-.867 1.33 1.33 0 00-.594-.578c-.266-.136-.594-.203-.984-.203-.365 0-.685.062-.961.187a1.67 1.67 0 00-.64.492 1.078 1.078 0 00-.227.657h-1.446c0-.303.078-.602.235-.899.156-.297.38-.565.672-.805a3.358 3.358 0 011.062-.578 4.21 4.21 0 011.39-.218c.615 0 1.157.104 1.626.312.474.209.843.524 1.109.945.27.417.406.94.406 1.57v3.938c0 .281.024.581.07.899.053.317.128.59.227.82V99h-1.508a2.702 2.702 0 01-.172-.664 5.364 5.364 0 01-.062-.781zm.25-3.68l.016 1.016h-1.461a5.38 5.38 0 00-1.102.101 2.518 2.518 0 00-.812.29c-.22.13-.386.294-.5.491-.115.193-.172.42-.172.68 0 .266.06.508.18.727.12.218.299.393.538.523.245.125.545.188.899.188a2.38 2.38 0 001.172-.282 2.44 2.44 0 00.804-.687c.204-.271.313-.534.329-.79l.617.696a2.1 2.1 0 01-.297.727 3.5 3.5 0 01-1.602 1.367 3.106 3.106 0 01-1.234.234c-.573 0-1.076-.112-1.508-.336a2.578 2.578 0 01-1-.898 2.379 2.379 0 01-.351-1.274c0-.453.088-.851.265-1.195.177-.349.433-.638.766-.867a3.64 3.64 0 011.203-.531c.469-.12.992-.18 1.57-.18h1.68zm14.523 1.508h1.5a4.786 4.786 0 01-.617 1.93 3.608 3.608 0 01-1.414 1.351c-.61.328-1.37.492-2.281.492a4.327 4.327 0 01-1.82-.375 4.046 4.046 0 01-1.399-1.062 4.973 4.973 0 01-.906-1.664c-.208-.651-.313-1.375-.313-2.172V92.75c0-.797.105-1.518.313-2.164a4.885 4.885 0 01.914-1.672c.401-.463.883-.82 1.445-1.07.563-.25 1.196-.375 1.899-.375.86 0 1.586.161 2.18.484a3.47 3.47 0 011.382 1.344c.334.568.54 1.226.617 1.976h-1.5c-.073-.53-.208-.986-.406-1.367a2.112 2.112 0 00-.844-.89c-.364-.209-.84-.313-1.43-.313-.505 0-.95.096-1.335.29-.38.192-.7.465-.961.82a3.818 3.818 0 00-.578 1.273 6.476 6.476 0 00-.196 1.648v1.149c0 .557.058 1.08.172 1.57.12.49.3.92.54 1.29.239.369.544.66.913.874.37.209.808.313 1.313.313.64 0 1.15-.102 1.531-.305.38-.203.667-.495.86-.875.197-.38.338-.836.421-1.367zm2.953-.516v-.18c0-.609.089-1.174.266-1.695.177-.526.432-.982.766-1.367.333-.39.737-.693 1.21-.906a3.758 3.758 0 011.594-.328c.594 0 1.128.109 1.602.328.48.213.885.515 1.219.906.338.385.596.841.773 1.367.177.521.266 1.086.266 1.695v.18c0 .61-.089 1.175-.266 1.695a4.069 4.069 0 01-.773 1.368 3.543 3.543 0 01-1.211.906c-.469.213-1 .32-1.594.32a3.857 3.857 0 01-1.602-.32 3.622 3.622 0 01-1.218-.906 4.129 4.129 0 01-.766-1.368 5.234 5.234 0 01-.266-1.695zm1.446-.18v.18c0 .422.05.82.148 1.195.1.37.248.698.446.985.203.286.455.513.757.68a2.21 2.21 0 001.055.242c.396 0 .742-.081 1.04-.242a2.21 2.21 0 00.75-.68c.197-.287.346-.615.444-.984.105-.376.157-.774.157-1.196v-.18c0-.416-.052-.81-.157-1.18a3.038 3.038 0 00-.453-.991 2.154 2.154 0 00-.75-.688 2.105 2.105 0 00-1.047-.25c-.395 0-.744.084-1.046.25a2.249 2.249 0 00-.75.688 3.137 3.137 0 00-.446.992 4.55 4.55 0 00-.148 1.18zm9.508-2.812V99h-1.446v-8.453h1.407l.039 1.328zm2.64-1.375l-.008 1.344a2.08 2.08 0 00-.343-.047 3.658 3.658 0 00-.36-.016c-.333 0-.627.052-.882.156a1.83 1.83 0 00-.649.438 2.106 2.106 0 00-.422.672 3.225 3.225 0 00-.195.844l-.406.234c0-.51.05-.99.148-1.438.104-.447.263-.843.477-1.187.213-.349.484-.62.812-.813.334-.197.73-.296 1.188-.296.104 0 .224.013.359.039.135.02.23.044.281.07zm2.781 1.672v10.078H70.86V90.547h1.329l.124 1.625zm5.696 2.531v.164c0 .615-.073 1.185-.219 1.711-.146.521-.36.974-.64 1.36a2.914 2.914 0 01-1.024.898c-.406.213-.872.32-1.398.32-.537 0-1.01-.088-1.422-.265a2.805 2.805 0 01-1.047-.774 3.953 3.953 0 01-.688-1.219 7.051 7.051 0 01-.343-1.601v-.875a7.35 7.35 0 01.351-1.68c.172-.495.399-.916.68-1.265a2.79 2.79 0 011.039-.805c.406-.188.875-.281 1.406-.281.531 0 1.003.104 1.414.312a2.85 2.85 0 011.04.875c.28.38.491.836.632 1.367.146.526.219 1.112.219 1.758zm-1.453.164v-.164c0-.422-.045-.818-.133-1.187a3.002 3.002 0 00-.414-.985 1.973 1.973 0 00-.703-.672c-.287-.166-.628-.25-1.024-.25-.364 0-.682.063-.953.188a2.06 2.06 0 00-.68.508 2.695 2.695 0 00-.46.718 4.13 4.13 0 00-.258.829v2.023c.104.365.25.708.437 1.031.188.318.438.576.75.774.313.192.706.289 1.18.289.39 0 .726-.081 1.008-.242.286-.167.52-.394.703-.68a3.1 3.1 0 00.414-.984 5.23 5.23 0 00.133-1.196z" fill="#000"/></svg>