<svg width="365" height="219" fill="none" xmlns="http://www.w3.org/2000/svg"><rect width="220" height="34" rx="4" fill="#C4C4C4" fill-opacity=".5"/><path d="M273.695 66h-1.453v-9.633l-2.914 1.07v-1.312l4.141-1.555h.226V66zm10.336-3.82h1.578v1.18h-1.578V66h-1.453v-2.64h-5.18v-.852l5.094-7.883h1.539v7.555zm-4.992 0h3.539v-5.578l-.172.312-3.367 5.266zm-244.266.234l.22 1.5.32-1.352 2.25-7.937h1.265l2.195 7.938.313 1.374.242-1.53 1.766-7.782h1.508L42.094 66h-1.367l-2.344-8.29-.18-.866-.18.867L35.593 66h-1.366l-2.75-11.375h1.5l1.796 7.79zM47.867 66h-1.445v-8.453h1.445V66zm-1.562-10.695c0-.235.07-.433.21-.594.146-.161.36-.242.641-.242.282 0 .495.08.64.242a.85.85 0 01.22.594c0 .234-.073.43-.22.586-.145.156-.358.234-.64.234-.281 0-.495-.078-.64-.234a.843.843 0 01-.211-.586zm5.25 2.242l.047 1.062c.645-.812 1.49-1.218 2.53-1.218 1.787 0 2.688 1.007 2.704 3.023V66H55.39v-5.594c-.006-.61-.146-1.06-.422-1.351-.271-.292-.696-.438-1.274-.438-.468 0-.88.125-1.234.375s-.63.578-.828.985V66h-1.446v-8.453h1.368zm9.82 4.539l-.906.945V66h-1.446V54h1.446v7.258l.773-.93 2.633-2.781h1.758l-3.29 3.531L66.017 66H64.32l-2.945-3.914zm9.102 4.07c-1.146 0-2.079-.375-2.797-1.125-.72-.755-1.078-1.763-1.078-3.023v-.266c0-.838.158-1.586.476-2.242.323-.661.771-1.177 1.344-1.547a3.38 3.38 0 011.875-.562c1.099 0 1.953.362 2.562 1.086.61.724.914 1.76.914 3.109v.602h-5.726c.02.833.263 1.507.726 2.023.47.51 1.063.766 1.782.766.51 0 .942-.105 1.297-.313a3.26 3.26 0 00.93-.828l.882.687c-.708 1.089-1.77 1.633-3.187 1.633zm-.18-7.578c-.584 0-1.073.214-1.469.64-.396.423-.64 1.016-.734 1.782h4.234v-.11c-.041-.734-.24-1.301-.594-1.703-.354-.406-.833-.609-1.437-.609zM77.023 66h-1.445V54h1.445v12zm7.243-2.242c0-.39-.149-.693-.446-.906-.291-.22-.804-.407-1.539-.563-.729-.156-1.31-.344-1.742-.562-.427-.22-.745-.48-.953-.782-.203-.302-.305-.661-.305-1.078 0-.692.292-1.278.875-1.758.589-.479 1.339-.718 2.25-.718.959 0 1.735.247 2.328.742.6.495.899 1.127.899 1.898H84.18c0-.396-.17-.737-.508-1.023-.334-.287-.755-.43-1.266-.43-.526 0-.937.115-1.234.344a1.081 1.081 0 00-.445.898c0 .35.138.612.414.79.276.176.773.346 1.492.507.724.162 1.31.354 1.758.578.447.224.778.495.992.813.219.312.328.695.328 1.148 0 .756-.302 1.362-.906 1.82-.605.454-1.388.68-2.352.68-.677 0-1.276-.12-1.797-.36-.52-.239-.93-.572-1.226-1a2.453 2.453 0 01-.438-1.398h1.445c.026.485.22.87.579 1.157.364.28.843.422 1.437.422.547 0 .984-.11 1.313-.329.333-.224.5-.52.5-.89zm6.718 1.219a2.08 2.08 0 001.352-.47c.385-.312.599-.702.64-1.171h1.368a2.623 2.623 0 01-.5 1.383 3.287 3.287 0 01-1.235 1.047 3.53 3.53 0 01-1.625.39c-1.15 0-2.067-.383-2.75-1.148-.677-.771-1.015-1.823-1.015-3.156v-.243c0-.823.15-1.554.453-2.195a3.459 3.459 0 011.297-1.492c.568-.354 1.237-.531 2.008-.531.947 0 1.734.284 2.359.851.63.568.966 1.305 1.008 2.211h-1.367c-.042-.547-.25-.995-.625-1.344-.37-.354-.829-.53-1.375-.53-.735 0-1.305.265-1.711.796-.401.526-.602 1.29-.602 2.29v.273c0 .973.2 1.723.602 2.25.4.525.974.789 1.718.789zm6.43-6.407c.64-.786 1.474-1.18 2.5-1.18 1.787 0 2.688 1.008 2.703 3.024V66h-1.445v-5.594c-.005-.61-.146-1.06-.422-1.351-.271-.292-.695-.438-1.273-.438-.47 0-.88.125-1.235.375-.354.25-.63.578-.828.985V66H95.97V54h1.445v4.57zm8.938 7.43h-1.446V54h1.446v12zm5.828.156c-1.146 0-2.078-.375-2.797-1.125-.719-.755-1.078-1.763-1.078-3.023v-.266c0-.838.159-1.586.476-2.242.323-.661.771-1.177 1.344-1.547a3.38 3.38 0 011.875-.562c1.099 0 1.953.362 2.562 1.086.61.724.915 1.76.915 3.109v.602h-5.727c.021.833.263 1.507.727 2.023.468.51 1.062.766 1.781.766.51 0 .943-.105 1.297-.313a3.25 3.25 0 00.929-.828l.883.687c-.708 1.089-1.771 1.633-3.187 1.633zm-.18-7.578c-.583 0-1.073.214-1.469.64-.396.423-.64 1.016-.734 1.782h4.234v-.11c-.041-.734-.239-1.301-.593-1.703-.355-.406-.834-.609-1.438-.609zM118.727 66h-1.446v-8.453h1.446V66zm-1.563-10.695a.87.87 0 01.211-.594c.146-.161.359-.242.641-.242.281 0 .494.08.64.242.146.161.219.36.219.594 0 .234-.073.43-.219.586-.146.156-.359.234-.64.234-.282 0-.495-.078-.641-.234a.841.841 0 01-.211-.586zM121.758 66v-7.336h-1.336v-1.117h1.336v-.867c0-.907.242-1.607.726-2.102.485-.495 1.17-.742 2.055-.742.333 0 .664.044.992.133l-.078 1.172a4.156 4.156 0 00-.781-.07c-.469 0-.831.137-1.086.413-.255.271-.383.662-.383 1.172v.89h1.805v1.118h-1.805V66h-1.445zm8.172.156c-1.146 0-2.078-.375-2.797-1.125-.719-.755-1.078-1.763-1.078-3.023v-.266c0-.838.159-1.586.476-2.242.323-.661.771-1.177 1.344-1.547a3.38 3.38 0 011.875-.562c1.099 0 1.953.362 2.562 1.086.61.724.915 1.76.915 3.109v.602H127.5c.021.833.263 1.507.727 2.023.468.51 1.062.766 1.781.766.51 0 .943-.105 1.297-.313a3.25 3.25 0 00.929-.828l.883.687c-.708 1.089-1.771 1.633-3.187 1.633zm-.18-7.578c-.583 0-1.073.214-1.469.64-.396.423-.64 1.016-.734 1.782h4.234v-.11c-.041-.734-.239-1.301-.593-1.703-.355-.406-.834-.609-1.438-.609zm9.242.266a4.331 4.331 0 00-.711-.055c-.948 0-1.591.404-1.929 1.211v6h-1.446v-8.453h1.406l.024.976c.474-.755 1.146-1.132 2.016-1.132.281 0 .494.036.64.109v1.344zM271.047 94.61h1.086c.682-.011 1.219-.19 1.609-.54.391-.349.586-.82.586-1.414 0-1.333-.664-2-1.992-2-.625 0-1.125.18-1.5.54-.37.353-.555.825-.555 1.413h-1.445c0-.9.328-1.648.984-2.242.662-.599 1.5-.898 2.516-.898 1.073 0 1.914.284 2.523.851.61.568.914 1.357.914 2.368 0 .494-.161.974-.484 1.437a2.88 2.88 0 01-1.305 1.04c.625.197 1.107.525 1.446.983.343.459.515 1.019.515 1.68 0 1.021-.333 1.83-1 2.43-.666.599-1.534.898-2.601.898-1.068 0-1.938-.289-2.61-.867-.666-.578-1-1.341-1-2.289h1.454c0 .599.195 1.078.585 1.438.391.359.915.539 1.571.539.698 0 1.232-.183 1.601-.547.37-.365.555-.888.555-1.57 0-.662-.203-1.17-.609-1.524-.407-.354-.993-.537-1.758-.547h-1.086v-1.18zm14.015 1.538c0 1.693-.289 2.951-.867 3.774-.578.823-1.481 1.234-2.711 1.234-1.213 0-2.112-.401-2.695-1.203-.583-.807-.885-2.01-.906-3.61v-1.929c0-1.672.289-2.914.867-3.727.578-.812 1.484-1.218 2.719-1.218 1.224 0 2.125.393 2.703 1.18.578.78.875 1.989.89 3.624v1.875zm-1.445-1.976c0-1.224-.172-2.115-.515-2.672-.344-.563-.888-.844-1.633-.844-.74 0-1.279.279-1.617.836-.339.557-.513 1.414-.524 2.57v2.313c0 1.23.177 2.138.531 2.727.36.583.901.875 1.625.875.714 0 1.243-.276 1.586-.829.349-.552.532-1.421.547-2.609v-2.367zM34.773 97.414l.22 1.5.32-1.352 2.25-7.937h1.265l2.195 7.938.313 1.374.242-1.53 1.766-7.782h1.508L42.094 101h-1.367l-2.344-8.29-.18-.866-.18.867-2.43 8.289h-1.366l-2.75-11.375h1.5l1.796 7.79zM51.25 101c-.083-.167-.151-.464-.203-.891-.672.698-1.474 1.047-2.406 1.047-.834 0-1.519-.234-2.055-.703-.531-.474-.797-1.073-.797-1.797 0-.88.333-1.562 1-2.047.672-.49 1.615-.734 2.828-.734h1.406v-.664c0-.505-.15-.906-.453-1.203-.302-.302-.747-.453-1.336-.453-.515 0-.948.13-1.297.39-.348.26-.523.576-.523.946h-1.453c0-.422.148-.829.445-1.22a3.095 3.095 0 011.219-.937 4.126 4.126 0 011.695-.343c.974 0 1.737.244 2.29.734.551.484.838 1.154.859 2.008v3.89c0 .776.099 1.394.297 1.852V101H51.25zm-2.398-1.102a2.54 2.54 0 001.289-.351c.406-.234.7-.54.882-.914v-1.735h-1.132c-1.771 0-2.657.519-2.657 1.555 0 .453.151.807.453 1.063.303.255.69.382 1.165.382zm7.25-7.351l.046 1.062c.646-.812 1.49-1.218 2.532-1.218 1.786 0 2.687 1.007 2.703 3.023V101h-1.446v-5.594c-.005-.61-.145-1.06-.421-1.351-.271-.292-.696-.438-1.274-.438-.469 0-.88.125-1.234.375s-.63.578-.828.985V101h-1.446v-8.453h1.368zm7.109 4.156c0-1.297.307-2.338.922-3.125.614-.791 1.42-1.187 2.414-1.187.99 0 1.773.338 2.351 1.015V89h1.446v12h-1.328l-.07-.906c-.579.708-1.383 1.062-2.415 1.062-.979 0-1.778-.401-2.398-1.203-.615-.802-.922-1.849-.922-3.14v-.11zm1.445.164c0 .959.198 1.709.594 2.25.396.542.943.813 1.64.813.917 0 1.587-.412 2.008-1.235v-3.882c-.432-.797-1.096-1.196-1.992-1.196-.708 0-1.26.274-1.656.82-.396.547-.594 1.357-.594 2.43zm12.86 1.89c0-.39-.149-.692-.446-.905-.291-.22-.804-.407-1.539-.563-.729-.156-1.31-.344-1.742-.562-.427-.22-.745-.48-.953-.782-.203-.302-.305-.661-.305-1.078 0-.693.292-1.279.875-1.758.589-.479 1.339-.718 2.25-.718.959 0 1.735.247 2.328.742.6.495.899 1.127.899 1.898H77.43c0-.396-.17-.737-.508-1.023-.334-.287-.755-.43-1.266-.43-.526 0-.937.115-1.234.344a1.081 1.081 0 00-.445.898c0 .35.138.612.414.79.276.177.773.346 1.492.507.724.162 1.31.354 1.758.578.447.224.778.495.992.813.219.312.328.695.328 1.148 0 .755-.302 1.362-.906 1.821-.605.453-1.388.679-2.352.679-.677 0-1.276-.12-1.797-.359-.52-.24-.93-.573-1.226-1a2.453 2.453 0 01-.438-1.399h1.445c.026.485.22.87.579 1.157.364.28.843.422 1.437.422.547 0 .984-.11 1.313-.329.333-.224.5-.52.5-.89zM86.062 101c-.083-.167-.15-.464-.203-.891-.671.698-1.474 1.047-2.406 1.047-.833 0-1.518-.234-2.055-.703-.53-.474-.796-1.073-.796-1.797 0-.88.333-1.562 1-2.047.671-.49 1.614-.734 2.828-.734h1.406v-.664c0-.505-.151-.906-.453-1.203-.302-.302-.748-.453-1.336-.453-.516 0-.948.13-1.297.39s-.523.576-.523.946h-1.454c0-.422.149-.829.446-1.22a3.088 3.088 0 011.219-.937 4.126 4.126 0 011.695-.343c.974 0 1.737.244 2.289.734.552.484.838 1.154.86 2.008v3.89c0 .776.098 1.394.296 1.852V101h-1.516zm-2.398-1.102a2.54 2.54 0 001.29-.351c.405-.234.7-.54.882-.914v-1.735h-1.133c-1.77 0-2.656.519-2.656 1.555 0 .453.15.807.453 1.063.302.255.69.382 1.164.382zm-1.89-9.609c0-.234.07-.43.21-.586.146-.161.36-.242.641-.242s.495.08.64.242a.825.825 0 01.22.586c0 .234-.073.43-.22.586-.145.156-.359.234-.64.234s-.495-.078-.64-.234a.843.843 0 01-.212-.586zm3.359.016c0-.235.07-.433.21-.594.147-.162.36-.242.641-.242.282 0 .495.08.641.242.146.161.219.36.219.594 0 .234-.073.43-.219.586-.146.156-.36.234-.64.234-.282 0-.495-.078-.641-.234a.843.843 0 01-.211-.586zm4.07 6.398c0-1.318.305-2.365.914-3.14.61-.782 1.417-1.172 2.422-1.172 1.031 0 1.836.364 2.414 1.093l.07-.937h1.32v8.25c0 1.094-.325 1.956-.976 2.586-.646.63-1.515.945-2.61.945-.609 0-1.205-.13-1.788-.39-.584-.261-1.029-.618-1.336-1.071l.75-.867c.62.766 1.377 1.148 2.273 1.148.703 0 1.25-.197 1.64-.593.397-.396.595-.953.595-1.672v-.727c-.579.667-1.368 1-2.368 1-.99 0-1.791-.398-2.406-1.195-.61-.797-.914-1.883-.914-3.258zm1.453.164c0 .953.196 1.703.586 2.25.39.542.938.813 1.64.813.912 0 1.581-.414 2.009-1.243v-3.859c-.443-.807-1.107-1.21-1.993-1.21-.703 0-1.252.273-1.648.82-.396.546-.594 1.356-.594 2.43zm11.383 4.289c-1.146 0-2.078-.375-2.797-1.125-.719-.755-1.078-1.763-1.078-3.023v-.266c0-.838.159-1.586.477-2.242.322-.662.77-1.177 1.343-1.547a3.38 3.38 0 011.875-.562c1.099 0 1.953.362 2.563 1.086.609.724.914 1.76.914 3.109v.602h-5.727c.021.833.263 1.507.727 2.023.469.51 1.062.766 1.781.766.511 0 .943-.105 1.297-.313.354-.208.664-.484.93-.828l.883.687c-.709 1.089-1.771 1.633-3.188 1.633zm-.18-7.578a1.92 1.92 0 00-1.468.64c-.396.423-.641 1.016-.735 1.782h4.235v-.11c-.042-.734-.24-1.302-.594-1.703-.354-.406-.833-.609-1.438-.609zm173.188 42.602h1.578v1.179h-1.578V140h-1.453v-2.641h-5.18v-.851l5.094-7.883h1.539v7.555zm-4.992 0h3.539v-5.578l-.172.312-3.367 5.266zM40.18 129.859h-3.657V140h-1.492v-10.141h-3.648v-1.234h8.797v1.234zm4.953 2.985a4.27 4.27 0 00-.711-.055c-.948 0-1.591.404-1.93 1.211v6h-1.445v-8.453h1.406l.024.976c.474-.755 1.145-1.132 2.015-1.132.281 0 .495.036.64.109v1.344zm4.687 7.312c-1.145 0-2.078-.375-2.797-1.125-.718-.755-1.078-1.763-1.078-3.023v-.266c0-.838.16-1.586.477-2.242.323-.661.77-1.177 1.344-1.547a3.38 3.38 0 011.875-.562c1.099 0 1.953.362 2.562 1.086.61.724.914 1.76.914 3.109v.602h-5.726c.02.833.263 1.507.726 2.023.469.51 1.063.766 1.781.766.51 0 .943-.105 1.297-.313.355-.208.664-.484.93-.828l.883.687c-.709 1.089-1.771 1.633-3.188 1.633zm-.18-7.578c-.583 0-1.072.214-1.468.641-.396.422-.64 1.015-.734 1.781h4.234v-.109c-.042-.735-.24-1.302-.594-1.703-.354-.407-.833-.61-1.437-.61zm6.524-1.031l.047 1.062c.646-.812 1.49-1.218 2.531-1.218 1.787 0 2.688 1.007 2.703 3.023V140H60v-5.594c-.005-.609-.146-1.06-.422-1.351-.27-.292-.695-.438-1.273-.438-.47 0-.88.125-1.235.375-.354.25-.63.578-.828.985V140h-1.445v-8.453h1.367zm8.828 0l.047 1.062c.646-.812 1.49-1.218 2.531-1.218 1.787 0 2.688 1.007 2.703 3.023V140h-1.445v-5.594c-.005-.609-.146-1.06-.422-1.351-.27-.292-.695-.438-1.273-.438-.469 0-.88.125-1.235.375-.354.25-.63.578-.828.985V140h-1.445v-8.453h1.367zm8.82 0l.04.937c.62-.729 1.455-1.093 2.507-1.093 1.183 0 1.987.453 2.414 1.359a3.215 3.215 0 011.094-.984c.453-.25.987-.375 1.602-.375 1.854 0 2.797.981 2.828 2.945V140h-1.445v-5.578c0-.604-.139-1.055-.415-1.352-.275-.302-.74-.453-1.39-.453-.537 0-.982.162-1.336.485-.354.317-.56.747-.617 1.289V140H77.64v-5.539c0-1.229-.602-1.844-1.805-1.844-.948 0-1.596.404-1.945 1.211V140h-1.446v-8.453h1.368zM91.703 140c-.083-.167-.15-.464-.203-.891-.672.698-1.474 1.047-2.406 1.047-.834 0-1.518-.234-2.055-.703-.531-.474-.797-1.073-.797-1.797 0-.88.334-1.562 1-2.047.672-.489 1.615-.734 2.828-.734h1.407v-.664c0-.505-.151-.906-.454-1.203-.302-.302-.747-.453-1.335-.453-.516 0-.948.13-1.297.39-.35.261-.524.576-.524.946h-1.453c0-.422.148-.829.445-1.219.303-.396.709-.708 1.22-.938a4.13 4.13 0 011.694-.343c.974 0 1.737.244 2.29.734.552.484.838 1.154.859 2.008v3.89c0 .776.099 1.394.297 1.852V140h-1.516zm-2.398-1.102c.453 0 .882-.117 1.289-.351.406-.235.7-.539.883-.914v-1.735h-1.133c-1.771 0-2.656.519-2.656 1.555 0 .453.15.807.453 1.063.302.255.69.382 1.164.382zm10.804-1.14c0-.391-.148-.693-.445-.906-.292-.219-.805-.407-1.539-.563-.73-.156-1.31-.344-1.742-.562-.427-.219-.745-.48-.953-.782-.203-.302-.305-.661-.305-1.078 0-.693.292-1.278.875-1.758.588-.479 1.338-.718 2.25-.718.958 0 1.734.247 2.328.742.599.495.899 1.127.899 1.898h-1.454c0-.396-.169-.737-.507-1.023-.334-.287-.756-.43-1.266-.43-.526 0-.938.115-1.234.344a1.082 1.082 0 00-.446.898c0 .349.138.612.414.789.276.177.774.347 1.493.508.724.162 1.31.354 1.757.578.448.224.779.495.993.813.218.312.328.695.328 1.148 0 .755-.302 1.362-.907 1.821-.604.453-1.388.679-2.351.679-.677 0-1.276-.12-1.797-.359-.52-.24-.93-.573-1.227-1a2.454 2.454 0 01-.437-1.399h1.445c.026.485.219.87.578 1.157.365.281.844.422 1.438.422.547 0 .984-.11 1.312-.329.334-.224.5-.52.5-.89zm6.719 1.219c.516 0 .966-.157 1.352-.469.385-.313.599-.703.64-1.172h1.368a2.635 2.635 0 01-.5 1.383 3.3 3.3 0 01-1.235 1.047 3.53 3.53 0 01-1.625.39c-1.151 0-2.068-.383-2.75-1.148-.677-.771-1.016-1.823-1.016-3.156v-.243c0-.823.152-1.554.454-2.195a3.457 3.457 0 011.296-1.492c.568-.354 1.237-.531 2.008-.531.948 0 1.735.283 2.36.851.63.568.966 1.305 1.008 2.211h-1.368c-.041-.547-.25-.995-.625-1.344-.369-.354-.828-.531-1.375-.531-.734 0-1.304.266-1.711.797-.401.526-.601 1.289-.601 2.289v.274c0 .973.2 1.723.601 2.25.401.526.974.789 1.719.789zm6.43-6.407c.64-.786 1.474-1.179 2.5-1.179 1.786 0 2.687 1.007 2.703 3.023V140h-1.445v-5.594c-.006-.609-.146-1.06-.422-1.351-.271-.292-.696-.438-1.274-.438-.468 0-.88.125-1.234.375s-.63.578-.828.985V140h-1.446v-12h1.446v4.57zm8.937 7.43h-1.445v-8.453h1.445V140zm-1.562-10.695a.87.87 0 01.211-.594c.146-.162.359-.242.64-.242.282 0 .495.08.641.242a.852.852 0 01.219.594.827.827 0 01-.219.586c-.146.156-.359.234-.641.234-.281 0-.494-.078-.64-.234a.844.844 0 01-.211-.586zm5.25 2.242l.047 1.062c.646-.812 1.489-1.218 2.531-1.218 1.786 0 2.687 1.007 2.703 3.023V140h-1.445v-5.594c-.005-.609-.146-1.06-.422-1.351-.271-.292-.695-.438-1.274-.438-.468 0-.88.125-1.234.375s-.63.578-.828.985V140h-1.445v-8.453h1.367zm10.969 8.609c-1.146 0-2.079-.375-2.797-1.125-.719-.755-1.078-1.763-1.078-3.023v-.266c0-.838.158-1.586.476-2.242.323-.661.771-1.177 1.344-1.547a3.38 3.38 0 011.875-.562c1.099 0 1.953.362 2.562 1.086.61.724.914 1.76.914 3.109v.602h-5.726c.021.833.263 1.507.726 2.023.469.51 1.063.766 1.782.766.51 0 .942-.105 1.297-.313a3.24 3.24 0 00.929-.828l.883.687c-.708 1.089-1.771 1.633-3.187 1.633zm-.18-7.578c-.583 0-1.073.214-1.469.641-.396.422-.641 1.015-.734 1.781h4.234v-.109c-.042-.735-.239-1.302-.594-1.703-.354-.407-.833-.61-1.437-.61zm6.523-1.031l.047 1.062c.646-.812 1.49-1.218 2.531-1.218 1.787 0 2.688 1.007 2.704 3.023V140h-1.446v-5.594c-.005-.609-.146-1.06-.422-1.351-.27-.292-.695-.438-1.273-.438-.469 0-.88.125-1.234.375-.355.25-.631.578-.829.985V140h-1.445v-8.453h1.367zM276.367 20.363h-4.623L270.865 23h-2.803l4.763-12.797h2.444L280.059 23h-2.804l-.888-2.637zm-3.911-2.136h3.199l-1.608-4.79-1.591 4.79zm13.781 2.145c0-.31-.155-.554-.466-.73-.304-.181-.796-.342-1.476-.483-2.262-.474-3.393-1.435-3.393-2.883 0-.843.349-1.546 1.046-2.109.703-.568 1.62-.852 2.751-.852 1.207 0 2.171.284 2.892.852.726.568 1.09 1.307 1.09 2.215h-2.54c0-.363-.118-.662-.352-.897-.234-.24-.601-.36-1.099-.36-.427 0-.758.097-.993.29a.916.916 0 00-.351.738c0 .282.132.51.395.686.27.17.721.32 1.354.448a10.67 10.67 0 011.599.422c1.342.492 2.013 1.345 2.013 2.558 0 .867-.372 1.57-1.116 2.109-.744.533-1.705.8-2.883.8-.797 0-1.506-.14-2.127-.422-.615-.287-1.099-.677-1.45-1.169a2.732 2.732 0 01-.527-1.608h2.408c.023.45.19.796.501 1.037.31.24.726.36 1.248.36.486 0 .852-.09 1.098-.272a.87.87 0 00.378-.73zm9.264 0c0-.31-.155-.554-.466-.73-.305-.181-.797-.342-1.476-.483-2.262-.474-3.393-1.435-3.393-2.883 0-.843.349-1.546 1.046-2.109.703-.568 1.62-.852 2.751-.852 1.207 0 2.171.284 2.891.852.727.568 1.09 1.307 1.09 2.215h-2.54c0-.363-.117-.662-.351-.897-.235-.24-.601-.36-1.099-.36-.428 0-.759.097-.993.29a.917.917 0 00-.352.738c0 .282.132.51.396.686.269.17.721.32 1.353.448a10.72 10.72 0 011.6.422c1.342.492 2.013 1.345 2.013 2.558 0 .867-.372 1.57-1.117 2.109-.744.533-1.705.8-2.882.8-.797 0-1.506-.14-2.127-.422-.616-.287-1.099-.677-1.45-1.169a2.733 2.733 0 01-.528-1.608h2.408c.024.45.191.796.501 1.037.311.24.727.36 1.248.36.487 0 .853-.09 1.099-.272a.87.87 0 00.378-.73zm8.49 2.804c-1.394 0-2.531-.428-3.41-1.283-.873-.856-1.31-1.995-1.31-3.42v-.245c0-.956.185-1.808.554-2.558.369-.756.891-1.336 1.565-1.74.679-.41 1.453-.615 2.32-.615 1.301 0 2.323.41 3.067 1.23.75.82 1.125 1.983 1.125 3.49v1.036h-6.055c.082.621.328 1.12.738 1.494.416.375.94.563 1.573.563.979 0 1.743-.355 2.294-1.064l1.248 1.398c-.381.539-.896.96-1.547 1.265-.65.3-1.371.449-2.162.449zm-.29-7.805c-.504 0-.914.17-1.23.51-.311.34-.51.826-.598 1.459h3.533v-.202c-.011-.563-.164-.996-.457-1.301-.293-.31-.709-.466-1.248-.466zm8.693-4.219v2.338h1.626v1.864h-1.626V20.1c0 .351.067.603.202.755.134.153.392.229.773.229.281 0 .53-.02.747-.061v1.924a5.231 5.231 0 01-1.538.229c-1.781 0-2.689-.9-2.724-2.698v-5.125h-1.389V13.49h1.389v-2.338h2.54zm11.478 9.976c.469 0 .85-.129 1.143-.387.293-.258.445-.6.457-1.028h2.382a3.28 3.28 0 01-.528 1.775c-.346.534-.82.95-1.424 1.248a4.446 4.446 0 01-1.986.44c-1.359 0-2.432-.43-3.217-1.292-.785-.867-1.178-2.063-1.178-3.586v-.167c0-1.465.39-2.634 1.169-3.507.78-.873 1.849-1.31 3.208-1.31 1.19 0 2.142.34 2.857 1.02.721.674 1.087 1.573 1.099 2.698h-2.382c-.012-.492-.164-.89-.457-1.195-.293-.31-.68-.466-1.161-.466-.591 0-1.04.217-1.344.65-.299.428-.448 1.125-.448 2.092v.264c0 .979.149 1.682.448 2.11.299.427.753.64 1.362.64zm5.036-2.97c0-.944.182-1.785.545-2.523a3.995 3.995 0 011.565-1.714c.685-.404 1.479-.606 2.381-.606 1.284 0 2.33.392 3.138 1.177.815.785 1.269 1.852 1.362 3.2l.018.65c0 1.459-.407 2.63-1.222 3.515-.814.88-1.907 1.319-3.278 1.319s-2.467-.44-3.287-1.319c-.815-.878-1.222-2.074-1.222-3.585v-.115zm2.54.184c0 .902.17 1.594.51 2.074.34.475.826.712 1.459.712.615 0 1.096-.234 1.441-.703.346-.475.519-1.23.519-2.268 0-.884-.173-1.57-.519-2.056-.345-.487-.832-.73-1.459-.73-.621 0-1.101.243-1.441.73-.34.48-.51 1.227-.51 2.24zm13.729 3.691c-.627.762-1.494 1.143-2.602 1.143-1.019 0-1.799-.293-2.338-.88-.533-.585-.805-1.444-.817-2.574V13.49h2.54v6.144c0 .99.451 1.485 1.353 1.485.862 0 1.454-.299 1.776-.896V13.49h2.549V23h-2.391l-.07-.967zm6.715-8.543l.079 1.099c.679-.85 1.591-1.274 2.733-1.274 1.008 0 1.758.295 2.25.887.492.592.744 1.477.756 2.654V23h-2.54v-6.082c0-.54-.117-.929-.352-1.169-.234-.246-.624-.37-1.169-.37-.714 0-1.251.306-1.608.915V23h-2.54v-9.51h2.391zm10.793-2.338v2.338h1.626v1.864h-1.626V20.1c0 .351.067.603.202.755.134.153.392.229.773.229.281 0 .53-.02.747-.061v1.924a5.231 5.231 0 01-1.538.229c-1.781 0-2.689-.9-2.724-2.698v-5.125h-1.389V13.49h1.389v-2.338h2.54zM42.549 23h-2.637l-5.133-8.42V23h-2.636V10.203h2.636l5.142 8.438v-8.438h2.628V23zm7.646 0a2.822 2.822 0 01-.255-.852c-.615.685-1.415 1.028-2.399 1.028-.932 0-1.705-.27-2.32-.809-.61-.539-.914-1.219-.914-2.039 0-1.008.372-1.781 1.116-2.32.75-.54 1.83-.812 3.243-.818h1.169v-.545c0-.439-.114-.79-.343-1.054-.222-.264-.577-.396-1.063-.396-.428 0-.765.103-1.011.308-.24.205-.36.486-.36.844h-2.54c0-.551.17-1.06.51-1.53.34-.468.82-.835 1.44-1.098.622-.27 1.32-.404 2.092-.404 1.172 0 2.101.295 2.787.887.691.586 1.037 1.412 1.037 2.479v4.122c.006.902.132 1.585.378 2.048V23h-2.567zm-2.1-1.767c.375 0 .72-.082 1.037-.246.316-.17.55-.395.703-.676v-1.635h-.95c-1.27 0-1.947.44-2.03 1.318l-.008.15c0 .316.111.577.334.782.222.205.527.307.914.307zm8.622-7.743l.079 1.064c.674-.827 1.585-1.24 2.733-1.24 1.225 0 2.066.484 2.523 1.45.668-.966 1.62-1.45 2.856-1.45 1.031 0 1.799.302 2.303.906.504.597.756 1.5.756 2.707V23h-2.549v-6.064c0-.54-.106-.932-.316-1.178-.211-.252-.583-.378-1.117-.378-.761 0-1.289.363-1.582 1.09l.01 6.53h-2.54v-6.056c0-.55-.11-.949-.326-1.195-.217-.246-.586-.37-1.107-.37-.721 0-1.243.3-1.565.897V23h-2.54v-9.51h2.382zm17.587 9.686c-1.395 0-2.532-.428-3.41-1.283-.874-.856-1.31-1.995-1.31-3.42v-.245c0-.956.185-1.808.554-2.558.369-.756.89-1.336 1.564-1.74.68-.41 1.453-.615 2.32-.615 1.301 0 2.324.41 3.068 1.23.75.82 1.125 1.983 1.125 3.49v1.036h-6.056c.082.621.328 1.12.738 1.494.416.375.94.563 1.574.563.978 0 1.743-.355 2.294-1.064l1.248 1.398c-.381.539-.897.96-1.547 1.265-.65.3-1.371.449-2.162.449zm-.29-7.805c-.504 0-.914.17-1.23.51-.311.34-.51.826-.599 1.459h3.534v-.202c-.012-.563-.164-.996-.457-1.301-.293-.31-.71-.466-1.248-.466z" fill="#000"/><path d="M200.5 11l8.227 9h-16.454l8.227-9z" fill="#151515"/><path d="M275.047 174.18h1.578v1.179h-1.578V178h-1.453v-2.641h-5.18v-.851l5.094-7.883h1.539v7.555zm-4.992 0h3.539v-5.578l-.172.312-3.367 5.266zm15.328 3.82h-7.453v-1.039l3.937-4.375c.584-.662.985-1.198 1.203-1.609.224-.417.336-.847.336-1.289 0-.594-.179-1.081-.539-1.461-.359-.381-.838-.571-1.437-.571-.719 0-1.279.206-1.68.617-.396.407-.594.974-.594 1.704h-1.445c0-1.047.336-1.894 1.008-2.539.677-.646 1.58-.969 2.711-.969 1.057 0 1.893.278 2.508.836.614.552.921 1.289.921 2.211 0 1.119-.713 2.453-2.14 4l-3.047 3.304h5.711V178zM32.32 178v-11.375h3.72c1.233 0 2.16.255 2.78.766.625.51.938 1.265.938 2.265 0 .532-.151 1.003-.453 1.414-.302.407-.714.722-1.235.946.615.172 1.1.5 1.453.984.36.479.54 1.052.54 1.719 0 1.021-.331 1.823-.993 2.406-.661.583-1.596.875-2.804.875H32.32zm1.5-5.32v4.093h2.477c.698 0 1.247-.179 1.648-.539.407-.364.61-.864.61-1.5 0-1.369-.745-2.054-2.235-2.054h-2.5zm0-1.203h2.266c.656 0 1.18-.165 1.57-.493.396-.328.594-.773.594-1.336 0-.625-.182-1.078-.547-1.359-.364-.286-.92-.43-1.664-.43H33.82v3.618zm11.75 6.679c-1.145 0-2.078-.375-2.797-1.125-.718-.755-1.078-1.763-1.078-3.023v-.266c0-.838.16-1.586.477-2.242.323-.661.77-1.177 1.344-1.547a3.38 3.38 0 011.875-.562c1.099 0 1.953.362 2.562 1.086.61.724.914 1.76.914 3.109v.602h-5.726c.02.833.263 1.507.726 2.023.469.51 1.063.766 1.781.766.51 0 .943-.105 1.297-.313.355-.208.664-.484.93-.828l.883.687c-.709 1.089-1.771 1.633-3.188 1.633zm-.18-7.578c-.583 0-1.072.214-1.468.641-.396.422-.64 1.015-.734 1.781h4.234v-.109c-.042-.735-.24-1.302-.594-1.703-.354-.407-.833-.61-1.437-.61zm6.524-1.031l.047 1.062c.646-.812 1.49-1.218 2.531-1.218 1.787 0 2.688 1.007 2.703 3.023V178H55.75v-5.594c-.005-.609-.146-1.06-.422-1.351-.27-.292-.695-.438-1.273-.438-.47 0-.88.125-1.235.375-.354.25-.63.578-.828.985V178h-1.445v-8.453h1.367zm8.82 7.273h4.946V178h-6.711v-1.062l4.664-6.196h-4.594v-1.195h6.406v1.023l-4.71 6.25zm8.149 1.18h-1.445v-8.453h1.445V178zm-1.563-10.695a.87.87 0 01.211-.594c.146-.162.36-.242.64-.242.282 0 .496.08.641.242a.853.853 0 01.22.594.828.828 0 01-.22.586c-.145.156-.359.234-.64.234s-.495-.078-.64-.234a.845.845 0 01-.212-.586zm5.25 2.242l.047 1.062c.646-.812 1.49-1.218 2.531-1.218 1.787 0 2.688 1.007 2.704 3.023V178h-1.446v-5.594c-.005-.609-.146-1.06-.422-1.351-.27-.292-.695-.438-1.273-.438-.469 0-.88.125-1.234.375-.355.25-.63.578-.829.985V178h-1.445v-8.453h1.367zm9.422-2.047v2.047h1.578v1.117h-1.578v5.242c0 .339.07.594.211.766.14.167.38.25.719.25.166 0 .396-.031.687-.094V178c-.38.104-.75.156-1.109.156-.646 0-1.133-.195-1.46-.586-.33-.39-.493-.945-.493-1.664v-5.242h-1.54v-1.117h1.54V167.5h1.445zm7.36 3.344a4.272 4.272 0 00-.711-.055c-.948 0-1.592.404-1.93 1.211v6h-1.445v-8.453h1.406l.023.976c.474-.755 1.146-1.132 2.016-1.132.281 0 .495.036.64.109v1.344zm4.687 7.312c-1.146 0-2.078-.375-2.797-1.125-.719-.755-1.078-1.763-1.078-3.023v-.266c0-.838.159-1.586.477-2.242.322-.661.77-1.177 1.343-1.547a3.38 3.38 0 011.875-.562c1.1 0 1.954.362 2.563 1.086.61.724.914 1.76.914 3.109v.602h-5.727c.021.833.263 1.507.727 2.023.469.51 1.062.766 1.781.766.51 0 .943-.105 1.297-.313.354-.208.664-.484.93-.828l.883.687c-.709 1.089-1.771 1.633-3.188 1.633zm-.18-7.578c-.583 0-1.072.214-1.468.641-.396.422-.641 1.015-.735 1.781h4.235v-.109c-.042-.735-.24-1.302-.594-1.703-.354-.407-.834-.61-1.438-.61zm6.524-1.031l.047 1.062c.646-.812 1.489-1.218 2.531-1.218 1.786 0 2.687 1.007 2.703 3.023V178h-1.445v-5.594c-.005-.609-.146-1.06-.422-1.351-.271-.292-.695-.438-1.274-.438-.468 0-.88.125-1.234.375s-.63.578-.828.985V178h-1.445v-8.453h1.367zm8.828 0l.047 1.062c.646-.812 1.489-1.218 2.531-1.218 1.787 0 2.688 1.007 2.703 3.023V178h-1.445v-5.594c-.005-.609-.146-1.06-.422-1.351-.271-.292-.695-.438-1.273-.438-.469 0-.881.125-1.235.375-.354.25-.63.578-.828.985V178h-1.445v-8.453h1.367zm10.969 8.609c-1.146 0-2.078-.375-2.797-1.125-.719-.755-1.078-1.763-1.078-3.023v-.266c0-.838.159-1.586.476-2.242.323-.661.771-1.177 1.344-1.547a3.38 3.38 0 011.875-.562c1.099 0 1.953.362 2.562 1.086.61.724.915 1.76.915 3.109v.602h-5.727c.021.833.263 1.507.727 2.023.468.51 1.062.766 1.781.766.51 0 .943-.105 1.297-.313a3.24 3.24 0 00.929-.828l.883.687c-.708 1.089-1.771 1.633-3.187 1.633zm-.18-7.578c-.583 0-1.073.214-1.469.641-.396.422-.64 1.015-.734 1.781h4.234v-.109c-.041-.735-.239-1.302-.593-1.703-.355-.407-.834-.61-1.438-.61zm9.242.266a4.276 4.276 0 00-.711-.055c-.948 0-1.591.404-1.929 1.211v6h-1.446v-8.453h1.406l.024.976c.474-.755 1.146-1.132 2.016-1.132.281 0 .494.036.64.109v1.344zm141.805 40.765h1.086c.682-.01 1.219-.19 1.609-.539.391-.349.586-.82.586-1.414 0-1.333-.664-2-1.992-2-.625 0-1.125.18-1.5.539-.37.354-.555.826-.555 1.414h-1.445c0-.901.328-1.648.984-2.242.662-.599 1.5-.898 2.516-.898 1.073 0 1.914.284 2.523.851.61.568.914 1.357.914 2.368 0 .494-.161.973-.484 1.437-.318.464-.753.81-1.305 1.039.625.198 1.107.526 1.446.984.343.459.515 1.019.515 1.68 0 1.021-.333 1.831-1 2.43-.666.599-1.534.898-2.601.898-1.068 0-1.938-.289-2.61-.867-.666-.578-1-1.341-1-2.289h1.454c0 .599.195 1.078.585 1.438.391.359.915.539 1.571.539.698 0 1.232-.183 1.601-.547.37-.365.555-.888.555-1.571 0-.661-.203-1.169-.609-1.523-.407-.354-.993-.537-1.758-.547h-1.086v-1.18zm12.984 2.571h1.578v1.179h-1.578V218h-1.453v-2.641h-5.18v-.851l5.094-7.883h1.539v7.555zm-4.992 0h3.539v-5.578l-.172.312-3.367 5.266zm-244.266.234l.22 1.5.32-1.352 2.25-7.937h1.265l2.195 7.937.313 1.376.242-1.532 1.766-7.781h1.508L42.094 218h-1.367l-2.344-8.289-.18-.867-.18.867-2.43 8.289h-1.366l-2.75-11.375h1.5l1.796 7.789zM47.867 218h-1.445v-8.453h1.445V218zm-1.562-10.695c0-.235.07-.433.21-.594.146-.162.36-.242.641-.242.282 0 .495.08.64.242a.853.853 0 01.22.594.828.828 0 01-.22.586c-.145.156-.358.234-.64.234-.281 0-.495-.078-.64-.234a.845.845 0 01-.211-.586zm5.25 2.242l.047 1.062c.645-.812 1.49-1.218 2.53-1.218 1.787 0 2.688 1.007 2.704 3.023V218H55.39v-5.594c-.006-.609-.146-1.06-.422-1.351-.271-.292-.696-.438-1.274-.438-.468 0-.88.125-1.234.375s-.63.578-.828.985V218h-1.446v-8.453h1.368zm9.82 4.539l-.906.945V218h-1.446v-12h1.446v7.258l.773-.93 2.633-2.781h1.758l-3.29 3.531L66.017 218H64.32l-2.945-3.914zm9.102 4.07c-1.146 0-2.079-.375-2.797-1.125-.72-.755-1.078-1.763-1.078-3.023v-.266c0-.838.158-1.586.476-2.242.323-.661.771-1.177 1.344-1.547a3.38 3.38 0 011.875-.562c1.099 0 1.953.362 2.562 1.086.61.724.914 1.76.914 3.109v.602h-5.726c.02.833.263 1.507.726 2.023.47.51 1.063.766 1.782.766.51 0 .942-.105 1.297-.313a3.25 3.25 0 00.93-.828l.882.687c-.708 1.089-1.77 1.633-3.187 1.633zm-.18-7.578c-.584 0-1.073.214-1.469.641-.396.422-.64 1.015-.734 1.781h4.234v-.109c-.041-.735-.24-1.302-.594-1.703-.354-.407-.833-.61-1.437-.61zM77.023 218h-1.445v-12h1.445v12zm7.243-2.242c0-.391-.149-.693-.446-.906-.291-.219-.804-.407-1.539-.563-.729-.156-1.31-.344-1.742-.562-.427-.219-.745-.48-.953-.782-.203-.302-.305-.661-.305-1.078 0-.693.292-1.278.875-1.758.589-.479 1.339-.718 2.25-.718.959 0 1.735.247 2.328.742.6.495.899 1.127.899 1.898H84.18c0-.396-.17-.737-.508-1.023-.334-.287-.755-.43-1.266-.43-.526 0-.937.115-1.234.344a1.082 1.082 0 00-.445.898c0 .349.138.612.414.789.276.177.773.347 1.492.508.724.162 1.31.354 1.758.578.447.224.778.495.992.813.219.312.328.695.328 1.148 0 .755-.302 1.362-.906 1.821-.605.453-1.388.679-2.352.679-.677 0-1.276-.12-1.797-.359-.52-.24-.93-.573-1.226-1a2.453 2.453 0 01-.438-1.399h1.445c.026.485.22.87.579 1.157.364.281.843.422 1.437.422.547 0 .984-.11 1.313-.329.333-.224.5-.52.5-.89zm6.718 1.219c.516 0 .967-.157 1.352-.469.385-.313.599-.703.64-1.172h1.368a2.625 2.625 0 01-.5 1.383 3.296 3.296 0 01-1.235 1.047 3.53 3.53 0 01-1.625.39c-1.15 0-2.067-.383-2.75-1.148-.677-.771-1.015-1.823-1.015-3.156v-.243c0-.823.15-1.554.453-2.195a3.456 3.456 0 011.297-1.492c.568-.354 1.237-.531 2.008-.531.947 0 1.734.283 2.359.851.63.568.966 1.305 1.008 2.211h-1.367c-.042-.547-.25-.995-.625-1.344-.37-.354-.829-.531-1.375-.531-.735 0-1.305.266-1.711.797-.401.526-.602 1.289-.602 2.289v.274c0 .973.2 1.723.602 2.25.4.526.974.789 1.718.789zm6.43-6.407c.64-.786 1.474-1.179 2.5-1.179 1.787 0 2.688 1.007 2.703 3.023V218h-1.445v-5.594c-.005-.609-.146-1.06-.422-1.351-.271-.292-.695-.438-1.273-.438-.47 0-.88.125-1.235.375-.354.25-.63.578-.828.985V218H95.97v-12h1.445v4.57zm8.938 7.43h-1.446v-12h1.446v12zm5.828.156c-1.146 0-2.078-.375-2.797-1.125-.719-.755-1.078-1.763-1.078-3.023v-.266c0-.838.159-1.586.476-2.242.323-.661.771-1.177 1.344-1.547a3.38 3.38 0 011.875-.562c1.099 0 1.953.362 2.562 1.086.61.724.915 1.76.915 3.109v.602h-5.727c.021.833.263 1.507.727 2.023.468.51 1.062.766 1.781.766.51 0 .943-.105 1.297-.313a3.24 3.24 0 00.929-.828l.883.687c-.708 1.089-1.771 1.633-3.187 1.633zm-.18-7.578c-.583 0-1.073.214-1.469.641-.396.422-.64 1.015-.734 1.781h4.234v-.109c-.041-.735-.239-1.302-.593-1.703-.355-.407-.834-.61-1.438-.61zm6.727 7.422h-1.446v-8.453h1.446V218zm-1.563-10.695a.87.87 0 01.211-.594c.146-.162.359-.242.641-.242.281 0 .494.08.64.242a.852.852 0 01.219.594.827.827 0 01-.219.586c-.146.156-.359.234-.64.234-.282 0-.495-.078-.641-.234a.844.844 0 01-.211-.586zM121.758 218v-7.336h-1.336v-1.117h1.336v-.867c0-.907.242-1.607.726-2.102.485-.495 1.17-.742 2.055-.742.333 0 .664.044.992.133l-.078 1.172a4.139 4.139 0 00-.781-.071c-.469 0-.831.138-1.086.414-.255.271-.383.662-.383 1.172v.891h1.805v1.117h-1.805V218h-1.445zm8.172.156c-1.146 0-2.078-.375-2.797-1.125-.719-.755-1.078-1.763-1.078-3.023v-.266c0-.838.159-1.586.476-2.242.323-.661.771-1.177 1.344-1.547a3.38 3.38 0 011.875-.562c1.099 0 1.953.362 2.562 1.086.61.724.915 1.76.915 3.109v.602H127.5c.021.833.263 1.507.727 2.023.468.51 1.062.766 1.781.766.51 0 .943-.105 1.297-.313a3.24 3.24 0 00.929-.828l.883.687c-.708 1.089-1.771 1.633-3.187 1.633zm-.18-7.578c-.583 0-1.073.214-1.469.641-.396.422-.64 1.015-.734 1.781h4.234v-.109c-.041-.735-.239-1.302-.593-1.703-.355-.407-.834-.61-1.438-.61zm9.242.266a4.276 4.276 0 00-.711-.055c-.948 0-1.591.404-1.929 1.211v6h-1.446v-8.453h1.406l.024.976c.474-.755 1.146-1.132 2.016-1.132.281 0 .494.036.64.109v1.344z" fill="#000"/></svg>